<svg width="151" height="39" viewBox="0 0 151 39" fill="none" xmlns="http://www.w3.org/2000/svg">
<path d="M129.374 38.0003C129.066 37.8773 128.735 37.8885 128.404 37.8438C120.361 36.7258 114.006 30.8229 112.5 22.9859C111.564 18.1674 112.18 13.5502 114.713 9.26831C117.44 4.63989 121.547 1.78906 126.83 0.536923C127.891 0.279789 128.975 0.134452 130.07 0.0673734C130.15 0.0673734 130.253 0.0785532 130.321 0.0114746H132.728C133.208 0.0785532 133.698 0.0785532 134.177 0.0897329C135.261 0.123272 136.311 0.358047 137.338 0.648721C140.053 1.39776 142.484 2.67226 144.594 4.48338C146.351 5.99265 147.789 7.77023 148.861 9.8273C149.774 11.5713 150.413 13.3936 150.755 15.3166C150.892 16.088 150.892 16.8594 150.915 17.642C150.915 17.7202 150.892 17.7985 150.938 17.8655V20.2804C150.869 20.817 150.869 21.3648 150.835 21.9014C150.778 22.93 150.516 23.925 150.219 24.9088C149.569 27.0889 148.553 29.09 147.139 30.89C145.541 32.947 143.579 34.6017 141.263 35.8426C139.494 36.7929 137.623 37.4413 135.638 37.8214C135.033 37.9332 134.417 37.9332 133.801 37.9779C133.721 37.9779 133.641 37.9556 133.573 38.0115H129.351L129.374 38.0003Z" fill="#A1A2A1"/>
<path d="M0.9375 29.85C1.18851 29.3358 1.32542 28.7768 1.50797 28.229C3.3563 22.7509 5.19322 17.2616 7.04155 11.7835C7.16706 11.4258 7.31538 11.068 7.45229 10.7103C7.60062 10.3302 7.64626 9.9277 7.63485 9.52523C7.61203 8.9886 7.37243 8.68675 6.82477 8.54141C6.45967 8.45197 6.08316 8.46315 5.71806 8.47433C5.48987 8.47433 5.38718 8.42961 5.39859 8.17248C5.42141 7.71411 5.41 7.25574 5.39859 6.79737C5.39859 6.60731 5.44423 6.52905 5.66101 6.52905C8.53619 6.52905 11.4228 6.52905 14.298 6.54023C15.553 6.54023 16.1919 7.0545 16.5228 8.2172C18.5651 15.3275 20.6074 22.4378 22.6497 29.5482C22.6725 29.6153 22.6839 29.6823 22.7067 29.7382C22.7752 29.8947 22.7067 29.9506 22.547 29.9395C22.5128 29.9395 22.4671 29.9395 22.4329 29.9395C20.6987 29.9395 18.953 29.9395 17.2188 29.9395C16.9906 29.9395 16.8993 29.8724 16.8309 29.66C16.3288 27.9606 15.804 26.2725 15.302 24.5732C15.2335 24.3496 15.1537 24.249 14.8913 24.249C12.7463 24.2601 10.5899 24.249 8.44492 24.249C8.21673 24.249 8.12545 24.316 8.0684 24.5285C7.56639 26.239 7.03014 27.9383 6.52813 29.6376C6.45967 29.8612 6.35699 29.9283 6.1288 29.9283C4.52007 29.9283 2.91133 29.9283 1.29119 29.9283C1.1771 29.9283 1.063 29.9283 0.9375 29.9395C0.9375 29.9059 0.9375 29.8612 0.9375 29.8277L0.9375 29.85Z" fill="#A1A2A1"/>
<path d="M76.6937 14.981C77.1045 14.6568 77.4468 14.3773 77.7891 14.1201C78.8159 13.3487 79.8998 12.6668 81.1891 12.3761C82.1589 12.1637 83.1515 12.1301 84.1213 12.3649C85.8327 12.7786 86.7112 13.9189 87.0079 15.5735C87.1448 16.3673 87.179 17.1722 87.179 17.9772C87.179 21.8565 87.179 25.7471 87.179 29.6265C87.179 29.8836 87.1106 29.9619 86.8367 29.9619C85.2851 29.9507 83.7334 29.9507 82.1817 29.9619C81.9193 29.9619 81.8394 29.8948 81.8394 29.6265C81.8394 26.0601 81.8394 22.4938 81.8394 18.9274C81.8394 18.4467 81.8394 17.966 81.7139 17.4964C81.5656 16.9151 81.2803 16.6468 80.6756 16.5685C79.8656 16.4679 79.1011 16.6356 78.3938 17.0269C77.9374 17.284 77.538 17.6194 77.1387 17.9548C77.0132 18.0666 77.036 18.1896 77.036 18.3237C77.036 22.0578 77.036 25.7806 77.036 29.5147C77.036 29.9954 77.1045 29.9395 76.6025 29.9507C75.0964 29.9507 73.5904 29.9507 72.0957 29.9507C71.8371 29.9507 71.7078 29.8277 71.7078 29.5817C71.7078 25.0539 71.7078 20.5373 71.7078 16.0095C71.7078 15.8754 71.7078 15.7412 71.7078 15.607C71.685 14.8356 71.2971 14.422 70.5212 14.3437C70.179 14.3065 70.0078 14.1127 70.0078 13.7624C70.0078 13.3935 70.0078 13.0133 70.0078 12.6444C70.0078 12.4767 70.0535 12.4096 70.236 12.4096C71.9018 12.4096 73.579 12.4096 75.2447 12.4208C76.1689 12.432 76.6595 12.9463 76.6937 13.8518C76.7052 14.2096 76.6937 14.5561 76.6937 14.9922V14.981Z" fill="#A1A2A1"/>
<path d="M62.2832 27.86C62.112 27.8824 62.055 27.983 61.9637 28.0612C60.7429 29.0898 59.3738 29.8276 57.7536 30.04C56.9093 30.1518 56.0536 30.1407 55.2207 29.9394C53.9429 29.6376 53.0643 28.8774 52.665 27.6476C52.163 26.0824 52.1516 24.4949 52.6422 22.9297C53.11 21.4428 54.2053 20.5373 55.6429 19.9671C57.1375 19.3634 58.712 19.1062 60.2865 18.8268C60.8113 18.7373 61.3476 18.6479 61.8724 18.5696C62.0436 18.5473 62.1006 18.4802 62.1006 18.3125C62.0892 18.0442 62.1006 17.7759 62.055 17.5075C61.9181 16.5349 61.4503 16.0877 60.4462 16.0095C59.157 15.92 57.9133 16.1436 56.6925 16.479C56.0422 16.6579 55.4147 16.8815 54.7986 17.1498C54.6046 17.2392 54.5133 17.2057 54.4335 16.9933C54.1026 16.0877 53.7717 15.171 53.418 14.2766C53.3382 14.0754 53.3724 13.9859 53.5778 13.8741C55.0153 13.1139 56.5556 12.6779 58.1529 12.4208C59.8986 12.1413 61.6442 12.0518 63.4013 12.3313C65.2154 12.622 66.4704 13.5499 66.9382 15.3498C67.0751 15.8641 67.155 16.4007 67.2006 16.9374C67.2577 17.5634 67.2577 18.2007 67.2463 18.8268C67.2463 21.4428 67.2463 24.0477 67.2463 26.6638C67.2463 27.6699 67.657 28.0948 68.6953 28.1283C68.8892 28.1283 68.9691 28.1842 68.9577 28.3854C68.9463 28.8103 68.9463 29.2463 68.9577 29.6711C68.9577 29.8612 68.9121 29.9394 68.6953 29.9394C67.0523 29.9394 65.4094 29.9394 63.7778 29.9394C62.7852 29.9394 62.2946 29.4252 62.2603 28.4637C62.2603 28.2625 62.2603 28.0724 62.2603 27.86H62.2832Z" fill="#A1A2A1"/>
<path d="M95.8182 26.5409C95.9665 26.608 96.0806 26.5856 96.1947 26.5856C98.5792 26.5856 100.964 26.5856 103.337 26.5856C103.599 26.5856 103.691 26.6527 103.679 26.921C103.668 27.8377 103.679 28.7545 103.679 29.6712C103.679 29.8724 103.622 29.9507 103.405 29.9507C99.0014 29.9507 94.5974 29.9507 90.1933 29.9507C89.9879 29.9507 89.9195 29.8948 89.9309 29.6936C89.9309 28.6203 89.9309 27.5471 89.9309 26.485C89.9309 26.3285 89.9993 26.2167 90.0906 26.0937C92.5322 22.7509 94.9739 19.4082 97.4155 16.0654C97.4839 15.976 97.5524 15.8754 97.6095 15.786C97.5296 15.6965 97.4383 15.7301 97.3584 15.7301C96.1034 15.7301 94.8369 15.7301 93.5819 15.7301C93.4564 15.7301 93.3309 15.7301 93.2054 15.7412C92.3611 15.8419 91.9846 16.2331 91.996 17.0716C91.996 17.3847 91.8933 17.4629 91.5967 17.4406C91.1859 17.4182 90.7752 17.4294 90.3644 17.4406C90.1705 17.4406 90.0906 17.3958 90.0906 17.1834C90.0906 16.1437 90.0906 15.104 90.0906 14.0531C90.102 13.0246 90.547 12.555 91.5853 12.432C91.7336 12.4097 91.8819 12.4097 92.0188 12.4097C95.6584 12.4097 99.298 12.4097 102.938 12.4097C103.234 12.4097 103.314 12.4879 103.314 12.7786C103.291 13.7624 103.303 14.7462 103.314 15.7301C103.314 15.9313 103.257 16.099 103.143 16.2555C100.758 19.5871 98.3739 22.9298 95.9893 26.2614C95.9323 26.3508 95.8638 26.4291 95.7953 26.5409H95.8182Z" fill="#A1A2A1"/>
<path d="M39.7769 18.9498C39.7769 22.4826 39.7769 26.0266 39.7769 29.5594C39.7769 29.8202 39.6438 29.9506 39.3775 29.9506C37.8601 29.9506 36.3312 29.9506 34.8138 29.9506C34.5057 29.9506 34.4487 29.8612 34.4487 29.5817C34.4487 23.1422 34.4487 16.7138 34.4487 10.2743C34.4487 10.1737 34.4487 10.0619 34.4487 9.96124C34.4487 8.92152 34.0379 8.50787 32.9654 8.47433C32.6992 8.46688 32.5623 8.32899 32.5547 8.06068C32.5547 7.64703 32.5547 7.23338 32.5547 6.83091C32.5547 6.61849 32.6117 6.52905 32.8513 6.52905C34.5513 6.52905 36.2513 6.52905 37.9514 6.52905C39.1722 6.52905 39.7883 7.14394 39.7883 8.35135C39.7883 11.8842 39.7883 15.4058 39.7883 18.9386L39.7769 18.9498Z" fill="#A1A2A1"/>
<path d="M30.1452 18.8491C30.1452 22.4154 30.1452 25.9817 30.1452 29.5481C30.1452 29.809 30.0121 29.9394 29.7459 29.9394C28.2285 29.9394 26.7224 29.9394 25.2049 29.9394C24.9463 29.9394 24.817 29.8164 24.817 29.5705C24.817 23.0862 24.817 16.6019 24.817 10.1177C24.817 9.96115 24.817 9.81582 24.8056 9.6593C24.7372 8.92144 24.3378 8.54132 23.5848 8.48543C23.1436 8.44816 22.9231 8.20966 22.9231 7.76992C22.9231 7.46807 22.9345 7.15503 22.9231 6.85318C22.9116 6.60723 22.9801 6.52897 23.2425 6.52897C24.76 6.54015 26.266 6.52897 27.7835 6.52897C28.1372 6.52897 28.4795 6.50661 28.8332 6.57369C29.609 6.7302 30.0654 7.22211 30.1224 7.99352C30.1338 8.17239 30.1452 8.35127 30.1452 8.54132C30.1452 11.9735 30.1452 15.4057 30.1452 18.8379V18.8491Z" fill="#A1A2A1"/>
<path d="M49.3906 21.9012C49.3906 24.4726 49.3906 27.0439 49.3906 29.6153C49.3906 29.8724 49.3335 29.9618 49.0483 29.9507C47.4966 29.9395 45.9449 29.9395 44.3932 29.9507C44.0966 29.9507 44.051 29.8612 44.051 29.5929C44.051 25.0651 44.051 20.5261 44.051 15.9983C44.051 15.8977 44.051 15.8083 44.051 15.7076C44.051 14.6791 43.6973 14.3325 42.6476 14.3102C42.408 14.3102 42.3281 14.2431 42.3281 14.0083C42.3509 13.5611 42.3281 13.1139 42.3281 12.6556C42.3281 12.4767 42.3624 12.3984 42.5677 12.3984C44.2791 12.3984 45.9791 12.3984 47.6906 12.3984C48.7402 12.4096 49.3563 13.0692 49.3678 14.1425C49.3678 16.3784 49.3678 18.6144 49.3678 20.8503C49.3678 21.1969 49.3678 21.5435 49.3678 21.8789L49.3906 21.9012Z" fill="#A1A2A1"/>
<path d="M46.0623 11.1015C45.6287 11.0791 44.9898 10.9897 44.4307 10.6431C43.9972 10.386 43.7005 10.017 43.5294 9.54747C43.016 8.11646 43.6435 6.75253 45.0354 6.33888C45.663 6.14882 46.3019 6.1041 46.9408 6.17118C47.3173 6.20472 47.6938 6.2718 48.0475 6.41714C49.0287 6.80843 49.565 7.59101 49.5536 8.61955C49.5536 9.65927 48.9945 10.4642 48.0133 10.8443C47.5227 11.0344 46.8495 11.135 46.0509 11.1015H46.0623Z" fill="#A1A2A1"/>
<path d="M131.427 35.0709C127.559 35.0262 123.977 33.9194 120.931 31.3928C118.181 29.1121 116.492 26.183 115.762 22.7396C114.963 18.9273 115.271 15.2045 117.006 11.6828C119.276 7.05443 123.064 4.27067 128.176 3.28685C131.963 2.56016 135.649 2.96263 139.117 4.70668C143.053 6.67431 145.655 9.78229 146.898 13.9188C148.256 18.4354 147.948 22.8738 145.655 27.055C143.293 31.3704 139.539 33.8747 134.656 34.7914C133.618 34.9815 132.568 35.0597 131.416 35.0709H131.427Z" fill="white"/>
<path d="M11.9496 11.2468C12.2121 12.1859 12.4517 13.0468 12.6913 13.9188C13.2731 16.0206 13.855 18.1224 14.4369 20.2242C14.5054 20.4701 14.4825 20.5484 14.2087 20.5372C12.5772 20.5372 10.9456 20.5372 9.31406 20.5372C9.14291 20.5372 9.006 20.5596 9.08587 20.3024C10.0214 17.351 10.9456 14.3883 11.8698 11.4257C11.8698 11.3922 11.8926 11.3586 11.9382 11.2468H11.9496Z" fill="white"/>
<path d="M62.1064 23.2428C62.1064 23.7348 62.1064 24.2378 62.1064 24.7298C62.1064 24.8416 62.1064 24.9534 62.0037 25.0428C61.2279 25.7471 60.3608 26.3061 59.2997 26.485C59.0487 26.5297 58.7977 26.5297 58.5353 26.5073C57.8963 26.4403 57.497 26.0937 57.3715 25.4676C57.246 24.8639 57.2688 24.249 57.4057 23.6453C57.5541 23.0081 57.9876 22.628 58.5695 22.3708C59.5393 21.946 60.5547 21.7 61.6044 21.5212C62.1178 21.4317 62.1178 21.4429 62.1178 21.946C62.1178 22.3708 62.1178 22.8068 62.1178 23.2317L62.1064 23.2428Z" fill="white"/>
<path d="M134.099 18.7151C134.099 22.0131 134.099 25.3111 134.099 28.6203C134.099 28.8663 133.973 28.9893 133.722 28.9893C132.262 28.9893 130.79 28.9893 129.329 28.9893C129.078 28.9893 128.953 28.8663 128.953 28.6203C128.953 22.6839 128.953 16.7363 128.953 10.7998C128.953 10.5538 128.953 10.2967 128.907 10.0508C128.839 9.54767 128.565 9.29054 128.04 9.23464C127.835 9.21228 127.629 9.21228 127.424 9.21228C127.276 9.21228 127.219 9.15638 127.219 9.01104C127.219 8.41852 127.219 7.82599 127.219 7.23346C127.219 7.08812 127.264 7.02105 127.424 7.02105C129.078 7.04341 130.744 6.96515 132.399 7.06577C133.46 7.13284 133.996 7.68065 134.076 8.73155C134.099 8.9775 134.099 9.22346 134.099 9.48059C134.099 12.5662 134.099 15.6406 134.099 18.7263V18.7151Z" fill="#A1A2A1"/>
<path d="M136.847 20.4032C136.847 17.6865 136.847 14.9698 136.847 12.2532C136.847 11.8842 136.847 11.873 137.235 11.8842C138.228 11.9066 139.232 11.8171 140.225 11.9289C141.206 12.0407 141.742 12.5997 141.81 13.5724C141.833 13.796 141.833 14.0307 141.833 14.2655C141.833 19.0281 141.833 23.7907 141.833 28.5532C141.833 29.0563 141.856 28.9781 141.388 28.9781C139.985 28.9781 138.582 28.9781 137.167 28.9781C136.904 28.9781 136.836 28.911 136.836 28.6539C136.836 25.9036 136.836 23.1422 136.836 20.392L136.847 20.4032Z" fill="#A1A2A1"/>
<path d="M126.2 20.4365C126.2 23.1756 126.2 25.9034 126.2 28.6425C126.2 28.922 126.121 28.9891 125.835 28.9891C124.386 28.9779 122.949 28.9779 121.5 28.9891C121.272 28.9891 121.203 28.922 121.203 28.6984C121.203 23.8017 121.203 18.9049 121.203 14.0082C121.203 13.8628 121.203 13.7175 121.226 13.5834C121.306 12.6219 121.842 12.0517 122.823 11.9399C123.884 11.8281 124.945 11.9176 126.018 11.8952C126.143 11.8952 126.2 11.9511 126.189 12.0629C126.189 12.1523 126.189 12.2306 126.189 12.32C126.189 15.0255 126.189 17.731 126.189 20.4365H126.2Z" fill="#A1A2A1"/>
</svg>
