<svg width="175" height="41" viewBox="0 0 175 41" fill="none" xmlns="http://www.w3.org/2000/svg">
<path d="M23.4104 26.2907C23.579 26.1374 23.7346 25.997 23.9032 25.8438C24.0977 25.333 24.396 24.9117 24.8239 24.5286C25.7835 23.6731 26.7561 22.8304 27.5082 21.7834C29.8165 18.604 29.7776 15.3863 27.1711 12.4367C24.8758 9.84471 22.5157 7.31652 20.1296 4.80111C19.3256 3.95838 19.0403 3.99668 18.2882 4.85218C16.4079 6.97177 14.4757 9.06582 12.4787 11.0833C11.4024 12.1814 10.4169 13.3433 9.82034 14.7606C8.91261 16.9185 9.18493 18.9998 10.4428 20.9789C11.2987 22.3324 12.2972 23.571 13.6069 24.5158C14.774 25.3586 15.552 26.5716 16.5376 27.5675C16.8877 27.9251 16.9137 28.3847 16.9396 28.8444C17.9122 31.462 16.9785 33.5049 15.0463 35.3181C13.5291 36.7482 12.1027 38.2549 10.6503 39.7488C10.352 40.0552 10.0667 40.3106 9.58693 40.3106C6.86372 40.2978 4.12754 40.3106 1.40434 40.2978C1.31356 40.2978 1.22279 40.2212 0.9375 40.0935C2.27317 38.8039 3.544 37.6037 4.80186 36.3779C5.67069 35.5224 6.57843 34.718 7.26572 33.7092C8.65326 31.679 8.45874 29.4828 6.79888 27.6569C5.42431 26.1502 3.76445 24.9117 2.6622 23.1496C0.10757 19.0636 0.704082 15.1564 4.20535 11.7983C8.01784 8.13371 11.6488 4.3159 15.3316 0.536391C15.9151 -0.0637333 16.2523 -0.242494 16.8358 0.498085C17.4194 1.2259 18.1456 1.83879 18.768 2.54106C19.1052 2.92412 19.3386 2.92412 19.6758 2.5666C20.3631 1.82602 21.1022 1.13652 21.7636 0.383168C22.2174 -0.127576 22.5157 -0.114808 22.9955 0.383168C25.5501 3.02627 28.1307 5.64383 30.6983 8.27417C31.8135 9.41057 32.8768 10.6108 34.0828 11.6578C38.8549 15.7821 38.2065 21.1832 33.9143 25.4607C33.2529 26.1247 32.5526 26.7503 31.9043 27.4143C29.8035 29.5594 29.6868 32.1004 31.6968 34.3221C33.1621 35.9437 34.7571 37.4377 36.3003 38.9827C36.6634 39.3402 37.0524 39.6849 37.4285 40.0169C37.1302 40.4 36.832 40.2851 36.5726 40.2851C34.1995 40.2851 31.8135 40.2723 29.4404 40.2978C28.7272 40.2978 28.1955 40.1191 27.6898 39.5956C26.1726 38.025 24.6164 36.4928 23.0733 34.9478C21.6339 33.5177 20.9077 31.845 21.2059 29.8148C21.167 29.5594 21.0503 29.3168 21.2059 29.0359C21.8414 28.04 22.3471 26.9419 23.4104 26.2779V26.2907Z" fill="#A1A2A1"/>
<path d="M16.9424 28.8314C16.0995 27.3247 14.9064 26.1372 13.5448 25.0902C12.3259 24.1581 11.2366 23.0728 10.3678 21.8214C8.11139 18.591 8.20217 15.2073 10.7957 12.245C13.3892 9.26989 16.1384 6.43526 18.8097 3.51125C19.1728 3.11542 19.3933 3.16649 19.7174 3.52401C22.311 6.35865 25.0082 9.11666 27.511 12.0279C30.5973 15.6287 30.4676 19.2422 27.3295 22.8174C26.318 23.9666 25.2287 25.0263 23.919 25.8308C23.7634 25.3456 23.4132 25.2945 23.0112 25.4733C22.5703 25.6648 22.1294 25.8818 21.7145 26.1244C20.8975 26.5969 20.0676 26.5458 19.1469 26.5586C17.8501 26.5586 16.9683 26.2649 16.2551 25.2434C16.1124 25.0391 15.7104 24.8221 15.4251 25.103C15.1139 25.4094 15.477 25.652 15.5937 25.9202C15.7882 26.3415 16.0865 26.648 16.4496 26.9416C17.072 27.4396 17.3833 28.0525 16.9813 28.8442L16.9424 28.8314Z" fill="white"/>
<path d="M51.4604 4.89027C52.3293 4.69874 52.6405 5.03073 52.7702 5.92453C53.5093 11.1214 54.3263 16.3182 55.1173 21.515C55.1821 21.8981 55.2859 22.3705 54.6764 22.2939C54.0669 22.2173 53.1851 22.7663 52.9128 21.7576C52.7572 21.1702 52.6923 20.5318 52.6664 19.9189C52.6405 19.089 52.044 19.1911 51.5512 19.2422C51.0195 19.2933 50.2026 18.8464 50.1377 19.9189C50.1118 20.4297 49.9691 20.9404 49.9432 21.4512C49.9173 22.1024 49.632 22.345 48.9706 22.3322C47.7128 22.3194 47.6739 22.3067 47.8684 21.0553C48.6335 16.0245 49.3986 11.0064 50.1377 5.9756C50.2544 5.14564 50.5397 4.67321 51.4734 4.89027H51.4604Z" fill="#A1A2A1"/>
<path d="M152.552 13.5856C152.552 16.0372 152.552 18.476 152.552 20.9276C152.552 22.3321 152.124 22.6641 150.723 22.2555C150.373 22.1534 150.179 22.1534 149.828 22.2938C148.96 22.613 148.182 22.2172 147.559 21.6171C147.157 21.234 146.885 20.7488 146.716 20.1998C146.029 18.0291 146.055 15.8457 146.859 13.7133C147.365 12.3726 148.298 11.3384 149.699 10.8404C150.192 10.6616 150.321 10.4063 150.321 9.93382C150.295 8.5165 150.36 7.11195 150.295 5.69464C150.256 4.85191 150.71 4.8136 151.333 4.83914C151.955 4.86468 152.604 4.71145 152.578 5.72017C152.526 8.33774 152.565 10.9553 152.565 13.5729L152.552 13.5856Z" fill="#A1A2A1"/>
<path d="M74.4408 17.2758C74.4408 19.1273 74.4797 20.9915 74.4408 22.843C74.3889 25.1158 73.2089 26.2649 71.134 26.2394C70.5246 26.2394 70.1355 26.1117 70.1485 25.3839C70.1485 24.7455 70.2263 24.3113 71.0433 24.4135C71.6398 24.4901 72.1066 24.2092 72.1715 23.5963C72.2233 22.9962 72.4308 22.3322 71.4712 22.0385C70.2911 21.6682 69.4612 20.7744 68.9555 19.6763C67.8662 17.3141 67.8532 14.8753 68.7221 12.4493C69.1241 11.3384 69.9929 10.4574 71.2118 10.6106C72.0418 10.7255 72.8069 10.6362 73.6109 10.6106C74.2592 10.5979 74.4538 10.8532 74.4408 11.4661C74.4149 13.3942 74.4408 15.3222 74.4408 17.2375V17.2758Z" fill="#A1A2A1"/>
<path d="M100.8 13.6368C100.8 16.0757 100.8 18.5145 100.8 20.9533C100.8 22.3067 100.424 22.6132 99.049 22.2684C98.6729 22.1663 98.4395 22.1535 98.0375 22.2812C97.026 22.6259 96.2091 22.1152 95.5866 21.3236C94.8734 20.417 94.64 19.3444 94.5492 18.2335C94.4066 16.3183 94.5233 14.4413 95.5866 12.7558C96.1313 11.8875 96.8834 11.198 97.8689 10.8533C98.4395 10.649 98.6081 10.3553 98.5951 9.7935C98.5692 8.41449 98.6211 7.04825 98.5692 5.66924C98.5303 4.81374 99.036 4.82651 99.6325 4.83928C100.216 4.85205 100.826 4.71159 100.813 5.66924C100.774 8.31234 100.8 10.9682 100.8 13.6113V13.6368Z" fill="#A1A2A1"/>
<path d="M125.582 22.396C125.465 22.396 125.141 22.3832 124.843 22.3194C123.533 22.0512 123.365 21.4639 124.208 20.4169C124.48 20.0849 124.7 20.2764 124.934 20.3275C126.684 20.6722 127.605 19.9444 127.631 18.1951C127.657 16.9821 127.216 15.9095 126.594 14.888C125.893 13.7389 125.089 12.6408 124.441 11.4661C123.728 10.1764 123.391 8.78465 123.806 7.29073C124.376 5.28605 126.71 4.16242 128.642 4.97961C128.928 5.10729 129.213 5.24775 128.993 5.56696C128.694 6.0011 128.837 6.80552 127.981 6.76721C126.295 6.6906 125.647 7.50779 126.127 9.10387C126.49 10.3169 127.255 11.3128 127.955 12.3343C129.239 14.1858 130.173 16.1266 130.004 18.4633C129.823 20.8254 128.189 22.4088 125.582 22.396Z" fill="#A1A2A1"/>
<path d="M81.9052 15.3094C81.9052 16.4841 81.9052 17.646 81.9052 18.8207C81.9052 19.4847 81.7885 20.1231 81.5032 20.7233C80.9975 21.7958 80.1675 22.3576 78.9615 22.3959C77.7166 22.4342 76.8089 21.9107 76.2383 20.8254C75.9012 20.1742 75.7456 19.4592 75.7456 18.7313C75.7456 16.3181 75.7845 13.9176 75.7196 11.5043C75.6937 10.5594 76.2513 10.6488 76.8608 10.6488C77.4703 10.6488 78.0408 10.5594 78.0279 11.4915C77.976 13.9048 78.0019 16.3053 78.0279 18.7186C78.0279 19.4081 77.989 20.3657 78.8189 20.3913C79.7396 20.4168 79.7396 19.4336 79.7396 18.7058C79.7396 16.3308 79.7785 13.9559 79.7266 11.5809C79.7137 10.7637 80.0379 10.5977 80.777 10.6233C81.4513 10.6488 82.0089 10.6233 81.9571 11.5809C81.8793 12.8195 81.9441 14.058 81.9441 15.2966L81.9052 15.3094Z" fill="#A1A2A1"/>
<path d="M102.164 16.4331C102.164 15.0541 102.229 13.6878 102.825 12.3982C103.331 11.2873 104.109 10.5212 105.445 10.5468C106.729 10.5723 107.559 11.2873 107.974 12.3854C108.985 15.1179 108.998 17.9015 107.948 20.634C107.52 21.7448 106.651 22.4088 105.38 22.396C104.109 22.3705 103.331 21.6555 102.838 20.5701C102.229 19.255 102.177 17.8504 102.177 16.4331H102.164Z" fill="#A1A2A1"/>
<path d="M137.345 16.5736C137.397 17.8504 137.28 19.1145 136.814 20.3276C136.308 21.6683 135.348 22.3961 134.116 22.3961C132.884 22.3961 131.886 21.6938 131.432 20.3276C130.589 17.7738 130.602 15.1818 131.432 12.6281C131.886 11.2363 132.871 10.5596 134.116 10.5596C135.348 10.5596 136.295 11.2874 136.814 12.6281C137.293 13.9049 137.397 15.2329 137.345 16.5864V16.5736Z" fill="#A1A2A1"/>
<path d="M93.4332 17.4417C93.4332 18.642 93.4332 19.8422 93.4332 21.0552C93.4332 22.2682 92.6292 22.7407 91.501 22.1916C91.3194 22.1023 91.2546 21.783 90.9434 22.0512C89.9708 22.8811 89.2187 22.2299 88.6222 21.5787C87.5069 20.353 87.4291 18.8335 87.7274 17.3013C88.0516 15.6413 89.0112 14.4411 90.5803 13.7261C90.8396 13.6111 91.2546 13.675 91.1638 13.177C91.086 12.7556 90.8785 12.4747 90.4376 12.4237C90.2301 12.3981 90.0227 12.3981 89.8152 12.3853C89.4132 12.3598 88.7907 12.8322 88.7778 11.9129C88.7778 11.2362 88.687 10.6488 89.7114 10.5722C92.2272 10.3934 93.3813 11.3639 93.4202 13.841C93.4332 15.0412 93.4202 16.2415 93.4202 17.4545C93.4202 17.4545 93.4202 17.4545 93.4332 17.4545V17.4417Z" fill="#A1A2A1"/>
<path d="M119.877 17.4802C119.877 18.6549 119.877 19.8168 119.877 20.9915C119.877 22.2939 119.099 22.7536 117.906 22.1279C117.738 22.0386 117.712 21.847 117.426 21.9875C116.311 22.5365 115.546 22.2939 114.833 21.2469C113.562 19.3699 113.757 15.2457 116.791 13.8028C117.128 13.6496 117.828 13.7262 117.595 12.9856C117.388 12.3472 116.869 12.3216 116.324 12.36C115.222 12.4366 115.105 12.2961 115.222 11.2235C115.261 10.8405 115.442 10.6873 115.78 10.5979C118.14 9.97222 119.838 11.2235 119.864 13.6368C119.877 14.9137 119.864 16.1905 119.864 17.4546L119.877 17.4802Z" fill="#A1A2A1"/>
<path d="M159.349 17.4547C159.349 18.6166 159.349 19.7913 159.349 20.9533C159.349 22.3323 158.766 22.7026 157.417 22.1663C157.236 22.1024 157.171 21.9492 156.898 22.0641C155.809 22.5493 155.018 22.2557 154.305 21.1959C152.71 18.8209 153.747 15.0669 156.341 13.7901C156.678 13.6241 157.274 13.6241 157.132 13.024C156.976 12.3983 156.444 12.3345 155.887 12.36C155.381 12.3855 154.759 12.7047 154.772 11.7088C154.772 10.8661 155.07 10.5596 155.913 10.5341C158.299 10.4447 159.362 11.3896 159.362 13.7262C159.362 14.9648 159.362 16.2033 159.362 17.4419L159.349 17.4547Z" fill="#A1A2A1"/>
<path d="M174.935 17.3651C174.935 18.5654 174.935 19.7784 174.935 20.9786C174.935 22.2938 174.313 22.7024 173.055 22.1916C172.887 22.1278 172.822 21.9235 172.536 22.0384C171.305 22.5109 170.578 22.2555 169.865 21.1574C168.309 18.7697 169.372 15.0412 171.979 13.7644C172.316 13.5984 172.9 13.6111 172.718 12.9855C172.536 12.4109 172.057 12.3471 171.538 12.3598C171.032 12.3854 170.41 12.7301 170.397 11.7342C170.397 10.917 170.63 10.5722 171.512 10.5339C173.885 10.4445 174.935 11.3766 174.948 13.7388C174.948 14.9391 174.948 16.1521 174.948 17.3523L174.935 17.3651Z" fill="#A1A2A1"/>
<path d="M138.551 13.4835C138.551 10.968 138.603 8.45263 138.525 5.94998C138.499 4.95403 138.849 4.78804 139.757 4.77527C140.755 4.7625 141.261 4.94126 141.092 6.05213C141.002 6.62672 141.079 7.21408 141.079 7.80143C141.079 12.3471 141.04 16.8927 141.105 21.4383C141.118 22.4853 140.561 22.4087 139.873 22.396C139.212 22.3704 138.499 22.613 138.538 21.4511C138.616 18.808 138.564 16.1521 138.564 13.4962L138.551 13.4835Z" fill="#A1A2A1"/>
<path d="M61.6496 16.0116C61.6366 15.1051 61.7274 13.8665 62.1424 12.679C62.6741 11.1468 63.7633 10.4062 65.2027 10.5722C66.3958 10.7127 67.2257 11.6958 67.4202 13.2025C67.6796 15.3221 66.7848 17.0203 64.9693 17.8886C64.5414 18.0929 63.8411 18.1057 64.0616 18.8846C64.2561 19.5741 64.4117 20.4296 65.2935 20.4934C66.3698 20.57 66.1753 21.2595 66.1364 21.8724C66.0716 22.7662 65.3324 22.3832 64.9175 22.3576C63.6337 22.281 62.8297 21.5021 62.3239 20.3913C61.7274 19.1016 61.6496 17.7354 61.6626 16.0116H61.6496Z" fill="#A1A2A1"/>
<path d="M76.8751 36.7606C76.8751 35.688 76.914 34.6283 76.8621 33.5557C76.8232 32.764 77.1993 32.5725 77.8736 32.713C78.6906 32.8917 79.5983 32.4065 80.3764 33.0194C80.4542 33.0833 80.6876 32.9428 80.8432 32.8917C82.5679 32.2533 83.8257 33.0449 83.9554 34.8836C84.0203 35.8796 83.9814 36.8755 83.9814 37.8715C83.9814 38.4971 83.9814 39.11 83.9814 39.7357C83.9814 40.2847 84.111 40.8338 83.1903 40.821C82.3215 40.8083 82.4641 40.2847 82.4641 39.7868C82.4641 38.4078 82.4641 37.0288 82.4641 35.6497C82.4641 35.3688 82.4642 35.0879 82.4123 34.8326C82.3345 34.5133 82.2956 34.0664 81.8547 34.0792C81.3878 34.092 81.2582 34.5133 81.2582 34.9092C81.2452 36.5946 81.2322 38.2801 81.2452 39.9655C81.2452 40.4635 81.2193 40.821 80.5449 40.8083C79.9095 40.8083 79.6891 40.604 79.702 39.9783C79.728 38.5354 79.702 37.0926 79.702 35.637C79.702 35.3561 79.715 35.0752 79.6631 34.8198C79.5983 34.4878 79.5205 34.0537 79.0926 34.0664C78.6128 34.0792 78.522 34.5006 78.522 34.8964C78.522 36.5818 78.4961 38.2673 78.522 39.9528C78.522 40.5529 78.3923 40.821 77.718 40.8083C77.0696 40.8083 76.8621 40.5784 76.8751 39.9655C76.914 38.9057 76.8751 37.8332 76.8751 36.7606Z" fill="#A1A2A1"/>
<path d="M57.2795 22.3705C57.1109 22.3705 56.9164 22.4088 56.7608 22.3705C56.3458 22.2428 55.5418 22.3705 55.7104 21.7448C55.853 21.2213 55.8141 20.2126 57.0201 20.4297C58.1613 20.634 58.7967 19.7529 58.4595 18.5782C58.2132 17.7355 57.6685 17.0588 57.072 16.4203C56.2291 15.501 55.6585 14.505 55.7493 13.1771C55.866 11.3129 57.7982 10.0105 60.0416 10.7383C60.3139 10.8277 60.5084 10.9809 60.3139 11.2618C60.0157 11.6704 60.1453 12.4493 59.3673 12.4365C58.8615 12.4365 58.3688 12.3471 58.1094 12.909C57.8241 13.5091 58.1613 13.9815 58.5114 14.4157C58.8097 14.7987 59.1598 15.1307 59.484 15.501C60.3398 16.4459 60.9364 17.4929 60.9364 18.8208C60.9364 21.0681 59.5748 22.4343 57.2924 22.3833L57.2795 22.3705Z" fill="#A1A2A1"/>
<path d="M52.0421 34.871C52.0421 36.5948 52.0162 38.3185 52.0421 40.0423C52.0421 40.6297 51.8476 40.8467 51.2641 40.7957C50.7972 40.7574 50.3304 40.7829 49.8506 40.8595C49.1503 40.9744 48.6057 40.5275 48.2296 39.9274C46.8291 37.7057 47.698 34.1687 50.0062 32.8919C50.4082 32.6621 50.5249 32.4067 50.5119 31.9853C50.499 31.1298 50.5249 30.2616 50.5119 29.4061C50.499 28.8315 50.7972 28.7293 51.29 28.7166C51.7957 28.7166 52.0681 28.8315 52.0551 29.4061C52.0292 31.232 52.0551 33.0579 52.0551 34.8838L52.0421 34.871Z" fill="#A1A2A1"/>
<path d="M85.0054 34.6922C85.0054 32.9684 85.0183 31.2446 85.0054 29.5337C85.0054 28.9974 85.1221 28.7037 85.7575 28.7165C86.341 28.7165 86.6004 28.9208 86.5485 29.4954C86.5226 29.8784 86.5615 30.2487 86.5485 30.6318C86.4837 31.7809 86.5485 32.662 87.8323 33.4025C89.6867 34.4496 90.0368 38.5355 88.6623 40.1699C88.1954 40.719 87.6378 41.102 86.8338 40.7956C86.2892 40.5913 85.4981 41.1276 85.174 40.6423C84.772 40.055 85.0443 39.2378 85.0313 38.5228C85.0054 37.2459 85.0313 35.969 85.0313 34.7049L85.0054 34.6922Z" fill="#A1A2A1"/>
<path d="M109.759 16.4714C109.759 14.8497 109.759 13.2281 109.759 11.6193C109.759 11.2873 109.564 10.751 110.135 10.7127C110.692 10.6744 111.509 10.368 111.781 10.8915C112.119 11.5427 112.287 11.0575 112.508 10.9681C112.962 10.7766 113.467 10.4318 113.869 10.8021C114.245 11.1341 113.999 11.7214 114.012 12.1939C114.012 12.4365 113.856 12.5642 113.623 12.6152C112.183 12.8706 111.989 13.9815 111.95 15.1179C111.898 16.7012 111.937 18.2845 111.937 19.8678C111.937 20.3147 111.898 20.7616 111.937 21.2085C112.028 22.0385 111.743 22.3577 110.848 22.3449C109.979 22.3449 109.694 22.0895 109.733 21.234C109.797 19.6507 109.746 18.0674 109.746 16.4841L109.759 16.4714Z" fill="#A1A2A1"/>
<path d="M83.2677 16.4841C83.2677 14.9008 83.2677 13.3174 83.2677 11.7341C83.2677 11.3766 83.0862 10.8659 83.54 10.7254C84.0977 10.5467 84.9665 10.3934 85.2258 10.7765C85.6149 11.3383 85.7705 11.0574 86.1336 10.8914C86.5745 10.6999 87.1321 10.3168 87.4952 10.9808C87.8323 11.5937 87.4433 12.4492 86.8209 12.679C85.7446 13.0621 85.4982 13.9431 85.4852 14.9135C85.4593 17.0459 85.4333 19.1782 85.4852 21.3106C85.5111 22.2044 85.1221 22.3321 84.37 22.3193C83.6568 22.3193 83.1899 22.2682 83.2288 21.3361C83.3066 19.7273 83.2548 18.1057 83.2548 16.4841H83.2677Z" fill="#A1A2A1"/>
<path d="M160.753 16.4459C160.753 14.8626 160.753 13.2793 160.753 11.7087C160.753 11.364 160.546 10.8405 161.051 10.7383C161.609 10.6234 162.361 10.3936 162.724 10.8788C163.087 11.3895 163.23 11.0447 163.515 10.9298C164.008 10.7383 164.579 10.3169 164.981 10.9681C165.357 11.5683 164.916 12.4365 164.215 12.7047C163.217 13.0877 162.945 13.9177 162.932 14.8626C162.919 16.9566 162.88 19.0507 162.932 21.1575C162.958 22.013 162.776 22.3577 161.803 22.3577C160.766 22.3577 160.701 21.8853 160.727 21.0936C160.766 19.5486 160.74 18.0036 160.74 16.4586L160.753 16.4459Z" fill="#A1A2A1"/>
<path d="M144.863 16.4713C144.863 18.1568 144.825 19.8422 144.876 21.5149C144.902 22.4087 144.345 22.3194 143.787 22.3066C143.242 22.3066 142.672 22.4343 142.672 21.5277C142.711 18.1696 142.698 14.7986 142.672 11.4405C142.672 10.4573 143.333 10.6872 143.878 10.6616C144.435 10.6233 144.902 10.6361 144.876 11.4405C144.825 13.126 144.863 14.7986 144.863 16.4841V16.4713Z" fill="#A1A2A1"/>
<path d="M167.96 16.4842C167.96 18.1697 167.921 19.8552 167.973 21.5278C167.999 22.4344 167.428 22.3067 166.884 22.3067C166.339 22.3067 165.768 22.4344 165.781 21.5278C165.82 18.1697 165.82 14.7988 165.781 11.4406C165.781 10.5596 166.313 10.649 166.884 10.649C167.428 10.649 168.012 10.5213 167.986 11.4279C167.934 13.1133 167.973 14.786 167.973 16.4715L167.96 16.4842Z" fill="#A1A2A1"/>
<path d="M63.779 36.8883C63.753 35.7391 63.8697 34.7559 64.3106 33.8366C64.6608 33.0833 65.2313 32.6491 66.1002 32.6619C66.9301 32.6619 67.5136 33.096 67.7989 33.8111C68.577 35.7647 68.59 37.7566 67.7989 39.7229C67.5007 40.4891 66.8782 40.9232 66.0094 40.9104C65.1535 40.8976 64.5829 40.3997 64.2458 39.6591C63.8308 38.7398 63.7011 37.7438 63.753 36.8883H63.779Z" fill="#A1A2A1"/>
<path d="M76.1984 36.799C76.1595 37.8588 76.1206 38.9313 75.5629 39.889C74.7719 41.2424 72.9694 41.2935 72.2821 39.889C71.2836 37.8715 71.4003 35.7519 72.2303 33.6962C72.5026 33.0322 73.1121 32.6619 73.9031 32.6492C74.6941 32.6492 75.2258 33.0195 75.5759 33.6834C76.1076 34.6538 76.1595 35.7136 76.1984 36.7862V36.799Z" fill="#A1A2A1"/>
<path d="M70.9352 34.6794C70.9352 36.5053 70.9092 38.3312 70.9481 40.1571C70.9611 40.8722 70.6758 41.0126 70.0274 40.9999C69.392 40.9999 69.003 40.9488 69.0159 40.1444C69.0548 36.5691 69.0548 32.9812 69.0159 29.406C69.0159 28.576 69.4179 28.576 70.0404 28.5632C70.7147 28.5377 70.9611 28.7292 70.9481 29.4315C70.9092 31.1808 70.9352 32.9429 70.9352 34.6922V34.6794Z" fill="#A1A2A1"/>
<path d="M59.3345 34.7944C59.2956 33.275 59.3474 31.7555 59.9958 30.3382C60.5405 29.1252 61.5001 28.5633 62.719 28.6399C63.1859 28.6655 63.4193 28.8187 63.4063 29.3167C63.3933 29.738 63.3804 30.0062 62.7968 30.019C61.9021 30.019 61.539 30.7212 61.3445 31.4363C60.7609 33.6452 60.7479 35.867 61.3445 38.0632C61.539 38.8038 61.8891 39.5443 62.8487 39.5443C63.3674 39.5443 63.3933 39.7869 63.4063 40.17C63.4193 40.6297 63.2637 40.8723 62.7709 40.9233C61.6038 41.051 60.5405 40.3998 59.9699 39.1485C59.3474 37.7567 59.2826 36.2883 59.3215 34.7944H59.3345Z" fill="#A1A2A1"/>
<path d="M96.6129 37.3352C96.6129 38.2673 96.6129 39.1867 96.6129 40.1188C96.6129 40.3741 96.6259 40.821 96.2757 40.7444C95.381 40.5274 94.4214 41.2296 93.5914 40.5912C92.8004 39.9911 92.554 39.11 92.5799 38.2035C92.6318 36.7989 93.1376 35.5859 94.5381 34.9347C94.7715 34.8198 95.1216 34.7815 95.0308 34.3857C94.9401 34.0026 94.6288 33.9643 94.2917 33.9643C93.8637 33.9643 93.371 34.1303 93.3839 33.3642C93.3839 32.5853 93.9286 32.6874 94.3954 32.6747C95.8348 32.6108 96.5351 33.2237 96.5999 34.6538C96.6388 35.5476 96.5999 36.4414 96.5999 37.3352H96.6129Z" fill="#A1A2A1"/>
<path d="M52.8177 36.7224C52.8047 35.7519 52.9084 34.7943 53.2975 33.9005C53.6865 33.0195 54.3608 32.5343 55.3593 32.7003C56.3319 32.8535 56.7339 33.5557 56.8636 34.4368C57.084 35.8924 56.4875 37.0543 55.2685 37.7311C54.9703 37.8971 54.4516 37.8715 54.5294 38.4334C54.5942 38.9824 54.8147 39.4932 55.3853 39.5953C56.0207 39.7102 56.1114 40.0677 55.9818 40.5274C55.8262 41.1148 55.3204 40.8977 54.9314 40.8211C53.5568 40.5529 53.1808 39.4932 52.9473 38.344C52.8436 37.8077 52.8436 37.2586 52.8047 36.7096L52.8177 36.7224Z" fill="#A1A2A1"/>
<path d="M91.8656 36.7606C91.8656 37.8587 91.8397 38.9568 91.8656 40.0549C91.8786 40.6678 91.5804 40.7955 91.0357 40.7955C90.4911 40.7955 90.2188 40.6933 90.2188 40.0677C90.2447 37.8332 90.2447 35.5987 90.2188 33.3641C90.2188 32.8023 90.4651 32.6619 90.9709 32.6874C91.4636 32.7002 91.8786 32.6874 91.8527 33.3641C91.8267 34.5006 91.8527 35.637 91.8527 36.7606H91.8656Z" fill="#A1A2A1"/>
<path d="M167.945 7.34184C167.828 7.89089 168.373 8.823 166.972 8.7847C166.038 8.75916 165.701 8.50379 165.844 7.60998C165.883 7.38015 165.844 7.12478 165.844 6.88217C165.844 5.5287 165.935 5.46486 167.348 5.59254C167.789 5.63085 167.971 5.78407 167.958 6.2182C167.945 6.56296 167.958 6.90771 167.958 7.32907L167.945 7.34184Z" fill="#A1A2A1"/>
<path d="M144.851 7.35447C144.708 7.85244 145.331 8.82286 143.917 8.78455C142.945 8.75901 142.607 8.4781 142.75 7.57153C142.789 7.30339 142.75 7.02248 142.75 6.75434C142.75 5.72008 143.593 5.22211 144.591 5.64347C144.838 5.74562 144.851 5.92438 144.864 6.12868C144.864 6.49897 144.864 6.88203 144.864 7.35447H144.851Z" fill="#A1A2A1"/>
<path d="M40.8782 35.5477C42.2398 35.5477 43.2643 36.5819 43.2383 37.9099C43.2124 39.225 42.1231 40.3104 40.8393 40.2721C39.5037 40.2465 38.4922 39.2123 38.4922 37.8588C38.4922 36.4926 39.4777 35.5349 40.8782 35.5349V35.5477Z" fill="#A1A2A1"/>
<path d="M91.7463 30.3253C91.7204 30.8744 91.889 31.4362 91.0331 31.4234C90.0216 31.4234 90.3328 30.6956 90.3069 30.1849C90.281 29.6869 90.1772 29.1506 91.0331 29.1506C92.0964 29.1506 91.6426 29.8912 91.7593 30.3253H91.7463Z" fill="#A1A2A1"/>
<path d="M23.4072 26.2904C22.5124 27.3757 21.6176 28.4611 21.1897 29.8273C20.6061 29.4059 20.7747 28.8697 21.1119 28.4738C21.6565 27.8482 22.2141 27.248 22.5513 26.4692C22.7199 26.0989 23.0441 25.984 23.4072 26.2904Z" fill="white"/>
<path d="M19.1833 16.5479C16.8751 16.5479 14.5798 16.5479 12.2716 16.5479C10.8711 16.5479 10.7933 16.4585 11.0785 15.1561C11.9214 11.2106 15.3579 8.49088 19.4297 8.5675C23.2552 8.63134 26.6916 11.5809 27.4308 15.3859C27.5993 16.2414 27.327 16.5734 26.4193 16.5606C24.0073 16.5223 21.5953 16.5479 19.1963 16.5479H19.1833Z" fill="#D6D6D6"/>
<path d="M19.1921 17.7738C21.5652 17.7738 23.9513 17.7738 26.3244 17.7738C27.4655 17.7738 27.5433 17.8887 27.284 18.974C26.2725 23.06 22.9917 25.32 19.231 25.4094C15.5482 25.4988 12.1377 22.894 11.1522 19.3443C10.7372 17.8504 10.815 17.761 12.3712 17.761C14.6405 17.761 16.9228 17.761 19.1921 17.761V17.7738Z" fill="#D6D6D6"/>
<path d="M51.2258 11.3C51.7445 12.0917 51.7186 12.7046 51.8094 13.3047C51.952 14.3262 52.0687 15.3477 52.2243 16.3692C52.3281 17.0204 52.1336 17.3013 51.4074 17.2885C50.7201 17.2885 50.4737 17.0842 50.5775 16.382C50.8109 14.7859 50.9924 13.1898 51.2388 11.3H51.2258Z" fill="white"/>
<path d="M150.299 12.7046C150.299 15.1434 150.299 17.429 150.299 19.7273C150.299 20.1104 150.092 20.3913 149.716 20.4807C149.404 20.5573 149.197 20.353 149.028 20.1232C147.965 18.6675 148.484 14.1219 149.858 12.9472C149.936 12.8834 150.04 12.8578 150.299 12.7174V12.7046Z" fill="white"/>
<path d="M72.1926 20.2126C71.4794 20.0083 71.2201 19.5486 71.0255 19.0889C70.2734 17.2886 70.1567 15.4371 70.6106 13.5474C70.6624 13.3558 70.7532 13.1643 70.857 12.9855C71.0255 12.6663 71.259 12.3982 71.6739 12.5003C72.063 12.6025 72.1926 12.9217 72.1926 13.3048C72.1926 15.5648 72.1926 17.8248 72.1926 20.2253V20.2126Z" fill="white"/>
<path d="M98.5953 16.5224C98.5953 17.5183 98.5953 18.5143 98.5953 19.5102C98.5953 19.9571 98.4786 20.3657 97.9858 20.4679C97.4542 20.57 97.2208 20.1487 97.1041 19.7529C96.4816 17.5567 96.5464 15.4115 97.6746 13.3685C97.8173 13.1004 98.0507 12.7557 98.3749 12.8195C98.7639 12.9089 98.5824 13.343 98.5953 13.6239C98.6213 14.5816 98.5953 15.552 98.5953 16.5096V16.5224Z" fill="white"/>
<path d="M106.413 16.4969C106.438 17.5311 106.425 18.5654 106.14 19.5613C106.024 19.9444 105.907 20.4296 105.388 20.4296C104.947 20.4296 104.779 20.0082 104.701 19.638C104.234 17.5311 104.195 15.4243 104.701 13.3175C104.792 12.9472 104.947 12.5258 105.401 12.5386C105.855 12.5386 105.998 12.9855 106.101 13.3303C106.413 14.3645 106.426 15.4243 106.4 16.4969H106.413Z" fill="white"/>
<path d="M133.106 16.3564C133.068 15.3604 133.106 14.3645 133.392 13.394C133.495 13.011 133.625 12.513 134.157 12.5385C134.598 12.5513 134.753 12.9854 134.844 13.3557C135.337 15.4626 135.35 17.5694 134.818 19.6634C134.727 20.0337 134.572 20.4551 134.105 20.4295C133.651 20.4168 133.521 19.9699 133.418 19.6251C133.119 18.5526 133.08 17.4545 133.119 16.3564H133.106Z" fill="white"/>
<path d="M91.1922 17.8631C91.1922 18.5143 91.2311 19.1655 91.1793 19.8039C91.1533 20.1359 90.9329 20.4679 90.505 20.4679C90.1678 20.4679 90.0122 20.1997 89.9473 19.9316C89.5972 18.5526 89.6491 17.2119 90.4661 15.9861C90.5957 15.7945 90.7643 15.5392 91.0366 15.603C91.3479 15.6796 91.2441 15.9988 91.2441 16.2159C91.2571 16.765 91.2441 17.314 91.2441 17.8631C91.2311 17.8631 91.2052 17.8631 91.1922 17.8631Z" fill="white"/>
<path d="M117.695 17.8248C117.695 18.4377 117.734 19.0633 117.695 19.6762C117.669 20.0465 117.526 20.4551 117.046 20.4934C116.605 20.519 116.45 20.1359 116.385 19.8167C116.087 18.476 116.139 17.1608 116.968 15.9861C117.098 15.7946 117.254 15.5392 117.526 15.6541C117.747 15.7435 117.695 16.0117 117.708 16.2032C117.708 16.7522 117.708 17.3013 117.708 17.8503L117.695 17.8248Z" fill="white"/>
<path d="M157.172 17.8888C157.172 18.5017 157.185 19.1273 157.172 19.7402C157.172 20.1105 156.952 20.417 156.563 20.468C156.173 20.5319 155.992 20.2127 155.914 19.919C155.564 18.54 155.616 17.1993 156.472 15.9863C156.575 15.833 156.809 15.6287 156.952 15.6543C157.263 15.7054 157.185 16.0246 157.185 16.2416C157.185 16.7907 157.185 17.3397 157.185 17.8888C157.185 17.8888 157.185 17.8888 157.172 17.8888Z" fill="white"/>
<path d="M172.73 15.5264C172.73 17.0076 172.73 18.4377 172.73 19.855C172.73 20.1487 172.51 20.3657 172.238 20.4551C171.965 20.5445 171.797 20.3785 171.641 20.1614C170.824 19.0123 171.408 16.3181 172.743 15.5137L172.73 15.5264Z" fill="white"/>
<path d="M63.8157 15.2838C63.8676 14.39 63.9325 13.6367 64.1788 12.9216C64.2826 12.6152 64.4771 12.347 64.8272 12.3598C65.2292 12.3598 65.2941 12.7301 65.3589 13.0238C65.5923 14.0836 65.3459 15.054 64.6846 15.9095C64.516 16.1266 64.2955 16.3819 64.0103 16.2798C63.6861 16.1521 63.8676 15.8073 63.8287 15.552C63.8157 15.4243 63.8287 15.2838 63.8287 15.2966L63.8157 15.2838Z" fill="white"/>
<path d="M50.4964 34.1687C50.4964 35.8542 50.4964 37.3609 50.4964 38.8675C50.4964 39.1612 50.3278 39.4038 50.0425 39.506C49.8091 39.5954 49.6665 39.4038 49.5368 39.2378C48.7847 38.178 49.2774 35.1008 50.4834 34.1687H50.4964Z" fill="white"/>
<path d="M86.5469 34.2837C87.0915 34.3475 87.2471 34.6667 87.3768 34.9732C87.9215 36.2501 87.9215 37.578 87.6491 38.9059C87.5973 39.1868 87.4416 39.5571 87.0397 39.4933C86.7544 39.455 86.5469 39.1996 86.5469 38.8932C86.5469 37.3609 86.5469 35.8415 86.5469 34.2837Z" fill="white"/>
<path d="M66.8246 36.7351C66.7339 37.514 66.8117 38.2801 66.5394 39.0079C66.4486 39.2378 66.3708 39.4804 66.0725 39.4931C65.7743 39.4931 65.6316 39.2378 65.5927 39.0207C65.2426 37.5268 65.2167 36.0328 65.5927 34.5389C65.6576 34.3091 65.7743 34.0665 66.0596 34.0537C66.3578 34.0537 66.4356 34.3091 66.5264 34.5262C66.8246 35.254 66.669 36.0201 66.8117 36.7224L66.8246 36.7351Z" fill="white"/>
<path d="M74.6623 36.8118C74.6882 37.5907 74.6104 38.3057 74.403 38.9952C74.3381 39.2251 74.2344 39.4804 73.9361 39.4932C73.6379 39.5187 73.5082 39.2889 73.4433 39.0463C73.1062 37.5524 73.1192 36.0585 73.4433 34.5773C73.4952 34.3347 73.6249 34.0921 73.9102 34.0793C74.2603 34.0538 74.377 34.373 74.4289 34.6284C74.6104 35.3562 74.7142 36.1095 74.6623 36.8246V36.8118Z" fill="white"/>
<path d="M95.0714 36.1734C95.0714 37.1566 95.0714 38.0632 95.0714 38.9697C95.0714 39.2251 94.9936 39.4549 94.6953 39.4933C94.4489 39.5316 94.3452 39.34 94.2415 39.1485C93.8006 38.3313 94.1637 36.8757 95.0844 36.1606L95.0714 36.1734Z" fill="white"/>
<path d="M55.4773 34.9603C55.3736 35.586 55.3347 36.5309 54.5955 36.4542C54.0898 36.4032 54.4788 35.4583 54.4788 34.9092C54.4788 34.8709 54.4918 34.8454 54.5048 34.8071C54.6085 34.4623 54.5696 33.9133 55.0883 33.9899C55.5811 34.0537 55.4255 34.5773 55.4773 34.9603Z" fill="white"/>
<path d="M39.632 39.4038C38.6854 38.3696 38.6335 37.3481 39.4894 36.4926C40.2545 35.7392 41.4345 35.7265 42.2126 36.4798C43.0166 37.2459 42.9777 38.344 42.1348 39.3144C41.8495 39.4166 41.6809 39.2378 41.4994 39.0718C41.2271 38.6888 40.9807 38.293 40.9936 37.795C40.9936 37.3098 40.7213 37.2332 40.3323 37.4375C39.8266 37.9993 40.2545 38.8931 39.632 39.4166V39.4038Z" fill="white"/>
<path d="M39.6336 39.4038C39.7373 38.4845 39.452 37.5269 39.867 36.6331C40.256 37.6035 41.0211 38.2802 41.8251 38.9059C41.9288 39.0336 42.0455 39.174 42.1493 39.3017C41.3453 40.0806 40.5024 40.0678 39.6336 39.3911V39.4038Z" fill="white"/>
<path d="M41.8136 38.9057C41.5543 39.3271 41.3857 39.059 41.2171 38.8164C41.0226 38.5482 40.9189 38.1269 40.5039 38.1652C40.0241 38.2162 40.3742 38.7781 39.8944 39.11C39.7388 38.229 39.8037 37.4246 39.8555 36.6329C40.1927 36.6329 40.5428 36.6074 40.88 36.6329C41.6062 36.7095 42.0211 37.0543 41.5413 37.7566C41.1782 38.2928 41.5802 38.5482 41.8136 38.893V38.9057Z" fill="#A1A2A1"/>
<path d="M41.251 37.3352C41.251 37.6161 41.0435 37.6672 40.836 37.6799C40.6026 37.7055 40.3173 37.7438 40.2784 37.399C40.2395 37.1309 40.434 37.0543 40.6674 37.0543C40.9009 37.0543 41.1602 37.0287 41.251 37.3224V37.3352Z" fill="white"/>
</svg>
