<svg width="95" height="60" viewBox="0 0 95 60" fill="none" xmlns="http://www.w3.org/2000/svg">
<path d="M32.8828 0.329253C32.8828 0.329253 32.9756 0.315918 33.0286 0.315918C33.4128 0.315918 33.4128 0.315918 33.4128 0.689304C33.4128 11.3308 33.4128 21.9723 33.4128 32.6138C33.4128 32.7338 33.479 32.8672 33.3465 32.9605C33.2405 32.9205 33.1346 32.9472 33.0286 32.9472C22.456 32.9472 11.8968 32.9472 1.32426 32.9472C1.23152 32.9472 1.13878 32.9339 1.03279 32.9605C0.926799 32.8939 0.966545 32.7872 0.966545 32.6938C0.966545 31.8004 0.966545 30.8936 0.966545 30.0001C0.966545 29.7734 1.03279 29.6934 1.25802 29.7068C1.57599 29.7201 1.89396 29.7068 2.21193 29.7068C2.34442 29.7068 2.42391 29.6667 2.49015 29.5601C3.33807 28.2132 4.38473 27.013 5.32539 25.7329C5.57712 25.3995 5.82884 25.0794 6.06732 24.746C6.16006 24.626 6.2528 24.5727 6.41179 24.5727C7.8559 24.5727 9.31327 24.5727 10.7574 24.5727C10.9429 24.5727 11.0356 24.6394 11.0754 24.8127C11.2078 25.2928 11.3403 25.7862 11.4861 26.2663C11.5523 26.4663 11.5126 26.613 11.3933 26.7597C10.6249 27.7198 9.94921 28.7333 9.04829 29.5734C9.03504 29.5867 9.0218 29.6267 8.9953 29.6534C9.15428 29.7334 9.31327 29.6934 9.47225 29.6934C9.97571 29.6934 10.4659 29.6934 10.9694 29.6934C11.1284 29.6934 11.2211 29.6401 11.2741 29.4934C11.4728 29.04 11.7775 28.6533 12.0823 28.2665C12.122 28.2132 12.1618 28.1065 12.2412 28.1332C12.3207 28.1599 12.3207 28.2665 12.334 28.3332C12.4532 28.6933 12.5592 29.0533 12.599 29.4267C12.6122 29.6134 12.705 29.6934 12.8904 29.6934C13.4999 29.6934 14.0961 29.6934 14.7055 29.6934C14.8778 29.6934 14.9837 29.6401 15.0632 29.4801C15.262 29.0267 15.5932 28.6533 15.9112 28.2799C16.0171 28.1599 16.0701 28.1732 16.1099 28.3199C16.2159 28.6666 16.3351 29.0133 16.3749 29.3867C16.3881 29.6001 16.4676 29.7068 16.7061 29.6934C17.501 29.6801 18.2959 29.6934 19.0909 29.6934C19.2233 29.6934 19.3691 29.6934 19.2498 29.4934C18.6271 28.4799 18.4549 27.3064 18.031 26.2263C17.8587 25.7995 17.9647 25.5062 18.2032 25.1328C18.4947 24.6927 18.7994 24.5327 19.3293 24.5594C20.6145 24.5994 21.8996 24.5727 23.1847 24.5594C23.3702 24.5594 23.4762 24.5994 23.5424 24.7994C23.9134 26.0262 24.2844 27.2397 24.6553 28.4532C24.7481 28.7733 24.8143 29.1067 24.8276 29.4534C24.8276 29.6267 24.8938 29.7068 25.0793 29.7068C25.9405 29.7068 26.8016 29.7068 27.6761 29.7068C27.7688 29.7068 27.888 29.7334 27.7953 29.5601C27.1196 28.2132 26.7486 26.7597 26.2717 25.3461C25.5298 23.1192 24.9203 20.8522 24.2711 18.5985C24.1916 18.3318 24.1519 18.0518 24.1254 17.7717C24.1254 17.6117 24.0591 17.5584 23.9002 17.5584C23.2377 17.5584 22.5753 17.5584 21.9128 17.5584C21.8069 17.5584 21.7274 17.5717 21.6744 17.6784C20.9987 19.0252 19.9918 20.1454 19.1174 21.3456C18.5742 22.0923 18.0045 22.8258 17.4348 23.5592C17.3818 23.6259 17.342 23.7459 17.2493 23.7192C17.1565 23.6926 17.183 23.5725 17.1433 23.5059C16.7856 22.7991 16.9578 22.2524 17.4878 21.6523C18.5079 20.4921 19.3558 19.1986 20.3892 18.0518C20.5217 17.9051 20.694 17.7717 20.8529 17.6384C20.8397 17.6117 20.8132 17.585 20.7999 17.545H19.3161C19.2233 17.545 19.1439 17.545 19.0511 17.545C18.7066 17.545 18.4726 17.705 18.3489 18.0251C18.3092 18.1184 18.2827 18.2118 18.2164 18.2785C17.5408 19.1586 16.8518 20.0254 16.1894 20.8922C16.0834 20.8922 16.0834 20.8255 16.0701 20.7722C15.8449 19.9587 15.6064 19.1586 15.3812 18.3451C15.3415 18.2118 15.315 18.0784 15.3017 17.9451C15.2487 17.545 15.262 17.545 14.8645 17.545C14.1226 17.545 13.3674 17.545 12.6255 17.545C12.5327 17.545 12.3605 17.4917 12.4665 17.7184C13.0892 19.0786 13.4336 20.5188 13.9238 21.9323C13.9238 21.9456 13.9238 21.9723 13.9371 21.9857C14.3346 22.6791 14.1888 23.2792 13.6059 23.7859C13.5396 23.8393 13.5264 23.9726 13.4204 23.9459C13.3409 23.9326 13.3409 23.8126 13.3276 23.7459C13.0097 22.7191 12.6917 21.7056 12.387 20.6788C12.2412 20.1854 12.1088 19.692 11.9365 19.2119C11.7908 18.7719 11.7113 18.3185 11.6848 17.8517C11.6848 17.6384 11.6186 17.545 11.3801 17.545C10.7176 17.5584 10.0552 17.545 9.39276 17.545C9.27352 17.545 9.15428 17.5317 9.08804 17.6917C8.54484 18.9986 7.63067 20.0654 6.78275 21.1855C5.08691 23.4392 3.39107 25.6928 1.62898 27.9065C1.417 28.1732 1.19177 28.4399 0.979794 28.7066C0.873804 28.6266 0.91355 28.5333 0.91355 28.4532C0.91355 19.1986 0.91355 9.94395 0.91355 0.689304C0.966545 0.409265 1.03279 0.315918 1.33751 0.315918C11.2608 0.315918 21.1842 0.315918 31.1075 0.315918C31.5315 0.315918 31.9554 0.315918 32.3661 0.315918C32.3926 0.515946 32.2336 0.529282 32.1276 0.502611C31.7434 0.435935 31.5579 0.662634 31.3592 0.942673C31.0015 1.44941 30.5908 1.92948 30.2198 2.42288C29.4381 3.47637 28.6167 4.48984 27.8483 5.54333C26.9209 6.81017 25.9272 8.03701 24.9733 9.29052C24.2976 10.1573 23.6484 11.0374 22.9727 11.8909C22.403 12.611 21.8466 13.3578 21.3034 14.0912C20.8132 14.7446 20.2965 15.3714 19.8195 16.0381C19.7798 16.0915 19.7268 16.1448 19.7533 16.2115C19.793 16.2782 19.8593 16.2782 19.9255 16.2782C20.1905 16.2782 20.4422 16.2782 20.7072 16.2782C20.9192 16.2782 21.0649 16.1448 21.1709 15.9848C21.7406 15.1714 22.3898 14.4246 22.9727 13.6245C23.8074 12.4776 24.6818 11.3708 25.543 10.264C26.0465 9.59723 26.5632 8.93047 27.0666 8.27705C27.6496 7.53027 28.2193 6.75683 28.8022 6.01006C29.4779 5.1566 30.1006 4.27648 30.7763 3.42302C31.4652 2.5429 32.1806 1.66278 32.8298 0.742645C32.9358 0.595958 32.9491 0.462605 32.9093 0.315918L32.8828 0.329253Z" fill="#A1A2A1"/>
<path d="M82.5405 3.10308C80.3412 2.96973 78.1684 2.86305 75.9824 2.78304C73.5976 2.70303 71.1996 2.66302 68.8148 2.83638C65.1052 3.11642 61.4485 3.70317 57.8713 4.75665C55.5131 5.45008 53.1945 6.27687 51.035 7.4637C49.3391 8.39717 47.7625 9.49065 46.5966 11.0775C45.3115 12.8245 44.8213 14.7447 45.5102 16.865C45.9607 18.2386 46.9146 19.2387 48.0408 20.0788C49.7498 21.3457 51.6842 22.1324 53.698 22.7325C56.9572 23.706 60.3091 24.2261 63.7008 24.2794C65.3966 24.3061 67.066 24.0394 68.7221 23.706C69.6097 23.5326 70.4842 23.3193 71.3851 23.1593C71.0009 23.386 70.6299 23.6127 70.2457 23.826C67.7682 25.2129 65.0919 26.0663 62.3362 26.6798C59.5142 27.3065 56.6657 27.7999 53.804 28.12C52.0949 28.32 50.3858 28.44 48.6634 28.3733C48.4117 28.3733 48.1865 28.3067 47.9613 28.1733C45.7487 26.8398 43.7614 25.2529 42.2113 23.1726C40.7937 21.2657 39.9325 19.1454 39.8928 16.745C39.853 14.8514 40.3697 13.0778 41.2971 11.4376C42.5558 9.21061 44.3576 7.49037 46.4377 6.05017C49.1139 4.18324 52.0684 2.90305 55.1818 1.98292C58.9047 0.902771 62.7336 0.382697 66.6288 0.316021C71.2526 0.249345 75.7704 0.84943 80.1955 2.23629C80.9242 2.46299 81.6529 2.7297 82.3683 3.00974C82.4346 3.03641 82.4875 3.06308 82.5405 3.08975V3.10308Z" fill="#7E7E7E"/>
<path d="M63.3283 10.1308C63.6596 9.93078 63.9775 9.71742 64.3088 9.53073C66.9453 8.05052 69.7805 7.09038 72.7217 6.45029C75.5305 5.83687 78.3524 5.3568 81.2142 5.06343C82.8835 4.89007 84.5661 4.78339 86.2487 4.89007C86.4077 4.89007 86.5534 4.91674 86.6859 5.01009C88.7792 6.27693 90.7003 7.74381 92.2504 9.67741C93.509 11.251 94.4232 12.9846 94.7544 15.0115C95.1386 17.3585 94.6882 19.5455 93.5488 21.5991C92.4226 23.6527 90.8195 25.2663 88.9515 26.6398C86.0235 28.8135 82.7378 30.227 79.2666 31.2271C75.08 32.4273 70.8139 32.934 66.4683 32.8674C62.136 32.8007 57.8831 32.1739 53.7627 30.7737C53.2725 30.6004 52.7956 30.427 52.2656 30.227C52.4114 30.1203 52.5173 30.1603 52.6233 30.1737C54.1469 30.2937 55.6706 30.3737 57.1942 30.427C59.9102 30.5337 62.6262 30.587 65.3422 30.387C69.4228 30.107 73.4372 29.4135 77.3588 28.24C79.9158 27.4799 82.3933 26.5331 84.6721 25.1196C86.05 24.2661 87.3219 23.266 88.2625 21.9058C89.3622 20.3323 89.7994 18.612 89.2959 16.7184C88.925 15.2915 88.024 14.1981 86.9111 13.2913C85.6128 12.2244 84.1157 11.491 82.5523 10.9043C79.0679 9.61074 75.4642 8.99732 71.7546 8.95731C70.0057 8.94398 68.2834 9.25069 66.5478 9.51739C65.4746 9.69075 64.4015 9.87744 63.3151 10.0908L63.3283 10.1308Z" fill="#7E7E7E"/>
<path d="M68.3474 22.986C65.3929 22.986 62.6504 22.3059 60.2921 20.3989C59.2852 19.5721 58.5433 18.5453 58.3578 17.2118C58.2121 16.1583 58.5035 15.1848 59.0202 14.2647C59.8284 12.8378 60.981 11.7444 62.3059 10.8242C62.6636 10.5709 63.1406 10.5575 63.5778 10.4908C66.0421 10.0641 68.4931 10.1041 70.8911 10.8776C72.4677 11.3843 73.9251 12.1311 75.0777 13.3713C76.6808 15.1048 76.8663 17.2251 75.6077 19.2121C74.7863 20.5056 73.6999 21.5457 72.4677 22.4392C72.0968 22.7059 71.6198 22.6792 71.1958 22.7326C70.2552 22.8659 69.3013 22.9193 68.3474 22.9593V22.986Z" fill="#7E7E7E"/>
<path d="M10.0695 45.309C10.467 44.8022 10.8115 44.3355 11.1559 43.8821C11.6461 43.242 12.1231 42.5752 12.6133 41.9352C12.7325 41.7885 12.7325 41.6684 12.6398 41.4951C11.9773 40.4016 11.2619 39.3615 10.573 38.2813C10.5067 38.1746 10.4272 38.0546 10.3212 37.8812C10.5862 37.8812 10.7982 37.8812 11.0102 37.8812C11.4076 37.8812 11.7919 37.8812 12.1893 37.8812C12.3616 37.8812 12.4676 37.9346 12.5603 38.0946C12.9843 38.828 13.4347 39.5481 13.8587 40.2816C13.9779 40.4949 14.0442 40.4949 14.1766 40.2816C14.6668 39.5615 15.1703 38.8547 15.6605 38.1346C15.7797 37.9479 15.9122 37.8546 16.1507 37.8679C16.6012 37.8946 17.0516 37.8679 17.5021 37.8679C17.5816 37.8679 17.7008 37.8279 17.7406 37.9079C17.7936 38.0146 17.6743 38.0813 17.6213 38.148C16.7734 39.2814 15.9387 40.4283 15.0776 41.5484C14.9186 41.7485 14.9451 41.8818 15.0776 42.0818C15.7135 43.122 16.3892 44.1488 17.0516 45.1756C17.1841 45.3756 17.2371 45.389 17.3563 45.1756C18.615 42.8553 19.8206 40.5083 20.9865 38.1346C21.0792 37.9479 21.1852 37.8679 21.3972 37.8679C21.9537 37.8812 22.5101 37.8679 23.0666 37.8679C23.252 37.8679 23.3315 37.9213 23.3978 38.0946C24.259 40.6416 25.1996 43.162 26.1535 45.6824C26.2463 45.9091 26.1933 45.9624 25.968 45.9624C25.4911 45.9624 25.0141 45.9624 24.5239 45.9624C24.3649 45.9624 24.2854 45.9091 24.2457 45.749C24.0205 44.9623 23.7423 44.1888 23.464 43.4154C23.3978 43.2153 23.305 43.122 23.0798 43.1353C22.2451 43.1353 21.4105 43.1487 20.5758 43.1353C20.3506 43.1353 20.2313 43.2153 20.1386 43.4154C19.7809 44.1888 19.4099 44.9489 19.0522 45.7224C18.9594 45.9224 18.8535 45.9757 18.668 45.9757C17.6876 45.9757 16.7072 45.9757 15.7267 45.9757C15.528 45.9757 15.422 45.9091 15.316 45.7357C14.8258 44.8822 14.3091 44.0555 13.8057 43.202C13.6864 43.002 13.6334 43.0686 13.5407 43.202C12.9445 44.0555 12.3351 44.8956 11.7389 45.749C11.6329 45.8957 11.5269 45.9624 11.3414 45.9624C10.4537 45.9624 9.55282 45.9624 8.66515 45.9624C8.45317 45.9624 8.36043 45.8957 8.30744 45.6957C8.08221 44.9089 7.81723 44.1355 7.52576 43.362C7.45952 43.202 7.38002 43.1353 7.20779 43.1353C6.33337 43.1353 5.45895 43.1353 4.58453 43.1353C4.39905 43.1353 4.30631 43.202 4.22682 43.362C3.85585 44.1488 3.48489 44.9356 3.12717 45.7224C3.04768 45.8957 2.95493 45.9757 2.7562 45.9624C2.25275 45.9491 1.76255 45.9624 1.25909 45.9624C1.03386 45.9624 1.02061 45.8957 1.1266 45.7224C2.50448 43.202 3.82935 40.655 5.08799 38.0679C5.16748 37.9213 5.26022 37.8546 5.41921 37.8679C5.9889 37.8679 6.54535 37.8812 7.11505 37.8679C7.32703 37.8679 7.41977 37.9346 7.48601 38.1346C8.22794 40.3749 9.06262 42.5752 9.87079 44.7756C9.92379 44.9222 9.99003 45.0823 10.0695 45.2956V45.309Z" fill="#A1A2A1"/>
<path d="M47.9305 49.8429C32.4559 49.8429 16.9946 49.8429 1.52004 49.8429C1.4538 49.8429 1.38755 49.8429 1.32131 49.8429C1.01659 49.8429 0.844352 49.5096 0.990089 49.2295C1.02983 49.1628 1.08283 49.1628 1.13583 49.1628C1.22857 49.1628 1.30806 49.1628 1.4008 49.1628C32.4029 49.1628 63.405 49.1628 94.4072 49.1628C94.4336 49.1628 94.4601 49.1628 94.4999 49.1628C94.8974 49.1628 95.0166 49.3362 94.9106 49.7363C94.8841 49.8163 94.8444 49.8429 94.7649 49.8429C94.6456 49.8429 94.5396 49.8429 94.4204 49.8429C78.9193 49.8429 63.4315 49.8429 47.9305 49.8429Z" fill="#A1A2A1"/>
<path d="M47.2284 41.8286C47.2151 43.1222 46.8309 44.2557 45.8108 45.1091C45.2146 45.6025 44.5256 45.8826 43.7837 46.0159C42.5383 46.2293 41.3062 46.1893 40.1535 45.6292C38.6962 44.9224 38.0602 43.7089 38.0867 42.1087C38.1 40.9352 38.4179 39.8817 39.2659 39.0282C39.7693 38.5215 40.3788 38.1881 41.0677 37.9881C42.1276 37.6814 43.2008 37.6414 44.2739 37.9081C46.1552 38.3748 47.2681 39.855 47.2284 41.8286Z" fill="#A1A2A1"/>
<path d="M78.4438 37.8947C79.0798 37.9213 79.835 37.8413 80.5769 37.948C80.5769 37.948 80.5901 37.948 80.6034 37.948C81.6103 38.0947 82.2462 38.6148 82.4052 39.4416C82.604 40.4684 82.2065 41.3885 81.3453 41.8952C81.0803 42.0553 80.7889 42.1619 80.4974 42.2286C80.2987 42.2686 80.2722 42.3353 80.3649 42.5087C80.9214 43.5221 81.4646 44.5489 82.0078 45.5624C82.0475 45.6424 82.0873 45.7224 82.127 45.7891C82.2065 45.9358 82.1535 45.9758 82.0078 45.9758C81.4778 45.9758 80.9479 45.9758 80.4312 45.9758C80.2987 45.9758 80.2457 45.9091 80.2059 45.8025C79.6627 44.4156 78.987 43.0954 78.3379 41.7619C78.3114 41.6952 78.2319 41.6285 78.2716 41.5485C78.3246 41.4552 78.4306 41.5219 78.5101 41.5352C78.9473 41.5752 79.3978 41.5752 79.8217 41.4152C80.4047 41.1885 80.7359 40.7217 80.7094 40.1083C80.6961 39.6416 80.4842 39.3349 80.0469 39.2015C79.3845 39.0015 78.6956 39.1082 78.0199 39.1348C77.8741 39.1348 77.8741 39.2549 77.8609 39.3615C77.8212 40.7217 77.7814 42.0819 77.7417 43.4421C77.7152 44.2022 77.7019 44.9623 77.6887 45.7358C77.6887 45.9225 77.6224 45.9892 77.4369 45.9892C76.9865 45.9892 76.536 45.9892 76.0856 45.9892C75.9001 45.9892 75.8471 45.9225 75.8736 45.7491C76.1121 43.2288 76.1916 40.6951 76.2048 38.1747C76.2048 37.9347 76.2843 37.8813 76.5095 37.8947C77.119 37.8947 77.7417 37.8947 78.4571 37.8947H78.4438Z" fill="#A1A2A1"/>
<path d="M90.9373 37.8947C91.2156 37.8947 91.4938 37.9081 91.772 37.8947C91.9707 37.8814 92.0635 37.9614 92.1165 38.1481C92.7789 40.1617 93.5341 42.1487 94.2628 44.1356C94.4615 44.6824 94.6602 45.2291 94.8722 45.7625C94.965 45.9759 94.8722 46.0025 94.6867 46.0025C94.223 46.0025 93.7461 46.0025 93.2824 46.0025C93.0704 46.0025 92.9777 45.9359 92.9247 45.7358C92.7127 44.9491 92.4345 44.1756 92.1562 43.4022C92.1032 43.2422 92.0237 43.1755 91.8515 43.1755C90.9638 43.1755 90.0894 43.1755 89.2018 43.1755C89.0295 43.1755 88.9368 43.2422 88.8705 43.3888C88.4996 44.1756 88.1286 44.9624 87.7709 45.7492C87.6914 45.9359 87.5854 46.0159 87.3867 46.0025C86.8965 45.9892 86.4063 46.0025 85.9161 46.0025C85.7173 46.0025 85.6511 45.9625 85.7703 45.7625C87.1482 43.2288 88.4731 40.6685 89.745 38.0948C89.8112 37.9481 89.9039 37.9081 90.0629 37.9081C90.3544 37.9081 90.6591 37.9081 90.9506 37.9081L90.9373 37.8947Z" fill="#A1A2A1"/>
<path d="M68.1535 45.9893C67.915 45.9893 67.6766 45.9893 67.4381 45.9893C67.2526 45.9893 67.1731 45.9226 67.1201 45.7492C66.8949 44.9624 66.6299 44.189 66.3384 43.4156C66.2722 43.2289 66.1795 43.1622 65.9807 43.1622C65.1196 43.1622 64.2584 43.1622 63.3972 43.1622C63.1985 43.1622 63.1057 43.2422 63.0262 43.4022C62.6685 44.1757 62.2976 44.9491 61.9398 45.7359C61.8604 45.9226 61.7544 45.9893 61.5556 45.9893C61.0654 45.9759 60.5752 45.9893 60.085 45.9893C59.8995 45.9893 59.82 45.9626 59.9393 45.7492C61.3172 43.2289 62.642 40.6818 63.9007 38.1081C63.9802 37.9481 64.0729 37.8948 64.2584 37.8948C64.8281 37.8948 65.411 37.8948 65.9807 37.8948C66.153 37.8948 66.2324 37.9481 66.2854 38.1215C67.1334 40.6818 68.1005 43.2022 69.0412 45.7359C69.1339 45.9759 69.0677 46.0159 68.8425 46.0026C68.6172 46.0026 68.3787 46.0026 68.1535 46.0026V45.9893Z" fill="#A1A2A1"/>
<path d="M32.8806 0.329346C32.9866 0.422692 33.1191 0.369351 33.2118 0.409357C32.5494 1.46284 31.728 2.40964 30.9728 3.39645C30.6151 3.87652 30.2309 4.35658 29.8732 4.83665C29.33 5.58342 28.7338 6.27686 28.2038 7.02363C27.7004 7.74373 27.1307 8.39716 26.6007 9.09059C26.0575 9.79735 25.5276 10.5175 24.9844 11.2242C24.4279 11.931 23.845 12.6244 23.315 13.3445C22.8911 13.9313 22.4671 14.5314 22.0166 15.0914C21.6987 15.4915 21.3807 15.9182 21.0627 16.3183C21.0097 16.385 20.9435 16.425 20.864 16.425C20.4268 16.425 19.9763 16.425 19.5391 16.425C19.3934 16.425 19.3404 16.3716 19.4464 16.2383C19.8041 15.8115 20.1221 15.3448 20.4665 14.9181C20.9567 14.3047 21.4072 13.6646 21.8709 13.0378C22.1756 12.6244 22.5201 12.2377 22.8248 11.811C23.315 11.1175 23.8582 10.4508 24.3882 9.77068C24.9579 9.03725 25.5541 8.31714 26.0973 7.57037C26.508 6.99696 26.9849 6.46355 27.3824 5.8768C27.8461 5.18337 28.4025 4.54328 28.906 3.87652C29.2505 3.42312 29.6347 2.98306 29.9659 2.51632C30.4031 1.9029 30.8801 1.31615 31.357 0.716067C31.4365 0.609385 31.516 0.529374 31.357 0.409357C31.7147 0.342681 32.0459 0.462698 32.3507 0.329346C32.5229 0.329346 32.6951 0.329346 32.8674 0.329346H32.8806Z" fill="#7E7E7E"/>
<path d="M56.4536 42.5887C56.4536 43.6155 56.4536 44.629 56.4536 45.6558C56.4536 45.9225 56.3608 46.0158 56.1091 46.0025C55.7249 45.9892 55.3407 46.0025 54.9565 46.0025C54.7577 46.0025 54.6915 45.9625 54.7048 45.7358C54.9035 43.4688 54.9565 41.1885 55.0095 38.9082C55.0095 38.6415 55.036 38.3614 55.0227 38.0947C55.0227 37.948 55.0625 37.8947 55.2215 37.8947C56.5198 37.8947 57.8182 37.868 59.1033 37.908C60.1102 37.9347 60.8654 38.7615 60.9184 39.815C60.9979 41.3885 59.9778 42.5354 58.4012 42.642C58.0434 42.6687 57.699 42.6554 57.3413 42.6154C57.1823 42.602 57.1028 42.522 57.0763 42.3753C57.0233 42.122 56.957 41.8686 56.8908 41.6152C56.8378 41.4419 56.8908 41.3885 57.063 41.4152C57.434 41.4685 57.805 41.4685 58.1759 41.3752C58.9444 41.1885 59.3418 40.5084 59.1563 39.735C59.0636 39.3349 58.7721 39.1749 58.4012 39.1215C57.8845 39.0549 57.3678 39.1215 56.8511 39.1215C56.6656 39.1215 56.6391 39.2549 56.6391 39.4016C56.5993 40.3617 56.5596 41.3085 56.5331 42.2686C56.5331 42.3753 56.5331 42.482 56.5198 42.5887C56.4933 42.5887 56.4801 42.5887 56.4536 42.5887Z" fill="#A1A2A1"/>
<path d="M34.8959 46.1225C34.154 46.1492 33.4385 46.0691 32.7496 45.8024C31.3452 45.269 30.4841 44.2689 30.3251 42.7487C30.1131 40.8151 30.8285 39.0148 32.6966 38.2014C33.5048 37.8413 34.3659 37.7213 35.2536 37.7346C35.7571 37.748 36.2605 37.828 36.764 37.8947C37.0289 37.9347 37.1747 38.028 37.1482 38.3347C37.1349 38.5614 37.1614 38.8014 37.1747 39.0281C37.2012 39.3749 37.1879 39.3882 36.87 39.2949C36.0883 39.0815 35.2934 38.9481 34.4852 39.1215C32.5641 39.5216 31.5307 41.6152 32.3786 43.4021C32.8158 44.3222 33.6108 44.7223 34.5779 44.8023C35.3199 44.869 36.0485 44.749 36.764 44.5489C36.9892 44.4823 37.0687 44.5223 37.0157 44.7623C36.9627 45.069 36.9097 45.3757 36.87 45.6824C36.8567 45.8558 36.764 45.9358 36.605 45.9491C36.0353 46.0291 35.4656 46.1091 34.8826 46.1225H34.8959Z" fill="#A1A2A1"/>
<path d="M72.05 37.8948C73.0702 37.8948 74.1036 37.8948 75.1237 37.8948C75.402 37.8948 75.4417 37.9881 75.4285 38.2282C75.402 38.4815 75.3887 38.7482 75.3887 39.0016C75.3887 39.1883 75.3225 39.255 75.137 39.2416C74.501 39.215 73.8518 39.215 73.2159 39.1883C72.9377 39.175 72.8582 39.2683 72.8449 39.5483C72.739 41.5886 72.633 43.6289 72.633 45.6825C72.633 45.9359 72.5667 46.0159 72.3017 46.0159C71.8645 46.0026 71.4406 46.0026 71.0034 46.0159C70.7781 46.0159 70.7119 45.9626 70.7251 45.7226C70.9106 43.6689 70.9769 41.602 71.0564 39.535C71.0564 39.255 70.9901 39.1883 70.7251 39.2016C70.0892 39.2283 69.4665 39.2283 68.8306 39.255C68.5921 39.255 68.5258 39.175 68.5523 38.9616C68.5788 38.7082 68.5921 38.4549 68.5788 38.2148C68.5788 37.9748 68.6716 37.9081 68.9101 37.9081C69.9567 37.9081 71.0034 37.9081 72.05 37.9081V37.8948Z" fill="#A1A2A1"/>
<path d="M50.4114 41.2818C50.3717 42.3086 50.332 43.3221 50.2657 44.3489C50.2657 44.589 50.3055 44.6956 50.5704 44.6823C51.6171 44.6556 52.6637 44.669 53.7104 44.6423C53.9489 44.6423 54.0416 44.6823 54.0019 44.9357C53.9621 45.2024 53.9489 45.4691 53.9489 45.7491C53.9489 45.9225 53.8694 45.9892 53.7104 45.9892C51.9881 45.9892 50.2525 45.9892 48.5301 45.9892C48.3579 45.9892 48.2916 45.9358 48.3181 45.7491C48.5699 43.2154 48.6626 40.6817 48.7024 38.1481C48.7024 37.948 48.7686 37.8813 48.9673 37.8813C49.431 37.8813 49.8815 37.8813 50.3452 37.8813C50.5439 37.8813 50.5837 37.9347 50.5837 38.1347C50.5174 39.1882 50.4644 40.2417 50.4114 41.2818Z" fill="#A1A2A1"/>
<path d="M21.5262 19.6922C21.3673 19.1321 21.672 18.7721 21.9635 18.4254C22.0297 18.3454 22.1489 18.3054 22.2549 18.3187C22.7451 18.3987 23.2486 18.3454 23.752 18.3587C24.0303 18.3587 24.1098 18.452 24.0568 18.7454C23.9508 19.4522 24.123 20.1456 24.0833 20.8524C24.0833 20.9324 24.0965 21.0391 24.1892 21.0391C24.494 21.0391 24.6 21.3458 24.8119 21.4658C24.9047 21.5191 24.9312 21.6258 24.9444 21.7458C24.9577 22.2392 24.9179 22.746 25.1167 23.2261C25.1167 23.2394 25.1167 23.2661 25.1167 23.2794C24.7589 23.7061 25.1564 24.1995 25.0239 24.6396C24.9974 24.7063 25.0239 24.7863 25.1034 24.8129C25.1829 24.8396 25.2624 24.8129 25.2889 24.7196C25.3551 24.4929 25.5009 24.5996 25.6334 24.6129C25.8056 24.6396 25.8586 24.7329 25.8586 24.893C25.8586 25.1863 25.8321 25.493 25.9116 25.7864C25.9248 25.8398 25.9116 25.9064 25.9513 25.9598C26.0971 26.1998 26.2163 26.4132 25.8983 26.6265C25.8056 26.6799 25.8453 26.8399 25.8983 26.9599C25.9513 27.0933 25.9778 27.2133 25.9381 27.36C25.8851 27.5733 26.0043 27.6267 26.1898 27.64C26.7198 27.68 26.7065 27.68 26.7993 28.2001C26.8523 28.4801 26.786 28.7735 26.9185 29.0535C26.9847 29.2002 26.8125 29.2802 26.6933 29.2936C26.2296 29.3603 25.7526 29.3336 25.2889 29.3069C25.1564 29.3069 25.1299 29.1869 25.1432 29.0669C25.2227 28.6135 25.1829 28.1334 25.0107 27.7334C24.8782 27.4133 24.8782 27.1599 24.9842 26.8666C25.0107 26.7866 24.9842 26.6932 24.9179 26.6665C24.6927 26.5599 24.6 26.3465 24.4145 26.1998C24.2025 26.0264 24.2687 25.7331 24.2422 25.493C24.176 25.0263 24.176 24.5462 24.176 24.0795C24.176 23.9595 24.176 23.8395 24.0435 23.7861C23.8978 23.7461 23.752 23.7861 23.6858 23.9061C23.5401 24.1862 23.3281 24.1729 23.0764 24.1328C22.8909 24.1062 22.6921 24.1062 22.5067 24.1062C21.354 24.1062 20.2014 24.1062 19.0487 24.1062C18.6645 24.1062 18.6513 24.1062 18.691 23.7195C18.691 23.6261 18.7043 23.5194 18.691 23.4261C18.638 23.1994 18.638 23.0127 18.9295 22.9327C19.1017 22.8927 19.0885 22.7193 19.0752 22.5726C19.0355 22.1859 19.0752 22.1459 19.4329 22.0659C19.5124 22.0526 19.6184 22.0125 19.6052 21.9459C19.5257 21.6525 19.8304 21.5458 19.8966 21.3324C19.9496 21.1858 20.1219 21.1858 20.2411 21.1724C20.4266 21.1458 20.5193 21.0524 20.5061 20.8657C20.5061 20.799 20.5061 20.7324 20.5061 20.6657C20.4928 20.239 20.6386 20.2256 21.036 20.199C21.195 20.199 21.301 20.3323 21.2215 20.479C21.089 20.7057 21.0228 20.9991 20.7181 21.0791C20.6386 21.1058 20.5591 21.1591 20.5326 21.2524C20.4266 21.6392 20.1219 21.8259 19.8172 22.0392C19.6184 22.1859 19.4462 22.3726 19.4594 22.666C19.4594 22.8927 19.3932 23.1194 19.4064 23.3594C19.4197 23.8795 19.4727 23.9061 19.9761 23.9595C20.5723 24.0262 21.1685 23.9862 21.7647 23.9995C22.0694 23.9995 22.3609 23.9862 22.6391 23.8661C22.7451 23.8261 22.8379 23.8661 22.9306 23.9195C23.1558 24.0395 23.2221 23.9862 23.2486 23.7328C23.2751 23.2394 23.2618 22.7593 23.2486 22.2792C23.2486 21.9192 23.2221 21.5458 23.2486 21.1724C23.2751 20.9324 23.2221 20.759 22.9174 20.7724C22.7186 20.7724 22.6259 20.6524 22.6656 20.4523C22.6921 20.3456 22.7054 20.239 22.7186 20.1456C22.7186 20.0923 22.7451 19.9989 22.7186 19.9856C22.4404 19.8256 22.4272 19.5055 22.2549 19.2922C22.1622 19.1588 22.0032 19.2388 21.8972 19.3322C21.7647 19.4522 21.6455 19.5989 21.4998 19.7456L21.5262 19.6922Z" fill="white"/>
<path d="M17.6832 29.3202C17.5242 29.3202 17.352 29.3202 17.193 29.3202C16.8618 29.3202 16.7425 29.1869 16.7955 28.8668C16.8353 28.5868 16.769 28.3068 16.7558 28.0267C16.7425 27.72 16.557 27.56 16.2921 27.5467C16.0138 27.52 15.9873 27.3733 15.9343 27.1466C15.8416 26.7199 16.0138 26.2798 15.8549 25.8531C15.8284 25.7864 15.8151 25.6797 15.7621 25.6397C15.5634 25.493 15.5236 25.3063 15.5899 25.0796C15.6296 24.9596 15.5899 24.8529 15.4839 24.7596C15.4309 24.7063 15.3647 24.6529 15.3647 24.5729C15.3779 24.3729 15.2719 24.3195 15.0997 24.3329C14.8479 24.3329 14.795 24.2529 14.9539 24.0528C14.9804 24.0128 15.0069 23.9595 15.0069 23.9195C15.0069 23.5728 15.0069 23.226 14.9937 22.8927C14.9937 22.8527 14.9937 22.7993 14.9539 22.786C14.6095 22.5059 14.7022 21.9859 14.3975 21.7325C14 21.3991 14.1193 20.9724 14.106 20.5723C14.106 20.3323 14.106 20.1056 13.8543 19.9722C13.7483 19.9189 13.7615 19.7856 13.7615 19.6789C13.7615 19.3055 13.6821 18.9721 13.2846 18.7987C13.1919 18.7587 13.1786 18.6654 13.1919 18.572C13.1919 18.4654 13.2713 18.3987 13.3773 18.3854C13.8013 18.3587 14.2253 18.3454 14.636 18.3854C14.8744 18.412 14.9539 18.6387 14.8479 18.8654C14.7685 19.0121 14.7817 19.1721 14.795 19.3188C14.8214 19.5055 14.8347 19.6922 14.8082 19.8922C14.7817 20.0789 14.8612 20.2256 15.0864 20.1856C15.2189 20.1589 15.2719 20.2523 15.3514 20.3456C15.5501 20.5457 15.7091 20.759 15.7489 21.0391C15.7489 21.0391 15.7489 21.0524 15.7621 21.0657C15.9343 21.2658 16.7028 21.1724 16.8088 20.919C16.9148 20.6657 17.2195 20.599 17.299 20.319C17.3255 20.239 17.458 20.2523 17.5374 20.3456C17.6832 20.5457 17.6037 20.9324 17.3917 21.0524C17.3122 21.0924 17.2062 21.1191 17.1267 21.1591C16.8618 21.2791 16.7028 21.4391 16.716 21.7725C16.716 22.0925 16.7425 22.4659 16.3583 22.6393C16.2921 22.666 16.2921 22.746 16.3583 22.7726C16.6763 22.9327 16.6763 23.2527 16.7028 23.5461C16.716 23.7194 16.7558 23.8928 16.8618 24.0395C17.0472 24.2929 17.2592 24.3329 17.5242 24.1862C17.6699 24.1062 17.8157 24.0528 17.9747 24.0128C18.0806 23.9728 18.1866 24.0262 18.2529 24.1195C18.3059 24.1995 18.2926 24.2795 18.2264 24.3595C18.1469 24.4395 18.1204 24.5462 17.9614 24.5062C17.6832 24.4395 17.6302 24.5062 17.6302 24.7996C17.6302 25.4264 17.5904 26.0664 17.5904 26.6932C17.5904 27.2399 17.6434 27.7867 17.6169 28.3334C17.6169 28.5068 17.7229 28.5868 17.9084 28.5468C18.3589 28.4535 18.6371 28.7735 18.4914 29.2136C18.4516 29.3202 18.3721 29.3336 18.2926 29.3336C18.0939 29.3336 17.8952 29.3336 17.6832 29.3336V29.3202Z" fill="white"/>
<path d="M10.2801 18.3718C10.4788 18.3718 10.6775 18.3718 10.8895 18.3718C11.0882 18.3718 11.181 18.4518 11.1545 18.6785C11.1015 19.1053 11.1147 19.5453 11.234 19.9721C11.3002 20.1854 11.393 20.2254 11.5785 20.2121C12.0024 20.1587 12.0289 20.1721 12.0554 20.5855C12.0819 20.9455 12.1481 21.2922 12.1746 21.639C12.2011 21.9323 12.0554 22.2524 12.0952 22.5724C12.1349 22.9458 12.2144 23.0658 12.5854 23.0392C12.8503 23.0125 12.9696 23.1192 12.9696 23.3992C12.9696 23.6926 13.0226 23.986 12.9961 24.2927C12.9563 24.5994 13.3273 24.8927 13.632 24.8261C13.8175 24.7861 13.8572 24.8394 13.897 25.0128C14.003 25.4795 13.8837 25.9462 13.897 26.4263C13.9102 26.733 13.897 27.0397 13.897 27.3464C13.897 27.5331 13.9897 27.6398 14.1752 27.6931C14.6389 27.8398 15.0894 27.7198 15.5398 27.5998C15.6326 27.5731 15.7121 27.5598 15.7518 27.6531C15.8048 27.7598 15.8181 27.8932 15.6988 27.9332C15.4868 27.9865 15.3808 28.1332 15.3146 28.3199C15.3146 28.3199 15.3146 28.3332 15.3014 28.3466C14.8774 28.4133 14.9171 28.7466 14.8641 29.0533C14.8244 29.2534 14.7052 29.3334 14.4932 29.3334C14.162 29.3334 13.844 29.3334 13.5128 29.3334C13.314 29.3334 13.1816 29.28 13.1286 29.0667C13.1153 29 13.0756 28.9467 13.0226 28.8933C12.8901 28.7733 12.8503 28.68 13.0226 28.5599C13.1418 28.4799 13.1948 27.7732 13.1153 27.6531C13.0623 27.5865 12.9961 27.5598 12.9166 27.5598C12.2806 27.5331 12.1481 27.3864 12.1879 26.7463C12.2011 26.453 12.1481 26.1596 12.2276 25.8529C12.3071 25.5328 12.0157 25.2395 11.7639 25.0794C11.3665 24.8261 11.2737 24.4927 11.3135 24.066C11.3135 23.9593 11.287 23.8793 11.2207 23.7993C11.0485 23.5592 11.075 23.3059 11.2207 23.0658C11.3135 22.9191 11.3002 22.7858 11.3002 22.6391C11.3267 22.2124 11.234 21.9457 10.7835 21.8123C10.4126 21.6923 10.3728 21.3322 10.3993 20.9722C10.4391 20.5055 10.3596 20.0521 10.3331 19.5853C10.3198 19.2386 10.0813 19.1053 9.75012 19.2253C9.4719 19.332 9.24667 19.4653 9.23342 19.7987C9.23342 19.9054 8.75646 20.1854 8.65047 20.1587C8.53123 20.1187 8.47824 20.0121 8.54448 19.9054C8.66372 19.7454 8.75646 19.5587 8.83596 19.3853C8.88895 19.292 9.00819 19.2653 9.11418 19.2653C9.43215 19.2653 9.48515 19.1986 9.4719 18.8786C9.4719 18.7986 9.45865 18.7185 9.43215 18.6519C9.36591 18.4652 9.4454 18.3985 9.61763 18.3985C9.82961 18.3985 10.0416 18.3985 10.2536 18.3985L10.2801 18.3718Z" fill="white"/>
<path d="M84.6845 37.8947C84.8965 37.8947 85.1084 37.9081 85.3204 37.8947C85.5722 37.8681 85.6516 37.9481 85.6384 38.2148C85.5854 38.9216 85.5457 39.615 85.5059 40.3218C85.4132 42.082 85.3734 43.8556 85.3469 45.6158C85.3469 46.0026 85.3469 46.0026 84.9627 46.0026C84.552 46.0026 84.1413 46.0026 83.7306 46.0026C83.4921 46.0026 83.4259 45.9359 83.4391 45.6825C83.5716 43.9089 83.6643 42.1353 83.7173 40.3618C83.7306 39.6417 83.7438 38.9082 83.7438 38.1881C83.7438 37.9748 83.7968 37.8681 84.0353 37.8947C84.2605 37.9214 84.4725 37.8947 84.6977 37.8947H84.6845Z" fill="#A1A2A1"/>
<path d="M41.497 54.5771C41.497 54.1904 41.497 53.7903 41.497 53.3903C41.497 53.1369 41.5632 53.0436 41.8149 53.0569C42.1329 53.0836 42.4509 53.0569 42.7688 53.0569C42.9278 53.0569 43.0206 53.0969 43.0206 53.2836C43.0206 54.8572 43.0206 56.4307 43.0206 58.0043C43.0206 58.1776 42.9676 58.2576 42.7821 58.2443C42.5304 58.2443 42.2654 58.2443 42.0004 58.2443C41.7487 58.2443 41.5102 58.2576 41.55 57.8576C41.285 58.191 40.967 58.311 40.5828 58.311C39.9734 58.311 39.5494 58.0443 39.3109 57.4975C38.9797 56.7108 38.9797 55.9106 39.3109 55.1372C39.6554 54.3371 40.5828 54.0704 41.3115 54.5238C41.3512 54.5504 41.391 54.6171 41.497 54.5771Z" fill="#A1A2A1"/>
<path d="M32.9625 57.7909C32.4987 58.2976 31.9555 58.391 31.3593 58.2709C30.8559 58.1776 30.5247 57.8442 30.4452 57.3908C30.3524 56.8974 30.5379 56.4574 30.9751 56.1773C31.4521 55.8706 31.9953 55.8306 32.5385 55.7506C32.671 55.7373 32.883 55.8439 32.8962 55.5906C32.9095 55.3639 32.7505 55.2305 32.4722 55.2305C32.247 55.2305 32.0483 55.2705 31.9423 55.5106C31.8893 55.6439 31.7966 55.6572 31.6906 55.6439C31.3726 55.6039 31.0414 55.5639 30.7234 55.5506C30.5247 55.5506 30.5379 55.4572 30.5909 55.3105C30.8029 54.7771 31.2401 54.5104 31.7701 54.3904C32.3265 54.2704 32.8697 54.2704 33.4262 54.4171C34.0886 54.5904 34.3668 54.9638 34.3668 55.6439C34.3668 56.2573 34.3668 56.8841 34.3668 57.4975C34.3668 57.5909 34.3668 57.6975 34.3668 57.7909C34.4198 58.2443 34.4198 58.2443 33.9561 58.2443C33.7839 58.2443 33.6116 58.2443 33.4394 58.2443C33.1656 58.2443 33.0022 58.0931 32.9492 57.7909H32.9625Z" fill="#A1A2A1"/>
<path d="M12.0036 54.8172C12.4673 54.1904 13.2357 54.2304 13.6994 54.4171C14.0836 54.5772 14.2691 54.9239 14.2823 55.3106C14.3088 56.2174 14.2956 57.1242 14.3088 58.031C14.3088 58.191 14.2293 58.231 14.0969 58.231C13.7656 58.231 13.4212 58.231 13.09 58.231C12.878 58.231 12.8117 58.151 12.8117 57.951C12.8117 57.2442 12.8117 56.5374 12.8117 55.8307C12.8117 55.604 12.8117 55.3639 12.4938 55.3373C12.2685 55.3239 12.0963 55.4973 12.083 55.804C12.0566 56.4841 12.0566 57.1775 12.083 57.8576C12.083 58.151 12.0036 58.2577 11.7121 58.231C11.4206 58.2043 11.1159 58.231 10.8244 58.231C10.6522 58.231 10.5859 58.1777 10.5859 58.0043C10.5859 56.8708 10.5859 55.724 10.5859 54.5905C10.5859 54.4171 10.6522 54.3771 10.8112 54.3771C11.0629 54.3771 11.3146 54.3771 11.5531 54.3771C11.9771 54.3771 11.9771 54.3771 12.0301 54.8172H12.0036Z" fill="#A1A2A1"/>
<path d="M36.3293 54.8172C36.7003 54.3905 37.1242 54.2571 37.6012 54.3105C38.2504 54.3905 38.6081 54.7238 38.6346 55.3773C38.6743 56.2574 38.6478 57.1509 38.6611 58.0443C38.6611 58.1777 38.6213 58.2443 38.4756 58.2443C38.1046 58.2443 37.7337 58.2443 37.3495 58.2443C37.1375 58.2443 37.1507 58.111 37.1507 57.9643C37.1507 57.2842 37.1507 56.6174 37.1507 55.9373C37.1507 55.5106 37.0712 55.3639 36.846 55.3506C36.581 55.3506 36.422 55.5373 36.4088 55.9507C36.3955 56.6174 36.3955 57.2842 36.4088 57.951C36.4088 58.1777 36.3426 58.2577 36.1041 58.2443C35.7861 58.231 35.4681 58.2443 35.1502 58.2443C34.9912 58.2443 34.8984 58.2043 34.8984 58.0176C34.8984 56.8842 34.8984 55.7373 34.8984 54.6038C34.8984 54.4305 34.9779 54.3905 35.1237 54.3905C35.3886 54.3905 35.6404 54.3905 35.9053 54.3905C36.1703 54.3905 36.4485 54.3505 36.3161 54.8172H36.3293Z" fill="#A1A2A1"/>
<path d="M24.6652 54.817C24.917 54.537 25.1554 54.3903 25.4469 54.3236C26.3346 54.1369 26.9573 54.6036 26.9838 55.5104C27.0103 56.3372 26.9838 57.164 26.997 58.0041C26.997 58.1775 26.944 58.2442 26.7718 58.2442C26.4273 58.2442 26.0829 58.2442 25.7384 58.2442C25.5397 58.2442 25.4999 58.1642 25.4999 57.9775C25.4999 57.2974 25.4999 56.6306 25.4999 55.9505C25.4999 55.8438 25.4999 55.7371 25.4734 55.6305C25.4469 55.4838 25.3674 55.3504 25.1952 55.3371C25.023 55.3371 24.9037 55.3904 24.811 55.5504C24.7447 55.6838 24.7447 55.8305 24.7447 55.9772C24.7447 56.6306 24.7447 57.284 24.7447 57.9508C24.7447 58.1642 24.6917 58.2442 24.4665 58.2442C24.1353 58.2308 23.7908 58.2442 23.4596 58.2442C23.3006 58.2442 23.2344 58.1775 23.2344 58.0175C23.2344 56.884 23.2344 55.7371 23.2344 54.6036C23.2344 54.4436 23.3006 54.3769 23.4596 54.3903C23.7113 54.3903 23.9631 54.3903 24.2015 54.3903C24.4533 54.3903 24.7845 54.2969 24.6387 54.8303L24.6652 54.817Z" fill="#A1A2A1"/>
<path d="M6.58493 56.6174C6.22721 56.6174 5.8695 56.6174 5.52503 56.6174C5.31305 56.6174 5.2733 56.7107 5.3263 56.8841C5.37929 57.1108 5.52503 57.2575 5.75026 57.2975C6.00199 57.3375 6.25371 57.2975 6.37295 57.0441C6.45244 56.8708 6.57168 56.8441 6.73067 56.8574C7.02214 56.8841 7.32686 56.9108 7.61833 56.9108C7.83032 56.9108 7.85681 57.0041 7.77732 57.1908C7.45935 57.9509 6.83666 58.2443 6.06823 58.311C5.97549 58.311 5.88275 58.311 5.77676 58.311C4.47838 58.2843 3.61721 57.4175 3.70995 56.204C3.81594 54.9505 4.84934 54.137 6.12122 54.3237C7.20762 54.4838 7.87006 55.2839 7.85681 56.3907C7.85681 56.564 7.79057 56.6307 7.61833 56.6307C7.27387 56.6307 6.9294 56.6307 6.58493 56.6307V56.6174Z" fill="#A1A2A1"/>
<path d="M21.505 56.6173C21.1472 56.6173 20.7895 56.6173 20.4451 56.6173C20.2728 56.6173 20.2331 56.6974 20.2596 56.8574C20.3126 57.0974 20.4451 57.2574 20.6835 57.2974C20.9353 57.3374 21.187 57.2974 21.3062 57.0441C21.3857 56.8574 21.4917 56.8307 21.6639 56.844C21.9554 56.8707 22.2601 56.8974 22.5516 56.9107C22.7636 56.9107 22.8033 57.0041 22.7238 57.1774C22.4854 57.7642 22.0349 58.0842 21.4387 58.2309C21.0412 58.3243 20.6438 58.3243 20.2331 58.2442C19.2659 58.0575 18.6697 57.3508 18.6565 56.3906C18.6432 55.3638 19.2262 54.5771 20.1801 54.3504C21.134 54.1237 22.0217 54.457 22.4854 55.1771C22.7106 55.5372 22.7768 55.9506 22.8033 56.364C22.8033 56.5373 22.7371 56.604 22.5649 56.604C22.2071 56.604 21.8494 56.604 21.505 56.604V56.6173Z" fill="#A1A2A1"/>
<path d="M45.5206 58.311C44.3017 58.311 43.4141 57.4842 43.4141 56.3374C43.4141 55.1372 44.2885 54.2971 45.5206 54.2971C46.7528 54.2971 47.6272 55.1506 47.6272 56.3374C47.6272 57.4842 46.7528 58.2977 45.5206 58.2977V58.311Z" fill="#A1A2A1"/>
<path d="M27.8367 56.364C27.8367 56.124 27.8367 55.8839 27.8367 55.6439C27.8499 55.4305 27.7705 55.3372 27.5585 55.3639C27.3597 55.3905 27.267 55.3105 27.2935 55.1105C27.2935 55.0438 27.2935 54.9771 27.2935 54.9105C27.2935 54.4571 27.2935 54.4437 27.744 54.377C27.8897 54.3504 27.9162 54.2704 27.9162 54.1637C27.9427 53.9103 27.9692 53.6436 27.9824 53.3902C27.9824 53.2436 28.0354 53.1502 28.1944 53.1502C28.4991 53.1502 28.8039 53.1502 29.1086 53.1235C29.2411 53.1235 29.2941 53.1769 29.2941 53.3102C29.2941 53.5769 29.3073 53.8303 29.2941 54.097C29.2941 54.3104 29.3471 54.3904 29.5723 54.3904C30.0625 54.3904 30.0625 54.4037 30.0625 54.8971C30.0625 54.9238 30.0625 54.9505 30.0625 54.9905C30.0625 55.4172 30.1552 55.4039 29.665 55.3772C29.3736 55.3639 29.2808 55.4572 29.2941 55.7506C29.3206 56.0973 29.2941 56.444 29.2941 56.7907C29.2941 57.1241 29.4133 57.2308 29.7445 57.1641C29.983 57.1241 30.0625 57.1774 30.0492 57.4175C30.0492 57.5242 30.0492 57.6308 30.0492 57.7375C30.0492 58.2176 30.0492 58.2176 29.5855 58.2843C29.4398 58.2976 29.2941 58.3243 29.1616 58.3243C28.3004 58.3376 27.8632 57.9242 27.8102 57.0708C27.8102 56.8441 27.8102 56.604 27.8102 56.3773L27.8367 56.364Z" fill="#A1A2A1"/>
<path d="M78.1563 59.6845C77.7588 59.6711 77.4409 59.6578 77.1361 59.5645C76.6327 59.4044 76.328 59.0177 76.381 58.5776C76.4075 58.3243 76.5399 58.1243 76.7519 57.9909C76.8712 57.9242 76.8712 57.8842 76.7784 57.7775C76.4605 57.3641 76.5002 57.0441 76.9109 56.7107C76.9904 56.644 77.0699 56.604 76.9639 56.484C76.5399 56.0173 76.4869 55.4839 76.7917 54.9371C77.0699 54.4437 77.7456 54.2037 78.3815 54.3104C78.4345 54.3104 78.5008 54.3104 78.5538 54.337C78.7525 54.4304 78.8585 54.3771 78.938 54.1637C79.044 53.8703 79.4679 53.7103 79.7594 53.7903C79.9184 53.8303 79.8786 53.9503 79.8786 54.0437C79.8786 54.137 79.9184 54.257 79.7461 54.2837C79.6269 54.2837 79.5209 54.3104 79.4149 54.3504C79.2029 54.4437 79.1367 54.6304 79.2559 54.8171C79.5872 55.3105 79.6534 55.8173 79.3089 56.324C78.9512 56.8441 78.408 56.9374 77.8251 56.8707C77.6793 56.8574 77.5203 56.8041 77.3746 56.8974C77.2421 56.9774 77.1361 57.0708 77.1759 57.2441C77.2156 57.4041 77.3216 57.4842 77.4806 57.5108C77.7986 57.5642 78.1165 57.5642 78.4213 57.5642C78.7392 57.5642 79.0572 57.5775 79.3619 57.6709C79.7329 57.7775 79.9581 58.0176 80.0111 58.4043C80.0774 58.7777 79.9449 59.0844 79.6402 59.3111C79.1632 59.6578 78.6067 59.6178 78.1563 59.6578V59.6845Z" fill="#A1A2A1"/>
<path d="M16.7631 56.2839C16.9353 55.7505 17.1208 55.2304 17.2798 54.697C17.346 54.457 17.452 54.377 17.7038 54.377C18.4987 54.377 18.4987 54.3636 18.2205 55.1104C17.876 56.0572 17.5183 57.0174 17.1871 57.9642C17.1208 58.1642 17.0148 58.2442 16.7896 58.2442C15.9417 58.2442 15.9417 58.2442 15.6502 57.4574C15.3057 56.524 14.948 55.5772 14.6036 54.6437C14.5373 54.457 14.5241 54.3637 14.7758 54.377C15.1203 54.3903 15.4647 54.3903 15.8092 54.377C16.0344 54.377 16.1272 54.4703 16.1802 54.6704C16.3126 55.1371 16.4716 55.6038 16.6306 56.0706C16.6571 56.1372 16.6571 56.2306 16.7631 56.2839Z" fill="#A1A2A1"/>
<path d="M54.7981 53.0568C54.5331 53.4036 54.3079 53.6969 54.0959 53.9903C52.7843 55.7105 51.4594 57.4308 50.1478 59.151C49.9755 59.3777 49.8033 59.5111 49.5118 59.4711C49.3396 59.4444 49.1673 59.4711 48.9951 59.4711C48.9289 59.4711 48.8229 59.5111 48.7831 59.4311C48.7434 59.3511 48.8361 59.2977 48.8759 59.231C49.4191 58.5109 49.9755 57.7908 50.5187 57.0707C51.4859 55.8039 52.4663 54.537 53.4334 53.2702C53.5527 53.1102 53.6719 53.0435 53.8707 53.0568C54.1489 53.0568 54.4404 53.0568 54.7981 53.0568Z" fill="#7E7E7E"/>
<path d="M2.26169 54.9505C2.48692 54.5505 2.7519 54.2838 3.2156 54.2971C3.40109 54.2971 3.49383 54.3505 3.49383 54.5638C3.48058 54.8705 3.49383 55.1772 3.49383 55.4839C3.49383 55.6173 3.45408 55.6573 3.30835 55.6573C2.71215 55.6306 2.50017 55.8307 2.48692 56.4441C2.48692 56.9508 2.48692 57.4709 2.48692 57.9776C2.48692 58.1777 2.42068 58.2443 2.22195 58.2443C1.89073 58.2443 1.54626 58.2443 1.21504 58.2443C1.04281 58.2443 0.976562 58.1777 0.976562 58.0043C0.976562 56.8708 0.976562 55.724 0.976562 54.5905C0.976562 54.4171 1.04281 54.3771 1.20179 54.3771C1.46677 54.3771 1.71849 54.3905 1.98347 54.3771C2.2087 54.3638 2.30144 54.4438 2.26169 54.6705C2.26169 54.7638 2.26169 54.8572 2.26169 54.9505Z" fill="#A1A2A1"/>
<path d="M74.3903 56.3908C74.0061 56.3908 73.6219 56.3908 73.2377 56.3908C73.1184 56.3908 73.0257 56.4041 73.0257 56.5508C73.0257 56.9642 73.1317 57.3376 73.4894 57.5909C73.8339 57.8443 74.2181 57.871 74.6023 57.6976C74.7878 57.6176 74.907 57.4709 75.013 57.3109C75.1587 57.0842 75.3972 57.0308 75.6092 57.1642C75.7417 57.2442 75.6489 57.3376 75.6092 57.4176C75.331 57.9776 74.854 58.2577 74.2578 58.311C73.5821 58.3644 73.0257 58.1643 72.6547 57.5643C72.1513 56.7508 72.2573 55.484 72.88 54.8305C73.7676 53.8971 75.2647 54.2571 75.6489 55.484C75.9139 56.3241 75.8742 56.3908 75.013 56.4041C74.801 56.4041 74.589 56.4041 74.3771 56.4041L74.3903 56.3908Z" fill="#A1A2A1"/>
<path d="M88.9796 58.3109C88.3436 58.3109 87.8667 58.0308 87.5885 57.4707C87.2307 56.7506 87.2043 56.0039 87.5487 55.2704C87.8534 54.6037 88.4099 54.2969 89.1253 54.3236C89.8407 54.337 90.3177 54.7237 90.5694 55.3638C90.8212 55.9905 90.8212 56.6306 90.5694 57.2574C90.2912 57.9508 89.7348 58.3109 88.9796 58.3242V58.3109Z" fill="#A1A2A1"/>
<path d="M61.0103 56.204C61.0103 56.9908 60.8248 57.5908 60.2551 58.0042C59.341 58.671 58.1221 58.2709 57.7511 57.1908C57.5391 56.5907 57.5391 55.9773 57.7644 55.3772C58.0161 54.6971 58.6123 54.297 59.3542 54.3104C60.0564 54.3104 60.6128 54.7238 60.8646 55.4039C60.9706 55.6972 61.0236 56.004 61.0103 56.204Z" fill="#A1A2A1"/>
<path d="M93.2061 58.3108C92.5702 58.2975 91.9872 58.1508 91.656 57.5107C91.6162 57.4174 91.4573 57.2973 91.6427 57.1907C91.8282 57.0707 92.1064 57.1107 92.1727 57.2573C92.4642 57.8041 93.4711 58.0041 93.948 57.6174C94.266 57.364 94.2263 56.924 93.842 56.7506C93.5638 56.6173 93.2723 56.6039 92.9809 56.5506C92.7159 56.4972 92.4509 56.4439 92.2124 56.3105C91.656 56.0172 91.5103 55.2837 91.8945 54.8037C92.4377 54.1236 93.9348 54.1636 94.425 54.8837C94.5045 55.0037 94.69 55.137 94.5177 55.2971C94.3587 55.4438 94.0805 55.3771 93.9613 55.2037C93.6566 54.8037 92.9544 54.6836 92.5304 54.9637C92.3714 55.0704 92.3052 55.2171 92.3184 55.4037C92.3317 55.6304 92.4642 55.7638 92.6629 55.8171C93.0339 55.9105 93.4181 55.9638 93.789 56.0438C94.4382 56.1905 94.7827 56.5772 94.7827 57.164C94.7827 57.6174 94.5442 57.9241 94.1468 58.1241C93.842 58.2708 93.5241 58.3242 93.1928 58.3108H93.2061Z" fill="#A1A2A1"/>
<path d="M69.8302 58.3109C69.34 58.2842 68.7703 58.1508 68.4391 57.5508C68.3861 57.4574 68.2006 57.2841 68.4391 57.204C68.5981 57.1374 68.8101 56.964 68.969 57.2841C69.2473 57.8308 70.2807 58.0042 70.7444 57.6041C71.0358 57.3507 70.9961 56.9507 70.6516 56.764C70.3867 56.6173 70.0952 56.6173 69.817 56.5506C69.552 56.4973 69.287 56.4573 69.0485 56.3373C68.6908 56.1639 68.4788 55.8839 68.4656 55.4705C68.4656 55.0571 68.6113 54.7237 68.9823 54.537C69.6447 54.1903 70.3072 54.217 70.9564 54.6037C71.0756 54.6704 71.1816 54.7637 71.2346 54.8971C71.3008 55.0171 71.4731 55.1504 71.3141 55.2971C71.1816 55.4305 70.8636 55.3771 70.7444 55.2171C70.4529 54.817 69.7375 54.6837 69.3135 54.9637C69.1413 55.0704 69.0618 55.2304 69.0883 55.4305C69.1148 55.6172 69.2208 55.7505 69.393 55.8172C69.658 55.9239 69.9495 55.9372 70.2409 56.0039C70.4662 56.0439 70.6914 56.0839 70.9034 56.1772C71.3008 56.3506 71.5261 56.6573 71.5525 57.084C71.579 57.5241 71.4068 57.8575 71.0358 58.0708C70.7046 58.2709 70.3337 58.3242 69.817 58.3242L69.8302 58.3109Z" fill="#A1A2A1"/>
<path d="M63.4854 58.3109C62.8494 58.2976 62.2665 58.1509 61.9353 57.5241C61.8823 57.4308 61.7233 57.2574 61.9353 57.2041C62.0942 57.1641 62.3195 56.9507 62.452 57.2574C62.7037 57.8442 63.7636 57.9508 64.2008 57.6308C64.5585 57.3641 64.5055 56.9107 64.0948 56.724C63.8563 56.6173 63.5913 56.604 63.3396 56.5506C63.0879 56.4973 62.8494 56.4573 62.6109 56.364C62.2267 56.2039 61.9883 55.9239 61.9618 55.4838C61.9485 55.0438 62.1075 54.6971 62.505 54.5104C63.1674 54.1903 63.8431 54.1903 64.4658 54.617C64.5718 54.6837 64.6645 54.7771 64.7175 54.8837C64.7705 55.0038 64.9692 55.1238 64.797 55.2705C64.638 55.4038 64.3598 55.3371 64.2405 55.1771C63.9358 54.7637 63.2336 54.6437 62.8097 54.9371C62.6507 55.0438 62.5712 55.1905 62.5977 55.3771C62.6109 55.5772 62.7169 55.6972 62.8892 55.7772C63.1541 55.8839 63.4456 55.8972 63.7238 55.9639C64.0418 56.0306 64.373 56.0706 64.638 56.2706C65.221 56.7107 65.2077 57.5908 64.5983 57.9909C64.2538 58.2176 63.8828 58.2976 63.4721 58.2842L63.4854 58.3109Z" fill="#A1A2A1"/>
<path d="M9.85411 56.3372C9.85411 56.884 9.85411 57.4307 9.85411 57.9908C9.85411 58.1908 9.78787 58.2575 9.58913 58.2575C9.25791 58.2575 8.91345 58.2575 8.58223 58.2575C8.40999 58.2575 8.34375 58.2042 8.34375 58.0175C8.34375 56.884 8.34375 55.7638 8.34375 54.6303C8.34375 54.4303 8.42324 54.377 8.59548 54.377C8.9267 54.377 9.27116 54.377 9.60238 54.377C9.78787 54.377 9.85411 54.4436 9.85411 54.6303C9.85411 55.2037 9.85411 55.7638 9.85411 56.3372Z" fill="#A1A2A1"/>
<path d="M83.1636 57.6575C83.0312 57.6975 83.0179 57.7775 82.9649 57.8309C82.5939 58.2576 82.1302 58.4043 81.587 58.2443C81.0571 58.0976 80.7921 57.7109 80.7391 57.1908C80.6596 56.324 80.7126 55.4572 80.7126 54.5904C80.7126 54.3104 80.9378 54.4304 81.0703 54.4037C81.2293 54.377 81.3221 54.4304 81.3088 54.6171C81.3088 55.3105 81.3088 56.0039 81.3088 56.6974C81.3088 56.8174 81.3088 56.9507 81.3353 57.0708C81.3751 57.3775 81.5075 57.6175 81.8255 57.7242C82.1435 57.8309 82.435 57.7242 82.6734 57.5242C82.9649 57.2708 83.0974 56.9374 83.0974 56.5507C83.0974 55.9373 83.0974 55.3105 83.0974 54.6971C83.0974 54.4837 83.1371 54.3904 83.3756 54.3904C83.5876 54.3904 83.7068 54.4171 83.7068 54.6838C83.6936 55.7639 83.7068 56.8441 83.7068 57.9242C83.7068 58.1109 83.6803 58.2309 83.4419 58.2309C83.2034 58.2309 83.1239 58.1509 83.1504 57.9242C83.1504 57.8442 83.1504 57.7509 83.1504 57.6442L83.1636 57.6575Z" fill="#A1A2A1"/>
<path d="M22.1611 19.9187C22.2009 20.9989 22.6248 21.9056 22.903 22.8391C22.9825 23.0925 22.9163 23.1325 22.6778 23.1325C21.8166 23.1325 20.9555 23.1325 20.0811 23.1325C20.0148 23.1325 19.9088 23.1725 19.8691 23.0925C19.8293 23.0125 19.9221 22.9591 19.9618 22.9058C20.7037 21.959 21.4722 21.0255 22.1479 19.932L22.1611 19.9187Z" fill="#A1A2A1"/>
<path d="M9.72547 19.9187C9.76521 21.0122 10.2024 21.919 10.4674 22.8658C10.5071 22.9991 10.5734 23.1325 10.3349 23.1325C9.36775 23.1325 8.40059 23.1325 7.36719 23.1325C8.16211 22.0657 8.99679 21.0922 9.71222 19.9187H9.72547Z" fill="#A1A2A1"/>
<path d="M85.5704 55.0972C85.6234 55.0038 85.6764 54.8971 85.7426 54.8038C85.9149 54.5371 86.1401 54.3504 86.4581 54.3237C86.6038 54.3104 86.8025 54.2037 86.8423 54.4704C86.8953 54.8038 86.8423 54.8705 86.5508 54.9238C86.0076 55.0172 85.6101 55.4572 85.5836 56.0573C85.5571 56.6841 85.5571 57.3108 85.5704 57.9376C85.5704 58.1643 85.5174 58.2576 85.2657 58.2576C85.0272 58.2576 84.9609 58.1643 84.9609 57.9376C84.9609 56.8574 84.9609 55.7773 84.9609 54.6971C84.9609 54.4838 85.0139 54.4171 85.2392 54.4171C85.4511 54.4171 85.5306 54.4838 85.5174 54.6971C85.5174 54.8305 85.5174 54.9638 85.5174 55.0972C85.5439 55.0972 85.5571 55.0972 85.5836 55.0972H85.5704Z" fill="#A1A2A1"/>
<path d="M55.9062 55.6572C55.9062 54.8838 55.9062 54.1103 55.9062 53.3369C55.9062 53.1235 55.9592 53.0435 56.1845 53.0568C56.3567 53.0702 56.5157 53.0435 56.5157 53.3102C56.5157 54.8571 56.5157 56.3906 56.5157 57.9375C56.5157 58.1776 56.4097 58.2176 56.211 58.2309C55.9857 58.2309 55.9195 58.1642 55.9195 57.9375C55.9195 57.1774 55.9195 56.4173 55.9195 55.6572H55.9062Z" fill="#A1A2A1"/>
<path d="M14.5972 27.4665C14.4117 26.8798 14.2527 26.3597 14.0805 25.853C14.054 25.7729 14.0805 25.7063 14.1467 25.6396C14.3587 25.3596 14.5707 25.0929 14.7827 24.8128C14.8754 24.6795 14.9284 24.7061 14.9814 24.8528C15.1271 25.2795 15.2729 25.7063 15.4318 26.133C15.4583 26.213 15.4583 26.2797 15.4186 26.3464C15.1669 26.7064 14.9019 27.0531 14.6104 27.4665H14.5972Z" fill="#A1A2A1"/>
<path d="M1.04688 32.9607C1.08662 32.894 1.16611 32.9073 1.23236 32.9073C11.8181 32.9073 22.4039 32.9073 32.9764 32.9073C33.0956 32.9073 33.2281 32.9073 33.3474 32.9607C33.0956 32.9607 32.8439 32.9607 32.6054 32.9607C22.2052 32.9607 11.8049 32.9607 1.40459 32.9607C1.28535 32.9607 1.17936 32.9607 1.06012 32.9607H1.04688Z" fill="#A1A2A1"/>
<path d="M9.11219 54.017C9.11219 54.017 9.09894 54.017 9.08569 54.017C8.27752 54.017 8.25102 53.9904 8.35701 53.1636C8.37026 53.0436 8.41 52.9902 8.52924 52.9902C8.91346 52.9902 9.29767 52.9902 9.68189 52.9902C9.81437 52.9902 9.86737 53.0569 9.86737 53.1903C9.86737 53.2036 9.86737 53.2303 9.86737 53.2436C9.88503 53.7681 9.63772 54.0304 9.12544 54.0304L9.11219 54.017Z" fill="#A1A2A1"/>
<path d="M10.2913 23.986C10.1588 24.146 10.0395 24.106 9.93354 24.106C8.97963 24.106 8.03897 24.106 7.08506 24.106C6.87308 24.106 6.70084 24.0793 6.51536 23.9593C6.35637 23.8526 6.17089 23.7459 5.94566 23.7859C5.78668 23.8126 5.74693 23.7059 5.76018 23.5592C5.78668 23.4125 6.25038 23.0525 6.39612 23.0525C6.47561 23.0525 6.56836 23.0525 6.5816 23.1458C6.62135 23.4659 6.89957 23.6126 7.08506 23.7859C7.29704 23.9726 7.64151 23.9993 7.95948 23.9993C8.71466 23.9993 9.46984 23.9993 10.278 23.9993L10.2913 23.986Z" fill="white"/>
<path d="M11.3686 27.8933C11.4083 28.0133 11.3686 28.1067 11.3023 28.1733C11.1433 28.4134 11.1036 28.6668 11.1036 28.9468C11.1036 29.0801 11.1301 29.2535 10.9711 29.2935C10.7591 29.3468 10.5339 29.3869 10.3352 29.2668C10.2027 29.1868 10.3352 28.6534 10.5074 28.6134C10.8519 28.5467 10.9976 28.3067 11.1433 28.0533C11.1831 27.9867 11.2361 27.9066 11.3553 27.8933H11.3686Z" fill="white"/>
<path d="M7.69824 21.559C7.67174 21.3323 7.69824 21.1056 7.64524 20.8923C7.63199 20.8256 7.64524 20.7456 7.71149 20.7056C7.87047 20.5989 8.00296 20.4655 8.1222 20.3188C8.26793 20.1588 8.47991 20.2255 8.54616 20.4255C8.6389 20.7189 8.47991 21.0789 8.18844 21.1723C7.97646 21.239 7.80423 21.319 7.69824 21.5457V21.559Z" fill="white"/>
<path d="M3.75207 26.8131C3.75207 27.3598 3.68583 27.4532 3.30161 27.5065C3.24862 27.5065 3.18237 27.5332 3.14263 27.4932C2.99689 27.3865 3.06313 26.8131 3.23537 26.7331C3.30161 26.7064 3.36785 26.6664 3.44735 26.6397C3.55334 26.5997 3.57983 26.3597 3.71232 26.453C3.81831 26.5197 3.73882 26.7064 3.76532 26.8131H3.75207Z" fill="white"/>
<path d="M4.89136 24.7729C4.85162 24.5596 4.85162 24.3596 5.14309 24.3329C5.24908 24.3329 5.24908 24.1862 5.28883 24.1062C5.32857 23.9995 5.40807 23.9328 5.5273 23.9595C5.65979 23.9862 5.65979 24.0928 5.64654 24.2129C5.62005 24.5329 5.51406 24.8129 5.19609 24.9596C5.10334 25.013 4.99735 25.133 4.89136 25.0797C4.78537 25.013 4.89136 24.8796 4.87811 24.7863L4.89136 24.7729Z" fill="white"/>
<path d="M2.88527 27.9866C2.88527 28.3467 2.5408 28.5734 2.22283 28.4267C2.14334 28.3867 2.09034 28.3334 2.10359 28.2534C2.10359 28.1333 2.13009 28 2.26258 27.9333C2.34207 27.8933 2.42156 27.8666 2.48781 27.8133C2.58055 27.7466 2.63354 27.6133 2.76603 27.6666C2.91177 27.7333 2.87202 27.8666 2.88527 27.9733V27.9866Z" fill="white"/>
<path d="M6.71976 22.6525C6.71976 22.6525 6.71976 22.5991 6.73301 22.5725C6.77276 22.4391 6.65352 22.2524 6.786 22.1591C6.91849 22.0657 7.10398 22.0657 7.27621 22.0257C7.47494 21.9724 7.46169 22.1724 7.4087 22.2791C7.30271 22.5058 7.13047 22.6925 6.94499 22.8525C6.82575 22.9592 6.70651 22.8525 6.71976 22.6658V22.6525Z" fill="white"/>
<path d="M19.1731 18.372C19.2526 18.372 19.3851 18.3453 19.4116 18.492C19.4381 18.612 19.3454 18.6921 19.2526 18.7454C19.1334 18.7987 19.0671 18.8654 19.0406 18.9854C19.0141 19.0788 18.9479 19.1321 18.8552 19.1321C18.7624 19.1321 18.7094 19.0654 18.6697 18.9721C18.5107 18.612 18.7227 18.3587 19.1731 18.372Z" fill="white"/>
<path d="M17.9655 20.0922C17.8595 20.0922 17.7668 20.0789 17.7138 19.9722C17.674 19.8655 17.7535 19.8122 17.8198 19.7589C17.9258 19.6922 17.9655 19.5855 18.0185 19.4922C18.098 19.3188 18.257 19.2255 18.416 19.3321C18.6014 19.4522 18.469 19.5722 18.363 19.6789C18.31 19.7455 18.2702 19.8255 18.2437 19.9056C18.1907 20.0522 18.0847 20.0789 17.9523 20.0922H17.9655Z" fill="white"/>
<path d="M2.16954 29.2401C2.03705 29.2268 1.90456 29.2135 1.77207 29.1868C1.59984 29.1468 1.46735 29.0534 1.5071 28.8401C1.52035 28.7334 1.59984 28.6667 1.69258 28.7467C1.85157 28.8801 2.0503 28.9734 2.23578 29.0668C2.28877 29.0934 2.32852 29.1468 2.31527 29.2001C2.28877 29.2801 2.22253 29.2535 2.16954 29.2268V29.2401Z" fill="white"/>
<path d="M22.0833 39.1882C22.388 40.0684 22.653 40.8685 22.9312 41.6686C22.971 41.8019 22.9312 41.8419 22.7987 41.8419C22.1893 41.8419 21.5798 41.8419 20.9571 41.8419C20.8379 41.8419 20.7982 41.8019 20.8512 41.6953C21.2486 40.8818 21.6461 40.0817 22.07 39.1882H22.0833Z" fill="white"/>
<path d="M6.16352 39.2014C6.46824 40.0949 6.74647 40.895 7.02469 41.6951C7.06444 41.8285 6.9982 41.8685 6.87896 41.8685C6.28276 41.8685 5.68657 41.8685 5.09037 41.8685C4.94464 41.8685 4.89164 41.8285 4.95789 41.6818C5.3421 40.8817 5.73956 40.0949 6.16352 39.2148V39.2014Z" fill="white"/>
<path d="M45.4014 41.7486C45.3882 42.322 45.3219 42.7754 45.1365 43.2021C44.6198 44.4289 43.4009 45.0557 42.023 44.7757C40.7379 44.5223 39.9429 43.5488 39.9297 42.2153C39.9297 41.3752 40.1019 40.6151 40.6584 39.9616C41.652 38.8015 43.6923 38.7215 44.6992 39.8283C45.2292 40.4017 45.4014 41.1218 45.4014 41.7619V41.7486Z" fill="white"/>
<path d="M90.8435 39.3081C91.1084 40.0949 91.3867 40.8817 91.6516 41.6818C91.7046 41.8285 91.6384 41.8685 91.5059 41.8685C90.9097 41.8685 90.3135 41.8685 89.7306 41.8685C89.6246 41.8685 89.5186 41.8685 89.5981 41.7084C89.9823 40.9083 90.3798 40.1082 90.764 39.3081C90.7905 39.3081 90.817 39.3081 90.8435 39.3081Z" fill="white"/>
<path d="M65.0103 39.2816C65.2885 40.0818 65.5535 40.8819 65.8317 41.682C65.8847 41.8287 65.8052 41.8553 65.6992 41.8553C65.0898 41.8553 64.4936 41.8553 63.8841 41.8553C63.7517 41.8553 63.7119 41.8153 63.7649 41.682C64.1491 40.8819 64.5466 40.0818 64.9308 39.2683C64.9573 39.2683 64.9838 39.2683 64.997 39.2683L65.0103 39.2816Z" fill="white"/>
<path d="M41.4817 56.2572C41.4817 56.4572 41.495 56.6706 41.4817 56.8706C41.4552 57.0973 41.3492 57.284 41.0975 57.2974C40.859 57.3107 40.7266 57.1373 40.6736 56.9373C40.5543 56.4839 40.5941 56.0172 40.7133 55.5638C40.7663 55.3638 40.912 55.2571 41.124 55.2704C41.3492 55.2837 41.4685 55.4304 41.4817 55.6571C41.4817 55.8572 41.4817 56.0572 41.4817 56.2705V56.2572Z" fill="white"/>
<path d="M32.9258 56.7106C32.886 57.1907 32.7138 57.3907 32.3561 57.3774C32.2236 57.3774 32.0911 57.3374 32.0249 57.1907C31.9586 57.0307 31.9719 56.884 32.0779 56.764C32.2633 56.5506 32.5283 56.4839 32.7933 56.4573C32.9258 56.4573 32.9258 56.4839 32.9125 56.7106H32.9258Z" fill="white"/>
<path d="M5.81384 55.8572C5.7476 55.8572 5.68136 55.8572 5.61511 55.8572C5.50912 55.8438 5.36339 55.9238 5.31039 55.7771C5.27064 55.6571 5.32364 55.5238 5.40313 55.4171C5.54887 55.2037 5.76085 55.1637 5.98608 55.2304C6.21131 55.2837 6.30405 55.4704 6.33055 55.6838C6.3438 55.8171 6.2908 55.8572 6.17156 55.8572C6.05232 55.8572 5.94633 55.8572 5.82709 55.8572H5.81384Z" fill="white"/>
<path d="M20.7482 55.8573C20.682 55.8573 20.6157 55.8573 20.5495 55.8573C20.2182 55.8573 20.1653 55.764 20.311 55.4706C20.4302 55.2572 20.6157 55.1906 20.8409 55.2172C21.0662 55.2439 21.1987 55.3773 21.2517 55.5906C21.2914 55.764 21.2781 55.884 21.0529 55.8573C20.9469 55.8573 20.8409 55.8573 20.7349 55.8573H20.7482Z" fill="white"/>
<path d="M45.0156 56.284C45.0289 56.084 45.0156 55.8306 45.0951 55.6039C45.1746 55.4039 45.2939 55.2705 45.5191 55.2705C45.7443 55.2705 45.89 55.4039 45.943 55.6039C46.0755 56.1106 46.0755 56.6174 45.9165 57.1108C45.8503 57.3108 45.6913 57.3775 45.4926 57.3775C45.2938 57.3775 45.1746 57.2708 45.1084 57.0841C45.0156 56.8307 45.0289 56.5774 45.0156 56.2706V56.284Z" fill="white"/>
<path d="M78.114 58.1376C78.4452 58.1376 78.7632 58.1376 79.0811 58.2176C79.2666 58.271 79.4256 58.3643 79.4389 58.5777C79.4521 58.7777 79.3461 58.9377 79.1739 59.0178C78.5512 59.2711 77.9153 59.3111 77.2793 59.0444C77.0408 58.9377 76.9216 58.7377 77.0011 58.4843C77.0673 58.231 77.2528 58.111 77.5178 58.1243C77.7165 58.1243 77.9153 58.1376 78.114 58.151V58.1376Z" fill="white"/>
<path d="M78.9115 55.6172C78.9115 56.0972 78.5936 56.4439 78.1034 56.4573C77.5999 56.4573 77.2554 56.1506 77.2422 55.6572C77.2422 55.1771 77.5734 54.8037 78.0636 54.8037C78.5406 54.8037 78.9115 55.1504 78.9115 55.6305V55.6172Z" fill="white"/>
<path d="M74.0714 55.9238C73.7932 55.9238 73.5149 55.9238 73.2367 55.9238C73.1042 55.9238 73.0512 55.8838 73.0645 55.7371C73.1175 55.2304 73.5812 54.777 74.0846 54.7637C74.5881 54.7637 74.9855 55.097 75.0783 55.6305C75.118 55.8305 75.0783 55.9372 74.8398 55.9238C74.5881 55.9105 74.3231 55.9238 74.0581 55.9238H74.0714Z" fill="white"/>
<path d="M90.0649 56.2439C90.0649 56.6306 90.0384 56.9373 89.906 57.2174C89.7337 57.6041 89.429 57.8175 89.005 57.8041C88.5811 57.8041 88.2764 57.5774 88.1306 57.164C87.9319 56.604 87.9186 56.0306 88.1306 55.4705C88.2764 55.0437 88.6341 54.8037 89.0448 54.8037C89.4555 54.8037 89.8 55.0704 89.959 55.4838C90.0517 55.7505 90.0782 56.0306 90.0782 56.2306L90.0649 56.2439Z" fill="white"/>
<path d="M60.3475 56.284C60.3475 56.6707 60.3077 57.0175 60.1222 57.3242C59.9235 57.6575 59.632 57.8309 59.2346 57.8042C58.8371 57.7776 58.5456 57.5642 58.3999 57.1908C58.2012 56.6307 58.1879 56.0573 58.3734 55.4972C58.5191 55.0705 58.8636 54.8171 59.2743 54.8171C59.685 54.8171 60.0295 55.0705 60.2017 55.4706C60.3077 55.7373 60.3475 56.0306 60.3342 56.284H60.3475Z" fill="white"/>
</svg>
