<svg width="82" height="82" viewBox="0 0 82 82" fill="none" xmlns="http://www.w3.org/2000/svg">
<mask id="mask0_5644_71532" style="mask-type:luminance" maskUnits="userSpaceOnUse" x="0" y="0" width="82" height="82">
<path d="M82 0H0V82H82V0Z" fill="white"/>
</mask>
<g mask="url(#mask0_5644_71532)">
<path d="M76.7811 28.84L55.8311 39.66L45.1611 45.17L39.6511 55.83L28.8311 76.79C28.3511 77.72 27.4011 78.3 26.3611 78.3H26.1311C25.0111 78.2 24.0511 77.44 23.7111 76.37L0.571124 4.08997C0.101124 2.62997 0.911112 1.05997 2.37111 0.589966C2.64111 0.499966 2.93109 0.459961 3.22109 0.459961C3.51109 0.459961 3.80112 0.499966 4.07112 0.589966L76.3511 23.73C77.8111 24.2 78.6211 25.76 78.1611 27.23C77.9411 27.93 77.4411 28.52 76.7811 28.86" fill="#8BB1DE"/>
<path d="M39.6506 55.8304L46.2506 62.4304L64.9706 81.1504C65.5206 81.7004 66.4006 81.7004 66.9506 81.1504L81.1406 66.9604C81.6906 66.4104 81.6906 65.5304 81.1406 64.9804L55.8106 39.6504L45.1506 45.1604L39.6406 55.8204L39.6506 55.8304Z" fill="#1B1F3A"/>
</g>
</svg>
