<svg width="99" height="64" viewBox="0 0 99 64" fill="none" xmlns="http://www.w3.org/2000/svg">
<mask id="mask0_5644_71571" style="mask-type:luminance" maskUnits="userSpaceOnUse" x="0" y="0" width="99" height="64">
<path d="M99 0H0V64H99V0Z" fill="white"/>
</mask>
<g mask="url(#mask0_5644_71571)">
<path d="M11.6328 50.5498H87.3728C88.6128 50.5498 89.6228 49.5598 89.6228 48.3298V2.23984C89.6228 0.999836 88.6128 -0.000160024 87.3728 0.00983998H11.6328C10.3928 0.00983998 9.39281 0.999836 9.38281 2.23984V48.3298C9.38281 49.5698 10.3928 50.5598 11.6328 50.5598M14.5328 4.84984H84.3228V45.5798H14.5328V4.84984Z" fill="#1B1F3A"/>
<path d="M90.241 52.0898C89.861 51.7198 89.3511 51.5198 88.8211 51.5098H10.181C9.65104 51.5098 9.14104 51.7198 8.75104 52.0898L0.83106 59.4598C-0.80894 60.9798 0.141053 63.9998 2.26105 63.9998H96.751C98.871 63.9998 99.821 60.9798 98.181 59.4598L90.2611 52.0898H90.241Z" fill="#1B1F3A"/>
<path d="M84.3112 4.83984H14.5312V45.5698H84.3112V4.83984ZM17.5912 29.0698H32.7012V30.9298H17.5912V29.0698ZM48.7312 41.9898H17.5912V32.6098H48.7312V41.9898ZM48.7512 30.9298H33.6412V29.0698H48.7512V30.9298ZM65.9112 41.1599H49.7012V39.7498H65.9112V41.1599ZM80.8312 38.7398H49.6912V37.3298H80.8312V38.7398ZM80.8312 36.3198H49.6912V34.9099H80.8312V36.3198ZM80.8312 33.9099H49.6912V32.4998H80.8312V33.9099ZM49.7012 29.0698H64.8112V30.9298H49.7012V29.0698ZM80.8612 30.9298H65.7512V29.0698H80.8612V30.9298ZM80.8612 27.3998H17.6012V8.30984H80.8612V27.3998Z" fill="white"/>
<path d="M80.8537 8.2998H17.5938V27.3998H80.8537V8.2998Z" fill="#8BB1DE"/>
<path d="M32.7037 29.0703H17.5938V30.9303H32.7037V29.0703Z" fill="#C8C8C8"/>
<path d="M48.7337 32.6094H17.5938V41.9894H48.7337V32.6094Z" fill="#C8C8C8"/>
<path d="M48.7584 29.0703H33.6484V30.9303H48.7584V29.0703Z" fill="#C8C8C8"/>
<path d="M64.8131 29.0703H49.7031V30.9303H64.8131V29.0703Z" fill="#C8C8C8"/>
<path d="M80.8431 32.5H49.7031V33.91H80.8431V32.5Z" fill="#8BB1DE"/>
<path d="M80.8431 34.9199H49.7031V36.3299H80.8431V34.9199Z" fill="#8BB1DE"/>
<path d="M80.8431 37.3398H49.7031V38.7498H80.8431V37.3398Z" fill="#8BB1DE"/>
<path d="M65.9231 39.75H49.7031V41.16H65.9231V39.75Z" fill="#8BB1DE"/>
<path d="M80.86 29.0703H65.75V30.9303H80.86V29.0703Z" fill="#C8C8C8"/>
</g>
</svg>
