<svg width="93" height="103" viewBox="0 0 93 103" fill="none" xmlns="http://www.w3.org/2000/svg">
<mask id="mask0_5644_71596" style="mask-type:luminance" maskUnits="userSpaceOnUse" x="0" y="0" width="93" height="103">
<path d="M92.9814 0.839844H0V102.796H92.9814V0.839844Z" fill="white"/>
</mask>
<g mask="url(#mask0_5644_71596)">
<path d="M46.49 96.7183C70.6552 85.3532 86.9119 64.1123 86.9119 39.7927V19.0016L76.0941 6.92676H16.896L6.07812 19.1615V39.7927C6.07812 64.1223 22.3349 85.3631 46.5 96.7283" fill="#8BB1DE"/>
<path d="M35.0263 66V31.0909H48.799C51.4467 31.0909 53.7024 31.5966 55.5661 32.608C57.4297 33.608 58.8501 35 59.8274 36.7841C60.8161 38.5568 61.3104 40.6023 61.3104 42.9205C61.3104 45.2386 60.8104 47.2841 59.8104 49.0568C58.8104 50.8295 57.3615 52.2102 55.4638 53.1989C53.5774 54.1875 51.2933 54.6818 48.6115 54.6818H39.8331V48.767H47.4183C48.8388 48.767 50.0092 48.5227 50.9297 48.0341C51.8615 47.5341 52.5547 46.8466 53.0092 45.9716C53.4751 45.0852 53.7081 44.0682 53.7081 42.9205C53.7081 41.7614 53.4751 40.75 53.0092 39.8864C52.5547 39.0114 51.8615 38.3352 50.9297 37.858C49.9979 37.3693 48.8161 37.125 47.3842 37.125H42.407V66H35.0263Z" fill="#041C3C"/>
<path d="M92.9814 39.7832V18.9921C92.9814 17.4927 92.4315 16.0433 91.4317 14.9338L80.6138 2.85898C79.4641 1.56953 77.8244 0.839844 76.0948 0.839844H16.8866C15.147 0.839844 13.4973 1.58952 12.3375 2.88896L1.5197 15.1237C0.539892 16.2332 0 17.6726 0 19.152V39.7832C0 65.5521 16.8266 89.4819 43.9112 102.216C45.5509 102.986 47.4405 102.986 49.0802 102.216C76.1647 89.4719 92.9914 65.5521 92.9914 39.7832M6.07878 19.152L16.8966 6.91724H76.1048L86.9226 18.9821V39.7732C86.9226 64.1027 70.6658 85.3436 46.5007 96.7088C22.3455 85.3536 6.07878 64.1027 6.07878 39.7732V19.142V19.152Z" fill="#1B1F3A"/>
</g>
</svg>
