<svg width="88" height="102" viewBox="0 0 88 102" fill="none" xmlns="http://www.w3.org/2000/svg">
<mask id="mask0_5644_71546" style="mask-type:luminance" maskUnits="userSpaceOnUse" x="0" y="0" width="88" height="102">
<path d="M88 0H0V102H88V0Z" fill="white"/>
</mask>
<g mask="url(#mask0_5644_71546)">
<path d="M68.8122 32.18V4.98999C68.8122 2.23999 66.2722 0 63.1322 0H5.67218C2.53218 0 -0.0078125 2.22999 -0.0078125 4.98999V32.18C-0.0078125 34.93 2.53218 37.17 5.67218 37.17H28.7722L28.0122 45.71L36.4622 37.17H63.1322C66.2722 37.17 68.8122 34.93 68.8122 32.18ZM34.9622 26.9H10.2222V24.05H34.9622V26.9ZM58.5922 19.7H10.2222V16.84H58.5922V19.7ZM58.5922 12.49H10.2222V9.63H58.5922V12.49Z" fill="#1B1F3A"/>
<path d="M88.0034 27.2101C87.8734 25.3701 86.2934 23.9801 84.4534 24.0901H71.3834V33.9001C71.3834 36.8601 68.6434 39.2701 65.2734 39.2701H48.0234V45.8101C48.1534 47.6501 49.7434 49.0401 51.5834 48.9301H69.1134L74.4034 54.2701L73.9234 48.9301H84.4634C86.3034 49.0401 87.8834 47.6501 88.0134 45.8101V27.2001L88.0034 27.2101Z" fill="#8BB1DE"/>
<path d="M23.5444 47.7696C14.9644 47.7496 7.99439 54.6896 7.98439 63.2696C7.97439 71.8496 14.9044 78.8196 23.4844 78.8296C32.0644 78.8396 39.0344 71.9096 39.0444 63.3296V63.3096C39.0544 54.7396 32.1244 47.7796 23.5544 47.7696" fill="#1B1F3A"/>
<path d="M47.08 94.9096C47.08 86.8596 40.56 80.3196 32.51 80.3096H14.57C6.52001 80.3196 -0.00998853 86.8596 1.14701e-05 94.9096V102H47.08V94.9096ZM29.31 99.4896H19.92L21.72 87.6696L19.92 99.4996H17.77L14.43 81.8996C14.76 81.8796 15.09 81.8496 15.42 81.8496H31.68C32.01 81.8496 32.34 81.8796 32.66 81.8996L29.32 99.4896H29.31Z" fill="#1B1F3A"/>
<path d="M15.4119 81.8496C15.0819 81.8496 14.7519 81.8796 14.4219 81.8996L17.7619 99.4896H19.9119L21.7119 87.6596H21.7719L20.0119 84.4096H27.0619L25.3019 87.6596H25.3719L27.1619 99.4896H29.3119L32.6519 81.8996C32.3219 81.8796 31.9919 81.8496 31.6619 81.8496H15.4119Z" fill="white"/>
<path d="M25.3719 87.6699H25.3119L27.0719 84.4199H20.0219L21.7819 87.6699H21.7219L19.9219 99.4999H27.1619L25.3619 87.6699H25.3719Z" fill="#8BB1DE"/>
<path d="M58.5887 9.62988H10.2188V12.4899H58.5887V9.62988Z" fill="white"/>
<path d="M58.5887 16.8398H10.2188V19.6999H58.5887V16.8398Z" fill="white"/>
<path d="M34.9587 24.0498H10.2188V26.9098H34.9587V24.0498Z" fill="white"/>
<path d="M68.019 58.5398C61.149 58.9998 55.959 64.9397 56.419 71.7997C56.859 78.3297 62.269 83.3997 68.809 83.4297C69.039 83.4297 69.269 83.4298 69.499 83.4098H84.329C84.419 83.4098 84.489 83.3498 84.489 83.2598C84.489 83.1898 84.449 83.1297 84.389 83.1097C82.389 82.1397 81.149 80.0797 81.239 77.8597V71.2097V70.9698C81.239 64.0998 75.689 58.5198 68.819 58.5098C68.549 58.5098 68.289 58.5098 68.019 58.5298" fill="#1B1F3A"/>
<path d="M87.6897 96.3204C87.6897 89.8604 82.4697 84.6204 76.0097 84.6104H61.6197C55.1597 84.6104 49.9297 89.8604 49.9297 96.3204V102H87.6897V96.3204ZM71.9397 91.9804L74.3197 94.2804L68.7997 100.27L63.2897 94.2704L65.6697 91.9704C65.6697 91.9704 62.1397 88.7504 61.9797 88.4804C61.6897 87.9804 64.1497 86.3304 64.1497 86.3304L68.7997 100.27L73.4497 86.3304C73.4497 86.3304 75.9097 87.9904 75.6297 88.4904C75.4697 88.7704 71.9297 91.9804 71.9297 91.9804" fill="#1B1F3A"/>
<path d="M61.9925 88.4901C62.1525 88.7701 65.6825 91.9801 65.6825 91.9801L63.3025 94.2801L68.8125 100.28L64.1625 86.3301C64.1625 86.3301 61.7025 87.9901 61.9925 88.4801" fill="#8BB1DE"/>
<path d="M73.4625 86.3301L68.8125 100.27L74.3325 94.2801L71.9525 91.9801C71.9525 91.9801 75.4925 88.7601 75.6525 88.4901C75.9325 87.9901 73.4725 86.3401 73.4725 86.3401" fill="#8BB1DE"/>
</g>
</svg>
