<svg width="150" height="43" viewBox="0 0 150 43" fill="none" xmlns="http://www.w3.org/2000/svg">
<path d="M103.012 37.9488C103.737 38.2313 104.937 38.423 105.596 38.423C106.958 38.423 107.715 37.8277 107.715 36.8188C107.715 35.6887 106.699 35.3053 105.488 34.9825C103.845 34.5587 102.764 34.0139 102.764 32.5105C102.764 31.0072 104.104 30.0991 105.888 30.0991C106.904 30.0991 107.78 30.3009 108.353 30.5027L108.071 31.3603C107.423 31.1383 106.482 30.9668 105.855 30.9668C104.71 30.9668 103.834 31.4007 103.834 32.339C103.834 33.4186 104.861 33.7818 106.039 34.1148C107.758 34.589 108.796 35.2852 108.796 36.6876C108.796 38.3524 107.401 39.2806 105.585 39.2806C104.331 39.2806 103.358 39.0385 102.742 38.7459L103.023 37.9488H103.012Z" fill="#A1A2A1"/>
<path d="M115.63 38.8776C114.981 39.1399 114.268 39.2711 113.349 39.2711C111.208 39.2711 110.062 38.474 110.062 35.8103C110.062 33.5503 111.133 32.3496 113.133 32.3496C115.132 32.3496 115.986 33.4292 115.986 35.2251C115.986 35.3462 115.976 35.6388 115.911 35.881H111.068C111.068 37.9392 111.943 38.474 113.349 38.474C114.041 38.474 114.84 38.3428 115.413 38.141C115.392 38.141 115.619 38.8776 115.619 38.8776H115.63ZM111.1 35.0839H114.981C114.916 33.8328 114.343 33.1467 113.133 33.1467C112.062 33.1467 111.284 33.6814 111.1 35.0839Z" fill="#A1A2A1"/>
<path d="M119.041 37.2032C118.922 37.3545 118.792 37.9195 119.041 38.2121H121.614C123.462 38.2121 123.916 39.4128 123.754 40.341C123.538 41.5417 122.284 42.4094 120.046 42.4094C118.49 42.4094 117.203 41.7838 117.203 40.6134C117.203 40.1493 117.29 39.3523 118.349 38.8175C118.057 38.6157 117.906 38.202 117.981 37.7581C118.025 37.4857 118.187 37.2435 118.457 37.0115C117.754 36.6684 117.257 36.0731 117.257 34.9532C117.257 33.1169 118.295 32.3602 120.338 32.3602C120.976 32.3602 121.527 32.4712 121.949 32.7032L123.17 31.2402L123.905 32.0171L122.468 33.1371C122.781 33.5104 123.04 33.9745 123.04 34.6909C123.04 36.5272 122.003 37.2839 119.96 37.2839C119.635 37.2839 119.311 37.2637 119.052 37.2032H119.041ZM118.187 40.5428C118.187 41.0069 118.544 41.6022 120.252 41.6022C121.246 41.6022 122.457 41.2087 122.673 40.4722C122.889 39.7457 122.511 39.0697 121.387 39.0697H118.825C118.392 39.4733 118.187 39.8466 118.187 40.5327V40.5428ZM120.035 36.5474C121.505 36.5474 122.003 35.9117 122.003 34.6808C122.003 33.6718 121.646 33.0866 120.208 33.0866C118.771 33.0866 118.273 33.7223 118.273 34.9431C118.273 35.9622 118.598 36.5474 120.035 36.5474Z" fill="#A1A2A1"/>
<path d="M129.78 38.0085V32.4895H130.775V39.1385H129.78V38.6139H129.705C128.926 39.078 128.213 39.2798 127.435 39.2798C125.856 39.2798 125.078 38.4928 125.078 36.9895V32.4895H126.083V36.5859C126.083 37.6453 126.44 38.4726 127.651 38.4726C128.656 38.4726 129.337 38.2103 129.791 37.9984L129.78 38.0085Z" fill="#A1A2A1"/>
<path d="M136.468 33.2876C135.474 33.2876 134.577 33.4188 134.112 33.6206V39.1396H133.117V32.4905H134.112V33.0253H134.187C134.976 32.5612 135.69 32.3594 136.468 32.3594V33.2876Z" fill="#A1A2A1"/>
<path d="M140.752 32.3594C142.752 32.3594 143.746 33.3582 143.746 35.6889C143.746 38.0196 142.892 39.2808 140.471 39.2808C138.471 39.2808 137.477 38.292 137.477 35.9614C137.477 33.6307 138.331 32.3695 140.752 32.3695V32.3594ZM140.536 38.5443C142.244 38.5443 142.752 37.4143 142.752 35.6889C142.752 34.1654 142.395 33.0959 140.676 33.0959C138.958 33.0959 138.471 34.2259 138.471 35.9614C138.471 37.4849 138.828 38.5544 140.536 38.5544V38.5443Z" fill="#A1A2A1"/>
<path d="M145.237 38.1508C145.691 38.3021 146.599 38.4837 147.161 38.4837C148.166 38.4837 148.944 38.1508 148.944 37.3537C148.944 36.5566 148.09 36.3145 147.096 36.0925C145.972 35.8403 145.031 35.4266 145.031 34.2259C145.031 32.8941 146.101 32.3594 147.734 32.3594C148.372 32.3594 149.085 32.5309 149.582 32.6923L149.377 33.4894C148.804 33.2876 148.166 33.1464 147.593 33.1464C146.599 33.1464 146.026 33.4894 146.026 34.1452C146.026 34.9423 146.642 35.0432 147.809 35.3358C148.923 35.6183 149.939 35.9412 149.939 37.2629C149.939 38.6654 148.674 39.2606 147.096 39.2606C146.469 39.2606 145.626 39.0891 145.031 38.9277L145.247 38.1306L145.237 38.1508Z" fill="#A1A2A1"/>
<path d="M56.0928 20.6462L55.0118 19.9803C54.9145 19.9097 54.8172 19.8693 54.7091 19.8693C54.601 19.8693 54.4172 19.9097 54.2551 20.172C53.5741 21.292 51.8553 23.1585 48.0502 23.1585C44.9802 23.1585 41.6832 21.0599 41.6832 16.4389C41.6832 11.8178 44.9478 9.73939 47.9746 9.73939C51.2499 9.73939 53.3363 11.949 53.3363 13.1093V13.3313C53.3363 13.6239 53.5308 13.8055 53.8227 13.8055H55.4658C55.7685 13.8055 55.9739 13.6138 55.9739 13.3313V8.03425C55.9739 7.76183 55.7685 7.58022 55.4658 7.58022H54.0065C53.7903 7.58022 53.6822 7.66094 53.6173 7.72147C53.5633 7.78201 53.4984 7.88291 53.52 8.03425L53.5416 9.69903C52.6985 8.71025 50.9905 7.43896 47.8556 7.43896C41.9967 7.43896 38.9375 11.9389 38.9375 16.3783C38.9375 21.6754 42.7426 25.5296 47.9854 25.5296C48.9799 25.5296 54.0497 25.3278 56.2441 21.3626C56.3198 21.2314 56.4819 20.9287 56.1036 20.6664L56.0928 20.6462Z" fill="#A1A2A1"/>
<path d="M64.1493 12.8977C60.2145 12.8977 57.4688 15.4705 57.4688 19.1633C57.4688 22.8561 60.2036 25.5198 64.1168 25.5198C68.03 25.5198 70.7757 22.9066 70.7757 19.1633C70.7757 15.4201 68.0516 12.8977 64.1493 12.8977ZM64.1493 14.9156C66.1923 14.9156 68.2786 16.3786 68.2786 19.1835C68.2786 21.6857 66.5274 23.4918 64.1168 23.4918C61.7062 23.4918 59.9874 21.6756 59.9874 19.1835C59.9874 16.3786 62.0738 14.9156 64.1493 14.9156Z" fill="#A1A2A1"/>
<path d="M76.8244 23.4016H75.6137V8.33785C75.6137 7.81319 75.3434 7.57104 74.7381 7.57104H71.8518C71.5491 7.57104 71.3438 7.75266 71.3438 8.02508V9.07439C71.3438 9.34681 71.5383 9.51833 71.8518 9.51833H73.1166V23.4016H71.8518C71.5491 23.4016 71.3438 23.5832 71.3438 23.8556V24.9049C71.3438 25.1773 71.5383 25.3489 71.8518 25.3489H76.8352C77.1378 25.3489 77.3324 25.1673 77.3324 24.9049V23.8556C77.3324 23.5832 77.1378 23.4016 76.8352 23.4016H76.8244Z" fill="#A1A2A1"/>
<path d="M101.13 23.401H99.8433L99.8216 17.2867C99.8216 14.5726 98.0704 12.8977 95.2491 12.8977C92.7628 12.8977 91.5737 14.1286 91.0764 14.7744C90.3306 13.5636 88.9685 12.8977 87.1741 12.8977C85.9201 12.8977 84.2338 13.2307 83.0555 14.734L83.0879 13.9571C83.0879 13.1802 82.6015 13.0692 82.0826 13.0692H79.5315C79.2288 13.0692 79.0234 13.2408 79.0234 13.5233V14.5726C79.0234 14.845 79.2288 15.0165 79.5315 15.0165H80.7963V23.401H79.5315C79.2288 23.401 79.0234 23.5826 79.0234 23.855V24.9043C79.0234 25.1767 79.2288 25.3482 79.5315 25.3482H84.3959C84.6878 25.3482 84.8824 25.1666 84.8824 24.9043V23.855C84.8824 23.5725 84.6986 23.401 84.3959 23.401H83.2933V16.9335C83.5203 16.4593 84.3851 14.9661 86.5904 14.9661C88.3199 14.9661 89.2928 15.9649 89.2928 17.771V23.401H88.0713C87.7686 23.401 87.5632 23.5826 87.5632 23.855V24.9043C87.5632 25.1767 87.7686 25.3482 88.0713 25.3482H93.0438C93.3357 25.3482 93.5303 25.1666 93.5303 24.9043V23.855C93.5303 23.5725 93.3573 23.401 93.0438 23.401H91.7575V17.4582C91.7575 17.1252 91.7034 16.7923 91.6061 16.5098C92.3628 15.4705 93.3573 14.9661 94.6545 14.9661C96.8597 14.9661 97.3246 16.4896 97.3246 17.771V24.1678C97.3246 24.985 97.7245 25.3482 98.6434 25.3482H101.119C101.432 25.3482 101.627 25.1666 101.627 24.9043V23.855C101.627 23.5826 101.432 23.401 101.119 23.401H101.13Z" fill="#A1A2A1"/>
<path d="M114.189 21.5755C114.081 21.5048 113.983 21.4645 113.875 21.4645C113.767 21.4645 113.627 21.5048 113.475 21.6865C113.108 22.2515 111.594 23.4824 109.486 23.4824C107.616 23.4824 105.541 22.2616 105.346 19.5878H114.545C114.87 19.5878 115.075 19.4062 115.075 19.1136C115.108 17.1058 114.524 15.4814 113.378 14.3816C112.34 13.3928 110.859 12.8682 109.097 12.8682C105.952 12.8682 102.773 15.0172 102.773 19.1338C102.773 22.877 105.476 25.4902 109.357 25.4902C113.237 25.4902 115.032 22.8871 115.053 22.8669C115.205 22.645 115.151 22.4129 114.924 22.2212L114.199 21.5553L114.189 21.5755ZM105.4 17.802C105.779 15.6024 107.562 14.8155 109.14 14.8155C111.129 14.8155 112.394 15.9253 112.556 17.802H105.4Z" fill="#A1A2A1"/>
<path d="M130.292 23.401H128.995V17.2867C128.962 14.5827 127.2 12.8977 124.368 12.8977C122.595 12.8977 121.223 13.5132 120.282 14.734L120.315 13.5132C120.315 13.2408 120.12 13.0591 119.806 13.0591H116.758C116.445 13.0591 116.25 13.2307 116.25 13.5132V14.5625C116.25 14.8349 116.445 15.0064 116.758 15.0064H118.023V23.3909H116.758C116.445 23.3909 116.25 23.5725 116.25 23.8449V24.8942C116.25 25.1666 116.445 25.3381 116.758 25.3381H121.731C122.044 25.3381 122.239 25.1565 122.239 24.8942V23.8449C122.239 23.5725 122.033 23.3909 121.731 23.3909H120.52V16.9033C120.812 16.3181 121.698 14.956 123.817 14.956C125.557 14.956 126.509 15.9548 126.509 17.7609V24.1577C126.509 24.9648 126.919 25.3381 127.806 25.3381H130.281C130.584 25.3381 130.789 25.1565 130.789 24.8942V23.8449C130.789 23.5725 130.584 23.3909 130.281 23.3909L130.292 23.401Z" fill="#A1A2A1"/>
<path d="M144.875 23.401H143.589V17.9122C143.589 14.5322 141.74 12.8977 137.946 12.8977C134.152 12.8977 132.8 14.4414 132.757 14.4818C132.519 14.6634 132.498 14.8854 132.682 15.0871L133.406 15.9448C133.536 16.0961 133.752 16.1465 133.968 16.0759C134.022 16.0759 134.076 16.0356 134.163 15.975C134.519 15.7228 135.611 14.9661 137.87 14.9661C140.13 14.9661 141.081 15.8842 141.081 17.8517V17.9829H139.07C134.39 17.9829 131.914 19.3752 131.914 22.0086C131.914 24.1274 133.698 25.5399 136.357 25.5399C138.389 25.5399 140.054 24.7933 141.319 23.3303V24.1678C141.319 24.9749 141.729 25.3482 142.605 25.3482H144.875C145.178 25.3482 145.362 25.1767 145.362 24.9043V23.855C145.362 23.5725 145.178 23.401 144.875 23.401ZM141.092 19.7485V21.5041C140.562 22.1398 139.178 23.4918 137.016 23.4918C135.535 23.4918 134.498 22.7653 134.498 21.7261C134.498 20.3236 135.86 19.7485 139.2 19.7485H141.081H141.092Z" fill="#A1A2A1"/>
<path d="M0.9375 9.24366C0.9375 8.73918 1.31585 8.11363 1.79148 7.86139L12.6014 2.0397L15.2714 0.596894C15.747 0.344655 16.5145 0.344655 16.9794 0.596894L30.4593 7.87148C30.9349 8.12372 31.3133 8.74927 31.3133 9.25375V23.7928C31.3133 24.2973 30.9349 24.9229 30.4593 25.1751L16.9794 32.4396C16.5145 32.6918 15.7362 32.6918 15.2714 32.4396L1.79148 25.165C1.31585 24.9128 0.9375 24.2872 0.9375 23.7827V9.24366Z" fill="#B9B9B9"/>
<path d="M12.2008 5.13787C12.4819 4.86545 13.044 4.7242 13.4439 4.82509L22.481 7.08516L24.7186 7.65017C25.1078 7.75107 25.5186 8.12438 25.6267 8.4977L28.6426 19.0211C28.7507 19.3944 28.5994 19.909 28.3075 20.1713L20.0488 27.8798C19.7569 28.1522 19.2056 28.2934 18.8056 28.1925L7.52012 25.3675C7.13096 25.2666 6.72019 24.8933 6.61209 24.5199L3.58532 13.9864C3.48803 13.6232 3.62856 13.0985 3.92043 12.8362L12.1792 5.12778L12.2008 5.13787Z" fill="#C3C3C3"/>
<path d="M12.2425 9.41553C11.9723 9.41553 11.6372 9.59714 11.4967 9.81911L8.3726 14.8639L7.6051 16.115C7.47538 16.337 7.47538 16.6901 7.6051 16.9121L11.4967 23.208C11.6372 23.4299 11.9723 23.6116 12.2425 23.6116H20.0257C20.2959 23.6116 20.631 23.4299 20.7607 23.208L24.6523 16.9121C24.782 16.7002 24.782 16.337 24.6523 16.115L20.7607 9.81911C20.6202 9.59714 20.2959 9.41553 20.0257 9.41553H12.2425Z" fill="#D4D4D4"/>
<path d="M12.3281 14.6924C12.3281 14.5612 12.4254 14.4099 12.5443 14.3493L15.2468 12.8964L15.917 12.5332C16.0359 12.4727 16.2305 12.4727 16.3494 12.5332L19.7221 14.3493C19.841 14.4199 19.9383 14.5612 19.9383 14.6924V18.3246C19.9383 18.4558 19.841 18.6071 19.7221 18.6677L16.3494 20.4838C16.2305 20.5544 16.0359 20.5544 15.917 20.4838L12.5443 18.6677C12.4254 18.6071 12.3281 18.4457 12.3281 18.3246V14.6924Z" fill="#F0F0F0"/>
<path d="M12.3281 14.6924C12.3281 14.5612 12.4254 14.4099 12.5443 14.3493L15.2468 12.8964L15.917 12.5332C16.0359 12.4727 16.2305 12.4727 16.3494 12.5332L19.7221 14.3493C19.841 14.4199 19.9383 14.5612 19.9383 14.6924V18.3246C19.9383 18.4558 19.841 18.6071 19.7221 18.6677L16.3494 20.4838C16.2305 20.5544 16.0359 20.5544 15.917 20.4838L12.5443 18.6677C12.4254 18.6071 12.3281 18.4457 12.3281 18.3246V14.6924Z" fill="#F1F1F1"/>
</svg>
