<svg width="157" height="41" viewBox="0 0 157 41" fill="none" xmlns="http://www.w3.org/2000/svg">
<path d="M149.905 32.1606C149.845 36.0414 147.373 39.3952 143.707 40.569C140.041 41.7428 136.017 40.4492 133.784 37.359C133.362 36.784 133.485 36.4087 134.154 36.233C139.683 34.8197 143.277 29.8968 142.895 24.1954C142.835 23.333 143.05 23.297 143.767 23.5246C147.409 24.6745 149.964 28.2439 149.905 32.1606Z" fill="#A1A2A1"/>
<path d="M125.415 5.96495C126.347 5.94099 127.362 6.15659 128.353 6.49197C128.807 6.64768 129.057 6.76746 128.604 7.27053C124.699 11.5706 124.651 18.2422 128.52 22.5901C129.153 23.2968 128.472 23.3088 128.102 23.4286C122.908 25.2492 117.08 21.572 116.447 16.0742C115.814 10.6483 119.91 5.97692 125.415 5.96495Z" fill="#A1A2A1"/>
<path d="M129.414 9.27092C129.426 4.01267 133.379 0.0240649 138.298 0.000109302C143.23 -0.0238463 147.206 3.89289 147.29 8.8517C147.302 9.88179 147.218 9.94168 146.311 9.58235C141.033 7.47426 135.289 9.31884 132.22 14.11C131.846 14.6929 131.456 14.6929 131.05 14.11C129.963 12.5648 129.438 10.84 129.426 9.27092H129.414Z" fill="#A1A2A1"/>
<path d="M149.906 26.5909C149.93 21.1769 146.551 16.7691 141.249 15.2838C140.258 15.0083 140.258 14.9844 140.89 14.1459C143.147 11.1156 147.172 9.83393 150.766 11.0197C154.432 12.2175 156.88 15.5354 156.939 19.3443C156.999 23.273 154.659 26.6987 151.064 27.9803C149.882 28.3995 149.87 28.3875 149.906 27.1538C149.906 26.9742 149.906 26.7825 149.906 26.6028V26.5909Z" fill="#A1A2A1"/>
<path d="M126.534 38.1495C123.37 38.0057 120.599 36.4486 118.987 33.2026C117.399 30.0046 117.71 26.8664 119.728 23.9198C120.289 23.0934 120.313 23.1053 120.838 23.9558C123.847 28.8068 129.675 30.7472 134.965 28.6032C135.789 28.2678 135.86 28.5193 135.86 29.238C135.86 34.1489 131.86 38.1614 126.534 38.1614V38.1495Z" fill="#A1A2A1"/>
<path d="M79.57 17.7271C79.9043 16.0023 80.2267 14.3135 80.5491 12.6246C80.5969 12.3491 80.6447 12.0856 80.6924 11.8101C81.0148 10.241 81.385 9.9775 82.9971 10.0254C83.5344 10.0374 83.6777 10.1811 83.5703 10.7321C83.1046 13.0678 82.6866 15.4154 82.2448 17.7511C81.994 19.1046 81.7194 20.4461 81.4805 21.7996C81.397 22.2787 81.2059 22.5063 80.7044 22.4584C80.4058 22.4344 80.0954 22.4224 79.7968 22.4584C79.0326 22.5542 78.6385 22.2188 78.352 21.5121C77.54 19.4639 76.6682 17.4516 75.8204 15.4154C75.7249 15.1998 75.6891 14.9363 75.4144 14.7447C75.0681 15.4513 75.0442 16.206 74.9009 16.9366C74.6144 18.314 74.3994 19.7035 74.1128 21.0809C73.874 22.2667 72.5963 22.9015 71.4858 22.4344C71.0917 22.2667 71.2828 21.9792 71.3305 21.7397C71.9276 18.5536 72.5246 15.3795 73.1217 12.1934C73.1456 12.0377 73.1814 11.8939 73.2172 11.7502C73.6591 9.72596 73.1456 10.1093 75.3069 10.0374C75.9876 10.0134 76.2742 10.3728 76.5011 10.9357C77.3489 12.9959 78.2087 15.0561 79.0804 17.1043C79.164 17.3199 79.1759 17.5834 79.558 17.7271H79.57Z" fill="#A1A2A1"/>
<path d="M31.0291 17.7632C31.3037 16.3498 31.5784 14.9484 31.8411 13.547C31.9844 12.8284 32.1038 12.1097 32.2471 11.3791C32.462 10.2651 33.883 9.57041 34.898 10.0615C35.1727 10.1933 35.101 10.3969 35.0652 10.6005C34.3487 14.3855 33.6322 18.1585 32.9158 21.9435C32.8441 22.2908 32.665 22.4705 32.2948 22.4585C31.9008 22.4346 31.4948 22.4226 31.1127 22.4585C30.4559 22.5184 30.1096 22.219 29.8708 21.6321C29.011 19.512 28.1154 17.4039 27.2318 15.2838C27.1601 15.1042 27.1362 14.8646 26.7899 14.7209C26.4078 16.6972 26.0257 18.6376 25.6794 20.566C25.3809 22.2309 25.0465 22.4945 23.3867 22.4585C22.7657 22.4585 22.6822 22.219 22.7896 21.68C23.3628 18.7694 23.9002 15.8588 24.4495 12.9482C24.5927 12.1936 24.7719 11.4509 24.8674 10.6963C24.939 10.1453 25.1898 9.96568 25.7152 10.0136C26.0496 10.0495 26.3839 10.0375 26.7183 10.0136C27.3631 9.9537 27.7094 10.2531 27.9482 10.852C28.808 12.9721 29.7036 15.0802 30.5992 17.1883C30.6708 17.368 30.6947 17.6075 31.0291 17.7273V17.7632Z" fill="#A1A2A1"/>
<path d="M54.2383 14.5172C53.8203 16.7092 53.4382 18.6496 53.0919 20.59C52.7934 22.2309 52.4829 22.4825 50.8828 22.4945C50.1424 22.4945 50.0947 22.183 50.2141 21.5961C50.632 19.5 51.0141 17.3919 51.4201 15.2958C51.6829 13.8824 51.9575 12.481 52.2202 11.0676C52.3157 10.5646 52.4352 10.0256 53.068 10.0735C53.8442 10.1334 54.8353 9.6303 55.301 10.7562C56.1489 12.8164 57.0206 14.8766 57.8803 16.9248C57.9998 17.2003 58.1311 17.4638 58.3938 17.9908C58.7401 16.2181 59.0267 14.7089 59.3133 13.1997C59.4327 12.6008 59.5402 12.0019 59.6596 11.403C59.8984 10.2651 61.2717 9.57042 62.2867 10.0735C62.6927 10.2771 62.4658 10.6125 62.418 10.876C61.9642 13.3434 61.4985 15.7989 61.0209 18.2663C60.8179 19.3443 60.591 20.4223 60.4238 21.5123C60.3164 22.195 59.982 22.4945 59.2536 22.4945C57.6535 22.4945 57.6535 22.5184 57.0445 21.0691C56.2444 19.1527 55.4443 17.2362 54.6443 15.3198C54.5607 15.1281 54.4652 14.9604 54.2383 14.5292V14.5172Z" fill="#A1A2A1"/>
<path d="M22.3735 15.1399C22.3496 18.6375 20.5823 21.3804 17.7403 22.3386C14.6594 23.3807 11.6741 22.135 10.886 19.3202C9.6919 15.0681 12.3906 9.04324 18.4568 9.97751C20.9883 10.3608 22.3974 12.3132 22.3735 15.1399Z" fill="#A1A2A1"/>
<path d="M102.105 22.4704C100.684 22.4704 100.326 22.1231 100.159 20.7935C100.055 19.9551 99.5895 19.5359 98.7616 19.5359C98.666 19.5359 98.5824 19.5478 98.4869 19.5359C96.8987 19.2724 95.7763 19.6676 95.3583 21.4523C95.1434 22.3746 93.3403 22.8896 92.4685 22.4465C92.0267 22.2189 92.3491 21.9075 92.4566 21.6679C93.4238 19.3322 94.415 16.9966 95.4061 14.6729C95.9554 13.3793 96.5047 12.0857 97.042 10.7921C97.2331 10.313 97.5197 10.0375 98.069 10.0494C98.9526 10.0614 99.8363 10.0614 100.72 10.0494C101.317 10.0494 101.604 10.3369 101.675 10.9238C102.081 14.5052 102.487 18.0865 102.929 21.6559C103.037 22.5303 102.583 22.5543 102.129 22.4824L102.105 22.4704Z" fill="#A1A2A1"/>
<path d="M68.2714 10.0496C69.3103 10.0496 70.3492 10.0496 71.3761 10.0496C71.8299 10.0496 71.9373 10.2053 71.8776 10.6604C71.6866 12.0259 71.2925 12.4092 69.9193 12.4092C69.0714 12.4092 68.2117 12.4331 67.3638 12.4092C66.8504 12.3852 66.6115 12.5409 66.4802 13.068C66.0264 14.9724 66.0145 14.9724 67.949 14.9724C68.343 14.9724 68.7371 14.9724 69.1431 14.9724C69.7282 14.9724 70.3611 14.9006 70.3492 15.8109C70.3253 16.8649 70.0506 17.2003 69.1192 17.2123C68.1997 17.2123 67.2922 17.2362 66.3727 17.2123C65.8831 17.2003 65.6801 17.392 65.5727 17.8711C65.0831 20.1349 65.0711 20.1349 67.3758 20.1349C67.7101 20.1349 68.0445 20.1229 68.3788 20.1349C69.4177 20.1948 69.9193 20.8416 69.7521 21.8597C69.6804 22.2789 69.5252 22.5065 69.0476 22.4945C67.0653 22.4705 65.0831 22.4825 63.1008 22.4945C62.3605 22.4945 62.1217 22.1112 62.253 21.4285C62.9098 17.919 63.5904 14.3975 64.2472 10.888C64.3547 10.3131 64.6651 10.0496 65.2503 10.0615C66.2533 10.0735 67.2683 10.0615 68.2714 10.0615V10.0496Z" fill="#A1A2A1"/>
<path d="M8.85358 12.2294C5.05627 11.906 3.49197 15.188 3.94574 17.9069C4.1965 19.3802 5.23539 20.2546 6.73998 20.3145C7.22957 20.3384 7.71916 20.3145 8.19681 20.2785C8.73416 20.2546 9.15211 20.4462 9.42675 20.9014C9.89246 21.6679 9.7014 22.195 8.84164 22.3746C6.63251 22.8418 4.45921 22.9136 2.64415 21.2248C0.602199 19.3323 0.351434 16.0504 2.0232 13.2955C3.68303 10.5526 7.54004 9.11522 10.5851 10.0974C10.8836 10.1932 11.3135 10.2292 11.1821 10.7322C11.0149 11.391 10.8239 12.0737 10.0238 12.2055C9.6417 12.2654 9.2357 12.2055 8.84164 12.2055L8.85358 12.2294Z" fill="#A1A2A1"/>
<path d="M53.6415 35.8378C52.6743 35.9575 52.3041 35.4665 52.2205 34.5801C52.0891 33.3105 52.0652 33.3105 50.8234 33.3105C50.7637 33.3105 50.704 33.3105 50.6442 33.3105C49.3188 33.0709 48.4829 33.5141 48.1127 34.9155C47.8858 35.7779 46.5245 36.1971 45.6767 35.8378C45.3304 35.6821 45.4498 35.4545 45.5454 35.2389C46.8828 32.0528 48.2082 28.8787 49.5815 25.7046C49.8561 25.0817 53.0086 24.914 53.3788 25.489C53.4982 25.6806 53.5101 25.9561 53.546 26.1956C53.8923 29.0823 54.2147 31.957 54.5848 34.8436C54.6923 35.6341 54.5013 36.0414 53.6654 35.8617L53.6415 35.8378Z" fill="#A1A2A1"/>
<path d="M41.4028 10.0494C42.5969 10.0494 43.7791 10.0494 44.9732 10.0494C45.5703 10.0494 46.0957 10.229 45.9405 10.9118C45.8091 11.4867 46.1674 12.4809 44.9732 12.409C44.9374 12.409 44.9135 12.409 44.8777 12.409C44.0657 12.4809 43.0627 12.0616 42.4895 12.6006C41.9402 13.1277 42.0715 14.1458 41.9163 14.9483C41.4745 17.2001 41.0685 19.4519 40.6386 21.7038C40.4953 22.4943 39.9938 22.674 38.6802 22.4584C37.9518 22.3386 37.9518 21.8475 38.0473 21.2845C38.5369 18.6374 39.0146 15.9903 39.54 13.3552C39.6952 12.5767 39.5161 12.2892 38.7041 12.3731C38.1309 12.4329 37.5458 12.3731 36.9726 12.3731C36.5666 12.3731 36.4711 12.2173 36.5069 11.8101C36.6741 10.1691 36.8174 10.0134 38.4533 10.0134C39.4325 10.0134 40.3998 10.0134 41.3789 10.0134L41.4028 10.0494Z" fill="#A1A2A1"/>
<path d="M90.1458 10.0496C91.3041 10.0496 92.4624 10.0496 93.6207 10.0496C94.1938 10.0496 94.6595 10.1454 94.6715 10.876C94.6715 11.978 94.4088 12.3613 93.6445 12.4212C92.8086 12.4811 91.7459 12.0379 91.1966 12.6368C90.7189 13.1638 90.7786 14.1819 90.6234 14.9844C90.1935 17.2003 89.7636 19.4162 89.3815 21.6441C89.274 22.2909 89.0472 22.5783 88.3904 22.4825C88.1516 22.4466 87.9008 22.4705 87.662 22.4825C86.8977 22.5065 86.6112 22.1591 86.7545 21.4045C87.2202 18.9131 87.6859 16.4337 88.1396 13.9423C88.474 12.1097 88.5576 12.4691 86.9216 12.4212C86.8261 12.4212 86.7425 12.4212 86.647 12.4212C85.023 12.4212 84.9872 12.3613 85.429 10.8042C85.5962 10.2172 85.9544 10.0496 86.5037 10.0496C87.7217 10.0615 88.9397 10.0496 90.1577 10.0496H90.1458Z" fill="#A1A2A1"/>
<path d="M108.027 22.4704C107.024 22.4704 106.009 22.4584 105.006 22.4704C104.516 22.4704 104.277 22.3865 104.385 21.7996C105.113 18.0745 105.818 14.3614 106.51 10.6243C106.594 10.1692 106.797 9.98952 107.239 10.0255C107.478 10.0494 107.728 10.0255 107.967 10.0255C109.042 10.0374 109.245 10.289 109.054 11.3789C108.576 13.9661 108.11 16.5534 107.573 19.1166C107.406 19.9311 107.609 20.1587 108.385 20.0988C109.078 20.0509 109.794 20.0628 110.487 20.0988C111.358 20.1467 111.86 20.6977 111.836 21.5002C111.812 22.135 111.633 22.5183 110.857 22.4584C109.914 22.3865 108.97 22.4464 108.027 22.4464V22.4704Z" fill="#A1A2A1"/>
<path d="M64.4174 24.9739C64.895 25.0218 65.3369 24.9978 65.7309 25.1296C66.125 25.2613 66.8295 25.1056 66.7101 25.9081C66.5668 26.8424 66.0533 27.2736 65.2413 27.1179C64.6084 26.9981 63.9756 26.8783 63.3546 27.1299C62.471 27.5012 62.3277 28.3157 63.068 28.9026C63.5457 29.2739 64.095 29.5494 64.6084 29.8728C65.5876 30.4956 66.2683 31.3341 66.2086 32.5678C66.1369 33.8854 65.5279 34.8915 64.3219 35.4904C62.8053 36.233 61.253 36.1611 59.6887 35.682C59.3304 35.5742 58.7453 35.5143 58.9603 34.8675C59.1633 34.2567 59.3782 33.5859 60.238 33.7177C60.7156 33.7895 61.1813 33.9452 61.6709 34.0171C62.2202 34.101 62.7695 34.0411 63.2471 33.7057C63.8442 33.2865 63.9039 32.5918 63.3904 32.0528C63.0083 31.6455 62.4829 31.4419 62.0172 31.1544C60.835 30.4358 59.9155 29.5494 60.1544 27.9923C60.3813 26.531 61.4918 25.441 63.0919 25.1296C63.5337 25.0457 63.9994 25.0338 64.4054 24.9859L64.4174 24.9739Z" fill="#A1A2A1"/>
<path d="M73.7672 36.0533C72.9551 36.0173 72.2506 35.9455 71.5938 35.7059C71.2356 35.5741 70.6863 35.5861 70.8057 34.9393C70.9729 34.0769 71.4506 33.6098 72.1312 33.7415C72.7283 33.8613 73.3134 34.0649 73.9224 34.029C74.615 33.9931 75.3076 33.8613 75.5225 33.0828C75.7494 32.2922 75.1643 31.9329 74.603 31.5855C74.1373 31.2981 73.6358 31.0585 73.2059 30.7351C71.4625 29.4415 71.5222 27.034 73.3253 25.8003C74.6508 24.89 76.1315 24.866 77.6361 25.1535C78.0063 25.2253 78.6153 25.2253 78.4839 25.8602C78.3526 26.471 78.1973 27.1777 77.3256 27.1418C76.836 27.1178 76.3584 26.9741 75.8807 26.9861C75.2598 27.01 74.615 27.1777 74.4239 27.8724C74.2209 28.5791 74.806 28.9025 75.2956 29.2139C75.7016 29.4774 76.1435 29.6931 76.5495 29.9566C78.5675 31.2981 78.5198 34.053 76.4659 35.3466C75.6061 35.8856 74.6508 36.0173 73.7791 36.0772L73.7672 36.0533Z" fill="#A1A2A1"/>
<path d="M96.7669 24.9739C97.2326 25.0218 97.6864 24.9978 98.0804 25.1296C98.4745 25.2614 99.191 25.0937 99.0835 25.8842C98.9522 26.8305 98.4267 27.2736 97.6267 27.1179C97.0177 27.0101 96.4326 26.8784 95.8236 27.082C95.3937 27.2257 95.0474 27.4653 94.9519 27.9324C94.8683 28.3876 95.131 28.699 95.4653 28.9385C95.9191 29.25 96.3967 29.5255 96.8624 29.8009C97.9969 30.4837 98.6775 31.406 98.5342 32.8074C98.3909 34.2447 97.5789 35.155 96.2893 35.6581C94.8921 36.1971 93.4711 36.1132 92.074 35.6581C91.7277 35.5503 91.1187 35.5263 91.3217 34.8676C91.5128 34.2567 91.7038 33.5739 92.5755 33.6937C92.9696 33.7416 93.3398 33.8734 93.7338 33.9572C94.2473 34.0531 94.7727 34.065 95.2623 33.8614C96.1937 33.5021 96.3848 32.5678 95.6325 31.921C95.2623 31.6096 94.8205 31.394 94.4026 31.1425C93.2084 30.4358 92.289 29.5494 92.5158 27.9923C92.7308 26.531 93.8294 25.441 95.4414 25.1056C95.8833 25.0098 96.349 24.9978 96.7669 24.9619V24.9739Z" fill="#A1A2A1"/>
<path d="M105.601 35.718C104.467 35.718 104.168 35.3587 104.371 34.2687C104.741 32.1966 105.111 30.1244 105.541 28.0642C105.709 27.2737 105.494 26.9742 104.705 27.0581C104.526 27.082 104.335 27.0581 104.156 27.0581C103.643 27.0341 103.01 27.1419 103.093 26.3274C103.153 25.6926 103.105 24.9859 104.168 25.0338C106.21 25.1057 108.24 25.0338 110.282 25.0698C110.604 25.0698 111.225 24.8182 111.13 25.5129C111.058 26.0879 111.225 26.9024 110.33 27.0461C109.852 27.118 109.351 27.106 108.873 27.0701C108.216 27.0102 107.965 27.2976 107.858 27.9205C107.452 30.2322 106.974 32.5319 106.58 34.8556C106.461 35.5384 106.222 35.8618 105.601 35.73V35.718Z" fill="#A1A2A1"/>
<path d="M47.4923 22.4705C46.1549 22.4705 45.6295 21.7997 45.8683 20.554C46.4654 17.4039 47.0744 14.2537 47.6475 11.0916C47.7789 10.3609 47.9819 9.90578 48.8536 10.0375C49.7253 10.1693 50.2985 10.6244 50.2268 11.4389C50.1432 12.3493 49.9402 13.2476 49.7731 14.1459C49.2954 16.6732 48.8058 19.1886 48.3521 21.7159C48.2446 22.3148 48.0177 22.6142 47.5042 22.4825L47.4923 22.4705Z" fill="#A1A2A1"/>
<path d="M85.7327 25.1775C86.7955 25.1894 87.1298 25.5488 86.9626 26.483C86.4372 29.3936 85.8521 32.3043 85.3267 35.2149C85.1714 36.0653 84.5744 35.8497 84.0609 35.8497C83.4519 35.8497 83.0459 35.5263 83.1176 34.8795C83.1892 34.1848 83.3444 33.4901 83.4639 32.8073C83.8818 30.5555 84.3356 28.3156 84.7296 26.0518C84.849 25.3691 85.1476 25.0697 85.7327 25.1775Z" fill="#A1A2A1"/>
<path d="M19.5206 15.3318C19.4609 16.4697 19.2102 17.5716 18.6967 18.5898C18.1952 19.56 17.4429 20.2307 16.3204 20.3864C14.983 20.5781 13.8724 19.8834 13.5859 18.5538C13.1679 16.6254 13.5978 14.8407 14.768 13.2716C15.5442 12.2176 16.9294 11.8463 18.0399 12.2655C19.0549 12.6488 19.6162 13.7867 19.5326 15.3318H19.5206Z" fill="white"/>
<path d="M99.239 12.9961C99.3823 14.2538 99.5256 15.5115 99.6689 16.7691C99.7047 17.0446 99.5494 17.1524 99.2987 17.1644C99.2032 17.1644 99.1196 17.1644 99.024 17.1644C96.803 17.1644 97.1731 17.3201 97.8896 15.5474C98.2359 14.685 98.618 13.8346 98.9763 12.9722C99.0718 12.9722 99.1554 12.9841 99.2509 12.9961H99.239Z" fill="white"/>
<path d="M51.4208 27.7046C51.5402 28.7108 51.6596 29.7289 51.779 30.735C51.8149 31.0584 51.7313 31.274 51.3611 31.286C50.967 31.286 50.573 31.286 50.1789 31.286C49.9162 31.286 49.761 31.1423 49.8565 30.8788C50.2864 29.8008 50.7521 28.7347 51.1939 27.6567C51.2656 27.6687 51.3491 27.6927 51.4208 27.7046Z" fill="white"/>
</svg>
