<svg width="98" height="96" viewBox="0 0 98 96" fill="none" xmlns="http://www.w3.org/2000/svg">
<path d="M51.2647 95.3125C50.5878 95.1031 49.8626 95.0225 49.2179 94.7003C47.7191 93.9432 46.5103 92.9445 46.1074 91.2048C45.8334 90.045 46.3008 89.2556 47.4773 88.9818C47.7996 88.9013 48.0736 88.9335 48.1864 89.2879C48.2831 89.5778 48.0736 89.9161 47.7352 89.9644C47.2194 90.0289 47.1227 90.3349 47.1227 90.7699C47.1227 91.6397 47.4128 92.3324 48.1058 92.8962C51.6998 95.7474 57.2117 93.6211 57.9208 89.0946C57.9692 88.8207 58.0014 88.5469 58.0014 88.273C58.0336 87.226 57.5824 86.4367 56.6637 85.9212C55.6484 85.3413 54.5364 85.1641 53.4082 85.0513C53.0053 85.0191 52.6185 84.9547 52.2156 84.9063C51.9899 84.8741 51.7965 84.7775 51.6031 84.6486C51.0391 84.2459 50.9907 83.7626 51.4903 83.3116C52.1995 82.6673 52.9569 82.1035 53.8756 81.7974C54.0851 81.733 54.1334 81.6041 54.0045 81.4108C53.9562 81.3464 53.9078 81.2819 53.8433 81.2336C52.8763 80.4604 52.7796 79.7999 53.376 78.5112C53.6983 77.8025 54.1657 77.1581 54.7781 76.6265C55.5678 75.95 56.4542 75.5473 57.4857 75.5151C58.1626 75.499 58.8395 75.4667 59.5164 75.5312C60.0643 75.5795 60.435 75.3701 60.7735 74.9835C60.9669 74.758 61.1119 74.5163 61.257 74.2586C61.3375 74.1136 61.4504 73.9686 61.6599 74.0331C61.8533 74.0975 61.9339 74.2586 61.9339 74.4519C61.9339 74.6935 61.821 74.8707 61.6921 75.064C61.4504 75.4184 61.128 75.7084 60.8218 75.9983C60.6123 76.2077 60.4511 76.4494 60.435 76.7554C60.3383 78.624 59.2907 79.8644 57.7919 80.8148C57.3406 81.0886 56.841 81.2497 56.3414 81.4269C55.036 81.8457 53.8433 82.4578 52.7635 83.2955C52.6024 83.4244 52.3928 83.5532 52.4412 83.7949C52.4895 84.0204 52.7313 84.0687 52.9247 84.1331C53.2309 84.2298 53.5371 84.2942 53.8595 84.3103C54.7297 84.3586 55.6 84.4392 56.4381 84.6808C58.3237 85.2285 59.323 86.34 59.0973 88.1764C58.8072 90.6088 57.8564 92.7351 55.729 94.1526C54.8103 94.7648 53.795 95.1031 52.7152 95.248C52.6024 95.2641 52.4573 95.248 52.3606 95.3447H51.2808L51.2647 95.3125Z" fill="#7E7E7E"/>
<path d="M51.6029 0.578125C51.6029 0.578125 51.6029 0.626451 51.6029 0.642559C51.5545 0.73921 51.49 0.819753 51.3933 0.819753C50.926 0.819753 50.4425 1.04527 50.0234 0.642559C50.0234 0.626451 50.0234 0.594234 50.0234 0.578125H51.6029Z" fill="#A1A2A1"/>
<path d="M50.0218 0.642258C50.5537 0.642258 51.0694 0.642258 51.6012 0.642258C52.4071 0.690584 52.4232 0.690584 52.3426 1.51212C51.9397 5.86143 52.0203 10.2107 52.5199 14.5439C53.084 19.4248 54.2282 24.1446 56.5813 28.51C58.9182 32.8593 62.1898 36.2583 66.6702 38.4329C67.7339 38.9484 68.8298 39.3672 69.958 39.6894C70.4093 39.8182 70.4254 39.8344 70.1192 40.1887C66.2673 44.7958 61.4162 47.7598 55.5015 48.8229C47.8139 50.2083 40.8837 48.4202 34.7917 43.4749C33.5507 42.4762 32.4548 41.3163 31.4394 40.0921C31.2622 39.8666 31.2944 39.786 31.5523 39.7216C38.16 37.7725 42.6727 33.4393 45.622 27.3502C47.3142 23.8547 48.2812 20.1497 48.8614 16.332C49.4094 12.6753 49.5867 8.98649 49.5061 5.29763C49.4739 3.91229 49.4255 2.52696 49.2321 1.15773C49.1838 0.738909 49.2805 0.593932 49.6834 0.626149C49.7962 0.626149 49.909 0.626149 50.0218 0.626149V0.642258Z" fill="#7E7E7E"/>
<path d="M47.6899 5.82947C47.7382 9.74384 47.1097 13.4005 45.3368 16.8155C43.419 20.5366 40.5341 23.3395 37.0207 25.5141C33.8941 27.4471 30.4935 28.7519 26.9317 29.654C26.6416 29.7345 26.5127 29.6701 26.4644 29.3641C25.2073 21.8897 26.9479 15.1885 31.8312 9.38945C35.7636 4.70187 40.8564 1.94731 46.9002 0.932469C47.2708 0.868035 47.4159 0.964686 47.4481 1.35129C47.577 2.8816 47.6415 4.41191 47.6737 5.82947H47.6899Z" fill="#7E7E7E"/>
<path d="M75.5855 24.9503C75.5855 26.4323 75.4405 27.8982 75.1826 29.364C75.1343 29.6057 75.0859 29.7667 74.7636 29.6862C70.122 28.4942 65.7705 26.69 61.9993 23.6777C57.3255 19.9405 54.6824 15.0919 54.086 9.11559C53.8282 6.506 53.9893 3.89641 54.1989 1.28683C54.2311 0.948551 54.3761 0.884117 54.6824 0.932442C65.0614 2.44665 73.4259 10.5654 75.2471 20.907C75.4888 22.2441 75.5855 23.5972 75.6016 24.9503H75.5855Z" fill="#7E7E7E"/>
<path d="M97.1642 60.9853C97.1804 62.9827 97.1481 64.9963 97.0837 66.9938C97.0514 67.8153 96.9225 68.6207 96.6969 69.41C96.1972 71.1498 95.1174 72.3096 93.3768 72.8573C91.6201 73.4211 89.8473 73.4855 88.0745 72.9378C86.4951 72.4546 85.3992 71.4719 84.819 69.9255C84.0776 67.9603 84.0454 65.9789 84.7545 64.0137C85.6087 61.6618 87.4621 60.4215 90.0568 60.4215C91.2817 60.4215 92.5227 60.4376 93.6508 61.0336C93.9409 61.1786 94.0215 61.0819 94.0215 60.7759C94.086 58.714 94.1827 56.6682 94.2471 54.6063C94.2471 54.2197 94.4083 54.0908 94.7629 54.0908C95.3592 54.0908 95.9555 54.0908 96.5518 54.0908C96.9225 54.0908 97.0998 54.2519 97.0998 54.6546C97.0998 55.7178 97.1481 56.7809 97.1642 57.8441C97.1642 58.8912 97.1642 59.9382 97.1642 61.0014V60.9853Z" fill="#A1A2A1"/>
<path d="M67.0624 61.3397C67.0463 63.466 67.0624 65.5923 66.9657 67.7186C66.8529 70.2477 65.483 72.1163 63.13 72.9539C62.6465 73.1311 62.1308 73.1633 61.615 73.1955C60.5997 73.2761 59.5521 73.3244 58.5529 73.0989C56.7156 72.6962 55.3618 71.6652 54.7171 69.845C53.8952 67.5576 53.9274 65.2863 55.0556 63.0955C55.8936 61.4685 57.3119 60.6309 59.117 60.4698C60.0678 60.3893 61.0187 60.4054 61.9696 60.5181C62.5175 60.5826 63.0333 60.7275 63.5007 60.9853C63.8391 61.1786 63.9197 61.0175 63.9358 60.7275C63.968 60.2765 64.0003 59.8093 64.0003 59.3583C64.0164 57.9246 64.0003 56.491 64.0325 55.0412C64.0325 54.0908 64.097 54.0586 65.0478 54.0425C65.483 54.0425 65.902 54.0425 66.3372 54.0425C66.8851 54.0425 66.9818 54.1552 67.0141 54.7029C67.0785 56.8937 67.0624 59.1006 67.0302 61.2913L67.0624 61.3397Z" fill="#A1A2A1"/>
<path d="M24.0087 60.5825C25.4108 60.6147 26.7002 60.7436 27.9089 61.3235C30.2942 62.4672 31.6318 65.0124 31.3256 67.6381C31.1 69.6355 30.278 71.2142 28.5375 72.2934C28.1184 72.5512 27.6833 72.7928 27.1676 72.8572C27.0225 72.8733 26.8452 72.8895 26.7969 73.0666C26.7485 73.2599 26.8936 73.3727 27.0386 73.4694C27.4738 73.7432 27.8606 74.0654 28.2151 74.4359C28.5213 74.758 28.7147 75.1285 28.7631 75.5796C28.8598 76.3528 28.8759 77.126 28.892 77.8992C28.892 78.2536 28.747 78.3825 28.3924 78.3986C27.7477 78.4147 27.087 78.3986 26.4423 78.3986C26.1039 78.3986 25.9588 78.2858 25.9749 77.8992C25.991 77.0455 25.9749 76.1917 25.7976 75.3379C25.6365 74.5325 25.2013 74.0009 24.4116 73.7271C23.6219 73.4532 22.8 73.3566 21.978 73.2599C19.077 72.9217 17.1108 70.8759 16.9013 67.9441C16.8368 67.0582 16.8207 66.1722 17.0464 65.3023C17.7071 62.7894 19.4155 61.3718 21.8974 60.808C22.6227 60.647 23.364 60.5825 24.0248 60.5825H24.0087Z" fill="#A1A2A1"/>
<path d="M82.0919 69.4905C82.0919 70.602 82.0919 71.6973 82.0919 72.8088C82.0919 73.1149 82.0113 73.2599 81.689 73.2921C80.9315 73.3726 80.174 73.2921 79.4165 73.2921C79.1587 73.2921 79.1748 73.131 79.1748 72.9538C79.1426 72.4383 79.1748 71.9068 79.0942 71.3752C79.0781 71.2785 79.0942 71.1335 78.933 71.1335C78.8202 71.1335 78.8041 71.2463 78.7558 71.3268C78.095 72.4061 77.2569 73.1954 75.9192 73.2599C75.049 73.3082 74.1787 73.2599 73.3245 73.0666C71.5033 72.6155 70.2785 71.504 69.6983 69.716C69.1825 68.1212 69.1181 66.4943 69.4726 64.8512C69.9722 62.5155 71.7773 60.9046 74.1787 60.663C75.6614 60.5019 77.128 60.5019 78.5462 61.0657C80.6092 61.9033 81.7212 63.4498 81.9307 65.6566C82.0435 66.9453 82.0274 68.2179 82.108 69.5066L82.0919 69.4905Z" fill="#A1A2A1"/>
<path d="M9.10382 67.3642C7.331 67.3642 5.68711 67.3803 4.05934 67.3642C3.6242 67.3642 3.5275 67.5575 3.54361 67.8958C3.6242 69.8127 4.81682 71.2625 6.54129 71.5846C8.53974 71.9551 10.4415 71.6491 12.166 70.4731C12.585 70.1832 13.0363 70.1671 13.5198 70.2154C13.826 70.2476 13.8421 70.4087 13.6809 70.6503C13.4875 70.9403 13.2135 71.1497 12.9557 71.3752C10.1192 73.8398 5.33255 73.8076 2.59274 71.3752C1.46458 70.3765 0.868265 69.12 0.739332 67.6541C0.578167 65.7372 0.932731 63.9492 2.25429 62.4833C3.38245 61.2268 4.83294 60.5986 6.49294 60.518C7.31489 60.4697 8.15295 60.4858 8.97489 60.518C12.2466 60.6469 14.7769 63.2887 14.7446 66.5426C14.7446 67.1226 14.5996 67.2675 14.0194 67.3159C12.3271 67.4286 10.651 67.3803 9.10382 67.3964V67.3642Z" fill="#A1A2A1"/>
<path d="M46.0567 64.3841C46.105 65.6084 46.1856 66.8648 45.9922 68.073C45.3637 71.8263 42.8978 73.4693 39.0943 73.3082C38.0629 73.2599 37.0798 72.97 36.1772 72.4384C34.5495 71.488 33.8403 69.9738 33.6953 68.1857C33.5019 65.8822 33.4535 63.5787 33.4858 61.2752C33.4858 60.6308 33.5341 60.5986 34.1627 60.5503C34.7912 60.5019 35.4359 60.5019 36.0644 60.4536C36.3223 60.4375 36.3706 60.5825 36.4029 60.7758C36.5157 61.4523 36.4996 62.1289 36.5157 62.8055C36.5479 64.6096 36.5479 66.3977 36.5801 68.2018C36.5801 68.8462 36.6607 69.4583 36.8864 70.0704C37.2087 70.9564 37.805 71.488 38.7398 71.6491C39.3844 71.7618 40.0452 71.7779 40.6738 71.6652C41.9631 71.4396 43.0107 70.151 43.0429 68.7334C43.1074 66.1722 43.1718 63.627 43.2041 61.0657C43.2041 60.6952 43.3169 60.5986 43.6875 60.5503C44.3806 60.4858 45.0736 60.5664 45.7505 60.5825C46.0406 60.5825 46.0406 60.7597 46.0406 60.9691C46.0406 62.1128 46.0406 63.2565 46.0406 64.4163L46.0567 64.3841Z" fill="#A1A2A1"/>
<path d="M51.6053 66.8808C51.6053 68.685 51.6053 70.5053 51.6053 72.3094C51.6053 72.3738 51.6053 72.4544 51.6053 72.5188C51.5731 73.2598 51.5408 73.292 50.7834 73.3081C50.2515 73.3081 49.7358 73.3081 49.2039 73.292C48.9138 73.292 48.7688 73.1632 48.7688 72.8732C48.7688 72.6316 48.7204 72.3738 48.7204 72.1322C48.7043 68.4434 48.6399 64.7545 48.7527 61.0656C48.7527 60.6468 48.8816 60.4696 49.3168 60.4535C49.9131 60.4213 50.5094 60.3891 51.1057 60.4213C51.4119 60.4213 51.557 60.5663 51.557 60.8723C51.5731 61.7744 51.6053 62.6604 51.6214 63.5625C51.6214 64.674 51.6214 65.7693 51.6214 66.8808C51.6214 66.8808 51.6053 66.8808 51.5892 66.8808H51.6053Z" fill="#A1A2A1"/>
<path d="M67.7978 83.086C67.8139 82.635 67.9106 82.0551 68.0234 81.4913C68.0556 81.3463 68.1201 81.153 67.9912 81.0563C67.83 80.9436 67.685 81.1208 67.556 81.2174C67.137 81.604 66.7341 82.0067 66.3312 82.4094C65.6382 83.086 64.9129 83.7142 64.0587 84.1975C63.3657 84.5841 62.6405 84.8418 61.8508 84.7613C61.2061 84.6969 61.0127 84.4391 61.1094 83.7948C61.3512 82.2161 61.9475 80.7342 62.5277 79.2522C62.8661 78.4145 63.2207 77.593 63.7042 76.8359C63.8331 76.6265 63.9782 76.4171 64.2199 76.3204C64.365 76.256 64.51 76.2399 64.6551 76.3526C64.8001 76.4654 64.8001 76.6265 64.7356 76.7715C64.6228 77.0453 64.51 77.303 64.365 77.5608C63.5914 79.0428 62.9306 80.5731 62.4149 82.1678C62.2859 82.6028 62.1731 83.0538 62.1409 83.5048C62.1086 83.8592 62.2859 84.0203 62.6083 84.0364C62.9467 84.0686 63.269 83.9881 63.5752 83.8431C64.0104 83.6498 64.3972 83.3921 64.7679 83.086C65.7832 82.2967 66.718 81.4107 67.6044 80.4764C68.4263 79.5904 69.0226 78.5756 69.345 77.3997C69.4578 77.0131 69.5867 76.6426 69.7157 76.256C69.8285 75.9338 70.038 75.7727 70.3764 75.8855C70.7149 75.9982 70.6343 76.2721 70.5698 76.4976C70.2475 77.4802 69.9252 78.4629 69.5867 79.4455C69.216 80.557 68.9421 81.7007 68.9098 82.8927C68.9098 83.1827 68.9098 83.4726 68.9743 83.7626C69.0226 84.117 68.7003 84.5519 68.3619 84.5841C68.2168 84.5841 68.1685 84.4874 68.1201 84.3908C67.8623 84.0364 67.8139 83.6337 67.8139 83.086H67.7978Z" fill="#7E7E7E"/>
<path d="M50.5259 82.2806C50.5259 82.3773 50.5259 82.3934 50.5098 82.4095C48.9142 83.6982 47.2865 84.858 45.0946 84.713C44.0148 84.6325 43.3057 83.9237 43.2895 82.8283C43.2734 81.749 43.6602 80.7664 44.1921 79.8482C44.869 78.6884 45.7231 77.6736 46.7546 76.8359C47.7861 75.9983 48.9626 75.4828 50.3486 75.5795C50.6226 75.5956 50.8966 75.6922 51.1383 75.805C51.6379 76.0466 51.7669 76.3688 51.5412 76.8843C51.4123 77.1903 51.1867 77.4481 50.961 77.6736C49.7201 78.9139 48.3018 79.8804 46.7224 80.6214C46.1261 80.8953 45.4814 81.1047 44.8529 81.3141C44.6272 81.3946 44.5305 81.5235 44.5305 81.7651C44.5305 82.0873 44.5305 82.3934 44.5305 82.7156C44.5305 83.521 45.0301 84.0848 45.8521 84.1009C46.7707 84.1009 47.6088 83.8431 48.4146 83.3921C49.0915 83.0055 49.7039 82.5061 50.5259 82.2806Z" fill="#7E7E7E"/>
<path d="M39.919 75.7407C40.3058 75.7407 40.8054 75.7407 41.2889 75.8374C41.4823 75.8696 41.8047 75.8374 41.7563 76.1595C41.708 76.4656 41.434 76.5139 41.16 76.4334C39.7256 75.9662 38.4041 76.4012 37.1147 76.9972C35.8899 77.561 35.8738 78.0442 36.9697 78.8013C37.5177 79.1879 38.1301 79.494 38.7425 79.8001C39.2744 80.09 39.8223 80.3639 40.2897 80.7505C41.1278 81.427 41.2889 82.1519 40.8215 83.1345C40.193 84.4393 39.0971 85.0676 37.6949 85.1803C36.9858 85.2287 36.2928 85.1803 35.6159 84.9387C34.794 84.6165 34.1815 84.0688 33.7625 83.2956C33.6658 83.1345 33.6336 82.9735 33.7303 82.7801C33.9075 82.4419 34.0042 82.4097 34.2299 82.7157C35.2936 84.1655 36.7279 84.6326 38.4524 84.3427C39.0165 84.246 39.4516 83.9561 39.7095 83.4406C40.1285 82.6191 39.9674 81.9908 39.226 81.4592C38.7264 81.0888 38.1462 80.831 37.6144 80.525C36.9375 80.1384 36.2767 79.7356 35.7448 79.1557C35.1324 78.4953 35.1163 77.8348 35.7771 77.1905C36.7118 76.2723 37.8561 75.8052 39.1615 75.7246C39.3711 75.7246 39.5806 75.7246 39.8868 75.7246L39.919 75.7407Z" fill="#7E7E7E"/>
<path d="M94.9122 75.7245C95.3957 75.7245 95.8792 75.6923 96.3626 75.8212C96.5722 75.8856 96.83 75.95 96.7817 76.24C96.7172 76.5622 96.4271 76.53 96.2176 76.4655C94.751 75.9178 93.4133 76.4655 92.0756 76.9488C91.9789 76.981 91.8822 77.0454 91.7855 77.1099C91.1731 77.4965 91.1248 78.1247 91.6889 78.5757C92.1562 78.9623 92.6881 79.2201 93.2199 79.4939C93.9613 79.8805 94.6865 80.251 95.3795 80.7343C96.5077 81.5236 96.5399 82.474 95.8469 83.5855C94.9766 84.9708 93.6067 85.3413 92.0595 85.1963C90.8186 85.0836 89.771 84.6003 89.078 83.4888C88.9974 83.3439 88.8685 83.215 88.9168 83.0378C88.9652 82.8445 88.9974 82.5707 89.2069 82.5223C89.4325 82.4579 89.4325 82.7478 89.5131 82.8928C89.6582 83.1345 89.8193 83.36 90.045 83.5211C91.0764 84.3104 92.2368 84.6326 93.51 84.4554C94.4931 84.3104 95.1861 83.5211 95.1861 82.6351C95.1861 82.3774 95.1217 82.1357 94.9283 81.9585C94.5092 81.5719 94.1063 81.2014 93.5745 80.9598C92.8331 80.6215 92.1401 80.1866 91.431 79.8C91.3665 79.7678 91.3182 79.7194 91.2698 79.6711C90.0288 78.6563 90.0611 77.6737 91.3665 76.7555C92.4302 76.0145 93.6228 75.6601 94.9283 75.7567L94.9122 75.7245Z" fill="#7E7E7E"/>
<path d="M86.1573 75.9823C86.6246 75.9662 87.092 75.9823 87.5433 76.1756C88.1074 76.385 88.3169 76.7233 88.2846 77.3193C88.2363 78.1891 87.9301 78.9946 87.4949 79.7517C86.399 81.6525 84.9002 83.1506 82.9662 84.1815C82.3537 84.5037 81.7091 84.6487 81.0161 84.6325C79.7268 84.6003 79.0337 83.811 79.1949 82.5223C79.34 81.3625 79.759 80.2994 80.4359 79.3489C81.1289 78.3824 81.9669 77.577 82.9339 76.8843C83.9009 76.1917 84.9969 75.9662 86.1573 75.9823Z" fill="#7E7E7E"/>
<path d="M79.47 76.5459C79.3894 77.1258 79.2283 77.6896 78.8576 78.1568C78.7448 78.2856 78.5997 78.4789 78.4063 78.3501C78.229 78.2373 78.3257 78.0279 78.3902 77.8507C78.4547 77.6896 78.5352 77.5446 78.5836 77.3997C78.6803 77.0614 78.5352 76.8842 78.1807 76.9486C77.6972 77.0292 77.262 77.2547 76.843 77.4963C76.3756 77.7702 75.9566 78.1084 75.5698 78.4789C75.2152 78.8172 74.8768 79.1877 74.5061 79.526C73.2651 80.6536 72.3787 81.9906 71.9436 83.6176C71.8791 83.8753 71.7502 84.133 71.6374 84.3908C71.5245 84.6002 71.3311 84.6646 71.1055 84.6002C70.8476 84.5196 70.8799 84.3263 70.9121 84.133C71.1377 83.1504 71.4923 82.2 71.8308 81.2496C72.3304 79.8482 72.8944 78.4628 73.3135 77.0292C73.4424 76.5781 73.797 76.3204 74.2644 76.3043C74.6189 76.3043 74.5545 76.5459 74.5061 76.7392C74.3449 77.3997 74.0871 78.0279 73.797 78.64C73.7647 78.7206 73.7164 78.785 73.6842 78.8655C73.6036 79.075 73.5391 79.3488 73.7325 79.4777C73.8937 79.5904 74.0387 79.3488 74.1515 79.2199C74.7962 78.6078 75.4086 77.9796 76.0694 77.3836C76.6818 76.8359 77.4554 76.6103 78.1323 76.1754C78.4385 75.9821 78.8415 76.0627 79.196 76.111C79.4378 76.1432 79.47 76.3526 79.4861 76.562L79.47 76.5459Z" fill="#7E7E7E"/>
<path d="M51.9422 56.0236C51.9422 57.1512 51.1847 57.9244 50.1049 57.9244C49.1057 57.9244 48.2031 57.0224 48.2031 56.0075C48.2031 55.0571 49.1379 54.1711 50.1371 54.1711C51.1847 54.1711 51.9422 54.9444 51.9422 56.0075V56.0236Z" fill="#A1A2A1"/>
<path d="M55.5814 80.6538C54.55 80.6538 53.9214 79.7839 54.2115 78.8013C54.7434 77.0294 56.4195 75.9018 58.2729 76.0629C58.982 76.1273 59.5139 76.7394 59.3688 77.3999C59.0304 78.9785 57.3865 80.6699 55.5814 80.6377V80.6538Z" fill="white"/>
<path d="M94.1687 66.9454C94.1365 67.7669 94.1204 68.5723 93.927 69.3778C93.6046 70.7631 92.9116 71.4235 91.5256 71.633C90.8809 71.7296 90.2363 71.7135 89.5916 71.633C88.5602 71.4719 87.8672 70.8759 87.5609 69.9093C86.9485 67.8958 86.9485 65.85 87.6254 63.8525C88.0444 62.6444 88.9147 62 90.2202 61.9678C90.9777 61.9517 91.7512 61.9034 92.4281 62.3383C93.3468 62.9021 93.8625 63.7076 94.0076 64.7868C94.1043 65.5117 94.1526 66.2366 94.1687 66.9776V66.9454Z" fill="white"/>
<path d="M64.0422 66.6392C64.01 67.6379 64.0905 68.54 63.8166 69.4259C63.3331 70.9885 62.5434 71.6167 60.8995 71.6973C60.5288 71.7134 60.1581 71.6973 59.7874 71.665C58.6109 71.5362 57.7729 70.9402 57.4505 69.7642C56.9348 67.8956 56.822 66.0109 57.4183 64.1262C57.8857 62.5959 58.756 61.9677 60.3515 61.9516C60.98 61.9516 61.6247 61.9355 62.221 62.2254C63.462 62.8537 63.8488 63.949 63.9777 65.2216C64.0261 65.7371 64.0422 66.2365 64.0583 66.6392H64.0422Z" fill="white"/>
<path d="M19.7422 67.0097C19.7422 66.4137 19.7583 65.8177 19.8711 65.2377C20.2096 63.5463 21.5956 62.3543 23.3201 62.2093C23.9808 62.161 24.6577 62.1288 25.3024 62.2416C27.0108 62.5315 27.9616 63.6108 28.3484 65.2377C28.6224 66.3976 28.6063 67.5735 28.3162 68.7333C27.881 70.4891 26.7368 71.4556 24.9801 71.7456C24.1904 71.8745 23.4006 71.8584 22.6432 71.6489C21.1927 71.2462 19.7905 70.0864 19.7422 67.7185C19.7422 67.4768 19.7422 67.2513 19.7422 67.0097Z" fill="white"/>
<path d="M72.1328 67.2031C72.165 66.2849 72.1812 65.4634 72.3262 64.6418C72.6163 63.0149 73.7767 62.0322 75.4206 62.0806C75.8719 62.0806 76.3231 62.145 76.7744 62.2578C77.822 62.4994 78.515 63.1759 78.7728 64.2069C79.2241 65.8983 79.2563 67.6219 78.7245 69.3133C77.9509 71.7135 75.7913 72.0679 74.1151 71.5202C72.9548 71.1497 72.4874 70.1832 72.2617 69.0717C72.1328 68.4273 72.1489 67.783 72.1328 67.2192V67.2031Z" fill="white"/>
<path d="M7.44511 65.8016C6.28472 65.8016 5.12433 65.8016 3.96394 65.8016C3.65772 65.8016 3.60938 65.7049 3.60938 65.415C3.68996 63.4497 5.14045 61.9839 7.10667 61.9355C7.54181 61.9355 7.99308 61.9355 8.42822 61.9355C10.0076 61.9839 11.2809 62.9665 11.7482 64.4807C11.7644 64.529 11.7805 64.5935 11.7966 64.6418C12.0867 65.6727 12.0222 65.7855 10.9263 65.8177C9.7659 65.8499 8.60551 65.8177 7.44511 65.8177V65.7855V65.8016Z" fill="white"/>
<path d="M50.7466 76.691C50.6499 76.9648 50.5049 77.2064 50.3115 77.3997C49.0222 78.6562 47.5556 79.6388 45.8795 80.2993C45.6861 80.3798 45.4765 80.412 45.3154 80.5409C45.2187 80.6214 45.0897 80.6698 44.9769 80.5731C44.8641 80.4765 44.9125 80.3476 44.9447 80.2187C44.9447 80.1704 44.9769 80.106 44.993 80.0576C45.8472 78.3824 47.0237 76.997 48.861 76.3366C49.3284 76.1755 49.7958 76.0949 50.2793 76.2238C50.521 76.2882 50.7144 76.401 50.7466 76.6749V76.691Z" fill="white"/>
<path d="M87.299 77.9314C87.299 78.3341 87.1701 78.7529 86.9767 79.1556C86.332 80.4927 85.4456 81.6364 84.3658 82.6512C83.7856 83.1989 83.0765 83.5533 82.319 83.7949C81.207 84.1493 80.3206 83.5211 80.24 82.3612C80.2239 82.0713 80.24 81.7813 80.3206 81.5075C80.8202 79.7194 81.7711 78.2697 83.3666 77.2709C84.0274 76.8682 84.7526 76.6749 85.5262 76.5944C85.8647 76.5622 86.187 76.5944 86.5093 76.7233C87.0895 76.9327 87.3152 77.2709 87.299 77.9314Z" fill="white"/>
</svg>
