<svg width="85" height="52" viewBox="0 0 85 52" fill="none" xmlns="http://www.w3.org/2000/svg">
<path d="M11.9224 33.2966C11.8246 33.2966 11.7145 33.2966 11.6167 33.2966C8.02165 33.2966 4.43881 33.2966 0.84375 33.2966V0.0610986C0.917119 0.012169 1.00272 0.0366338 1.07608 0.0366338C4.61001 0.0366338 8.14393 0.0366338 11.6901 0.0366338C11.9958 0.0366338 12.008 0.0366338 12.008 0.354677C12.008 7.54734 12.0447 14.7522 11.9958 21.9449C11.9713 25.6391 11.9958 29.3333 11.9591 33.0152C11.9591 33.1009 11.9836 33.1987 11.9346 33.2843L11.9224 33.2966Z" fill="#A1A2A1"/>
<path d="M67.7568 52.0001C67.3778 51.9267 66.9987 51.89 66.6318 51.7922C64.0639 51.0827 62.4376 48.8197 62.5354 46.0918C62.6333 43.2539 64.712 40.9909 67.5367 40.6851C69.3098 40.4894 70.9117 40.9053 72.2445 42.1285C73.1739 42.9726 73.7364 44.0368 73.932 45.2723C74.2377 47.2417 73.7486 48.9909 72.3179 50.4099C71.4008 51.3151 70.2636 51.8166 68.9796 51.9634C68.9063 51.9634 68.8329 51.9879 68.7473 52.0001H67.7568Z" fill="#A1A2A1"/>
<path d="M28.8366 52.0001C28.5064 51.9267 28.1518 51.9022 27.8216 51.8288C25.6083 51.3151 23.9698 49.468 23.713 47.205C23.5296 45.5414 23.8475 44.0245 24.9113 42.7034C25.9385 41.419 27.308 40.7462 28.9466 40.6484C30.1205 40.575 31.2577 40.7218 32.3216 41.2845C32.7006 41.4802 33.0553 41.7248 33.3976 41.994C33.5199 42.0918 33.5322 42.1652 33.4343 42.2998C33.1164 42.6667 32.7985 43.0337 32.505 43.4129C32.3705 43.5842 32.2849 43.5719 32.1381 43.4374C31.2944 42.7157 30.3039 42.3732 29.1912 42.4221C27.7483 42.4833 26.7456 43.2172 26.1219 44.4771C25.3271 46.0796 25.6817 48.1469 26.929 49.3089C27.5037 49.8349 28.1885 50.1285 28.9588 50.2019C29.9982 50.2998 30.9643 50.104 31.8569 49.5536C32.0281 49.4557 32.0892 49.3334 32.0892 49.1377C32.077 48.6239 32.0892 48.1102 32.0892 47.5842C32.0892 47.4007 32.0281 47.3395 31.8447 47.3395C31.0988 47.3395 30.3406 47.3395 29.5947 47.3395C29.3827 47.3395 29.2768 47.2294 29.2768 47.0092C29.2768 46.63 29.2768 46.2631 29.2768 45.8839C29.2768 45.7248 29.3135 45.6392 29.4969 45.6392C30.9153 45.6392 32.3338 45.6392 33.74 45.6392C33.899 45.6392 33.9601 45.6881 33.9601 45.8594C33.9601 47.2784 33.9601 48.6973 33.9601 50.104C33.9601 50.2386 33.899 50.3242 33.8012 50.3976C32.7129 51.2661 31.4778 51.8044 30.0838 51.9389C30.0105 51.9389 29.9493 51.9634 29.8759 51.9756H28.8488L28.8366 52.0001Z" fill="#A1A2A1"/>
<path d="M46.8596 40.8196C46.8596 43.0092 46.8963 45.1988 46.8596 47.3884C46.8351 48.5627 46.5417 49.6759 45.7346 50.5933C45.0621 51.3517 44.1816 51.7431 43.2034 51.9022C42.9833 51.9389 42.7754 51.9633 42.5553 51.9878H41.7116C41.3203 51.9144 40.929 51.8777 40.5377 51.7798C38.8991 51.3395 37.8964 50.1162 37.5785 48.5016C37.5173 48.1957 37.4684 47.8899 37.4684 47.5719C37.444 47.5107 37.4562 47.4496 37.4562 47.3884C37.4562 45.26 37.4562 43.1437 37.4562 41.0153C37.4562 40.9419 37.444 40.8685 37.4806 40.8074C38.1165 40.7707 38.7646 40.7707 39.4005 40.8074C39.4005 42.9847 39.3882 45.1743 39.4127 47.3517C39.4127 48.1957 39.6695 48.9664 40.342 49.5535C40.6966 49.8593 41.1002 50.0428 41.5648 50.104C42.1885 50.1896 42.8121 50.1774 43.4113 49.9205C44.2917 49.5535 44.7074 48.8318 44.8542 47.9266C44.8786 47.7921 44.8909 47.6453 44.9031 47.5107C44.9398 47.4251 44.9275 47.3395 44.9275 47.2538C44.9275 45.1866 44.9275 43.1193 44.9275 41.0398C44.9275 40.9541 44.9031 40.8685 44.952 40.7829C45.5879 40.7462 46.236 40.7462 46.8718 40.7829L46.8596 40.8196Z" fill="#A1A2A1"/>
<path d="M0.844769 50.1653C1.19938 49.8227 1.48063 49.4191 1.81079 49.0521C2.01867 48.8197 2.00644 48.8197 2.251 49.0154C3.10697 49.7127 4.06076 50.1775 5.18574 50.2509C5.65041 50.2753 6.09062 50.2509 6.51861 50.0674C7.11778 49.835 7.42349 49.3824 7.41126 48.7708C7.41126 48.3182 7.1667 48.0123 6.78763 47.7922C6.32296 47.5353 5.82161 47.3885 5.30803 47.2539C4.61102 47.0827 3.91402 46.9114 3.24148 46.6423C2.78904 46.4588 2.34883 46.2142 1.99421 45.8594C1.57845 45.4435 1.37058 44.942 1.29721 44.3793C1.18716 43.4252 1.37058 42.5445 2.04312 41.8105C2.60562 41.2111 3.30262 40.8564 4.10967 40.7341C5.82161 40.4772 7.41126 40.8319 8.81749 41.8717C8.97646 41.994 9.01314 42.0796 8.87863 42.2386C8.62184 42.5812 8.36505 42.9359 8.13272 43.2906C8.01044 43.4741 7.91261 43.4619 7.75365 43.3518C7.03219 42.838 6.24959 42.4833 5.36917 42.3854C4.86781 42.3365 4.37869 42.3732 3.92625 42.6056C3.51049 42.8136 3.2537 43.1438 3.22925 43.6331C3.19256 44.1591 3.4249 44.5139 3.86511 44.7585C4.35423 45.0276 4.89227 45.1744 5.43031 45.309C6.18845 45.5047 6.94659 45.676 7.65582 46.0307C8.10826 46.2509 8.51179 46.5445 8.82972 46.9359C9.62455 47.9267 9.58786 50.1897 8.08381 51.205C7.41126 51.6576 6.66534 51.89 5.85829 51.9267C3.95071 52.0368 2.26323 51.4497 0.820312 50.1897V50.1408L0.844769 50.1653Z" fill="#A1A2A1"/>
<path d="M11.9737 0C11.9737 0.0733945 11.9737 0.159021 11.9737 0.232416C11.9737 3.73089 11.9737 7.24159 11.9737 10.7401C11.9737 10.9684 12.0878 11.0826 12.3161 11.0826C15.8011 11.0826 19.2739 11.0826 22.7589 11.0826C22.8567 11.0826 22.9668 11.0826 23.0646 11.0703C23.089 11.0948 23.089 11.1193 23.0646 11.156C23.0401 11.1804 23.0157 11.1927 22.9912 11.2049C22.82 11.2661 22.6488 11.2538 22.4776 11.2538C19.2372 11.2538 15.9967 11.2538 12.7685 11.2538C12.1571 11.2538 12.1204 11.2905 12.1204 11.9021C12.1204 15.0703 12.1204 18.2385 12.1204 21.4067C12.1204 21.4434 12.1204 21.4801 12.1204 21.5291C12.1204 21.9817 12.1938 22.055 12.6585 22.055C15.8622 22.055 19.066 22.055 22.282 22.055C22.5266 22.055 22.7711 22.0184 23.0034 22.104C23.0279 22.104 23.0646 22.1284 23.0768 22.1529C23.1013 22.1774 23.1013 22.2018 23.0768 22.2385C22.979 22.2385 22.8934 22.2385 22.7956 22.2385C19.3106 22.2385 15.8133 22.2385 12.3283 22.2385C12.1082 22.2385 11.9982 22.3486 11.9982 22.5688C11.9982 26.0428 11.9982 29.5168 11.9982 32.9908C11.9982 33.1009 12.0348 33.211 11.9615 33.3089C11.9615 27.5596 11.9615 21.8104 11.9615 16.0612C11.9615 10.8624 11.9615 5.65138 11.9615 0.452599C11.9615 0.199796 11.8351 0.0733945 11.5824 0.0733945C8.0118 0.0733945 4.45342 0.0733945 0.882812 0.0733945C0.895041 -0.0366973 0.992865 0.0122324 1.05401 0.0122324C4.69798 0.0122324 8.32973 0.0122324 11.9737 0.0122324V0Z" fill="#A1A2A1"/>
<path d="M38.5938 0.0613808C38.5938 0.0613808 38.5938 0.036916 38.5938 0.0124512H52.1669C52.1669 0.0124512 52.1669 0.0736133 52.1547 0.0980781C52.0447 0.195937 51.8979 0.171473 51.7756 0.171473C51.1276 0.171473 50.4795 0.171473 49.8314 0.171473C46.2608 0.171473 42.6902 0.171473 39.1318 0.171473C38.9484 0.171473 38.7527 0.220402 38.606 0.0491484L38.5938 0.0613808Z" fill="#A1A2A1"/>
<path d="M23.0625 0.0613808C23.0625 0.0613808 23.0625 0.0246836 23.0625 0.0124512C26.7554 0.0124512 30.4483 0.0124512 34.1412 0.0124512C34.1412 0.0246836 34.1412 0.0491484 34.1412 0.0613808C34.08 0.134775 34.0066 0.15924 33.9211 0.171473C33.8232 0.171473 33.7376 0.171473 33.6398 0.171473C30.2893 0.171473 26.9266 0.171473 23.5761 0.171473C23.4049 0.171473 23.2092 0.220402 23.0747 0.0613808H23.0625Z" fill="#A1A2A1"/>
<path d="M84.9883 0C84.9883 0 84.9883 0.0244648 84.9883 0.0489297C84.9272 0.122324 84.8416 0.159021 84.7437 0.159021C84.6459 0.159021 84.5603 0.159021 84.4625 0.159021C81.112 0.159021 77.7615 0.159021 74.4232 0.159021C74.252 0.159021 74.0564 0.207951 73.9219 0.0489297C73.9219 0.0366972 73.9219 0.0122324 73.9219 0C77.6148 0 81.3076 0 85.0005 0L84.9883 0Z" fill="#A1A2A1"/>
<path d="M85.0353 49.0397C85.0353 49.0397 85.0109 49.0397 84.9864 49.0397C84.8274 48.8439 84.8274 48.477 84.9864 48.2812C84.9986 48.2812 85.0109 48.2812 85.0231 48.2812V49.0274L85.0353 49.0397Z" fill="#A1A2A1"/>
<path d="M52.1797 0.0491484C52.1797 0.0491484 52.1797 0.0246836 52.1797 0.0124512H52.8889C52.8889 0.0124512 52.8889 0.036916 52.8889 0.0491484C52.7055 0.220402 52.3753 0.220402 52.1919 0.0491484H52.1797Z" fill="#A1A2A1"/>
<path d="M52.1758 0.0488281C52.4082 0.0488281 52.6405 0.0488281 52.8728 0.0488281C55.1717 0.146687 57.4339 0.440265 59.6472 1.08858C62.0072 1.7736 64.1838 2.80112 66.0669 4.40357C68.3781 6.36075 69.8821 8.81947 70.5913 11.7552C71.4595 15.3271 71.3862 18.8867 70.2123 22.373C68.9405 26.165 66.4338 28.9051 62.9121 30.7644C60.7599 31.902 58.4488 32.5626 56.0644 32.9418C54.2546 33.2231 52.4448 33.321 50.6106 33.321C46.7099 33.321 42.8213 33.321 38.9206 33.321C38.5659 33.321 38.5782 33.3822 38.5782 32.9907C38.5782 22.1161 38.5782 11.2293 38.5782 0.354639C38.5782 0.256779 38.5782 0.171152 38.5904 0.073293C43.1148 0.073293 47.6514 0.073293 52.1758 0.073293V0.0488281Z" fill="#A1A2A1"/>
<path d="M23.0622 0.0612793C26.755 0.0612793 30.4479 0.0612793 34.1408 0.0612793C34.1408 0.159139 34.1408 0.26923 34.1408 0.36709C34.1408 11.2295 34.1408 22.0919 34.1408 32.9542C34.1408 33.0276 34.1408 33.101 34.1408 33.1622C34.1408 33.2723 34.0919 33.3212 33.9819 33.309C33.9329 33.309 33.8718 33.309 33.8229 33.309C30.3379 33.309 26.8406 33.309 23.3556 33.309C23.0255 33.309 23.0499 33.3579 23.0499 32.9909C23.0499 29.4068 23.0499 25.8227 23.0499 22.2386C23.0499 22.2142 23.0499 22.202 23.0499 22.1775C22.9766 22.1041 22.9766 22.0062 22.9766 21.9084C22.9766 18.4099 22.9766 14.8992 22.9766 11.4007C22.9766 11.3029 22.9766 11.205 23.0499 11.1438C23.0499 11.1194 23.0499 11.1072 23.0499 11.0827C23.0499 7.46189 23.0499 3.8411 23.0499 0.220301C23.0499 0.171371 23.0499 0.110209 23.0499 0.0612793H23.0622Z" fill="#A1A2A1"/>
<path d="M73.9185 0.0612793C77.4646 0.0612793 81.0108 0.0612793 84.5569 0.0612793C84.7037 0.0612793 84.8504 0.0612793 84.9971 0.0612793C84.9971 0.159139 85.0094 0.26923 85.0094 0.36709C85.0094 11.2295 85.0094 22.0919 85.0094 32.9543C85.0094 33.0154 85.0094 33.0766 85.0094 33.1377C85.0094 33.2723 84.9605 33.3335 84.8382 33.309C84.7893 33.309 84.7403 33.309 84.6914 33.309C81.1942 33.309 77.697 33.309 74.1997 33.309C73.9674 33.309 73.9062 33.2601 73.9062 33.0154C73.9062 22.1041 73.9062 11.1928 73.9062 0.293695C73.9062 0.220301 73.9062 0.134674 73.9062 0.0612793H73.9185Z" fill="#A1A2A1"/>
<path d="M60.0929 51.8043C59.3103 51.8043 58.6011 51.8043 57.8796 51.8043C57.7451 51.8043 57.7085 51.682 57.6473 51.5964C56.8525 50.471 56.0454 49.3334 55.2506 48.1958C55.1406 48.0245 55.006 47.9633 54.8104 47.9633C54.1868 47.9633 53.5754 47.9633 52.9517 47.9633C52.7316 47.9633 52.6705 48.0367 52.6705 48.2447C52.6705 49.3211 52.6705 50.4098 52.6705 51.4863C52.6705 51.8043 52.6705 51.8043 52.3403 51.8043C51.9001 51.8043 51.4477 51.8043 51.0075 51.8043C50.7996 51.8043 50.714 51.7432 50.7384 51.5352C50.7384 51.5107 50.7384 51.4863 50.7384 51.4618C50.7384 48.0245 50.7384 44.575 50.7384 41.1376C50.7384 40.8074 50.7384 40.8074 51.0808 40.8074C52.7072 40.8074 54.3335 40.8074 55.9598 40.8074C56.5835 40.8074 57.1826 40.9419 57.7574 41.1988C58.8457 41.6759 59.506 42.5077 59.6649 43.682C59.8361 44.8808 59.5916 45.9572 58.6622 46.8013C58.2832 47.1438 57.843 47.3884 57.3661 47.5352C57.1337 47.6086 57.1582 47.682 57.2805 47.8532C58.1364 49.0398 58.9802 50.2386 59.8361 51.4251C59.9095 51.523 59.9829 51.6331 60.0807 51.7799L60.0929 51.8043Z" fill="#A1A2A1"/>
<path d="M12.732 46.3119C12.732 44.5872 12.732 42.8502 12.732 41.1254C12.732 40.8196 12.732 40.8196 13.0499 40.8196C15.5567 40.8196 18.0757 40.8196 20.5824 40.8196C20.9004 40.8196 20.9004 40.8196 20.9004 41.1254C20.9004 41.5046 20.8881 41.8716 20.9004 42.2508C20.9004 42.4832 20.8392 42.5566 20.5947 42.5566C19.1028 42.5566 17.611 42.5566 16.107 42.5566C15.7279 42.5566 15.3366 42.5566 14.9575 42.5566C14.7374 42.5566 14.6763 42.63 14.6763 42.8379C14.6763 43.6086 14.6763 44.367 14.6763 45.1376C14.6763 45.3578 14.7496 45.419 14.9575 45.419C16.5716 45.419 18.198 45.419 19.8121 45.419C20.0485 45.419 20.1667 45.5372 20.1667 45.7737C20.1667 46.1284 20.1667 46.4954 20.1667 46.8502C20.1667 47.0703 20.0933 47.1315 19.8854 47.1315C18.2713 47.1315 16.645 47.1315 15.0309 47.1315C14.7863 47.1315 14.664 47.2498 14.664 47.4862C14.664 48.2569 14.664 49.0153 14.664 49.7859C14.664 50.0061 14.7252 50.0795 14.9575 50.0795C16.8529 50.0795 18.7482 50.0795 20.6436 50.0795C20.8555 50.0795 20.9615 50.1855 20.9615 50.3976C20.9615 50.7768 20.9615 51.1437 20.9615 51.5229C20.9615 51.7431 20.9004 51.8165 20.668 51.8165C18.4181 51.8165 16.1803 51.8165 13.9304 51.8165C13.6246 51.8165 13.3189 51.8165 13.0132 51.8165C12.6953 51.8165 12.6953 51.8165 12.6953 51.5107C12.6953 49.7859 12.6953 48.0489 12.6953 46.3242L12.732 46.3119Z" fill="#A1A2A1"/>
<path d="M84.9975 48.2815C84.9975 48.5383 84.9975 48.783 84.9975 49.0399C84.8875 50.361 83.9948 51.413 82.6008 51.7555C80.4853 52.2815 78.5533 51.8044 76.8291 50.4833C76.4012 50.153 76.4623 50.2509 76.768 49.8839C76.9881 49.6026 77.2327 49.3334 77.465 49.0521C77.6607 48.8075 77.6607 48.8075 77.9052 49.0032C78.6511 49.6026 79.4704 50.0429 80.4242 50.1897C81.0112 50.2753 81.5981 50.2876 82.1606 50.0674C82.8087 49.8227 83.1144 49.3701 83.0777 48.7218C83.0655 48.3916 82.931 48.1224 82.6619 47.9145C82.2584 47.6087 81.7815 47.4619 81.3169 47.3396C80.522 47.1194 79.7027 46.9604 78.9324 46.6423C78.6634 46.5322 78.3943 46.3977 78.1375 46.2386C77.4161 45.7738 77.0492 45.101 76.9759 44.2448C76.7802 42.1286 78.2721 40.9665 79.825 40.7341C81.537 40.4772 83.1022 40.8319 84.5084 41.8717C84.6796 41.994 84.6918 42.0796 84.5695 42.2509C84.3005 42.6056 84.0437 42.9726 83.7992 43.3396C83.7013 43.4741 83.6402 43.4741 83.5057 43.3885C82.772 42.8625 81.9649 42.4833 81.0601 42.3977C80.6076 42.3487 80.1552 42.3732 79.7272 42.5689C79.2625 42.7769 78.9568 43.1071 78.9201 43.6576C78.8835 44.2203 79.1647 44.5873 79.6538 44.8319C80.253 45.1255 80.8889 45.2723 81.5247 45.4313C82.3073 45.627 83.0655 45.8472 83.7502 46.2753C84.5084 46.7402 84.9486 47.4007 85.0342 48.2937L84.9975 48.2815Z" fill="#A1A2A1"/>
<path d="M37.4682 40.8196C37.4682 42.948 37.4682 45.0765 37.4682 47.2049C37.4682 47.3272 37.4682 47.4496 37.4682 47.5841C37.4187 47.4862 37.4311 47.3639 37.4311 47.2661C37.4311 45.2233 37.4311 43.1927 37.4311 41.1499C37.4311 41.0398 37.4187 40.9297 37.4806 40.8318L37.4682 40.8196Z" fill="#A1A2A1"/>
<path d="M44.9434 40.8196C44.9434 42.9113 44.9434 45.0031 44.9434 47.0948C44.9434 47.2416 44.9682 47.3884 44.9062 47.5352C44.9062 45.3823 44.9062 43.2294 44.9062 41.0642C44.9062 40.9786 44.9063 40.893 44.9558 40.8196H44.9434Z" fill="#A1A2A1"/>
<path d="M39.3964 40.8201C38.7605 40.8201 38.1124 40.8201 37.4766 40.8201C37.5988 40.7582 37.7211 40.7705 37.8434 40.7705C38.2714 40.7705 38.6994 40.7705 39.1274 40.7705C39.2252 40.7705 39.3108 40.7705 39.3964 40.8201Z" fill="#A1A2A1"/>
<path d="M46.8573 40.8201C46.2215 40.8201 45.5734 40.8201 44.9375 40.8201C45.0598 40.7582 45.1821 40.7705 45.3043 40.7705C45.7323 40.7705 46.1603 40.7705 46.5883 40.7705C46.6861 40.7705 46.7717 40.7705 46.8573 40.8201Z" fill="#A1A2A1"/>
<path d="M64.5547 46.1896C64.6281 44.7218 65.2272 43.4496 66.7068 42.7646C68.9079 41.737 71.4024 43.0337 71.8915 45.419C72.185 46.8502 71.8915 48.1468 70.8277 49.1988C69.5438 50.471 67.306 50.5444 65.9365 49.3578C64.9949 48.5505 64.5914 47.5107 64.5547 46.1896Z" fill="white"/>
<path d="M22.9986 22.1773C19.4035 22.1773 15.8207 22.1773 12.2256 22.1773C11.9566 22.1773 11.9688 22.0305 11.9688 21.847C11.9688 18.4709 11.9688 15.107 11.9688 11.7308C11.9688 11.6085 11.9688 11.4862 11.9688 11.3516C11.9688 11.2048 12.0177 11.1314 12.1767 11.1436C12.2012 11.1436 12.2256 11.1436 12.2501 11.1436C15.8329 11.1436 19.4157 11.1436 22.9986 11.1436C23.0597 11.2048 23.0353 11.2782 23.0353 11.3394C23.0353 14.8745 23.0353 18.4219 23.0353 21.9571C23.0353 22.0305 23.0597 22.1039 23.0108 22.1651L22.9986 22.1773Z" fill="#7E7E7E"/>
<path d="M23 22.1774C23 18.5444 23 14.9236 23 11.2906C23 11.2416 23 11.1927 23 11.156C23.0248 11.156 23.0371 11.156 23.0619 11.156C23.0619 14.838 23.0619 18.5077 23.0619 22.1896C23.0495 22.1896 23.0248 22.1896 23.0124 22.1896L23 22.1774Z" fill="#A1A2A1"/>
<path d="M49.7232 16.6851C49.7232 14.2753 49.7232 11.8655 49.7232 9.45572C49.7232 9.14991 49.7232 9.14991 50.0289 9.14991C51.0438 9.14991 52.0587 9.11322 53.0737 9.22331C54.1497 9.3334 55.2014 9.56582 56.1918 10.0184C57.9404 10.8258 59.0777 12.1591 59.579 14.0062C60.0315 15.6698 60.0559 17.3701 59.6524 19.0459C59.0777 21.4435 57.5492 22.9481 55.2258 23.682C54.1497 24.0245 53.0492 24.1591 51.9242 24.1836C51.3006 24.1958 50.677 24.1836 50.0411 24.1836C49.821 24.1836 49.7109 24.0775 49.7109 23.8655C49.7109 21.468 49.7109 19.0826 49.7109 16.6851H49.7232Z" fill="white"/>
<path d="M52.6797 44.4404C52.6797 43.9144 52.6797 43.3761 52.6797 42.8501C52.6797 42.6789 52.7286 42.5933 52.912 42.5933C53.9025 42.5933 54.8807 42.5933 55.8712 42.6177C56.4337 42.63 56.9718 42.8134 57.3631 43.2538C58.0845 44.0979 57.8155 45.4556 56.8372 45.9694C56.4215 46.1896 55.9813 46.263 55.5288 46.263C54.6729 46.263 53.8291 46.263 52.9732 46.263C52.7531 46.263 52.6919 46.1896 52.6919 45.9816C52.7041 45.4679 52.6919 44.9541 52.6919 44.4281L52.6797 44.4404Z" fill="white"/>
</svg>
