<svg width="259" height="119" viewBox="0 0 259 119" fill="none" xmlns="http://www.w3.org/2000/svg">
<g clip-path="url(#clip0_1108_29246)">
<path d="M258.625 15.5205H0.625V103.493H258.625V15.5205Z" fill="#BB0C19"/>
<path d="M188.843 119H188.992C195.727 119 202.055 118.027 208.179 116.174C214.765 113.89 221.025 109.32 224.8 103.615C231.033 94.5429 236.695 76.9944 236.94 59.5135V59.4594C236.695 41.992 231.033 24.4435 224.8 15.3583C221.025 9.66652 214.915 5.08336 208.329 2.79854C202.205 0.959865 195.578 -0.0135498 188.856 -0.0135498C182.135 -0.0135498 175.508 0.959865 169.384 2.79854C162.798 5.08336 156.688 9.66652 152.913 15.3583C146.68 24.43 141.018 41.9785 140.773 59.4594V59.5135C141.018 76.9944 146.68 94.5429 152.913 103.615C156.688 109.306 162.798 113.863 169.384 116.147C175.508 117.986 181.986 118.986 188.721 118.986H188.87L188.843 119Z" fill="#6F6E61"/>
<path d="M233.218 59.5C233.435 72.6682 229.403 88.6349 225.519 97.1388C221.228 106.846 214.656 112.754 205.015 115.39C199.814 116.715 194.369 117.391 188.774 117.391C183.18 117.391 177.694 116.715 172.493 115.39C162.839 112.767 156.28 106.859 151.989 97.1388C148.105 88.6349 144.086 72.6682 144.29 59.5C144.072 46.3454 148.092 30.3652 151.989 21.8613C156.28 12.1542 162.852 6.24613 172.493 3.6098C177.68 2.28487 183.166 1.60889 188.774 1.60889C194.382 1.60889 199.828 2.29839 205.015 3.6098C214.669 6.23261 221.228 12.1542 225.519 21.8613C229.403 30.3652 233.435 46.3454 233.218 59.5Z" fill="white"/>
<path d="M188.924 15.6693C193.541 15.6693 198.144 16.3183 202.408 17.4539C206.93 18.7383 210.664 21.8478 212.524 26.0794C216.585 34.7455 219.26 47.2377 219.26 59.5C219.26 71.7624 216.585 84.2545 212.524 92.9206C210.664 97.1523 206.93 100.262 202.408 101.546C198.158 102.695 193.541 103.331 188.924 103.331H188.775C184.158 103.331 179.555 102.695 175.291 101.546C170.769 100.248 167.049 97.1523 165.175 92.9206C161.115 84.2545 158.453 71.7759 158.453 59.5C158.453 47.2242 161.115 34.7455 165.175 26.0794C167.035 21.8478 170.769 18.7383 175.291 17.4539C179.541 16.3047 184.158 15.6693 188.775 15.6693H188.924Z" fill="#6F6E61"/>
<path d="M195.459 32.4066C194.821 31.3251 195.337 32.2849 194.672 31.0411L195.459 32.4066Z" fill="white"/>
<path d="M181.712 57.1476H166.477V61.555H181.712V57.1476Z" fill="white"/>
<path d="M178.28 95.3541C177.954 94.6511 177.832 94.4077 177.805 93.6912C180.996 93.6912 183.141 93.6912 186.522 93.6912C186.509 94.8944 185.816 96.0706 184.716 96.8548C183.508 97.7335 181.498 97.9228 180.154 97.1792C179.393 96.8142 178.701 96.0706 178.28 95.3406" fill="white"/>
<path d="M187.687 91.8255H183.016V89.6759H187.7L189.18 87.9319C189.9 88.7701 189.954 88.8242 190.701 89.6624H195.386V91.8255H190.701V97.1793H187.7V91.8255H187.687Z" fill="white"/>
<path d="M188.234 85.1332C189.198 84.8088 190.556 84.268 190.828 83.3351C190.76 81.902 191.751 80.7394 192.498 79.6037C192.865 79.1035 192.919 78.806 192.81 78.2653C194.304 78.3193 195.811 79.5631 196.382 80.9557C196.979 82.3617 196.748 84.2139 195.825 85.4036C194.671 86.7962 193.082 87.5262 191.222 87.2018C190.054 86.9314 188.913 86.2283 188.234 85.1468" fill="white"/>
<path d="M176.985 65.7731C176.157 65.3675 175.016 65.1917 174.093 65.6379C173.346 65.8407 172.558 66.7195 172.49 67.5982C172.436 70.2211 172.545 71.0322 172.49 73.9254C172.436 74.3716 172.205 74.5879 171.635 74.5879C171.16 74.5609 170.793 74.331 170.807 73.9119V67.4631C170.766 66.7736 170.657 66.1111 170.182 65.5973L166.828 66.6924L166.516 66.8006C167.358 67.4225 167.765 67.4495 167.833 68.477V76.724L167.874 77.1566L167.996 77.4406L168.091 77.7109L168.213 77.9273C168.77 78.806 169.707 79.1711 170.358 79.3333C170.644 79.4279 171.16 79.455 171.445 79.4685C172.314 79.4685 173.129 79.4144 174.025 78.7925C175.41 77.7245 175.098 75.8317 175.138 73.1007C175.138 72.3301 175.193 71.8975 175.681 71.4649C176.075 71.1674 176.646 71.0593 177.162 71.181C177.745 71.3432 177.84 71.3838 178.424 71.7758C178.438 69.4099 178.506 66.5032 177.026 65.8001" fill="white"/>
<path d="M208.081 76.1292C205.637 73.7363 201.4 70.3969 201.061 68.9773C200.694 68.0174 200.816 66.8818 200.789 65.7732C201.495 65.2189 202.079 64.7322 202.935 64.0697C202.867 65.7597 202.636 67.4767 203.451 68.4771C205.447 70.4645 207.266 72.2491 209.072 74.0067C209.738 74.7367 210.281 75.7642 209.833 76.7241C209.629 77.1702 209.33 77.6975 209.031 78.1166C209.031 77.1838 208.624 76.6565 208.095 76.1292" fill="white"/>
<path d="M194.232 63.9615C196.093 63.9345 196.704 63.9886 198.645 63.9615V76.9945H194.219V63.9751L194.232 63.9615Z" fill="white"/>
<path d="M204.133 65.1783C204.608 64.6645 204.771 64.4752 205.328 63.9344L206.441 65.2729V68.9773C208.003 68.2202 207.623 65.9894 207.623 64.0696C208.56 64.8267 209.035 65.2594 209.917 66.0976C210.42 68.3148 209.089 69.5857 208.084 71.1269L204.133 67.3684V65.1783Z" fill="white"/>
<path d="M207.729 55.2143L208.327 52.7402L210.255 52.4563V46.3049C209.508 46.413 209.196 46.4941 208.585 46.5617V41.8975C207.566 42.1003 206.493 42.4653 205.421 42.7222V50.4689C205.421 50.8475 204.81 50.9692 204.687 50.9692H204.524C204.144 50.9692 203.75 50.7123 203.75 50.4419V42.979L200.668 43.3711V46.5212C199.582 48.7249 197.966 50.7393 196.391 52.7537C198.061 52.8619 198.183 52.8619 199.84 53.0241L200.858 55.2414H207.729V55.2143Z" fill="white"/>
<path d="M172.559 53.673C172.505 51.6315 172.424 50.3066 172.383 48.2922C173.021 48.1164 173.632 48.522 174.121 48.8871C174.039 51.4423 174.039 51.4152 173.985 54.0921H172.573V53.673H172.559Z" fill="white"/>
<path d="M172.276 41.965C171.937 39.9641 171.923 39.8154 171.72 38.3417H170.43V36.9357C172.643 36.9357 173.879 36.9357 176.092 36.9357V38.3417H174.775L174.205 43.0736C173.634 42.5598 172.969 42.1948 172.263 41.965" fill="white"/>
<path d="M172.057 35.9352C170.169 33.9073 170.02 30.8789 170.387 28.1344C170.726 29.1483 171.378 29.8784 172.396 30.3516C172.288 29.8243 171.799 29.3241 171.649 28.7428C171.215 27.6341 171.242 26.0523 171.975 25.0789C172.491 24.3218 173.225 24.0109 174.039 23.7405C173.727 24.6598 173.632 25.7549 174.012 26.6878C174.542 26.2822 174.569 26.2551 174.976 25.8631C175.139 25.7143 175.207 25.6603 175.343 25.5656C176.09 27.1745 176.959 29.3782 176.456 31.2439L176.144 32.0551C176.035 30.7301 175.818 30.1082 174.922 29.6215C174.813 30.3921 175.302 30.9465 175.424 31.9469C175.777 33.5017 175.492 35.0294 174.528 35.9352H172.043H172.057Z" fill="white"/>
<path d="M195.454 32.4066L193.498 34.5427C192.969 34.0425 192.928 33.9884 192.398 33.4341C193.403 32.3796 193.498 32.2714 194.68 31.0411" fill="white"/>
<path d="M198.008 27.2151C198.402 25.3629 198.619 23.2403 200.656 22.4561C201.43 22.2398 202.475 22.348 203.127 22.9158C204.01 23.5512 204.268 24.6193 204.05 25.6062C203.439 27.7559 201.036 28.1614 199.081 28.6752L198.008 27.2151Z" fill="white"/>
<path d="M211.546 57.1476V61.582L196.297 61.5685V57.1476H211.546Z" fill="white"/>
<path d="M174.734 86.7962C174.123 83.9976 177.518 82.9836 178.319 80.6582C178.957 76.7646 179.148 72.6681 181.863 69.6397C182.135 63.9209 183.995 58.8645 188.069 54.7005C187.879 53.4161 187.336 52.3075 186.955 51.0907C186.412 51.0637 186.059 50.9691 185.57 50.5364C185.217 50.0362 185.068 49.6712 184.973 49.0628C183.547 50.8204 181.795 52.7807 179.854 53.9704C179.501 54.1597 179.039 53.7541 178.401 53.1457C176.024 51.28 175.631 47.0348 172.005 47.2376C170.362 46.6833 170.443 44.75 170.172 43.3034C170.783 42.8573 171.774 42.8843 172.507 43.1682C174.762 44.3715 176.269 46.8997 178.401 48.6031C178.971 49.0493 179.487 49.6577 180.017 49.874C181.415 48.6707 182.542 47.6432 183.493 45.7775C184.145 44.723 185.245 44.2768 186.453 44.2498L187.309 43.2358L186.847 40.7212C185.964 39.599 185.231 38.4093 184.647 37.152C184.959 35.7054 185.149 34.0289 186.616 33.2313C187.58 32.6364 188.368 33.9884 189.142 33.1366C189.712 33.015 190.214 33.1772 190.608 33.5017C191.206 34.5292 191.912 35.5567 191.952 36.7599C191.586 37.9226 191.029 39.0177 190.486 40.0993C190.35 40.3426 190.024 40.4237 189.793 40.5995C189.929 41.0862 190.038 41.654 190.377 42.0326C190.825 42.1272 191.219 42.2083 191.762 42.1137C192.183 40.8293 193.568 40.2615 194.709 39.9235L197.235 38.2876C196.827 36.3814 198.063 34.7049 197.371 32.7987C195.931 32.1362 195.51 30.5003 195.211 29.2295C195.442 28.4318 195.836 27.5936 196.406 26.9176L196.488 27.0122C197.873 28.6076 199.136 30.257 199.57 32.2308C199.815 34.7725 200.073 37.3548 199.896 40.0046C198.538 41.3566 196.882 42.1543 195.334 43.1682L194.179 45.3584C194.044 47.6297 193.378 49.6712 193.025 51.8614C194.003 54.5112 195.171 58.0399 194.302 60.5004C193.65 61.9605 192.265 62.7582 191.233 63.5694L188.653 65.6379C191.246 68.4905 190.608 71.7217 190.73 75.8452C190.703 76.8457 192.496 77.6704 191.545 78.806C190.744 80.0769 189.495 81.1179 189.712 82.7943C188.911 84.1193 187.01 84.4032 186.114 84.4032C185.923 84.4032 185.761 84.268 185.761 84.0787C185.951 83.3892 186.494 82.8619 186.779 82.213C187.702 80.8069 187.281 78.8601 188.422 77.5352C187.471 74.4662 186.046 71.6271 185.665 68.3418L185.625 68.139C184.864 69.6397 185.285 71.1134 185.679 72.3031C183.126 75.5072 180.37 78.5762 180.37 82.7943C179.283 84.7277 177.735 86.4717 176.921 88.5132C176.649 88.8511 176.133 88.5537 175.834 88.378C175.101 87.8913 174.938 87.4316 174.68 86.7691" fill="white"/>
<path d="M202.724 72.9655C205.169 75.3585 209.405 78.6979 209.758 80.1174C210.125 81.0773 210.003 82.213 210.03 83.3216C209.324 83.8759 208.74 84.3626 207.884 85.0116C207.952 83.3216 208.183 81.6046 207.368 80.6041C205.372 78.6303 203.553 76.8322 201.76 75.0746C201.095 74.3445 200.552 73.317 201 72.3707C201.203 71.911 201.502 71.3973 201.801 70.9781C201.801 71.911 202.208 72.4383 202.738 72.9655" fill="white"/>
<path d="M206.669 83.9165C206.207 84.4302 206.031 84.6195 205.488 85.1603L204.374 83.8353V80.1309C202.799 80.888 203.193 83.1053 203.193 85.0251C202.256 84.268 201.781 83.8353 200.898 83.0106C200.395 80.7934 201.74 79.5226 202.745 77.9813L206.683 81.7398V83.93L206.669 83.9165Z" fill="white"/>
<path d="M200.086 95.3541C200.412 94.6511 200.534 94.4077 200.561 93.6912C197.37 93.6912 195.225 93.6912 191.844 93.6912C191.857 94.8944 192.55 96.0706 193.65 96.8548C194.858 97.7335 196.868 97.9228 198.212 97.1792C198.973 96.8142 199.665 96.0706 200.086 95.3406" fill="white"/>
<path d="M190.375 114.282C190.334 111.875 192.697 110.658 194.191 109.049C194.598 108.657 194.748 107.9 194.462 107.265C194.286 106.873 194.014 106.684 193.702 106.602C193.172 106.481 192.738 106.562 192.398 106.846C191.937 107.278 191.801 107.833 191.828 108.428L190.185 108.522C190.036 107.616 190.267 106.724 190.823 106.035C191.597 105.21 192.751 104.98 193.892 105.061C194.788 105.21 195.847 105.751 196.214 106.697C196.689 107.711 196.54 109.022 195.78 109.874C194.802 110.915 193.525 111.47 192.711 112.646L196.893 112.402C196.92 112.916 196.947 113.416 196.988 113.89L190.389 114.282H190.375Z" fill="#6F6E61"/>
<path d="M175.536 103.885L175.508 103.966L172.779 112.281L171.041 111.713L172.915 106.021L172.942 105.927C172.249 105.683 171.421 105.44 170.742 105.21L171.095 104.128C171.978 104.358 172.874 104.507 173.648 103.872C173.933 103.655 173.974 103.588 174.123 103.425L175.536 103.885Z" fill="#6F6E61"/>
<path d="M206.536 110.118C206.305 110.375 205.911 110.577 205.49 110.672C205.055 110.78 204.621 110.794 204.295 110.672C203.86 110.51 203.562 110.172 203.453 109.793C203.29 109.225 203.453 108.617 203.942 108.279C204.146 108.13 204.458 107.995 204.784 107.9C205.123 107.833 205.463 107.806 205.707 107.846C206.305 107.914 206.726 108.374 206.848 108.955C206.929 109.347 206.834 109.78 206.522 110.118M202.883 106.116C202.679 105.751 202.679 105.142 203.046 104.791C203.263 104.561 203.575 104.399 203.915 104.318C204.254 104.237 204.607 104.223 204.906 104.318C205.395 104.466 205.68 105.007 205.666 105.426C205.666 105.751 205.517 106.008 205.313 106.197C205.096 106.386 204.811 106.521 204.485 106.589C204.173 106.67 203.847 106.684 203.562 106.63C203.29 106.548 203.032 106.4 202.883 106.102M208.64 108.482C208.423 107.671 207.961 107.008 207.052 106.738L206.522 106.616C207.065 106.237 207.568 105.467 207.377 104.71C207.255 103.858 206.631 103.304 205.843 103.006C205.164 102.804 204.363 102.844 203.602 103.033C202.842 103.209 202.109 103.547 201.606 104.047C201.05 104.669 200.764 105.44 201.05 106.251C201.24 107.008 202.041 107.454 202.706 107.549L202.299 107.9C201.606 108.549 201.511 109.347 201.701 110.172C201.905 111.091 202.652 111.808 203.548 112.078C204.227 112.254 205.055 112.24 205.857 112.051C206.658 111.848 207.391 111.483 207.907 111.01C208.586 110.361 208.912 109.374 208.654 108.468" fill="#6F6E61"/>
<path d="M183.571 112.551C183.285 112.727 182.851 112.808 182.403 112.781C181.955 112.754 181.534 112.632 181.276 112.416C180.909 112.132 180.733 111.726 180.746 111.334C180.746 110.753 181.099 110.212 181.67 110.037C181.914 109.955 182.253 109.915 182.593 109.928C182.932 109.955 183.258 110.037 183.489 110.145C184.032 110.388 184.304 110.956 184.25 111.537C184.209 111.929 183.978 112.321 183.584 112.551M181.276 107.644C181.181 107.238 181.371 106.657 181.833 106.427C182.104 106.278 182.457 106.21 182.797 106.237C183.15 106.265 183.489 106.359 183.734 106.548C184.168 106.846 184.277 107.441 184.127 107.833C184.032 108.144 183.801 108.347 183.557 108.468C183.299 108.576 182.973 108.63 182.647 108.603C182.321 108.59 182.009 108.509 181.765 108.36C181.52 108.198 181.33 107.982 181.276 107.657M186.056 111.605C186.096 110.767 185.852 109.996 185.051 109.469L184.575 109.198C185.2 108.995 185.906 108.401 185.961 107.63C186.096 106.778 185.662 106.075 185.01 105.548C184.426 105.156 183.652 104.94 182.865 104.913C182.077 104.845 181.289 104.967 180.651 105.291C179.945 105.724 179.429 106.373 179.456 107.238C179.415 108.009 180.054 108.685 180.651 108.968L180.149 109.171C179.293 109.59 178.967 110.32 178.899 111.172C178.818 112.119 179.307 113.024 180.094 113.538C180.692 113.917 181.479 114.146 182.308 114.187C183.123 114.241 183.937 114.092 184.575 113.808C185.417 113.376 186.015 112.551 186.042 111.605" fill="#6F6E61"/>
<path d="M224.66 25.5343L216.531 29.0266L217.263 30.7148L225.392 27.2225L224.66 25.5343Z" fill="#6F6E61"/>
<path d="M194.763 13.2222L192.672 4.15051L194.6 4.33979C194.994 6.58405 195.388 9.13927 195.836 11.0185C196.664 9.26094 197.574 6.84092 198.402 4.71834L200.29 4.90761L196.433 13.3709L194.749 13.2087L194.763 13.2222Z" fill="#6F6E61"/>
<path d="M160.177 18.4138L158.194 21.9424L156.524 21.0096L158.792 16.9807L157.515 16.2642L154.352 21.9154L162.064 26.2146L165.242 20.5499L163.965 19.8469L161.684 23.8892L159.525 22.686L161.508 19.1574L160.177 18.4138Z" fill="#6F6E61"/>
<path d="M154.31 59.8515H151.838H151.825C151.865 57.8911 151.567 56.742 152.734 56.5121C153.142 56.404 153.644 56.4445 153.943 56.7555C154.445 57.2287 154.282 58.0399 154.31 59.8515ZM150.494 59.865H148.321C148.389 57.8371 148.05 56.769 149.285 56.6338C150.019 56.5797 150.222 56.742 150.385 57.1881C150.535 57.6478 150.48 58.1075 150.48 59.865M155.477 55.8767C155.056 54.9303 154.038 54.5518 152.979 54.6059C152.083 54.714 151.404 55.3089 151.023 56.2282C150.888 55.6874 150.385 55.0115 149.543 54.9033C148.647 54.7951 147.805 55.0385 147.384 55.7821C146.8 56.5392 147.045 59.8109 146.991 61.7037H155.79V61.0547C155.735 57.5667 155.939 57.1611 155.491 55.8767" fill="#6F6E61"/>
<path d="M225.466 32.1227L226.864 31.7577L228.643 38.6527L227.244 39.0177L226.579 36.4625L219.477 38.2877L219.016 36.5031L226.117 34.6779L225.466 32.1227Z" fill="#6F6E61"/>
<path d="M180.767 13.736C179.776 13.8982 178.771 13.8036 177.956 13.3168C177.25 12.9113 177.006 12.384 176.87 11.735L175.852 5.43488L177.658 5.13745L178.676 11.4376C178.771 11.9514 179.233 12.2758 179.708 12.3705C179.98 12.4381 180.265 12.4381 180.55 12.3705" fill="#6F6E61"/>
<path d="M180.791 13.736C181.769 13.5873 182.706 13.1817 183.331 12.4516C183.874 11.8432 183.942 11.2754 183.86 10.6129L182.842 4.32629L181.036 4.61021L182.041 10.9104C182.108 11.3836 181.769 11.8703 181.348 12.1136C181.117 12.2623 180.832 12.3434 180.547 12.384" fill="#6F6E61"/>
<path d="M224.433 47.3864L224.134 45.2098L227.95 45.7776L224.433 47.3729V47.3864ZM229.552 44.6149L220.359 42.7762L220.604 44.5608L222.6 44.9259L223.034 48.076L221.215 48.9682L221.459 50.7528L229.797 46.4806L229.539 44.6014L229.552 44.6149Z" fill="#6F6E61"/>
<path d="M228.224 59.7433L228.387 59.7163L228.591 59.6622L228.74 59.6081C229.324 59.2972 229.46 58.5131 229.433 57.8911C229.406 57.2557 229.216 56.6068 228.605 56.3769C228.292 56.2958 227.898 56.2688 227.695 56.5797C226.69 58.0534 227.396 61.1764 224.816 61.7172C223.689 61.9065 222.711 61.4198 222.127 60.5275C221.326 59.1079 221.258 56.8907 222.182 55.5117C222.738 54.7951 223.485 54.349 224.381 54.349L224.49 56.039C223.933 56.1066 223.39 56.3905 223.146 56.9313C222.766 57.81 222.861 59.2161 223.512 59.7433C223.757 60.0137 224.3 59.9732 224.599 59.8245C225.617 59.0944 225.413 57.2692 225.929 56.0525C226.106 55.5387 226.581 55.0115 227.07 54.7546C227.98 54.3625 229.134 54.5112 229.867 55.2278C231.049 56.3229 231.103 58.4995 230.546 59.8245C230.248 60.7438 229.243 61.4063 228.211 61.4739L228.102 59.7704H228.238L228.224 59.7433Z" fill="#6F6E61"/>
<path d="M156.99 46.467C156.841 47.4404 156.447 48.3733 155.714 48.9952C155.103 49.536 154.532 49.6036 153.867 49.536L147.539 48.549L147.824 46.7509L154.152 47.7379C154.682 47.8055 155.13 47.4675 155.361 47.0348C155.51 46.805 155.591 46.5211 155.632 46.2372" fill="#6F6E61"/>
<path d="M156.988 46.44C157.151 45.4666 157.056 44.4526 156.553 43.6414C156.146 42.9384 155.616 42.695 154.965 42.5734L148.637 41.5864L148.352 43.3845L154.679 44.385C155.155 44.4661 155.521 44.9393 155.616 45.4125C155.684 45.6829 155.684 45.9668 155.616 46.2507" fill="#6F6E61"/>
<path d="M167.874 14.4796L166.896 10.7617L169.762 13.3439L167.874 14.4931V14.4796ZM166.801 8.77429L165.172 9.76123L167.114 18.887L168.662 17.9541L168.214 15.9803L170.943 14.3309L172.491 15.6423L174.039 14.7094L166.801 8.77429Z" fill="#6F6E61"/>
<path d="M209.751 11.6404L206.017 10.0856L206.764 8.32806L211.041 10.1127L211.611 8.77421L205.609 6.27307L202.188 14.3984L208.189 16.8995L208.76 15.5476L204.469 13.763L205.433 11.4917L209.167 13.0599L209.751 11.6404Z" fill="#6F6E61"/>
<path d="M154.105 34.3265L151.891 33.6775C152.38 32.1768 152.597 30.6491 153.656 30.7437C154.077 30.8113 154.376 30.9195 154.634 31.2305C155.042 31.7442 154.512 32.8663 154.105 34.3265ZM155.87 31.1764C155.87 30.568 155.829 30.0678 155.327 29.5811C154.838 29.0808 154.064 28.851 153.303 28.9051C151.334 29.216 151.063 31.4603 149.977 35.0295L158.45 37.5441L158.979 35.7866L155.639 34.7861L155.503 34.7456C155.734 33.9344 156.06 32.9069 156.223 32.6906C156.834 31.2845 159.074 32.6635 159.971 32.5283L160.487 30.7843C158.966 30.8654 156.943 29.5135 155.87 31.1764Z" fill="#6F6E61"/>
<path d="M219.039 19.0897C218.726 19.4007 218.468 19.5629 218.061 19.59C217.396 19.617 216.798 18.5219 215.848 17.3457L217.681 15.9532C218.618 17.224 219.731 18.2921 219.025 19.0897M217.721 13.6278L210.688 18.9681L211.801 20.4282L214.571 18.3191L214.693 18.2245C215.223 18.887 215.861 19.7522 215.943 20.0226C216.717 21.334 214.286 22.3345 213.879 23.1321L214.978 24.5787C215.807 23.3079 218.088 22.4697 217.368 20.631C217.871 20.9825 218.292 21.2529 218.984 21.1312C219.677 21.0366 220.329 20.5499 220.722 19.9009C221.632 18.1434 219.962 16.6021 217.708 13.6278" fill="#6F6E61"/>
<path d="M17.7783 79.4145V78.7114C17.7783 77.7651 17.4931 77.2783 16.95 77.2783C16.5562 77.2783 16.2982 77.373 16.1488 77.5623C15.9995 77.7515 15.9316 78.0354 15.9316 78.4275V83.8759C15.9316 84.2004 15.9995 84.4438 16.1488 84.606C16.2982 84.7682 16.529 84.8494 16.8549 84.8494C17.2487 84.8494 17.5067 84.7006 17.6289 84.4032C17.7511 84.1058 17.819 83.7272 17.819 83.2676V82.2671H20.4262V83.6191C20.4262 84.6195 20.1139 85.4037 19.5164 85.9715C18.9054 86.5393 17.9548 86.8232 16.6784 86.8232C15.5106 86.8232 14.6687 86.5258 14.1391 85.9309C13.6096 85.3361 13.3516 84.4708 13.3516 83.3081V78.779C13.3516 77.5893 13.6367 76.697 14.207 76.1292C14.7774 75.5614 15.6464 75.2639 16.8414 75.2639C18.0363 75.2639 18.8646 75.5208 19.4757 76.0345C20.0867 76.5483 20.3855 77.3595 20.3855 78.4546V79.3874H17.7783V79.4145Z" fill="white"/>
<path d="M23.9038 82.862V84.2951C23.9038 84.5519 23.9582 84.7547 24.0804 84.917C24.2026 85.0792 24.3791 85.1603 24.6235 85.1603C25.0037 85.1603 25.2346 85.0386 25.3161 84.8088C25.3975 84.579 25.4383 84.2275 25.4383 83.7408H27.7874C27.7874 85.8093 26.769 86.8503 24.7186 86.8503C23.7952 86.8503 23.0348 86.6475 22.4373 86.2284C21.8398 85.8228 21.5547 85.1738 21.5547 84.2951V80.9422C21.5547 79.9417 21.8398 79.2252 22.3966 78.779C22.9533 78.3329 23.7273 78.1166 24.7186 78.1166C25.642 78.1166 26.4024 78.3059 26.9998 78.6844C27.5973 79.063 27.8825 79.6713 27.8825 80.496V82.8485H23.9038V82.862ZM25.5333 81.3072V80.496C25.5333 80.2932 25.4654 80.104 25.3432 79.9282C25.221 79.7525 25.0173 79.6578 24.7322 79.6578C24.4198 79.6578 24.2162 79.7525 24.094 79.9553C23.9717 80.158 23.9038 80.4284 23.9038 80.7529V81.2937H25.5333V81.3072Z" fill="white"/>
<path d="M31.194 78.3735V79.6173C31.357 79.1441 31.5742 78.779 31.8866 78.5086C32.1853 78.2518 32.5791 78.1166 33.0408 78.1166V80.7664C32.9457 80.7529 32.8235 80.7259 32.7013 80.7259C32.5791 80.7259 32.4433 80.7124 32.3347 80.7124C32.0495 80.7124 31.8187 80.7529 31.6285 80.8205C31.4384 80.8881 31.357 81.1315 31.357 81.5235V86.6069H29.0078V78.387H31.194V78.3735Z" fill="white"/>
<path d="M33.4745 80.0633V78.3734H34.4115V76.0074H36.7606V78.3734H37.8877V80.0633H36.7606V84.3761C36.7606 84.5924 36.8014 84.7411 36.8828 84.8223C36.9643 84.9034 37.1001 84.9439 37.2766 84.9439H37.8877V86.5933C37.6704 86.6204 37.426 86.6474 37.1273 86.6745C36.8421 86.7015 36.5841 86.715 36.3668 86.715C35.0497 86.715 34.3979 86.0796 34.3979 84.8223V80.0633H33.4609H33.4745Z" fill="white"/>
<path d="M39.1094 77.5488V75.5614H41.4585V77.5488H39.1094ZM39.1094 86.5934V78.3465H41.4585V86.5934H39.1094Z" fill="white"/>
<path d="M43.5677 80.0634H42.6172V78.3734H43.5541V77.6569C43.5677 76.8998 43.7578 76.359 44.138 76.048C44.5182 75.7235 45.1021 75.5748 45.8897 75.5748H46.9217V77.2648H46.4193C46.2563 77.2648 46.1341 77.2918 46.0527 77.3324C45.9576 77.3729 45.9169 77.4405 45.9169 77.5487V78.3869H46.9217V80.0769H45.9169V86.6069H43.5677V80.0769V80.0634Z" fill="white"/>
<path d="M48.1406 77.5488V75.5614H50.4898V77.5488H48.1406ZM48.1406 86.5934V78.3465H50.4898V86.5934H48.1406Z" fill="white"/>
<path d="M55.8979 81.4153V81.2666C55.8572 80.9557 55.83 80.6447 55.7893 80.3203C55.6806 79.9823 55.4634 79.8065 55.1511 79.8065C54.8795 79.8065 54.6894 79.9011 54.5943 80.0769C54.4993 80.2527 54.445 80.496 54.445 80.807V84.2004C54.445 84.4978 54.4993 84.7277 54.6079 84.9034C54.7165 85.0792 54.9202 85.1603 55.2054 85.1603C55.4226 85.1603 55.5992 85.0656 55.735 84.8629C55.8707 84.6601 55.9386 84.3085 55.9386 83.7948V83.254H58.2199C58.2199 83.5379 58.2063 83.8759 58.1792 84.2815C58.152 84.6871 58.0841 85.0656 57.9755 85.4172C57.8668 85.7687 57.6088 86.0796 57.2151 86.3365C56.8213 86.5934 56.346 86.7556 55.8164 86.8097C55.7214 86.8097 55.572 86.8097 55.3819 86.8232C55.1918 86.8232 55.0696 86.8367 55.0289 86.8367C54.1326 86.8367 53.4265 86.6339 52.897 86.2283C52.3674 85.8227 52.1094 85.1738 52.1094 84.2815V80.9286C52.1094 79.9147 52.3538 79.1846 52.8426 78.752C53.3315 78.3193 54.0512 78.103 55.0289 78.103C56.1695 78.103 56.9706 78.3599 57.4323 78.8736C57.894 79.3874 58.1248 80.2256 58.1248 81.4018H55.9115L55.8979 81.4153Z" fill="white"/>
<path d="M63.2937 85.8633C62.9814 86.2013 62.6827 86.4446 62.3839 86.6069C62.0716 86.7691 61.705 86.8502 61.2705 86.8502C60.6051 86.8502 60.0755 86.6474 59.6953 86.2553C59.3151 85.8498 59.125 85.3225 59.125 84.66C59.125 83.8218 59.3015 83.1999 59.6682 82.7943C60.0348 82.3887 60.4965 82.0913 61.0396 81.9155C61.5964 81.7398 62.0988 81.5775 62.574 81.4153C62.995 81.2125 63.2123 80.9286 63.2123 80.5501C63.2123 80.3067 63.1444 80.1039 63.0086 79.9417C62.8728 79.7794 62.6963 79.6983 62.4654 79.6983C62.0852 79.6983 61.8408 79.8065 61.7322 80.0228C61.6235 80.2391 61.5692 80.5636 61.5692 80.9827H59.2201C59.2201 79.9958 59.5052 79.2657 60.0619 78.8195C60.6187 78.3734 61.3927 78.1436 62.4111 78.1436C63.5789 78.1436 64.3936 78.3328 64.8689 78.7114C65.3442 79.0899 65.575 79.7389 65.575 80.6582V85.701C65.575 85.8227 65.5886 85.9714 65.6293 86.1337C65.67 86.2959 65.7108 86.4581 65.7651 86.6204H63.4703L63.3073 85.8903L63.2937 85.8633ZM63.1987 82.5915C62.8049 82.7673 62.5469 82.889 62.4111 82.943C62.2753 82.9971 62.1259 83.0918 61.9766 83.1999C61.8272 83.3081 61.6914 83.4568 61.5964 83.619C61.5013 83.7812 61.447 83.9976 61.447 84.2544C61.447 84.5113 61.5285 84.7276 61.6778 84.8899C61.8272 85.0521 62.0445 85.1332 62.3296 85.1332C62.6419 85.1332 62.8592 85.0115 62.995 84.7547C63.1308 84.4978 63.1987 84.2139 63.1987 83.8894V82.5915Z" fill="white"/>
<path d="M66.3261 80.0633V78.3734H67.263V76.0074H69.6122V78.3734H70.7392V80.0633H69.6122V84.3761C69.6122 84.5924 69.6529 84.7411 69.7344 84.8223C69.8159 84.9034 69.9517 84.9439 70.1282 84.9439H70.7392V86.5933C70.522 86.6204 70.2776 86.6474 69.9788 86.6745C69.6937 86.7015 69.4357 86.715 69.2184 86.715C67.9012 86.715 67.2495 86.0796 67.2495 84.8223V80.0633H66.3125H66.3261Z" fill="white"/>
<path d="M71.9609 77.5488V75.5614H74.3101V77.5488H71.9609ZM71.9609 86.5934V78.3465H74.3101V86.5934H71.9609Z" fill="white"/>
<path d="M75.8026 80.9422C75.8026 79.9282 76.0742 79.2117 76.6038 78.7791C77.1334 78.3464 77.8938 78.1301 78.8715 78.1301C80.9219 78.1301 81.9403 79.0765 81.9403 80.9557V84.3086C81.9403 85.1874 81.6687 85.8363 81.1256 86.2419C80.5824 86.6475 79.822 86.8638 78.8715 86.8638C77.921 86.8638 77.2149 86.661 76.6445 86.2554C76.0742 85.8498 75.7891 85.2009 75.7891 84.3086V80.9557L75.8026 80.9422ZM78.1518 84.4303C78.2061 84.9035 78.437 85.1468 78.8715 85.1468C79.1023 85.1468 79.2789 85.0927 79.4011 84.9846C79.5233 84.8764 79.5776 84.6872 79.6047 84.4303V80.7665C79.6047 80.469 79.5504 80.2392 79.4418 80.0634C79.3332 79.8877 79.1431 79.8066 78.8851 79.8066C78.6271 79.8066 78.4505 79.9012 78.3283 80.077C78.2197 80.2527 78.1654 80.4825 78.1654 80.7665V84.4303H78.1518Z" fill="white"/>
<path d="M85.4831 78.3735V79.4009C85.6053 79.063 85.8361 78.7655 86.1485 78.5086C86.4608 78.2518 86.8002 78.1166 87.1533 78.1166C87.7372 78.1166 88.226 78.2653 88.6334 78.5762C89.0408 78.8737 89.2445 79.3063 89.2445 79.8471V86.6069H86.8953V80.7259C86.8953 80.5096 86.8546 80.3473 86.7595 80.2256C86.6645 80.104 86.5015 80.0499 86.2842 80.0499C85.8633 80.0499 85.646 80.2797 85.646 80.7259V86.6069H83.2969V78.387H85.4831V78.3735Z" fill="white"/>
<path d="M13.4844 70.7619V58.5131H17.2186C18.4271 58.5131 19.3641 58.7564 20.0702 59.2296C20.7627 59.7028 21.1157 60.5275 21.1157 61.6767C21.1157 62.258 21.0071 62.7582 20.7898 63.2044C20.5726 63.6505 20.2195 64.002 19.7307 64.2589C20.3689 64.6375 20.7898 65.0295 21.0071 65.4351C21.2244 65.8407 21.333 66.4356 21.333 67.2197C21.333 68.423 21.0071 69.3017 20.3553 69.8831C19.7035 70.4644 18.7802 70.7619 17.5716 70.7619H13.5115H13.4844ZM16.3767 63.3396C17.0964 63.3396 17.5852 63.2585 17.8432 63.1097C18.1012 62.961 18.2234 62.5554 18.2234 61.8795C18.2234 61.3522 18.0876 61.0142 17.8025 60.906C17.5173 60.7844 17.0421 60.7303 16.3767 60.7303V63.3396ZM16.3767 68.5582C17.0828 68.5582 17.6124 68.5176 17.9383 68.45C18.2642 68.3689 18.4271 67.8822 18.4271 66.9764C18.4271 66.3409 18.2777 65.9354 17.9654 65.7731C17.6531 65.6109 17.1235 65.5298 16.3767 65.5298V68.5446V68.5582Z" fill="white"/>
<path d="M22.5683 58.5131H25.447V67.7335C25.447 68.085 25.5149 68.3554 25.6643 68.5446C25.8136 68.7339 26.0716 68.8286 26.4518 68.8286C26.7913 68.8286 27.0357 68.7069 27.1987 68.4635C27.3616 68.2202 27.4295 67.9498 27.4295 67.6524V58.5131H30.3083V67.3684C30.3083 68.5041 30.0095 69.3964 29.4121 70.0453C28.8146 70.6943 27.8097 71.0323 26.4247 71.0323C25.1618 71.0323 24.2113 70.7348 23.5459 70.1264C22.8806 69.5181 22.5547 68.5987 22.5547 67.3684V58.5131H22.5683Z" fill="white"/>
<path d="M34.5741 70.7619H31.6953V58.5131H35.9048C37.1133 58.5131 38.0095 58.7835 38.5798 59.2972C39.1502 59.8245 39.4353 60.6897 39.4353 61.8795C39.4353 62.596 39.3267 63.1773 39.1094 63.61C38.8922 64.0426 38.4984 64.3941 37.9009 64.6645C38.3218 64.7727 38.6749 64.9755 38.9329 65.2594C39.1909 65.5433 39.3267 65.8813 39.3267 66.2869C39.3267 66.8682 39.3538 67.5712 39.3946 68.3689C39.4353 69.1666 39.5032 69.7614 39.5847 70.1535C39.6662 70.3428 39.7476 70.478 39.8698 70.5726V70.7348H36.7331C36.6788 70.5861 36.6381 70.4509 36.6109 70.3563C36.5837 70.2616 36.5702 70.1535 36.5702 70.0318V67.6118C36.543 67.4225 36.5023 67.1927 36.4751 66.9358C36.4479 66.6789 36.3665 66.4491 36.2171 66.2193C36.0677 66.003 35.8369 65.8948 35.511 65.8948H34.5469V70.7213L34.5741 70.7619ZM34.5741 63.7316H35.5517C35.9319 63.7316 36.2035 63.5829 36.3529 63.299C36.5023 63.0151 36.5837 62.6501 36.5837 62.2174C36.5837 61.5415 36.4479 61.1224 36.1764 60.9736C35.9048 60.8114 35.3616 60.7438 34.5741 60.7438V63.7452V63.7316Z" fill="white"/>
<path d="M40.875 70.7619V58.5131H47.4879V60.9601H43.7673V63.2179H47.3793V65.665H43.7673V68.3148H47.6916V70.7619H40.8886H40.875Z" fill="white"/>
<path d="M48.4609 70.7619L51.1496 58.5131H54.6258L57.3008 70.7619H54.3814L53.974 68.3824H51.7063L51.3668 70.7619H48.4609ZM52.8877 60.7168L52.0186 66.2193H53.6888L52.8877 60.7168Z" fill="white"/>
<path d="M58.1151 58.5131H60.9939V67.7335C60.9939 68.085 61.0618 68.3554 61.2111 68.5446C61.3605 68.7339 61.6185 68.8286 61.9987 68.8286C62.3382 68.8286 62.5826 68.7069 62.7456 68.4635C62.9085 68.2202 62.9764 67.9498 62.9764 67.6524V58.5131H65.8551V67.3684C65.8551 68.5041 65.5564 69.3964 64.9589 70.0453C64.3615 70.6943 63.3566 71.0323 61.9716 71.0323C60.7087 71.0323 59.7582 70.7348 59.0928 70.1264C58.4275 69.5181 58.1016 68.5987 58.1016 67.3684V58.5131H58.1151Z" fill="white"/>
<path d="M73.5032 70.7619L70.8281 58.5131H73.7069L75.187 67.098L76.6942 58.5131H79.573L76.8843 70.7619H73.4896H73.5032Z" fill="white"/>
<path d="M80.5078 70.7619V58.5131H87.1208V60.9601H83.4001V63.2179H87.0121V65.665H83.4001V68.3148H87.3244V70.7619H80.5214H80.5078Z" fill="white"/>
<path d="M91.535 70.7619H88.6562V58.5131H92.8657C94.0742 58.5131 94.9705 58.7835 95.5408 59.2972C96.1111 59.8245 96.3962 60.6897 96.3962 61.8795C96.3962 62.596 96.2876 63.1773 96.0704 63.61C95.8531 64.0426 95.4593 64.3941 94.8618 64.6645C95.2828 64.7727 95.6358 64.9755 95.8938 65.2594C96.1518 65.5433 96.2876 65.8813 96.2876 66.2869C96.2876 66.8682 96.3148 67.5712 96.3555 68.3689C96.3962 69.1666 96.4641 69.7614 96.5456 70.1535C96.6271 70.3428 96.7086 70.478 96.8308 70.5726V70.7348H93.694C93.6397 70.5861 93.599 70.4509 93.5718 70.3563C93.5447 70.2616 93.5311 70.1535 93.5311 70.0318V67.6118C93.5039 67.4225 93.4632 67.1927 93.436 66.9358C93.4089 66.6789 93.3274 66.4491 93.178 66.2193C93.0287 66.003 92.7978 65.8948 92.4719 65.8948H91.5078V70.7213L91.535 70.7619ZM91.535 63.7316H92.5127C92.8929 63.7316 93.1645 63.5829 93.3138 63.299C93.4632 63.0151 93.5447 62.6501 93.5447 62.2174C93.5447 61.5415 93.4089 61.1224 93.1373 60.9736C92.8657 60.8114 92.3226 60.7438 91.535 60.7438V63.7452V63.7316Z" fill="white"/>
<path d="M97.9219 70.7619V58.5131H100.801V70.7619H97.9219Z" fill="white"/>
<path d="M101.992 58.5131H109.474V60.9601H107.152V70.7619H104.273V60.9601H102.006V58.5131H101.992Z" fill="white"/>
<path d="M109.977 70.7619L112.665 58.5131H116.141L118.816 70.7619H115.897L115.49 68.3824H113.222L112.882 70.7619H109.977ZM114.403 60.7168L113.534 66.2193H115.204L114.403 60.7168Z" fill="white"/>
<path d="M121.888 66.6654V67.5171C121.888 67.9227 121.97 68.2336 122.146 68.477C122.309 68.7203 122.608 68.8285 123.042 68.8285C123.355 68.8285 123.599 68.7068 123.762 68.477C123.925 68.2472 124.006 67.9497 124.006 67.5982C124.006 67.1521 123.884 66.8141 123.64 66.5978C123.395 66.3679 123.002 66.0975 122.445 65.7731C121.888 65.4486 121.44 65.1647 121.1 64.9213C120.761 64.678 120.449 64.4076 120.204 64.1101C119.946 63.8127 119.743 63.4477 119.593 63.0556C119.444 62.65 119.376 62.1904 119.376 61.6901C119.376 60.5545 119.702 59.7027 120.34 59.1079C120.978 58.513 121.861 58.2156 123.002 58.2156C124.21 58.2156 125.133 58.5806 125.744 59.2971C126.356 60.0137 126.668 60.9736 126.668 62.1904H124.006C124.006 61.6631 123.952 61.2305 123.843 60.906C123.735 60.5815 123.477 60.4193 123.056 60.4193C122.744 60.4193 122.499 60.4869 122.323 60.6221C122.146 60.7573 122.065 60.9736 122.065 61.271V61.4333C122.065 61.7172 122.132 61.947 122.282 62.1363C122.418 62.3255 122.635 62.5283 122.934 62.7311C123.626 63.1503 124.183 63.4747 124.577 63.7046C124.97 63.9344 125.337 64.2183 125.663 64.5157C125.989 64.8132 126.233 65.1782 126.41 65.6243C126.586 66.0705 126.668 66.6518 126.668 67.3819C126.668 68.5581 126.356 69.4639 125.717 70.0858C125.079 70.7213 124.169 71.0322 122.974 71.0322C121.779 71.0322 120.802 70.7348 120.164 70.1534C119.539 69.5721 119.227 68.842 119.227 67.9632V66.6654H121.902H121.888Z" fill="white"/>
<path d="M15.9954 31.3792V42.6005H13.3203V31.3792H15.9954Z" fill="white"/>
<path d="M21.1676 34.3535C21.1676 34.0155 21.0997 33.7316 20.9775 33.5018C20.8553 33.2719 20.6652 33.1503 20.4072 33.1503C20.122 33.1503 19.9048 33.2584 19.769 33.4612C19.6332 33.664 19.5653 33.8938 19.5653 34.1507C19.5653 34.5157 19.6739 34.8132 19.8912 35.0295C20.1085 35.2458 20.38 35.4351 20.7059 35.5838C21.0318 35.746 21.3849 35.8948 21.7515 36.057C22.1317 36.2192 22.4712 36.4355 22.7971 36.6924C23.123 36.9493 23.3946 37.3008 23.6118 37.7199C23.8291 38.139 23.9377 38.6933 23.9377 39.3828C23.9377 40.5726 23.6254 41.4513 23.0008 41.9786C22.3761 42.5194 21.4799 42.7898 20.2986 42.7898C19.7418 42.7898 19.253 42.7357 18.8185 42.6411C18.3975 42.5464 18.0309 42.3707 17.7321 42.1273C17.4334 41.884 17.2161 41.5595 17.0668 41.1539C16.9174 40.7618 16.8359 40.2616 16.8359 39.6803V39.2882H19.4295V39.5586C19.4295 40.0453 19.511 40.3833 19.6739 40.5726C19.8369 40.7618 20.0541 40.8565 20.3121 40.8565C20.5973 40.8565 20.801 40.7483 20.9504 40.5455C21.0997 40.3427 21.1676 40.0858 21.1676 39.7749C21.1676 39.4099 21.059 39.1124 20.8553 38.8961C20.6516 38.6798 20.3936 38.504 20.0813 38.3418C19.769 38.1931 19.4295 38.0309 19.0629 37.8821C18.6963 37.7199 18.3568 37.5171 18.0445 37.2738C17.7321 37.0169 17.4741 36.6924 17.2705 36.2868C17.0668 35.8812 16.9581 35.3404 16.9581 34.678C16.9581 33.5423 17.2433 32.6636 17.8 32.0687C18.3568 31.4738 19.1987 31.1764 20.3393 31.1764C21.4799 31.1764 22.3626 31.4468 22.8786 32.0011C23.4081 32.5554 23.6661 33.4342 23.6661 34.6374H21.154V34.367L21.1676 34.3535Z" fill="white"/>
<path d="M24.7839 34.3129C24.9061 33.5693 25.1098 32.9744 25.4085 32.5013C25.6936 32.0416 26.0739 31.6901 26.5491 31.4738C27.0244 31.2574 27.5947 31.1493 28.2736 31.1493C28.9526 31.1493 29.5365 31.2574 29.9982 31.4738C30.4734 31.6901 30.8536 32.0281 31.1388 32.5013C31.424 32.9744 31.6276 33.5693 31.7634 34.3129C31.8856 35.0565 31.9535 35.9488 31.9535 36.9898C31.9535 38.0308 31.8856 38.9366 31.7634 39.6667C31.6412 40.4103 31.4375 41.0051 31.1388 41.4783C30.8536 41.9515 30.4734 42.276 29.9982 42.4788C29.5229 42.6816 28.9526 42.7762 28.2736 42.7762C27.5947 42.7762 27.0108 42.6816 26.5491 42.4788C26.0739 42.276 25.6936 41.9515 25.4085 41.4783C25.1233 41.0186 24.9196 40.4103 24.7839 39.6667C24.6616 38.9231 24.5938 38.0308 24.5938 36.9898C24.5938 35.9488 24.6616 35.043 24.7839 34.3129ZM27.391 38.869C27.4046 39.3692 27.4453 39.7613 27.5132 40.0587C27.5811 40.3562 27.6626 40.559 27.7848 40.6671C27.907 40.7888 28.07 40.8429 28.2736 40.8429C28.4773 40.8429 28.6403 40.7888 28.7625 40.6671C28.8847 40.559 28.9798 40.3427 29.0341 40.0587C29.102 39.7613 29.1427 39.3692 29.1563 38.869C29.1699 38.3688 29.1834 37.7469 29.1834 36.9898C29.1834 36.2327 29.1834 35.6108 29.1563 35.1105C29.1291 34.6103 29.102 34.2183 29.0341 33.9208C28.9662 33.6234 28.8847 33.4206 28.7625 33.3124C28.6403 33.2043 28.4773 33.1367 28.2736 33.1367C28.07 33.1367 27.907 33.1908 27.7848 33.3124C27.6626 33.4341 27.5675 33.6369 27.5132 33.9208C27.4453 34.2183 27.4046 34.6103 27.391 35.1105C27.3774 35.6108 27.3639 36.2327 27.3639 36.9898C27.3639 37.7469 27.3639 38.3688 27.391 38.869Z" fill="white"/>
<path d="M39.2007 40.7888C39.3094 40.9375 39.4859 41.0051 39.7303 41.0051C39.9204 41.0051 40.0969 40.924 40.2463 40.7482C40.3957 40.5725 40.4636 40.3156 40.4636 39.9641V38.193H40.4364C40.3278 38.4499 40.1105 38.6662 39.7982 38.8284C39.4859 38.9907 39.1328 39.0583 38.7255 39.0583C38.3588 39.0583 38.0329 39.0042 37.7342 38.896C37.4355 38.7879 37.1775 38.5986 36.9602 38.3417C36.7429 38.0849 36.58 37.7334 36.4578 37.3007C36.3491 36.8681 36.2812 36.3273 36.2812 35.6784C36.2812 34.9213 36.3491 34.2858 36.4985 33.7586C36.6479 33.2313 36.8651 32.7987 37.1639 32.4472C37.4626 32.1092 37.8157 31.8658 38.2366 31.7036C38.6576 31.5414 39.1464 31.4738 39.6896 31.4738C40.2735 31.4738 40.7895 31.5549 41.224 31.7036C41.6585 31.8523 42.0387 32.1092 42.3239 32.4877C42.609 32.8663 42.8399 33.3395 42.9893 33.9479C43.1386 34.5562 43.2065 35.3133 43.2065 36.2327V37.463C43.2065 38.3282 43.1658 39.0853 43.0843 39.7478C43.0028 40.4102 42.8399 40.9781 42.5819 41.4242C42.3375 41.8839 41.9708 42.2219 41.5227 42.4517C41.061 42.6815 40.45 42.7897 39.6896 42.7897C39.0242 42.7897 38.481 42.7221 38.0737 42.5734C37.6527 42.4247 37.3268 42.2219 37.096 41.965C36.8651 41.7081 36.7022 41.3972 36.6071 41.0592C36.5121 40.7212 36.4714 40.3562 36.4714 39.9776H38.9835C38.9835 40.3562 39.0649 40.6266 39.1871 40.7888H39.2007ZM39.1328 36.5707C39.2415 36.8275 39.4316 36.9492 39.7167 36.9492C39.9611 36.9492 40.1513 36.8275 40.2735 36.5707C40.3957 36.3138 40.4636 35.8406 40.4636 35.1241C40.4636 34.4075 40.4092 33.9343 40.3006 33.6775C40.192 33.4206 40.0019 33.2989 39.7167 33.2989C39.4723 33.2989 39.2822 33.4206 39.16 33.6775C39.0378 33.9343 38.9699 34.4075 38.9699 35.1241C38.9699 35.8406 39.0242 36.3138 39.1328 36.5707Z" fill="white"/>
<path d="M43.9927 34.367C44.1285 33.6369 44.3458 33.0556 44.631 32.6229C44.9161 32.1903 45.2692 31.8929 45.7173 31.7306C46.1654 31.5684 46.6678 31.4738 47.2653 31.4738C47.8627 31.4738 48.3787 31.5549 48.8133 31.7306C49.2478 31.9064 49.6144 32.1903 49.8996 32.6229C50.1847 33.0556 50.3884 33.6369 50.5378 34.367C50.6872 35.097 50.7415 36.0299 50.7415 37.152C50.7415 38.2741 50.6736 39.2205 50.5378 39.9371C50.402 40.6671 50.1847 41.2485 49.8996 41.6676C49.6144 42.0867 49.2614 42.3841 48.8133 42.5464C48.3652 42.7086 47.8627 42.7762 47.2653 42.7762C46.6678 42.7762 46.1518 42.6951 45.7173 42.5464C45.2827 42.3976 44.9161 42.1002 44.631 41.6676C44.3458 41.2485 44.1421 40.6671 43.9927 39.9371C43.857 39.207 43.7891 38.2741 43.7891 37.152C43.7891 36.0299 43.857 35.097 43.9927 34.367ZM46.6406 40.586C46.7629 40.8699 46.9665 41.0051 47.2517 41.0051C47.5369 41.0051 47.727 40.8699 47.8627 40.586C47.985 40.3021 48.0529 39.7748 48.0529 38.9907V35.3133C48.0529 34.5292 47.985 33.9884 47.8627 33.718C47.7405 33.4341 47.5369 33.2989 47.2517 33.2989C46.9665 33.2989 46.7764 33.4341 46.6406 33.718C46.5184 34.0019 46.4505 34.5292 46.4505 35.3133V38.9907C46.4505 39.7748 46.5184 40.3156 46.6406 40.586Z" fill="white"/>
<path d="M51.4771 34.367C51.6129 33.6369 51.8302 33.0556 52.1153 32.6229C52.4005 32.1903 52.7535 31.8929 53.2017 31.7306C53.6498 31.5684 54.1522 31.4738 54.7497 31.4738C55.3471 31.4738 55.8631 31.5549 56.2976 31.7306C56.7322 31.9064 57.0988 32.1903 57.384 32.6229C57.6691 33.0556 57.8728 33.6369 58.0222 34.367C58.1715 35.097 58.2259 36.0299 58.2259 37.152C58.2259 38.2741 58.158 39.2205 58.0222 39.9371C57.8864 40.6671 57.6691 41.2485 57.384 41.6676C57.0988 42.0867 56.7458 42.3841 56.2976 42.5464C55.8495 42.7086 55.3471 42.7762 54.7497 42.7762C54.1522 42.7762 53.6362 42.6951 53.2017 42.5464C52.7671 42.3976 52.4005 42.1002 52.1153 41.6676C51.8302 41.2485 51.6265 40.6671 51.4771 39.9371C51.3413 39.207 51.2734 38.2741 51.2734 37.152C51.2734 36.0299 51.3413 35.097 51.4771 34.367ZM54.1386 40.586C54.2608 40.8699 54.4645 41.0051 54.7497 41.0051C55.0348 41.0051 55.2249 40.8699 55.3607 40.586C55.4829 40.3021 55.5508 39.7748 55.5508 38.9907V35.3133C55.5508 34.5292 55.4829 33.9884 55.3607 33.718C55.2385 33.4341 55.0348 33.2989 54.7497 33.2989C54.4645 33.2989 54.2744 33.4341 54.1386 33.718C54.0164 34.0019 53.9485 34.5292 53.9485 35.3133V38.9907C53.9485 39.7748 54.0164 40.3156 54.1386 40.586Z" fill="white"/>
<path d="M61.1157 35.0294H59.1875V33.2043C59.5949 33.2043 59.9615 33.1772 60.2602 33.1232C60.559 33.0691 60.817 32.9744 61.0207 32.8392C61.2379 32.704 61.4009 32.5283 61.5367 32.2985C61.6724 32.0686 61.7811 31.7982 61.8625 31.4738H63.7908V42.6004H61.1157V35.0159V35.0294Z" fill="white"/>
<path d="M69.0655 34.1101V37.2196H66.6484V34.1101H69.0655ZM69.0655 39.4909V42.6005H66.6484V39.4909H69.0655Z" fill="white"/>
<path d="M70.2308 33.7045C70.3123 33.2313 70.4753 32.8393 70.7197 32.5148C70.9641 32.1903 71.29 31.9335 71.7245 31.7577C72.1591 31.5819 72.7294 31.4873 73.4219 31.4873C74.1144 31.4873 74.644 31.5684 75.0649 31.7171C75.4859 31.8659 75.8254 32.0957 76.0698 32.3661C76.3142 32.65 76.4772 32.9609 76.5722 33.3395C76.6673 33.718 76.708 34.0966 76.708 34.5157C76.708 35.2728 76.5994 35.9082 76.3685 36.422C76.1377 36.9357 75.8254 37.4089 75.4452 37.828L73.8564 39.5045C73.7478 39.6261 73.612 39.7749 73.4762 39.9236C73.3404 40.0723 73.2454 40.248 73.1911 40.4103H76.708V42.614H70C70 41.8298 70.1086 41.0863 70.3259 40.3832C70.5432 39.6802 70.9369 39.0042 71.5344 38.3418L73.3268 36.3544C73.5848 36.0705 73.7749 35.8001 73.8836 35.5432C73.9922 35.2863 74.0465 34.9483 74.0465 34.5292C74.0465 34.056 73.9786 33.7316 73.8564 33.5558C73.7342 33.3801 73.5577 33.2854 73.354 33.2854C73.2589 33.2854 73.1639 33.2989 73.0824 33.3395C73.0009 33.3801 72.9195 33.4477 72.838 33.5558C72.7701 33.664 72.7022 33.8127 72.6615 34.002C72.6207 34.1912 72.5936 34.4481 72.5936 34.7591V35.2322H70.0815C70.0815 34.6644 70.1358 34.1507 70.2308 33.6775V33.7045Z" fill="white"/>
<path d="M77.6959 34.367C77.8317 33.6369 78.0489 33.0556 78.3341 32.6229C78.6192 32.1903 78.9723 31.8929 79.4204 31.7306C79.8685 31.5684 80.3709 31.4738 80.9684 31.4738C81.5659 31.4738 82.0819 31.5549 82.5164 31.7306C82.9509 31.9064 83.3176 32.1903 83.6027 32.6229C83.8879 33.0556 84.0916 33.6369 84.2409 34.367C84.3903 35.097 84.4446 36.0299 84.4446 37.152C84.4446 38.2741 84.3767 39.2205 84.2409 39.9371C84.1051 40.6671 83.8879 41.2485 83.6027 41.6676C83.3176 42.0867 82.9645 42.3841 82.5164 42.5464C82.0683 42.7086 81.5659 42.7762 80.9684 42.7762C80.3709 42.7762 79.8549 42.6951 79.4204 42.5464C78.9859 42.3976 78.6192 42.1002 78.3341 41.6676C78.0489 41.2485 77.8452 40.6671 77.6959 39.9371C77.5601 39.207 77.4922 38.2741 77.4922 37.152C77.4922 36.0299 77.5601 35.097 77.6959 34.367ZM80.3438 40.586C80.466 40.8699 80.6697 41.0051 80.9548 41.0051C81.24 41.0051 81.4301 40.8699 81.5659 40.586C81.6881 40.3021 81.756 39.7748 81.756 38.9907V35.3133C81.756 34.5292 81.6881 33.9884 81.5659 33.718C81.4437 33.4341 81.24 33.2989 80.9548 33.2989C80.6697 33.2989 80.4796 33.4341 80.3438 33.718C80.2216 34.0019 80.1537 34.5292 80.1537 35.3133V38.9907C80.1537 39.7748 80.2216 40.3156 80.3438 40.586Z" fill="white"/>
<path d="M87.3423 35.0294H85.4141V33.2043C85.8214 33.2043 86.1881 33.1772 86.4868 33.1232C86.7855 33.0691 87.0435 32.9744 87.2472 32.8392C87.4645 32.704 87.6274 32.5283 87.7632 32.2985C87.899 32.0686 88.0076 31.7982 88.0891 31.4738H90.0173V42.6004H87.3423V35.0159V35.0294Z" fill="white"/>
<path d="M98.7035 31.7036V33.9073H94.8335L94.7249 35.773C94.9693 35.5162 95.2545 35.3269 95.5668 35.1782C95.8791 35.0294 96.2322 34.9618 96.6124 34.9618C97.4543 34.9618 98.0789 35.2458 98.5134 35.8271C98.9479 36.4085 99.1652 37.3007 99.1652 38.504C99.1652 39.2341 99.1109 39.8695 99.0023 40.4103C98.8936 40.9511 98.7035 41.3972 98.4455 41.7487C98.1875 42.1002 97.8481 42.3706 97.4135 42.5329C96.9926 42.6951 96.4494 42.7897 95.8248 42.7897C94.6434 42.7897 93.788 42.5193 93.272 41.9785C92.7424 41.4378 92.4844 40.6536 92.4844 39.6532V39.2881H94.9965V39.6667C94.9965 40.194 95.0644 40.5455 95.1866 40.7347C95.3224 40.924 95.4989 41.0187 95.7297 41.0187C95.8655 41.0187 95.9742 40.9916 96.0692 40.9511C96.1643 40.9105 96.2457 40.8023 96.3001 40.6266C96.3544 40.4508 96.4087 40.221 96.4494 39.91C96.4766 39.5991 96.4902 39.1665 96.4902 38.6392C96.4902 38.0173 96.4223 37.5711 96.3001 37.3278C96.1643 37.0844 95.9877 36.9628 95.7297 36.9628C95.5125 36.9628 95.336 37.0304 95.2002 37.1791C95.0644 37.3278 94.9965 37.5711 94.9965 37.9091H92.5794L92.8103 31.7307H98.7307L98.7035 31.7036Z" fill="white"/>
</g>
<defs>
<clipPath id="clip0_1108_29246">
<rect width="258" height="119" fill="white" transform="translate(0.625)"/>
</clipPath>
</defs>
</svg>
