<svg width="117" height="60" viewBox="0 0 117 60" fill="none" xmlns="http://www.w3.org/2000/svg">
<path d="M25.2474 42.5742C25.1244 42.5253 25.0136 42.6109 24.9151 42.6353C21.0013 43.8462 17.8628 46.1579 15.3274 49.3258C14.6751 50.1331 14.0597 50.977 13.4936 51.8455C13.3828 52.0289 13.2967 52.2246 13.1859 52.4081C12.9644 52.775 12.7551 52.7995 12.4474 52.506C10.8967 50.9893 9.77666 49.1791 8.8905 47.2221C7.73358 44.6657 7.04435 41.9871 6.61358 39.2228C6.3182 37.3148 6.46589 35.4189 6.61358 33.5108C6.78589 31.297 7.21666 29.1198 7.90589 27.0038C7.94281 26.8693 7.99204 26.747 8.04127 26.6246C8.21358 26.2699 8.2505 25.9152 8.21358 25.5238C8.15204 24.9367 8.15204 24.3496 8.13974 23.7503C8.13974 23.5424 8.11512 23.4445 7.85666 23.4567C7.46281 23.4812 7.05666 23.4445 6.66281 23.3589C5.91204 23.1999 5.43204 22.7473 5.27204 22.0012C5.23512 21.8422 5.17358 21.7811 5.01358 21.7444C4.50897 21.6343 4.17666 21.1084 4.26281 20.5946C4.27512 20.5212 4.28743 20.4356 4.32435 20.3745C4.68127 19.7385 4.50897 19.1024 4.34897 18.4542C4.31204 18.3196 4.22589 18.2952 4.12743 18.2462C3.7582 18.0628 3.48743 17.7692 3.30281 17.4145C3.1305 17.0965 3.17974 16.7785 3.32743 16.4605C3.37666 16.3626 3.41358 16.3015 3.25358 16.2525C2.77358 16.0935 2.56435 15.7144 2.68743 15.2007C2.72435 15.0294 2.68743 14.9438 2.55204 14.846C1.1982 13.8919 0.644351 12.3875 1.08743 10.7485C1.27204 10.088 1.50589 9.43974 1.72743 8.79149C1.82589 8.49794 1.88743 8.19215 1.88743 7.87414C1.88743 7.45828 2.24435 7.20142 2.61358 7.40935C2.84743 7.5439 2.9705 7.50721 3.14281 7.3115C3.33974 7.10357 3.69666 6.9568 3.7582 6.72441C3.80743 6.51647 3.53666 6.23516 3.42589 5.9783C2.69974 4.30262 3.41358 1.64844 6.24435 1.18365C7.25358 1.01241 8.22589 1.14696 9.1982 1.33043C9.62897 1.40381 10.0474 1.39158 10.4782 1.30596C10.7982 1.24481 11.0936 1.09803 11.3028 0.841177C11.4505 0.669939 11.5613 0.694402 11.7213 0.804483C12.152 1.11026 12.3736 1.52613 12.3613 2.03984C12.3613 2.26 12.4228 2.29669 12.6444 2.30893C13.6044 2.33339 14.3428 1.99091 14.7613 1.11026C14.8351 0.951258 14.9336 1.00018 15.0444 1.04911C15.7582 1.40381 16.152 1.99091 16.2259 2.76148C16.3613 4.14361 15.6597 5.25666 14.2567 5.90491C13.8628 6.08838 13.469 6.23516 13.0628 6.3697C12.8167 6.44309 12.5828 6.54094 12.3736 6.67548C12.2013 6.77333 12.0536 6.90787 11.9797 7.09134C11.8567 7.38489 11.992 7.56836 12.312 7.53167C12.5336 7.49497 12.7551 7.47051 12.9767 7.55613C13.3459 7.67844 13.5059 8.06984 13.309 8.40009C13.149 8.65694 13.149 8.9138 13.2351 9.18289C13.309 9.42751 13.4197 9.67214 13.5305 9.91676C14.1828 11.3356 14.0351 12.7177 13.3336 14.0754C13.1613 14.4179 12.9274 14.7114 12.5951 14.9193C12.509 14.9683 12.4844 15.005 12.5336 15.1273C12.9397 16.0813 13.2844 17.0598 13.6167 18.0383C13.6905 18.2462 13.7274 18.3074 13.9367 18.1606C15.8444 16.7907 17.9859 15.9957 20.3244 15.7021C21.5428 15.5554 22.749 15.5431 23.9674 15.6532C24.2013 15.6777 24.2751 15.6288 24.2997 15.3964C24.3859 14.5035 24.5828 13.6351 24.7305 12.7544C24.7305 12.7299 24.7305 12.7177 24.7305 12.6933C24.792 12.4731 24.8536 12.204 25.1367 12.1918C25.432 12.1918 25.4813 12.4486 25.5305 12.6566C25.8259 13.7818 26.1213 14.9071 26.4167 16.0324C26.4536 16.1547 26.4659 16.277 26.6259 16.3015C28.349 16.595 29.7767 17.4879 31.1182 18.552C31.5244 18.8823 31.9182 19.2247 32.2874 19.6039C32.4474 19.7751 32.5336 19.8241 32.7305 19.6161C33.1613 19.1636 33.6905 18.7966 34.1705 18.393C34.6382 18.0016 35.0936 17.6224 35.5613 17.231C35.6967 17.121 35.8444 16.9987 36.029 17.121C36.2382 17.2555 36.152 17.439 36.0905 17.6224C35.5613 19.0657 35.032 20.509 34.4905 21.9523C34.4167 22.148 34.429 22.307 34.5397 22.4905C34.9459 23.1754 35.2782 23.8971 35.5982 24.6187C35.7582 24.9612 35.7459 24.9612 36.0905 24.8144C37.4936 24.2395 38.9459 23.7625 40.3613 23.2244C40.5213 23.1632 40.6936 23.0898 40.8536 23.0531C41.0259 23.0164 41.2474 22.9553 41.3705 23.1265C41.4936 23.31 41.3705 23.4812 41.2474 23.628C40.9028 24.0316 40.5459 24.4352 40.189 24.8266C39.1059 26.0253 38.0105 27.2362 36.9274 28.4349C36.829 28.5449 36.7674 28.6306 36.8167 28.7896C37.3459 30.6243 37.4936 32.5201 37.5428 34.4159C37.5797 36.3729 37.5059 38.3299 37.3705 40.2747C37.3582 40.4949 37.2844 40.5683 37.0628 40.5805C35.389 40.6416 33.7397 40.8373 32.1151 41.2165C29.3213 41.8648 26.7859 43.1001 24.3613 44.5923C21.2597 46.5004 18.8351 49.0567 16.9028 52.0901C16.4967 52.7383 16.0659 53.3744 15.6597 54.0226C15.549 54.2061 15.4505 54.255 15.2413 54.1572C14.872 53.9737 14.5274 53.7535 14.1828 53.5456C13.9736 53.4233 14.109 53.301 14.1828 53.1787C15.192 51.4296 16.3859 49.8151 17.752 48.3351C19.8567 46.0601 22.2936 44.2009 25.0136 42.721C25.0997 42.672 25.2228 42.6476 25.272 42.5375L25.2474 42.5742Z" fill="#7E7E7E"/>
<path d="M106.6 27.4684C106.6 27.4684 106.649 27.4072 106.674 27.3827C107.191 26.2452 107.732 25.1077 108.126 23.9213C108.151 23.8479 108.175 23.7745 108.188 23.7011C108.385 22.9917 108.163 22.6126 107.437 22.4413C107.265 22.4046 107.179 22.3312 107.142 22.1478C107.117 21.9643 107.154 21.9154 107.339 21.9154C108.397 21.9032 109.468 21.8787 110.526 21.8542C110.662 21.8542 110.809 21.842 110.834 22.0377C110.859 22.2089 110.834 22.319 110.625 22.3802C109.911 22.6003 109.492 23.1507 109.209 23.799C108.249 25.9762 107.289 28.1655 106.329 30.3549C105.714 31.7615 105.099 33.1804 104.471 34.587C104.175 35.2474 103.769 35.8345 103.302 36.3849C102.834 36.9231 102.243 37.2167 101.542 37.339C101.074 37.4246 100.594 37.4491 100.114 37.4491C99.9416 37.4491 99.8308 37.4001 99.8678 37.1922C99.9908 36.4339 100.212 35.7 100.397 34.9539C100.434 34.8193 100.52 34.7827 100.655 34.7704C100.975 34.746 101.283 34.8193 101.591 34.8316C102.28 34.8683 102.871 34.6481 103.363 34.1466C103.757 33.743 104.089 33.2904 104.323 32.7645C104.569 32.2019 104.815 31.627 105.062 31.0521C105.123 30.9053 105.123 30.783 105.062 30.6363C103.917 28.2879 102.76 25.9272 101.628 23.5666C101.345 22.9795 100.914 22.7104 100.262 22.7104C99.5232 22.7104 98.7847 22.7104 98.0339 22.7104C97.8001 22.7104 97.7262 22.7716 97.7385 23.004C97.7755 24.6307 97.7878 26.2575 97.8124 27.8842C97.8124 28.0799 97.837 28.2756 97.8739 28.4591C97.9478 29.0217 98.2309 29.4254 98.797 29.6211C99.3878 29.829 99.917 29.7801 100.36 29.3397C100.52 29.1807 100.655 29.1807 100.815 29.3153C101.012 29.4743 100.84 29.5966 100.754 29.7067C100.163 30.4773 99.3509 30.8197 98.4032 30.9053C97.9724 30.942 97.5416 30.9298 97.1232 30.832C95.8555 30.5384 95.1047 29.5966 95.0924 28.2022C95.0924 26.7956 95.0924 25.3891 95.0924 23.9825C95.0924 23.6278 95.0924 23.2853 95.0924 22.9306C95.0924 22.7226 95.0309 22.6615 94.8216 22.6737C94.5262 22.6982 94.2432 22.7104 93.9478 22.7104C93.8493 22.7104 93.6893 22.796 93.6524 22.6248C93.6155 22.4536 93.5293 22.2823 93.7262 22.1233C94.2185 21.7441 94.6862 21.3283 95.1416 20.9002C95.8678 20.203 96.5693 19.4936 97.2093 18.723C97.2585 18.6741 97.2955 18.6129 97.3447 18.5763C97.4309 18.5029 97.5416 18.5029 97.6524 18.5151C97.7878 18.5396 97.7509 18.6619 97.7509 18.7597C97.7755 19.6648 97.8001 20.5822 97.8124 21.4873C97.8124 21.8787 97.8124 21.8787 98.2185 21.8787C100.483 21.8542 102.748 21.8298 105 21.8175C105.135 21.8175 105.308 21.7686 105.345 21.9888C105.382 22.1967 105.271 22.2701 105.086 22.3312C104.422 22.5636 104.274 22.9061 104.582 23.5421C105.185 24.753 105.788 25.9762 106.403 27.187C106.452 27.2727 106.465 27.395 106.588 27.4439L106.6 27.4684Z" fill="#A1A2A1"/>
<path d="M72.8694 45.5094C73.0294 45.7173 73.1401 45.8396 73.2386 45.9619C73.7924 46.7325 73.8786 47.5642 73.497 48.4326C72.9309 49.7169 71.8601 50.3285 70.5063 50.512C69.8294 50.6098 69.1401 50.5731 68.4632 50.5731C67.9832 50.5731 67.5894 50.7566 67.2324 51.0379C66.9863 51.2214 66.9986 51.4538 67.257 51.6372C67.7001 51.9552 68.2047 52.0776 68.734 52.1387C69.6447 52.261 70.5555 52.2855 71.454 52.4812C71.934 52.5913 72.414 52.7136 72.8817 52.897C74.8386 53.6676 75.257 56.1628 73.7924 57.6183C73.1032 58.3033 72.254 58.6947 71.3186 58.9026C69.7063 59.2573 68.094 59.2573 66.494 58.768C65.854 58.5723 65.2632 58.2543 64.8078 57.7529C64.1801 57.0557 64.1555 56.3096 64.697 55.5512C65.1155 54.9641 65.7309 54.6461 66.3832 54.4015C66.617 54.3159 66.8632 54.2425 67.134 54.1569C67.0478 54.0712 66.9494 54.059 66.8632 54.0346C66.3709 53.8755 65.8909 53.6798 65.4847 53.3496C64.8447 52.8359 64.7463 52.0164 65.2632 51.3681C65.6201 50.9156 66.1247 50.671 66.6417 50.463C66.8263 50.3896 66.9986 50.3285 67.1832 50.2551C67.1832 50.145 67.097 50.145 67.0355 50.1328C64.697 49.3867 64.217 46.6836 66.0878 45.0324C66.9494 44.2618 67.934 43.8582 69.1155 43.8704C70.8632 43.8948 72.6109 43.8704 74.3463 43.8704C74.5924 43.8704 74.7032 43.9193 74.6909 44.1884C74.6909 44.482 74.7278 44.7633 74.7401 45.0568C74.7524 45.4482 74.7401 45.436 74.3709 45.4482C74.1247 45.4482 73.8786 45.4727 73.6447 45.4849C73.4109 45.4849 73.177 45.4849 72.8694 45.4849V45.5094Z" fill="#A1A2A1"/>
<path d="M66.501 23.0406C66.6364 22.9183 66.7717 22.796 66.9194 22.6859C68.4579 21.3772 70.501 21.2304 72.0517 22.319C73.0856 23.0529 73.6517 24.0803 73.8487 25.3034C74.0702 26.7345 73.7994 28.0677 72.8517 29.2052C72.0517 30.1592 70.981 30.6362 69.7871 30.8686C68.8148 31.0521 67.8302 31.0032 66.8456 30.9665C65.9841 30.9298 65.1102 30.8686 64.2487 30.7586C63.8056 30.6974 63.8056 30.7096 63.781 30.2815C63.7194 29.2174 63.7441 28.1533 63.7441 27.0892C63.7317 25.1933 63.7441 23.2975 63.7317 21.3894C63.7317 20.3498 63.7071 19.2979 63.6948 18.2582C63.6948 17.5488 63.4117 17.2308 62.6979 17.084C62.5994 17.0596 62.4764 17.084 62.4025 16.9739C62.341 16.8883 62.3164 16.766 62.3533 16.6682C62.3902 16.5703 62.4887 16.5825 62.5748 16.5703C63.5471 16.4725 64.5071 16.3624 65.4794 16.2645C65.6887 16.2401 65.8856 16.2401 66.0825 16.1911C66.3656 16.1178 66.4148 16.2523 66.4148 16.4969C66.4148 17.0106 66.4394 17.5243 66.4394 18.0381C66.4394 19.6037 66.4394 21.1815 66.4394 22.7471C66.4394 22.8327 66.4025 22.9428 66.501 23.0529V23.0406Z" fill="#A1A2A1"/>
<path d="M71.8406 35.5777C63.2621 35.5777 54.6713 35.5777 46.0929 35.5777C45.6006 35.5777 45.6498 35.6266 45.6498 35.1496C45.6498 34.9172 45.6498 34.6848 45.6498 34.4524C45.6498 34.3057 45.7113 34.2323 45.859 34.2445C45.9452 34.2445 46.0313 34.2445 46.1175 34.2445C63.2621 34.2445 80.4067 34.2445 97.5513 34.2445C97.6006 34.2445 97.6498 34.2445 97.699 34.2445C97.9575 34.2078 98.056 34.3057 98.0313 34.5625C98.0067 34.8316 98.0313 35.1007 98.0313 35.382C98.0313 35.5288 97.9698 35.5899 97.8221 35.5899C97.7236 35.5899 97.6252 35.5899 97.5267 35.5899C88.9606 35.5899 80.4067 35.5899 71.8406 35.5899V35.5777Z" fill="#A1A2A1"/>
<path d="M51.1686 30.6851C49.544 30.6851 47.9317 30.6851 46.3071 30.6851C46.1594 30.6851 46.024 30.7096 45.9871 30.5017C45.9502 30.306 45.9871 30.2326 46.184 30.1836C47.1686 29.939 47.5133 29.4987 47.5133 28.4957C47.5133 25.4257 47.5133 22.3557 47.5133 19.2856C47.5133 18.2826 47.1809 17.9157 46.1717 17.7934C45.9133 17.7567 45.7409 17.5121 45.8271 17.2675C45.8763 17.1207 46.0117 17.1574 46.1225 17.1574C46.9963 17.1574 47.8579 17.1574 48.7317 17.1329C49.8271 17.1329 50.9102 17.1084 52.0056 17.084C52.2271 17.084 52.3256 17.1451 52.3379 17.3653C52.3379 17.5732 52.3256 17.72 52.0548 17.7322C51.8702 17.7322 51.6856 17.8056 51.5133 17.8546C50.9717 18.0258 50.6886 18.405 50.6148 18.9554C50.5409 19.5302 50.5656 20.1173 50.5656 20.6922C50.5656 22.2823 50.5656 23.8723 50.5656 25.4624C50.5656 26.4287 50.5902 27.3949 50.6148 28.3734C50.6394 29.2296 50.9102 29.5721 51.7594 29.7189C52.4609 29.8534 53.1748 29.8656 53.8763 29.7066C54.4425 29.5721 54.8856 29.2785 55.2179 28.7893C55.5379 28.3123 55.8456 27.8352 56.0671 27.2971C56.0917 27.2481 56.104 27.187 56.1409 27.1381C56.2271 27.028 56.3748 27.0158 56.4856 27.0402C56.6086 27.0647 56.5717 27.1992 56.5594 27.2848C56.4856 28.3245 56.3994 29.3764 56.3379 30.416C56.3256 30.6484 56.2148 30.6729 56.0179 30.6729C54.3933 30.6729 52.7563 30.6729 51.1317 30.6729L51.1686 30.6851Z" fill="#A1A2A1"/>
<path d="M45.6797 50.8177C45.6797 50.2673 45.6797 49.7169 45.6797 49.1665C45.6797 48.983 45.7289 48.873 45.9258 48.8607C46.1228 48.8363 46.2335 48.8607 46.2582 49.1054C46.3074 49.4601 46.3935 49.8025 46.5289 50.145C46.972 51.3314 47.8581 51.9185 49.0889 52.0409C49.6674 52.102 50.2335 52.0898 50.7751 51.8329C51.8335 51.3192 52.1166 50.3162 51.452 49.35C51.1197 48.8852 50.6889 48.5305 50.2089 48.2247C49.3228 47.6498 48.3874 47.1606 47.5505 46.5368C46.6889 45.9008 46.0366 45.118 45.8028 44.0416C45.2982 41.8033 46.8735 39.6506 49.1751 39.4182C49.9505 39.3448 50.6889 39.4549 51.4274 39.6384C51.932 39.7607 52.3874 39.6995 52.8182 39.406C53.0889 39.2225 53.1997 39.2959 53.212 39.6139C53.2366 40.5802 53.2612 41.5464 53.2735 42.5249C53.2735 42.6717 53.3105 42.843 53.0766 42.8797C52.8551 42.9041 52.8058 42.7696 52.7566 42.5983C52.3751 41.363 50.812 40.2377 49.5197 40.2622C48.6458 40.2744 47.8335 40.9593 47.6858 41.8155C47.612 42.2069 47.7474 42.5372 47.9812 42.843C48.3012 43.2588 48.7197 43.5524 49.1382 43.8459C49.8889 44.3719 50.7135 44.7755 51.4889 45.2647C52.1782 45.7051 52.8182 46.2066 53.3105 46.8915C54.4181 48.4326 54.2458 50.7321 52.9166 51.9919C52.252 52.628 51.4151 52.8726 50.5166 52.9337C49.4335 53.0071 48.3751 52.897 47.3412 52.5423C47.2305 52.5056 47.1197 52.4812 47.0089 52.4445C46.7258 52.3711 46.4674 52.4078 46.2705 52.6647C46.1597 52.8114 46.012 52.8481 45.852 52.8114C45.7043 52.7747 45.7535 52.6157 45.7535 52.5056C45.7535 51.9552 45.7535 51.4048 45.7535 50.8544C45.7289 50.8544 45.7043 50.8544 45.6797 50.8544V50.8177Z" fill="#A1A2A1"/>
<path d="M82.8086 51.148C82.8086 51.148 82.7348 51.2336 82.7102 51.2825C81.9348 52.5546 80.7532 52.9827 79.3256 52.8971C78.8702 52.8726 78.4148 52.7748 78.0086 52.5546C77.0609 52.0286 76.7656 51.1602 76.7532 50.1573C76.7409 48.7996 76.7286 47.4419 76.7532 46.0843C76.7656 45.3504 76.4948 45.0079 75.7686 44.7877C75.7194 44.7755 75.6702 44.7633 75.6332 44.7511C75.4609 44.7021 75.4609 44.5554 75.4609 44.4208C75.4609 44.274 75.5963 44.274 75.6948 44.2618C76.8271 44.1517 77.9594 44.0539 79.104 43.9316C79.3009 43.9071 79.3748 43.9805 79.3748 44.164C79.3748 44.5309 79.3748 44.8978 79.3748 45.2648C79.3748 46.7814 79.424 48.3104 79.3625 49.827C79.3132 51.0624 80.544 51.8696 81.7625 51.1725C82.4271 50.7933 82.8702 50.2429 82.8332 49.3867C82.7963 48.2981 82.8332 47.1973 82.8332 46.0965C82.8332 45.3504 82.5871 45.0324 81.8609 44.8122C81.7625 44.7755 81.6271 44.8122 81.5779 44.6532C81.4917 44.3719 81.5532 44.2863 81.8486 44.2618C82.9317 44.1762 84.0025 44.1028 85.0856 43.9927C85.3317 43.9683 85.4056 44.0294 85.4056 44.274C85.4794 46.3656 85.4425 48.4571 85.4548 50.5487C85.4548 50.7688 85.4671 50.9768 85.5286 51.1847C85.6394 51.6372 85.9594 51.9308 86.4271 51.9797C86.6486 52.0042 86.7594 52.0531 86.7471 52.31C86.7471 52.5668 86.6486 52.628 86.4025 52.6524C85.3071 52.7258 84.2117 52.8114 83.104 52.9093C82.9317 52.9215 82.8825 52.8359 82.8825 52.6891C82.8825 52.3222 82.8825 51.9553 82.8579 51.5883C82.8579 51.4538 82.8702 51.3192 82.8086 51.1725V51.148Z" fill="#A1A2A1"/>
<path d="M101.235 43.8215C102.38 43.846 103.5 44.0539 104.472 44.7144C107.18 46.5369 106.995 50.6588 104.115 52.1755C102.331 53.1173 100.435 53.1295 98.5767 52.4079C95.9059 51.3682 94.7121 47.2952 97.6905 44.9835C98.7367 44.1762 99.9182 43.8215 101.235 43.8215Z" fill="#A1A2A1"/>
<path d="M81.8386 25.6214C80.5709 25.6214 79.3032 25.6214 78.0355 25.6214C77.8016 25.6214 77.7032 25.6825 77.7401 25.9394C77.8139 26.4898 77.8878 27.028 78.0601 27.5662C78.9093 30.2081 81.6293 30.257 83.1801 28.8137C83.4139 28.5936 83.6232 28.349 83.7955 28.0799C83.8447 27.9942 83.8816 27.9086 83.9924 27.8842C84.0909 27.8597 84.1893 27.823 84.2755 27.8842C84.3863 27.9576 84.2878 28.0676 84.2632 28.141C83.6232 29.7189 82.417 30.5995 80.7555 30.8686C79.5863 31.0643 78.4293 30.9297 77.3586 30.4038C75.8816 29.6822 75.0816 28.459 74.9093 26.8567C74.5893 23.75 77.2109 21.2426 80.337 21.6218C82.3678 21.8664 83.8201 23.0651 84.2878 24.863C84.4601 25.5358 84.4601 25.548 83.7586 25.5725C83.1186 25.5969 82.4663 25.5725 81.8263 25.5725C81.8263 25.5969 81.8263 25.6092 81.8263 25.6336L81.8386 25.6214Z" fill="#A1A2A1"/>
<path d="M60.7296 47.7721C59.7696 47.7721 58.8219 47.7721 57.8619 47.7721C57.7265 47.7721 57.5788 47.7721 57.5911 47.98C57.665 49.0319 57.8988 50.0349 58.6373 50.8422C59.4496 51.7228 60.7296 51.9307 61.8865 51.3926C62.5019 51.1112 62.9942 50.6709 63.3635 50.1083C63.3881 50.0716 63.4127 50.0227 63.4373 49.986C63.5234 49.8514 63.6588 49.8637 63.7819 49.9003C63.9296 49.9493 63.8681 50.0838 63.8435 50.1694C63.6958 50.6709 63.4127 51.099 63.0558 51.4782C61.3327 53.3129 57.9604 53.3985 56.2127 51.625C54.9696 50.3529 54.6127 48.7751 55.0804 47.1116C55.5604 45.4237 56.7911 44.4085 58.5019 44.0416C59.9542 43.7236 61.345 43.9682 62.5265 44.9222C63.3142 45.5705 63.6958 46.4511 63.9173 47.4174C63.9542 47.6131 63.8804 47.6865 63.6834 47.6865C62.6988 47.6865 61.7142 47.6865 60.7296 47.6865C60.7296 47.7232 60.7296 47.7599 60.7296 47.7966V47.7721Z" fill="#A1A2A1"/>
<path d="M88.9873 24.068C89.332 23.591 89.652 23.1506 89.9843 22.7103C90.132 22.5146 90.3043 22.3434 90.4766 22.1721C91.3258 21.3404 92.5443 21.3771 93.3689 22.2455C93.455 22.3434 93.4674 22.429 93.4427 22.5391C93.2581 23.2852 93.0735 24.019 92.9012 24.7652C92.8643 24.9364 92.7781 24.9731 92.6427 24.8508C92.3473 24.6061 92.052 24.3738 91.7197 24.1903C90.9689 23.7744 90.2673 23.8356 89.652 24.4349C88.7658 25.2911 88.9381 24.9119 88.9627 26.1228C88.975 27.0035 89.012 27.8841 88.9627 28.7648C88.9381 29.4253 89.2458 29.8044 89.812 30.0246C89.9473 30.0735 90.0827 30.1347 90.2181 30.1714C90.415 30.2325 90.3904 30.3915 90.3781 30.5261C90.3781 30.6728 90.2304 30.6239 90.1443 30.6239C88.4581 30.6239 86.772 30.6239 85.0858 30.6239C84.9627 30.6239 84.8273 30.6484 84.7904 30.4649C84.7535 30.2692 84.9012 30.2448 85.0243 30.1958C85.2335 30.1224 85.4427 30.0368 85.6273 29.9145C85.9597 29.6943 86.132 29.4008 86.132 28.9972C86.132 27.5906 86.132 26.184 86.132 24.7896C86.132 24.3982 86.1689 24.019 86.132 23.6276C86.0458 22.8326 85.7381 22.5024 84.9381 22.4168C84.7289 22.3923 84.655 22.3067 84.6427 22.111C84.6181 21.8663 84.815 21.9275 84.9135 21.9153C86.1197 21.7563 87.3258 21.6217 88.5443 21.4749C88.8027 21.4383 88.8643 21.5483 88.8643 21.7807C88.8643 22.4045 88.8766 23.0405 88.8889 23.6643C88.8889 23.7744 88.8889 23.8967 88.9504 24.0435L88.9873 24.068Z" fill="#A1A2A1"/>
<path d="M91.6243 46.1822C91.9812 45.5339 92.375 44.9102 92.9535 44.4331C93.852 43.6993 94.935 43.736 95.7596 44.5432C95.8335 44.6166 95.8458 44.69 95.8212 44.7756C95.6858 45.4972 95.4889 46.2067 95.3166 46.9283C95.2673 47.1118 95.1812 47.1118 95.0458 47.0017C94.7012 46.7448 94.3566 46.488 93.975 46.3045C93.2981 45.9743 92.7566 46.0599 92.2027 46.5614C92.2027 46.5614 92.1904 46.5736 92.1781 46.5858C91.735 46.965 91.5012 47.3931 91.5381 48.0169C91.5996 48.9098 91.5381 49.8026 91.5381 50.6955C91.5381 51.5762 91.7843 51.8697 92.6704 52.0165C92.8058 52.041 92.9043 52.0532 92.9412 52.2122C93.0027 52.5669 92.9904 52.5914 92.6212 52.5914C91.0458 52.5914 89.4581 52.5914 87.8827 52.5914C87.735 52.5914 87.575 52.6158 87.5381 52.3834C87.5012 52.1877 87.5381 52.1144 87.735 52.0654C88.6581 51.8453 88.9535 51.4661 88.9535 50.5243C88.9535 49.1177 88.9535 47.7111 88.9535 46.3045C88.9535 46.1944 88.9535 46.0721 88.9412 45.962C88.8673 45.1915 88.5104 44.8001 87.735 44.7022C87.5873 44.6778 87.4766 44.6778 87.4766 44.4698C87.4766 44.2741 87.5873 44.2374 87.7596 44.2252C88.892 44.1273 90.0119 44.0417 91.1319 43.9317C91.4027 43.9072 91.5012 43.9928 91.5012 44.2497C91.5012 44.7389 91.5258 45.2404 91.5258 45.7296C91.5258 45.8764 91.5258 46.011 91.5258 46.1577C91.5504 46.1577 91.575 46.1577 91.6119 46.1577L91.6243 46.1822Z" fill="#A1A2A1"/>
<path d="M107.144 50.6465C107.144 50.3896 107.144 50.1205 107.144 49.8637C107.144 49.7291 107.083 49.5579 107.316 49.5212C107.513 49.4967 107.624 49.5579 107.686 49.7536C107.907 50.3651 108.227 50.9155 108.719 51.3559C109.384 51.943 110.147 52.2732 111.046 52.0897C111.673 51.9674 112.092 51.3559 112.006 50.7198C111.981 50.4875 111.833 50.3162 111.661 50.1694C111.378 49.937 111.07 49.7536 110.738 49.619C110.172 49.3622 109.593 49.1298 109.015 48.8852C108.104 48.5182 107.427 47.9311 107.206 46.9404C106.984 45.9741 107.267 45.1546 108.067 44.5431C108.892 43.907 109.839 43.797 110.849 43.9193C111.181 43.956 111.501 44.0171 111.833 44.0538C112.141 44.0905 112.424 44.0783 112.707 43.9193C113.027 43.7358 113.126 43.8092 113.138 44.1517C113.163 44.8611 113.175 45.5705 113.199 46.2677C113.199 46.39 113.236 46.5368 113.039 46.5612C112.879 46.5857 112.793 46.5123 112.732 46.3655C112.436 45.7295 111.993 45.2402 111.39 44.8733C110.763 44.4941 110.123 44.4819 109.458 44.7388C108.818 44.9834 108.707 45.4482 109.15 45.9619C109.458 46.3166 109.852 46.549 110.27 46.7325C110.726 46.9404 111.193 47.1116 111.649 47.3073C111.895 47.4174 112.141 47.5397 112.375 47.6865C114.012 48.6772 114.11 51.1602 112.547 52.2854C111.747 52.8603 110.824 52.9215 109.889 52.7992C109.495 52.7502 109.101 52.6646 108.719 52.5668C108.387 52.4934 108.079 52.5301 107.784 52.6891C107.698 52.738 107.612 52.7747 107.513 52.7992C107.329 52.8481 107.218 52.7992 107.218 52.5668C107.218 51.9185 107.218 51.2702 107.218 50.622H107.144V50.6465Z" fill="#A1A2A1"/>
<path d="M60.9159 24.9243C60.9159 26.2208 60.9159 27.5173 60.9159 28.8138C60.9159 29.5966 61.162 29.9146 61.9128 30.1348C61.999 30.1593 62.0974 30.1715 62.159 30.2204C62.2451 30.306 62.2697 30.4284 62.2451 30.5384C62.2205 30.6607 62.0851 30.6363 61.999 30.6363C60.3251 30.6363 58.6636 30.6363 56.9897 30.6363C56.8667 30.6363 56.7313 30.6607 56.7067 30.465C56.682 30.2816 56.8051 30.2571 56.9282 30.2204C57.8636 29.9758 58.1467 29.5966 58.1467 28.6548C58.1467 27.077 58.1467 25.4992 58.1467 23.9091C58.1467 23.004 57.7897 22.6004 56.8913 22.4658C56.7067 22.4414 56.6328 22.3802 56.6328 22.1967C56.6328 22.0133 56.7313 21.9643 56.8913 21.9521C58.0728 21.842 59.2544 21.7197 60.4359 21.5974C60.8174 21.5607 60.842 21.5852 60.842 21.9521C60.842 22.9306 60.842 23.9091 60.842 24.8876C60.8543 24.8876 60.879 24.8876 60.8913 24.8876L60.9159 24.9243Z" fill="#A1A2A1"/>
<path d="M111.551 35.5777C109.865 35.5777 108.178 35.5777 106.492 35.5777C106.234 35.5777 106.135 35.5166 106.16 35.2597C106.185 34.9906 106.16 34.7215 106.16 34.4402C106.16 34.2934 106.209 34.22 106.369 34.2323C106.431 34.2323 106.492 34.2323 106.541 34.2323C109.877 34.2323 113.212 34.2323 116.548 34.2323C116.802 34.2323 116.929 34.3587 116.929 34.6114C116.929 34.8316 116.917 35.064 116.929 35.2842C116.941 35.5166 116.868 35.5777 116.634 35.5777C115.341 35.5777 114.061 35.5777 112.769 35.5777C112.363 35.5777 111.945 35.5777 111.538 35.5777H111.551Z" fill="#A1A2A1"/>
<path d="M57.9844 17.8056C57.9844 16.9371 58.6982 16.2522 59.609 16.2522C60.3967 16.2522 61.0859 16.9616 61.0982 17.7933C61.0982 18.6495 60.4213 19.3467 59.5475 19.3589C58.6244 19.3589 57.9844 18.7351 57.9844 17.8056Z" fill="#A1A2A1"/>
<path d="M25.7011 37.2657C25.2334 37.3757 24.7657 37.4736 24.3104 37.5837C24.0765 37.6326 23.8304 37.6815 23.5842 37.6815C23.2765 37.6815 23.055 37.547 22.9442 37.2657C22.8704 37.0822 22.8211 36.8987 22.7596 36.7153C22.6734 36.3972 22.735 36.2872 23.0673 36.226C23.3873 36.1649 23.6457 36.0181 23.855 35.7368C23.4611 35.6634 23.0919 35.6511 22.735 35.6634C22.6488 35.6634 22.5504 35.6634 22.4765 35.6389C22.3411 35.6022 22.255 35.4921 22.2796 35.3576C22.3042 35.223 22.4396 35.272 22.5257 35.272C22.9934 35.2475 23.4611 35.223 23.9288 35.1619C23.5719 34.9173 23.215 34.6849 22.7473 34.7093C22.6365 34.7093 22.4642 34.795 22.415 34.6359C22.3657 34.4892 22.5134 34.428 22.6119 34.3424C22.7719 34.2201 22.9319 34.0978 23.1042 33.9755C23.2519 33.8654 23.2519 33.7798 23.0796 33.6819C22.7842 33.5107 22.4765 33.4006 22.1442 33.4006C21.9227 33.4006 21.8857 33.315 21.9104 33.1193C21.9719 32.5077 22.0334 31.9084 22.0704 31.2968C22.095 30.9421 21.9719 30.8687 21.6519 31.0155C21.4919 31.0889 21.3442 31.1867 21.1965 31.2846C21.0857 31.3457 21.0119 31.3702 21.0119 31.2112C21.0119 30.881 21.0119 30.5507 21.0119 30.2205C21.0119 30.0859 21.1227 30.0248 21.1965 29.9392C21.3442 29.7801 21.4796 29.6089 21.6396 29.4744C21.8119 29.3154 21.8242 29.1441 21.775 28.9362C21.7257 28.716 21.6396 28.6793 21.4427 28.7527C21.0242 28.924 20.7534 29.242 20.5319 29.6211C20.4088 29.8413 20.2857 30.0615 20.1504 30.3306C19.9534 29.9758 19.8427 29.6578 19.9657 29.2909C19.978 29.242 19.9904 29.193 20.0273 29.1564C20.5196 28.6304 20.5196 27.9822 20.5565 27.3094C20.6427 25.4992 22.3042 24.166 23.855 23.9214C25.0734 23.7257 26.1934 24.0437 27.3011 24.4718C28.7288 25.01 29.8857 25.9395 30.9811 26.9547C31.4365 27.3706 31.8919 27.7742 32.298 28.2268C32.6304 28.6059 32.7165 28.8873 32.6181 29.1441C32.3473 28.9117 32.0519 28.6426 31.7442 28.398C31.0427 27.7987 31.2519 27.7987 30.6611 28.4592C30.2427 28.9362 30.255 28.9362 30.7227 29.3398C31.055 29.6211 31.375 29.9269 31.695 30.2205C31.8427 30.355 31.8427 30.4284 31.6334 30.5018C30.5257 30.8932 29.615 30.5263 28.7781 29.8168C28.4704 29.56 28.2488 29.2175 28.0396 28.8873C27.9781 28.8016 27.9411 28.6916 27.8304 28.6549C26.9442 28.3491 26.058 28.0433 25.1104 27.9944C24.6796 27.9822 24.2488 28.0066 23.8304 28.1045C23.1657 28.2512 22.4765 28.2635 21.7996 28.2879C21.9719 28.9484 22.3165 29.2053 22.9442 29.034C24.7657 28.5326 26.2304 29.2053 27.5719 30.3183C27.9288 30.6119 28.2488 30.9421 28.5811 31.2479C28.7165 31.3702 28.8519 31.4925 29.0119 31.6026C29.3934 31.8595 29.8242 31.8472 30.1811 31.5659C30.3042 31.4681 30.3904 31.4558 30.5134 31.5414C30.6611 31.6393 30.5381 31.7249 30.5257 31.8228C30.5134 31.9328 30.4765 32.0307 30.4765 32.1408C30.4765 32.3976 30.698 32.5444 30.9442 32.4343C31.055 32.3854 31.1781 32.3242 31.2642 32.2386C31.3996 32.1041 31.5473 32.1285 31.7073 32.1408C31.8181 32.1408 31.8673 32.2019 31.7934 32.312C31.375 32.997 30.8457 33.5474 29.9965 33.6697C29.6642 33.7186 29.4673 34.0855 29.6027 34.4036C30.2673 35.9936 30.9319 37.5837 31.6457 39.1615C31.8181 39.5284 31.8181 39.5284 31.4365 39.5896C29.3319 39.9321 27.3011 40.5192 25.3073 41.2653C25.0734 41.3509 24.9873 41.3264 24.9257 41.0818C24.8027 40.5559 24.655 40.0299 24.5073 39.504C24.458 39.345 24.4827 39.2104 24.5811 39.0759C24.9134 38.5744 25.2457 38.0729 25.5657 37.5592C25.615 37.4858 25.6888 37.4124 25.6888 37.2901L25.7011 37.2657Z" fill="white"/>
<path d="M12.542 37.3146C12.2959 36.5562 12.0743 35.8713 11.8528 35.1863C11.2497 33.315 10.6466 31.4436 10.0313 29.5722C9.84664 29.034 9.88356 28.4836 9.85894 27.9332C9.72356 25.4625 9.6251 23.004 9.50202 20.5333C9.47741 19.9095 9.44048 19.2979 9.39125 18.6742C9.37894 18.4418 9.47741 18.3072 9.67433 18.2216C9.76048 18.1849 9.88356 18.1604 9.88356 18.0504C9.88356 17.9158 9.73587 17.9158 9.64971 17.8669C9.6251 17.8669 9.60048 17.8424 9.56356 17.8302C9.10407 17.6753 8.87023 17.3573 8.86202 16.8762C8.83741 16.179 8.8251 15.4818 8.80048 14.7846C8.78818 14.3688 8.75125 14.3565 8.3451 14.3443C7.87741 14.3198 7.48356 14.0874 7.17587 13.7572C7.00356 13.5737 7.04048 13.219 7.20048 13.0233C7.26202 12.9499 7.32356 12.9377 7.40971 12.9499C8.40664 13.1579 9.39125 13.4025 10.2405 13.9896C10.4005 14.0997 10.5359 14.2342 10.6097 14.4299C11.9636 18.0381 13.3913 21.6219 14.7943 25.2179C15.2005 26.2575 15.6928 27.2605 15.9389 28.3491C16.0866 28.9851 16.1605 29.6333 16.1974 30.2816C16.2097 30.5262 16.2713 30.7464 16.382 30.9666C16.5913 31.3702 16.7759 31.786 16.9851 32.1897C17.0836 32.3731 17.0343 32.4343 16.8497 32.4832C15.9266 32.6912 15.0897 33.0581 14.4497 33.7797C13.6989 34.5992 13.2436 35.5777 12.8251 36.5929C12.7389 36.8009 12.6651 37.0088 12.5543 37.3023L12.542 37.3146Z" fill="white"/>
<path d="M21.0977 36.6051C19.7931 36.4828 18.71 36.7886 17.8362 37.7059C17.2823 38.293 16.9623 39.0024 16.7285 39.7608C16.4823 40.568 16.4331 41.412 16.3223 42.2559C16.0146 44.6043 15.2023 46.7326 13.6639 48.5673C13.3931 48.8853 13.1346 49.2278 12.8516 49.5335C13.0116 48.8853 13.1593 48.2493 13.2454 47.601C13.4177 46.1332 13.4423 44.6655 13.3562 43.1977C13.2823 41.9257 13.27 40.6414 13.3439 39.3694C13.4669 37.4001 14.2669 35.7978 15.7193 34.4891C16.8146 33.5106 18.0946 33.3761 19.4731 33.6696C19.5593 33.6818 19.6208 33.7185 19.6577 33.7919C20.1254 34.7093 20.6054 35.6388 21.0977 36.6051Z" fill="white"/>
<path d="M7.46154 2.49202C8.16308 2.45532 8.85231 2.67548 9.55385 2.61433C9.99692 2.57763 10.4277 2.52871 10.8338 2.35747C11.0185 2.28408 11.08 2.34524 11.1169 2.50425C11.1538 2.71218 11.1415 2.90788 11.1169 3.11581C11.1046 3.25035 11.1538 3.33597 11.2892 3.37267C12.3846 3.70291 13.4677 3.70291 14.4646 3.07911C14.6985 2.93234 14.7354 2.98127 14.7846 3.21366C14.8585 3.59283 14.7846 3.89861 14.5015 4.1677C14.1692 4.49794 13.7508 4.7181 13.32 4.9138C12.7908 5.1462 12.2615 5.35413 11.7323 5.58652C11.2523 5.79445 10.7969 6.06354 10.4154 6.44271C10.3292 6.54056 10.2554 6.56502 10.1569 6.45494C9.97231 6.27147 9.77539 6.29593 9.55385 6.43048C8.96308 6.79741 8.65539 6.78518 8.08923 6.36932C8.07692 6.36932 8.05231 6.34486 8.04 6.33263C7.27692 5.76999 7.27692 5.76999 6.45231 6.27147C5.86154 6.63841 5.64 6.60171 5.18462 6.07577C4.71692 5.5376 4.75385 4.9138 4.87692 4.29001C5.09846 3.17697 5.81231 2.55317 6.95692 2.49202C7.11692 2.49202 7.28923 2.49202 7.44923 2.49202H7.46154Z" fill="white"/>
<path d="M23.6191 41.6566C21.1822 42.7574 18.856 44.005 16.6406 45.5095C16.776 44.9958 16.9237 44.531 17.0345 44.0662C17.3299 42.8553 17.5514 41.6199 17.736 40.3846C17.8099 39.8953 17.9699 39.4305 18.216 38.9902C18.8191 37.9383 19.7668 37.5102 20.9483 37.5592C21.1206 37.5592 21.2068 37.6692 21.2683 37.8038C21.7114 38.7211 22.1668 39.6262 22.5975 40.5558C22.8191 41.0206 22.9914 41.5221 23.6068 41.6566H23.6191Z" fill="white"/>
<path d="M2.49338 11.8856C2.33338 11.5064 2.30877 11.164 2.41953 10.8093C2.46877 10.6625 2.518 10.5157 2.60415 10.3812C2.92415 9.91638 3.0103 9.40267 2.93646 8.85226C2.91184 8.64433 2.98569 8.57094 3.18261 8.5954C3.318 8.60764 3.45338 8.5954 3.58877 8.5954C3.85953 8.5954 4.05646 8.48532 4.17953 8.2407C4.36415 7.86153 4.6103 7.6169 5.0903 7.76368C5.238 7.8126 5.398 7.78814 5.558 7.80037C6.02569 7.83707 6.43184 7.73922 6.80107 7.4212C7.1703 7.09096 7.41646 7.04204 7.78569 7.37228C8.42569 7.92269 9.05338 7.87376 9.75492 7.55575C10.2103 7.34782 10.4318 7.48236 10.5426 7.94715C10.5795 8.08169 10.6288 8.22847 10.6903 8.36301C10.8134 8.65656 11.0349 8.76664 11.3426 8.74218C11.4903 8.72995 11.638 8.72995 11.7734 8.68102C11.9826 8.61987 12.0688 8.69325 11.9949 8.88895C11.8226 9.34151 11.9826 9.73291 12.1672 10.1365C12.4134 10.6869 12.5734 11.2496 12.3395 11.8734C12.3026 11.8367 12.2657 11.8122 12.2534 11.7755C11.6749 10.4179 10.6041 9.70845 9.17646 9.48829C7.82261 9.28035 6.48107 9.26812 5.15184 9.63506C3.9703 9.9653 3.03492 10.6136 2.56723 11.7878C2.56723 11.8122 2.5303 11.8367 2.49338 11.8856Z" fill="white"/>
<path d="M25.2102 14.4175C25.6287 16.6069 26.0348 18.7596 26.4533 20.9245C26.5763 21.5483 26.6748 22.1843 26.8102 22.8081C26.8594 23.0283 26.8102 23.1139 26.5763 23.065C25.8502 22.9304 25.1117 22.8937 24.3733 22.8448C24.1517 22.8326 24.1148 22.7592 24.1394 22.5635C24.4717 19.9215 24.804 17.2796 25.1363 14.6376C25.1363 14.5765 25.1363 14.5031 25.2225 14.4175H25.2102Z" fill="white"/>
<path d="M34.8503 18.8452C34.875 18.9553 34.8134 19.0287 34.7765 19.1021C33.7796 21.267 32.7826 23.432 31.7857 25.5969C31.6873 25.817 31.6257 25.9027 31.3919 25.6947C30.838 25.1933 30.2226 24.7529 29.595 24.3493C29.4719 24.2637 29.398 24.2148 29.5334 24.068C31.2688 22.3434 33.0042 20.6188 34.7519 18.8942C34.7765 18.8697 34.8134 18.8575 34.8503 18.833V18.8452Z" fill="white"/>
<path d="M8.62874 18.9798C8.62874 19.4446 8.62874 19.9216 8.86259 20.3497C8.87489 20.3864 8.8872 20.4231 8.8872 20.4598C8.91182 20.6188 8.97335 20.8023 8.82566 20.9246C8.66566 21.0469 8.50566 20.9246 8.37028 20.8512C7.63182 20.4598 6.89335 20.4231 6.15489 20.8512C6.03182 20.9246 5.90874 20.998 5.77335 20.8879C5.63797 20.7778 5.62566 20.631 5.67489 20.4598C5.67489 20.4353 5.67489 20.3986 5.69951 20.3742C6.05643 19.9216 5.97028 19.3834 5.97028 18.8697C5.97028 18.3927 5.97028 17.9157 5.97028 17.4509C5.97028 17.3041 6.01951 17.194 6.14259 17.1084C6.47489 16.876 6.8072 16.6314 7.1272 16.3745C7.25028 16.2767 7.34874 16.2645 7.4472 16.3868C7.4472 16.399 7.47182 16.4112 7.49643 16.4235C8.33335 17.0595 8.87489 17.8301 8.62874 18.9431V18.9798Z" fill="white"/>
<path d="M35.0098 39.0635C34.5298 39.1369 34.0498 39.1124 33.5575 39.1247C33.4467 39.1247 33.4098 39.039 33.3729 38.9656C32.7329 37.7303 32.1175 36.4827 31.416 35.2718C31.2929 35.0516 31.2929 34.8315 31.3913 34.5991C31.6867 33.9264 32.179 33.4371 32.8067 33.0702C32.9544 32.9846 33.0036 33.009 33.0036 33.1803C33.0036 33.5961 33.0036 34.012 33.0036 34.4279C32.9913 34.8193 33.0775 35.1617 33.2621 35.5042C33.8283 36.5928 34.3575 37.6814 34.9113 38.7699C34.9483 38.8556 35.0221 38.929 35.0098 39.0513V39.0635Z" fill="white"/>
<path d="M39.2899 24.6919C39.0315 24.9365 38.773 25.1811 38.5269 25.4135C37.1115 26.7345 35.7084 28.0554 34.293 29.3764C34.1207 29.5354 34.0592 29.5354 33.9976 29.2908C33.8253 28.6425 33.5423 28.031 33.1976 27.4561C33.0869 27.2726 33.0623 27.187 33.3084 27.0892C35.2161 26.3064 37.1115 25.5113 39.0192 24.7163C39.093 24.6796 39.1669 24.6307 39.3023 24.6919H39.2899Z" fill="white"/>
<path d="M16.2836 18.9431C16.9728 19.5669 17.6744 20.1907 18.3636 20.8023C19.4098 21.7196 20.4436 22.637 21.4898 23.5543C21.6498 23.6888 21.6621 23.7622 21.4898 23.8845C20.899 24.3004 20.4682 24.8753 20.0621 25.5358C18.7698 23.3219 17.5021 21.1447 16.2344 18.9798L16.2836 18.9431Z" fill="white"/>
<path d="M5.08805 15.6284C4.81728 15.6284 4.60805 15.6284 4.38651 15.6284C4.22651 15.6284 4.16498 15.5673 4.12805 15.4205C4.02959 15.0046 4.09113 14.8701 4.44805 14.6989C4.55882 14.6499 4.50959 14.5888 4.48498 14.5154C4.33728 14.0628 4.41113 13.8916 4.86651 13.7571C5.26036 13.6347 5.67882 13.5369 6.07267 13.4146C6.24498 13.3657 6.29421 13.4146 6.34344 13.5614C6.45421 13.9405 6.36805 14.1852 5.99882 14.4909C6.17113 14.5643 6.34344 14.5276 6.51575 14.5521C6.67575 14.5766 6.86036 14.5888 6.89728 14.8089C6.93421 15.0169 6.93421 15.2493 6.71267 15.3104C6.26959 15.445 6.26959 15.7752 6.2819 16.1299C6.2819 16.2645 6.24498 16.3501 6.10959 16.3868C5.62959 16.5213 5.28498 16.8026 5.07575 17.2552C4.98959 17.4264 4.91575 17.4142 4.80498 17.2797C4.6819 17.1329 4.58344 16.9616 4.49728 16.7904C4.37421 16.5091 4.43575 16.2767 4.66959 16.0932C4.80498 15.9831 4.92805 15.8608 5.06344 15.6529L5.08805 15.6284Z" fill="white"/>
<path d="M9.75003 12.901C8.98696 12.5586 8.2608 12.1182 7.39926 12.0571C6.52542 11.9959 5.79926 12.3751 5.0485 12.7909C4.99926 12.3751 5.14696 12.0815 5.39311 11.8124C5.72542 11.4577 6.14388 11.2498 6.61157 11.152C7.38696 10.993 8.15003 11.0663 8.86388 11.4088C9.44234 11.6779 9.81157 12.3262 9.75003 12.9133V12.901Z" fill="white"/>
<path d="M17.2869 28.3979C17.3238 28.2145 17.1638 27.8842 17.3485 27.7741C17.5085 27.6763 17.7546 27.9209 17.9638 28.0188C18.3577 28.2022 18.7392 28.4102 19.1331 28.6059C19.2808 28.6792 19.33 28.7526 19.2438 28.9116C19.0592 29.2908 18.9854 29.7067 18.9977 30.1225C18.9977 30.2815 18.9608 30.3427 18.8008 30.2448C18.3085 29.9391 17.8408 29.6211 17.3731 29.2908C17.2869 29.2297 17.25 29.144 17.25 29.0462C17.25 28.8505 17.25 28.6548 17.25 28.4224L17.2869 28.3979Z" fill="white"/>
<path d="M70.7752 57.6673C69.9506 57.6429 69.0645 57.5572 68.1906 57.3249C67.7968 57.227 67.4399 57.0558 67.1199 56.7989C66.8983 56.6154 66.7383 56.3953 66.6275 56.1262C66.406 55.5513 66.5291 55.1844 67.0829 54.9031C67.6368 54.6095 68.2522 54.5117 68.8675 54.4872C70.0737 54.4505 71.2183 54.7441 72.3014 55.27C72.6952 55.4657 72.9414 55.8082 73.0768 56.2118C73.2737 56.7744 73.0768 57.2148 72.5106 57.4349C71.9814 57.6429 71.4029 57.6551 70.7629 57.6673H70.7752Z" fill="white"/>
<path d="M71.0588 47.2706C71.0711 47.711 71.0342 48.1758 70.8865 48.6161C70.6403 49.35 70.0618 49.7536 69.2372 49.7658C68.5603 49.7658 68.0434 49.4111 67.7972 48.665C67.4526 47.6131 67.4403 46.5735 67.908 45.546C68.1911 44.9345 68.6834 44.592 69.3603 44.6165C70.0742 44.6409 70.5665 44.9956 70.8249 45.6683C71.0218 46.1698 71.0711 46.6958 71.0588 47.2706Z" fill="white"/>
<path d="M66.4297 26.612C66.4297 25.8048 66.4297 25.0098 66.4297 24.2025C66.4297 24.0068 66.4789 23.8478 66.6143 23.701C67.6851 22.4657 69.5189 22.6369 70.3066 24.0557C70.8482 25.022 70.9343 26.0739 70.8481 27.1624C70.8112 27.5538 70.762 27.933 70.6389 28.3C70.2697 29.4497 69.4697 30.1102 68.2512 30.2203C67.882 30.257 67.5128 30.257 67.1435 30.1713C66.7128 30.0613 66.5158 29.8533 66.4789 29.4008C66.4789 29.3029 66.4543 29.2051 66.4543 29.1072C66.4543 28.2755 66.4543 27.4438 66.4543 26.612C66.4543 26.612 66.442 26.612 66.4297 26.612Z" fill="white"/>
<path d="M98.7969 48.3837C98.7969 47.4908 98.9076 46.6102 99.3384 45.7907C99.9046 44.7388 100.963 44.3352 102.058 44.7633C102.661 44.9956 102.981 45.5094 103.166 46.0842C103.658 47.6376 103.745 49.2277 103.129 50.7688C102.489 52.3833 100.815 52.4567 99.7692 51.625C99.4615 51.3804 99.2769 51.0257 99.1415 50.6587C98.8707 49.9248 98.7969 49.1543 98.7969 48.3715V48.3837Z" fill="white"/>
<path d="M79.5356 24.9608C79.0433 24.9608 78.5632 24.9608 78.0709 24.9608C77.9109 24.9608 77.8248 24.9486 77.8371 24.7651C77.8986 24.0679 78.0586 23.4074 78.5386 22.857C79.1663 22.1476 79.9909 22.1232 80.6433 22.8081C81.1356 23.3218 81.3448 23.9578 81.4556 24.6428C81.4802 24.8018 81.4309 24.8752 81.2586 24.8752C80.6802 24.8752 80.114 24.8752 79.5356 24.8752C79.5356 24.8997 79.5356 24.9241 79.5356 24.9486V24.9608Z" fill="white"/>
<path d="M58.6103 47.0871C58.3641 47.0871 58.118 47.0871 57.8841 47.0871C57.7611 47.0871 57.6749 47.0627 57.6995 46.9036C57.7611 46.182 57.9334 45.5093 58.4872 44.9833C59.1272 44.3718 60.0011 44.4574 60.5057 45.179C60.8503 45.6805 60.998 46.2432 61.1334 46.8303C61.1826 47.026 61.0595 47.0137 60.9364 47.0137C60.1734 47.0137 59.398 47.0137 58.6349 47.0137C58.6349 47.0382 58.6349 47.0627 58.6349 47.0749L58.6103 47.0871Z" fill="white"/>
<path d="M24.6651 24.8752C25.2559 24.8752 25.8098 24.9731 26.3513 25.1566C26.5113 25.2055 26.5728 25.2666 26.5359 25.4501C26.4621 25.8415 26.4005 26.2329 26.339 26.6243C26.3144 26.7711 26.2651 26.8445 26.0928 26.7955C25.3667 26.5998 24.6405 26.5509 23.8898 26.6243C23.4344 26.6732 23.3482 26.6243 23.1513 26.1962C23.0528 25.9638 22.979 25.7192 22.8805 25.4868C22.8067 25.3156 22.8805 25.2422 23.0282 25.181C23.5575 24.9731 24.1113 24.8875 24.6651 24.8752Z" fill="#7E7E7E"/>
<path d="M27.8288 25.6336C27.8288 25.6336 27.9641 25.6947 28.0257 25.7314C28.7518 26.1473 29.4411 26.6121 30.118 27.1013C30.278 27.2236 30.278 27.3215 30.1918 27.4927C29.6995 28.4101 29.6503 28.4223 28.7641 27.933C28.3334 27.6884 27.9026 27.456 27.4595 27.2236C27.2995 27.138 27.2503 27.0524 27.2995 26.8812C27.398 26.5142 27.4841 26.1473 27.6441 25.8048C27.6811 25.7314 27.7057 25.6336 27.8288 25.6213V25.6336Z" fill="#7E7E7E"/>
<path d="M24.731 29.8657C25.4325 29.9391 26.1464 30.2938 26.811 30.7708C26.971 30.8809 26.971 31.0032 26.7741 31.1011C26.5033 31.2479 26.2202 31.3212 25.9002 31.2601C25.4079 31.1622 24.9279 31.0766 24.4233 31.0766C24.0664 31.0766 24.0172 31.1378 24.1772 31.4558C24.2633 31.6393 24.2141 31.6759 24.0295 31.6637C23.5372 31.6148 23.2048 31.3457 22.9464 30.9543C22.811 30.7341 22.8725 30.4773 23.0941 30.3427C23.5495 30.0737 24.0295 29.878 24.7064 29.878L24.731 29.8657Z" fill="#7E7E7E"/>
<path d="M21.263 27.8596C21.1522 27.0646 21.3615 26.4285 21.9153 25.9148C22.0507 25.7925 22.1122 25.7925 22.1984 25.976C22.6169 26.8322 22.6292 26.8322 21.8661 27.4315C21.6815 27.5783 21.5092 27.7495 21.263 27.8596Z" fill="#7E7E7E"/>
</svg>
