<svg width="108" height="52" viewBox="0 0 108 52" fill="none" xmlns="http://www.w3.org/2000/svg">
<path d="M0.9375 36.1008C1.03289 36.1008 1.12827 36.1008 1.22366 36.1008C2.90485 36.1008 4.57412 36.1008 6.25531 36.1008C6.48185 36.1008 6.60108 36.1597 6.70839 36.3716C7.85303 38.7144 9.02152 41.0454 10.1781 43.3882C10.2139 43.4588 10.2496 43.5294 10.2854 43.6001C10.3808 43.5294 10.3927 43.4353 10.4404 43.3529C11.597 41.0101 12.7535 38.6791 13.9101 36.3363C13.9936 36.1715 14.077 36.1008 14.2678 36.1126C15.9728 36.1126 17.6779 36.1126 19.3948 36.1126C19.5856 36.1126 19.6571 36.1597 19.6571 36.3598C19.6571 41.2102 19.6571 46.0724 19.6571 50.9227C19.6571 51.1229 19.6094 51.1817 19.4067 51.17C17.6898 51.17 15.9609 51.17 14.2439 51.17C14.1724 51.17 14.1009 51.17 14.0293 51.1582C13.9339 51.1229 13.9339 51.0405 13.922 50.9698C13.922 50.8639 13.922 50.7579 13.922 50.6402C13.922 48.58 13.922 46.5315 13.922 44.4713C13.922 44.33 13.922 44.2005 13.9459 44.0592C13.9339 44.1534 13.8862 44.224 13.8505 44.3065C13.3855 45.1894 12.9562 46.0959 12.5151 46.9906C11.8712 48.2621 11.2631 49.5571 10.6073 50.8286C10.5477 50.9581 10.5119 51.1464 10.3212 51.1464C10.1185 51.1464 10.1065 50.9581 10.0469 50.8168C9.71307 50.134 9.3673 49.4511 9.03344 48.7683C8.53266 47.7441 8.03188 46.7199 7.51918 45.7074C7.24494 45.1541 6.95878 44.589 6.70839 44.0592C6.72032 44.1299 6.72032 44.2358 6.72032 44.3535C6.72032 46.4844 6.72032 48.6035 6.72032 50.7344C6.72032 51.1817 6.72032 51.1817 6.27915 51.1817C4.59796 51.1817 2.90485 51.1817 1.22366 51.1817C1.1402 51.1817 1.06866 51.2053 0.985193 51.1582C0.9375 46.143 0.9375 41.116 0.9375 36.1008Z" fill="#A1A2A1"/>
<path d="M56.3086 0.193848C56.6305 0.276257 56.9524 0.276257 57.2863 0.311575C60.434 0.71185 63.1883 1.95976 65.5491 4.04354C68.1365 6.33923 69.7581 9.18824 70.3781 12.5788C71.6181 19.3364 68.0769 26.0233 61.7337 28.9312C59.3252 30.0378 56.7855 30.4616 54.1385 30.2497C47.4734 29.7082 42.0006 25.0226 40.4982 18.6182C38.6978 10.9188 43.3121 3.10172 50.9788 0.84135C52.0519 0.523485 53.1608 0.323348 54.2816 0.252712C54.3293 0.252712 54.3889 0.252712 54.4247 0.217393H56.3205L56.3086 0.193848Z" fill="#A1A2A1"/>
<path d="M107.889 38.573C107.889 38.573 107.924 38.573 107.936 38.573V48.6858C107.936 48.6858 107.889 48.7212 107.865 48.7447C107.757 48.8036 107.638 48.7918 107.519 48.7918C104.645 48.7918 101.772 48.7918 98.8984 48.7918C98.8746 48.7918 98.8984 48.7918 98.8746 48.7918C98.493 48.7918 98.4572 48.7565 98.4453 48.368C98.4453 47.8853 98.4453 47.4026 98.4453 46.9199C98.4453 46.3313 98.4453 45.7427 98.4453 45.1658C98.4453 44.8244 98.493 44.7773 98.8388 44.7773C100.162 44.7773 101.486 44.7773 102.821 44.7773C104.276 44.7773 105.719 44.7773 107.173 44.7773C107.269 44.7773 107.364 44.7773 107.459 44.7773C107.638 44.7655 107.757 44.6713 107.757 44.4947C107.781 43.9414 107.781 43.3763 107.757 42.823C107.757 42.6582 107.65 42.564 107.483 42.5405C107.376 42.5287 107.269 42.5405 107.149 42.5405C104.443 42.5405 101.736 42.5405 99.0415 42.5405C98.644 42.5405 98.4453 42.3443 98.4453 41.9518C98.4453 40.9982 98.4453 40.0446 98.4453 39.091C98.4453 39.0086 98.4453 38.9145 98.4453 38.832C98.4572 38.573 98.5049 38.5377 98.7553 38.5142C98.8149 38.5142 98.8746 38.5142 98.9342 38.5142C101.772 38.5142 104.61 38.5142 107.436 38.5142C107.579 38.5142 107.746 38.4789 107.865 38.6201L107.889 38.573Z" fill="white"/>
<path d="M107.889 48.6858C107.889 48.6858 107.925 48.6858 107.937 48.6858C107.937 49.4628 107.937 50.2516 107.937 51.0286C107.937 51.1816 107.901 51.2052 107.758 51.2052C102.822 51.2052 97.8738 51.2052 92.9375 51.2052C92.9375 51.1934 92.9375 51.1816 92.9375 51.1581C92.9971 51.0757 93.0925 51.0639 93.1879 51.0521C93.331 51.0521 93.4621 51.0521 93.6052 51.0521C98.1241 51.0521 102.643 51.0521 107.15 51.0521C107.734 51.0521 107.77 51.0168 107.77 50.4399C107.77 49.9573 107.77 49.4863 107.77 49.0037C107.77 48.8859 107.77 48.7682 107.866 48.6858H107.889Z" fill="white"/>
<path d="M37.3239 51.1582C36.4654 51.1582 35.6069 51.1582 34.7484 51.1582C34.5577 51.1582 34.498 51.0993 34.4503 50.9345C34.2596 50.2517 34.0569 49.5689 33.8661 48.8861C33.8184 48.7212 33.7469 48.6741 33.5799 48.6741C31.7199 48.6741 29.8718 48.6741 28.0117 48.6741C27.8448 48.6741 27.7733 48.7212 27.7256 48.8861C27.5348 49.5689 27.3321 50.2517 27.1413 50.9345C27.0936 51.0993 27.034 51.1582 26.8433 51.1582C25.1263 51.1582 23.4093 51.1582 21.6924 51.1582C21.4301 51.1582 21.4301 51.1582 21.5016 50.911C22.8847 46.1548 24.2678 41.3986 25.6509 36.6424C25.7543 36.2813 25.9967 36.1008 26.3782 36.1008C29.4068 36.1008 32.4472 36.1008 35.4757 36.1008C35.6784 36.1008 35.7619 36.1597 35.8215 36.3598C37.2285 41.222 38.6354 46.0724 40.0543 50.9227C40.102 51.0797 40.0384 51.1582 39.8635 51.1582C39.0051 51.1582 38.1466 51.1582 37.2881 51.1582H37.3239Z" fill="#A1A2A1"/>
<path d="M87.3066 43.6235C87.5689 43.6824 87.7597 43.7059 87.9624 43.7648C89.6436 44.2004 90.7882 45.672 90.8001 47.3908C90.8001 48.5799 90.8001 49.7689 90.8001 50.9462C90.8001 51.111 90.7644 51.1699 90.5855 51.1699C88.8805 51.1699 87.1874 51.1699 85.4823 51.1699C85.3154 51.1699 85.2558 51.1228 85.2558 50.958C85.2558 49.8278 85.2558 48.6858 85.2558 47.5556C85.2558 46.0605 84.2423 44.9892 82.7161 44.9421C82.3942 44.9421 82.0722 44.9421 81.7503 44.9421C81.5715 44.9421 81.5357 45.0009 81.5357 45.1658C81.5357 47.0729 81.5357 48.9801 81.5357 50.8991C81.5357 51.0875 81.4443 51.1816 81.2615 51.1816C79.5326 51.1816 77.8037 51.1816 76.0748 51.1816C75.884 51.1816 75.8125 51.1463 75.8125 50.9344C75.8125 46.084 75.8125 41.2219 75.8125 36.3715C75.8125 36.1714 75.8721 36.1243 76.0748 36.1243C79.6876 36.1243 83.3004 36.1243 86.9131 36.1243C88.8566 36.1243 90.4067 37.4075 90.7405 39.2676C91.1101 41.3514 89.6078 43.3527 87.4735 43.6235C87.4378 43.6235 87.402 43.6235 87.3066 43.6471V43.6235Z" fill="#A1A2A1"/>
<path d="M107.893 48.6859C107.893 49.4629 107.893 50.2282 107.893 51.0052C107.893 51.1111 107.858 51.17 107.75 51.1582C107.691 51.1582 107.619 51.1582 107.548 51.1582C102.683 51.1582 97.8063 51.1582 92.9416 51.1582C92.9416 51.0758 92.9297 50.9816 92.9297 50.8992C92.9297 46.0724 92.9297 41.2338 92.9297 36.4069C92.9297 36.2029 93.033 36.1008 93.2397 36.1008C98.0329 36.1008 102.826 36.1008 107.607 36.1008C107.798 36.1008 107.893 36.1911 107.893 36.3716C107.893 37.1015 107.893 37.8314 107.893 38.5613C106.642 38.5613 105.39 38.5613 104.138 38.5613C102.361 38.5613 100.596 38.5613 98.8198 38.5613C98.6171 38.5613 98.5575 38.6084 98.5575 38.8086C98.5575 39.9034 98.5575 41.0101 98.5575 42.1049C98.5575 42.2933 98.6529 42.3875 98.8437 42.3875C101.765 42.3875 104.686 42.3875 107.619 42.3875C107.81 42.3875 107.905 42.4817 107.905 42.67C107.905 43.3175 107.905 43.9768 107.905 44.6243C107.905 44.8245 107.846 44.8598 107.655 44.8598C104.722 44.8598 101.789 44.8598 98.8556 44.8598C98.6569 44.8598 98.5575 44.9579 98.5575 45.1541C98.5575 46.2372 98.5575 47.3203 98.5575 48.4034C98.5575 48.6153 98.6052 48.6859 98.8317 48.6859C101.848 48.6859 104.865 48.6859 107.893 48.6859Z" fill="#A1A2A1"/>
<path d="M41.9535 43.6237C41.9535 41.2103 41.9535 38.8086 41.9535 36.3952C41.9535 36.1127 41.9535 36.1127 42.2397 36.1127C45.6378 36.1127 49.0241 36.1009 52.4222 36.1127C54.6638 36.1127 56.4404 37.5725 56.8577 39.6798C57.3704 42.2345 55.4388 44.7185 52.8038 44.8598C51.2657 44.9422 49.7275 44.8716 48.1894 44.8834C47.5813 44.8834 47.5813 44.8834 47.5813 45.4838C47.5813 47.2968 47.5813 49.098 47.5813 50.911C47.5813 51.1112 47.5217 51.1583 47.319 51.1583C45.614 51.1583 43.9209 51.1583 42.2158 51.1583C42.0012 51.1583 41.9297 51.1112 41.9297 50.8875C41.9297 48.4623 41.9297 46.0371 41.9297 43.6119L41.9535 43.6237Z" fill="#A1A2A1"/>
<path d="M58.8984 43.6237C58.8984 41.2103 58.8984 38.7851 58.8984 36.3717C58.8984 36.1597 58.9342 36.0891 59.1727 36.0891C63.9778 36.0891 68.7829 36.0891 73.5999 36.0891C73.8265 36.0891 73.8741 36.1597 73.8741 36.3717C73.8622 37.0309 73.8741 37.6902 73.8741 38.3495C73.8741 38.5378 73.8265 38.5732 73.6357 38.5732C70.7025 38.5732 67.7575 38.5732 64.8243 38.5732C64.6336 38.5732 64.5382 38.6673 64.5382 38.8557C64.5382 39.9506 64.5382 41.0454 64.5382 42.1285C64.5382 42.3405 64.5859 42.4111 64.8124 42.4111C67.7336 42.4111 70.6668 42.4111 73.588 42.4111C73.7788 42.4111 73.8741 42.5053 73.8741 42.6936C73.8741 43.3411 73.8741 44.0004 73.8741 44.6479C73.8741 44.8363 73.8265 44.8834 73.6357 44.8834C70.7145 44.8834 67.7813 44.8834 64.8601 44.8834C64.5024 44.8834 64.5382 44.8481 64.5382 45.1895C64.5382 47.0967 64.5382 49.0038 64.5382 50.9228C64.5382 51.1229 64.4786 51.17 64.2878 51.17C62.5827 51.17 60.8777 51.17 59.1608 51.17C58.9342 51.17 58.8984 51.0994 58.8984 50.8993C58.8984 48.4741 58.8984 46.0489 58.8984 43.6237Z" fill="#A1A2A1"/>
<path d="M55.6028 1.63015C63.2457 1.77142 69.3146 7.99922 69.1477 15.5456C68.9808 22.9624 62.8045 28.9077 55.2689 28.8606C47.6142 28.8135 41.414 22.5857 41.5571 14.9687C41.7002 7.58717 47.8646 1.50065 55.6028 1.61838V1.63015Z" fill="white"/>
<path d="M30.8298 38.4436C31.0206 39.1029 31.2114 39.7621 31.4022 40.4214C31.9387 42.2815 32.4753 44.1298 33.0237 45.9782C33.0833 46.1665 33.0595 46.2254 32.8449 46.2136C31.4737 46.2136 30.1025 46.2136 28.7313 46.2136C28.5644 46.2136 28.5167 46.1901 28.5644 46.0135C29.2917 43.5412 30.0071 41.0689 30.7345 38.5966C30.7464 38.5496 30.7345 38.4789 30.8179 38.4436H30.8298Z" fill="white"/>
<path d="M81.5486 40.0683C81.5486 39.3973 81.5486 38.7262 81.5486 38.0552C81.5486 37.8786 81.6082 37.8315 81.7752 37.8433C82.3356 37.8668 82.9079 37.7962 83.4564 37.9257C83.5398 37.9492 83.6233 37.961 83.7067 37.9845C85.7695 38.6203 85.531 40.6805 84.5175 41.6459C84.0406 42.105 83.4564 42.3405 82.7886 42.3522C82.4429 42.3522 82.0852 42.3522 81.7394 42.3522C81.5844 42.3522 81.5367 42.3051 81.5486 42.1521C81.5486 41.4575 81.5486 40.7629 81.5486 40.0683Z" fill="white"/>
<path d="M47.6797 40.0799C47.6797 39.3971 47.6797 38.726 47.6797 38.0432C47.6797 37.8902 47.7155 37.8313 47.8824 37.8313C48.4547 37.8548 49.0389 37.7842 49.6113 37.9137C49.8974 37.9726 50.1717 38.0668 50.434 38.2198C51.6502 38.9144 51.5548 40.2565 51.0898 41.0806C50.6367 41.8811 49.9093 42.2814 48.9913 42.3403C48.6216 42.3638 48.2401 42.3403 47.8705 42.3403C47.7274 42.3403 47.6797 42.2932 47.6797 42.1519C47.6797 41.4573 47.6797 40.7627 47.6797 40.0681V40.0799Z" fill="white"/>
<path d="M59.8032 18.1592C58.6586 18.1592 57.502 18.1592 56.3574 18.1592C56.1666 18.1592 56.107 18.2063 56.107 18.3946C56.107 19.772 56.107 21.1495 56.107 22.5151C56.107 22.7152 56.0593 22.7859 55.8566 22.7741C55.5227 22.7623 55.2008 22.7623 54.8669 22.7741C54.6642 22.7741 54.6046 22.727 54.6046 22.5269C54.6046 21.2083 54.6046 19.878 54.6046 18.5595C54.6046 18.3005 54.4735 18.1709 54.2112 18.1709C52.0053 18.1709 49.7995 18.1709 47.5937 18.1709C46.1152 18.1709 45.0421 16.923 45.3164 15.4868C45.7098 13.4854 46.6756 11.8019 48.2376 10.4598C48.7622 10.0124 49.3941 9.8476 50.0738 9.89469C50.1572 9.89469 50.2407 9.95356 50.2884 9.82406C50.6103 8.92933 51.2899 8.45842 52.1723 8.19942C54.3662 7.55191 56.5601 7.56369 58.742 8.27005C59.4932 8.51728 60.0297 9.01174 60.3517 9.70633C60.4232 9.85938 60.4948 9.88292 60.6498 9.87115C61.3055 9.78874 61.8779 9.96533 62.3786 10.3891C63.9525 11.743 64.966 13.403 65.3833 15.4397C65.6695 16.8759 64.6202 18.1592 63.1417 18.1592C62.5813 18.1592 62.0329 18.1592 61.4725 18.1592C60.9121 18.1592 60.3636 18.1592 59.8032 18.1592Z" fill="#A1A2A1"/>
<path d="M55.3579 9.18823C56.3952 9.18823 57.4087 9.36482 58.3983 9.70623C59.0183 9.91814 59.2449 10.5303 58.9229 11.0954C57.8856 12.8496 56.8602 14.6037 55.8229 16.3578C55.5606 16.8052 55.1671 16.7934 54.9048 16.3578C53.8794 14.6155 52.854 12.8849 51.8405 11.1425C51.4828 10.5303 51.7093 9.92992 52.377 9.69446C53.3428 9.35305 54.3444 9.20001 55.3698 9.18823H55.3579Z" fill="white"/>
<path d="M50.0841 16.6875C49.2733 16.6875 48.4625 16.6875 47.6398 16.6875C47.0198 16.6875 46.6859 16.299 46.8052 15.6985C47.139 14.0268 47.9617 12.6376 49.2733 11.531C49.6668 11.2013 50.1914 11.2838 50.4537 11.7311C51.2883 13.1674 52.123 14.6037 52.9576 16.04C53.1722 16.4049 53.0053 16.6639 52.588 16.6757C51.7534 16.6757 50.9187 16.6757 50.0841 16.6757V16.6992V16.6875Z" fill="white"/>
<path d="M60.6128 16.6638C59.7901 16.6638 58.9674 16.6638 58.1566 16.6638C57.7035 16.6638 57.5485 16.3931 57.7751 16.0046C58.5978 14.58 59.4324 13.1555 60.2551 11.731C60.5174 11.2719 61.0421 11.1777 61.4474 11.5191C62.759 12.6375 63.5817 14.0385 63.9156 15.7102C64.0229 16.2753 63.689 16.6756 63.0929 16.6756C62.2702 16.6756 61.4355 16.6756 60.6128 16.6756V16.6521V16.6638Z" fill="white"/>
</svg>
