<svg width="131" height="62" viewBox="0 0 131 62" fill="none" xmlns="http://www.w3.org/2000/svg">
<path d="M0.939666 40.4731C1.68216 40.4731 2.43745 40.4731 3.17994 40.4731C5.50983 40.4731 7.83972 40.4731 10.1696 40.4731C10.7585 40.4731 11.3345 40.57 11.885 40.788C13.2036 41.3209 13.8693 42.2898 13.9333 43.6099C13.9845 44.6514 13.7668 45.6324 12.8707 46.347C12.2179 46.8798 11.4242 47.11 10.5793 47.1947C9.3759 47.3158 8.15975 47.2432 6.95641 47.2553C5.76586 47.2553 4.58811 47.2553 3.39757 47.2553C3.15434 47.2553 3.09033 47.3158 3.09033 47.5459C3.09033 48.6238 3.09033 49.7138 3.10313 50.7917C3.10313 51.1187 3.00072 51.1913 2.68068 51.1792C2.09181 51.155 1.50293 51.155 0.914062 51.155C0.914062 47.5944 0.914062 44.0338 0.914062 40.4731H0.939666Z" fill="#A1A2A1"/>
<path d="M115.491 61.1104C115.082 60.5775 114.672 60.0446 114.262 59.5238C114.147 59.3785 114.019 59.2453 113.84 59.1726C113.353 58.991 113.174 59.0879 113.149 59.5723C113.136 59.9598 113.123 60.3353 113.136 60.7228C113.136 60.9408 113.033 60.965 112.841 60.965C112.662 60.965 112.547 60.9408 112.547 60.7228C112.572 59.427 112.585 58.1432 112.611 56.8473C112.611 56.7504 112.585 56.6293 112.752 56.6293C113.341 56.6414 113.929 56.5688 114.506 56.6778C115.056 56.7747 115.402 57.1501 115.466 57.6709C115.53 58.2159 115.286 58.6034 114.749 58.8335C114.646 58.882 114.531 58.9183 114.403 58.9667C114.979 59.4027 115.325 60.0083 115.773 60.5169C115.952 60.7228 116.003 60.8682 115.709 60.9893C115.658 61.0135 115.619 61.0741 115.581 61.1104H115.517H115.491Z" fill="#A1A2A1"/>
<path d="M59.8381 0.338445C59.8381 0.338445 59.8381 0.301408 59.8381 0.289062H62.0144C62.0144 0.289062 62.0144 0.3261 62.0144 0.338445C61.9504 0.498939 61.7967 0.486593 61.6687 0.498939C61.2847 0.511285 60.9134 0.498939 60.5294 0.498939C60.2862 0.461902 60.0045 0.61005 59.8125 0.350791L59.8381 0.338445Z" fill="#A5A5A5"/>
<path d="M74.0329 19.3518C73.5849 19.691 73.124 20.0422 72.676 20.3813C72.676 20.5266 72.5992 20.6235 72.484 20.7083C71.2806 21.5682 70.1029 22.4644 68.6819 22.9972C68.4002 23.0941 68.2594 23.2758 68.1698 23.5422C67.9522 24.2205 67.773 24.9108 67.645 25.6011C67.6066 25.8312 67.5681 26.0613 67.3761 26.2309C67.1201 27.9627 67.0177 29.6946 67.4913 31.4144C67.645 31.9715 67.901 32.5044 68.3106 32.9403C68.5539 33.1947 68.8227 33.3279 69.1939 33.3763C72.0999 33.7639 75.0187 34.1151 77.9502 34.2726C79.2048 34.3331 80.4465 34.3694 81.7011 34.4179C81.8419 34.4179 81.9827 34.4179 82.1107 34.4784C83.0581 34.9871 83.9926 35.5079 84.9527 36.0286C84.8631 36.1376 84.7607 36.1013 84.6838 36.1013C81.5987 36.1013 78.5007 36.1013 75.4155 36.0771C72.9064 36.0771 70.3845 36.0529 67.8754 36.0529C63.8429 36.0529 59.8104 36.0529 55.7779 36.0408C51.1821 36.0408 46.5864 36.0044 41.9906 35.9923C41.8498 35.9923 41.6066 36.065 41.5938 35.8591C41.5938 35.6653 41.8242 35.7016 41.9778 35.6895C46.1255 35.3383 50.286 35.0719 54.4209 34.5269C56.6996 34.2241 58.9527 33.7881 61.1802 33.2673C61.3978 33.2189 61.4746 33.1099 61.513 32.9282C61.8586 31.487 62.0507 30.0216 62.0251 28.5441C61.8714 28.3987 61.8202 28.2292 61.8202 28.0233C61.7946 27.224 61.6282 26.461 61.3338 25.7222C61.2698 25.5648 61.2186 25.4194 61.2826 25.262C60.8217 24.3658 60.1176 23.736 59.0935 23.4454C57.3909 22.9609 56.0851 21.9557 55.0098 20.6477C55.1122 20.5872 55.1506 20.6719 55.2018 20.7083C57.3269 22.1616 59.7208 22.6702 62.3067 22.4038C67.1969 21.883 72.3047 18.6252 74.673 14.5438C75.5819 12.9815 76.1452 11.3102 76.094 9.50563C76.0556 8.06442 75.6075 6.73222 74.6218 5.61801C74.1226 5.04879 73.8793 4.43113 74.289 3.75292C74.737 3.01415 75.4027 2.54182 76.35 2.60238C77.1053 2.65082 77.7326 2.96571 78.1935 3.55915C79.3712 5.09724 79.8577 6.82911 79.8193 8.69419C79.7552 11.8915 78.4239 14.6286 76.3628 17.0992C75.8124 17.7532 75.1851 18.3466 74.5706 18.9522C74.5706 19.2792 74.3146 19.3276 74.0585 19.3761L74.0329 19.3518Z" fill="#A1A2A1"/>
<path d="M16.2237 45.8505C16.2237 44.1671 16.2237 42.4958 16.2237 40.8123C16.2237 40.5701 16.2877 40.4854 16.5566 40.4854C19.5649 40.4854 22.5861 40.4854 25.5945 40.4854C27.2587 40.4854 28.6541 41.3331 29.1149 42.6532C29.5246 43.8522 29.4478 45.027 28.5773 46.0685C28.142 46.5893 27.5403 46.8799 26.8875 47.0495C26.593 47.1222 26.5546 47.1948 26.7466 47.437C27.6299 48.5755 28.4876 49.7381 29.3582 50.8887C29.4094 50.9613 29.5502 51.0461 29.4862 51.143C29.435 51.2157 29.3069 51.1793 29.2173 51.1793C28.5901 51.1793 27.95 51.1793 27.3227 51.1793C27.0923 51.1793 26.9515 51.1067 26.8234 50.9371C25.9657 49.7866 25.0824 48.636 24.2247 47.4855C24.1095 47.3281 23.9815 47.2675 23.7767 47.2675C22.1125 47.2675 20.4355 47.2675 18.7713 47.2675C18.528 47.2675 18.464 47.328 18.464 47.5582C18.464 48.6724 18.464 49.7866 18.464 50.9008C18.464 51.1309 18.4 51.2036 18.1568 51.1914C17.6063 51.1793 17.0686 51.1793 16.5182 51.1914C16.2749 51.1914 16.2109 51.1067 16.2109 50.8887C16.2109 49.2052 16.2109 47.5339 16.2109 45.8505H16.2237Z" fill="#A1A2A1"/>
<path d="M101.188 45.8263C101.188 44.1671 101.188 42.5079 101.188 40.8487C101.188 40.5822 101.239 40.4854 101.559 40.4854C104.542 40.4854 107.524 40.4854 110.507 40.4975C111.723 40.4975 112.824 40.8487 113.605 41.8176C114.194 42.5442 114.322 43.3799 114.258 44.264C114.143 45.7657 113.272 46.6983 111.762 47.0858C111.506 47.1464 111.544 47.2191 111.659 47.3765C112.542 48.5391 113.426 49.7139 114.309 50.8766C114.373 50.9492 114.488 51.034 114.45 51.1309C114.399 51.2278 114.258 51.1793 114.156 51.1793C113.515 51.1793 112.875 51.1793 112.235 51.1793C112.03 51.1793 111.902 51.1188 111.787 50.9613C110.917 49.7987 110.033 48.636 109.176 47.4734C109.06 47.328 108.945 47.2675 108.753 47.2675C107.089 47.2675 105.412 47.2675 103.748 47.2675C103.492 47.2675 103.428 47.3402 103.428 47.5824C103.428 48.6724 103.428 49.7624 103.428 50.8644C103.428 51.143 103.338 51.2036 103.069 51.2036C102.557 51.1914 102.045 51.1914 101.533 51.2036C101.264 51.2036 101.188 51.1309 101.188 50.8766C101.188 49.1931 101.188 47.5218 101.188 45.8384V45.8263Z" fill="#A1A2A1"/>
<path d="M74.7307 51.4701C72.708 51.4459 70.7494 51.1674 68.9443 50.2469C68.5987 50.0774 68.2787 49.8715 67.9714 49.6656C67.8434 49.5808 67.805 49.5082 67.9202 49.3871C68.2403 48.9995 68.5475 48.612 68.8419 48.2244C68.9443 48.0912 69.0212 48.0791 69.1748 48.176C71.5431 49.6051 74.1162 49.8594 76.8173 49.4113C77.2398 49.3386 77.6366 49.1812 78.0079 48.9753C78.4431 48.7331 78.7375 48.3697 78.7119 47.8611C78.6863 47.3766 78.3407 47.1102 77.9182 46.9164C77.3294 46.65 76.6893 46.6015 76.0492 46.5531C74.6922 46.4562 73.3353 46.4441 71.9911 46.3109C71.2102 46.2382 70.4549 46.0686 69.738 45.7538C68.125 45.0271 67.7154 43.162 68.8803 41.8783C69.546 41.1395 70.4421 40.7519 71.415 40.546C74.129 39.9768 76.7789 40.0858 79.352 41.1516C79.6849 41.2848 79.9921 41.4665 80.2993 41.6481C80.4402 41.7329 80.4786 41.7935 80.3377 41.9146C79.9793 42.2537 79.6209 42.617 79.2752 42.9682C79.16 43.0894 79.0576 43.1015 78.9168 43.0288C76.8685 42.0841 74.7051 41.9025 72.4776 42.1689C72.0039 42.2295 71.5559 42.3264 71.1334 42.5444C70.8134 42.7139 70.5701 42.9561 70.5829 43.3316C70.5957 43.707 70.8646 43.925 71.1974 44.0703C71.4919 44.1915 71.7991 44.2762 72.1191 44.3004C73.6937 44.4216 75.2683 44.5306 76.8429 44.7243C77.6878 44.8333 78.4943 45.015 79.288 45.3178C81.7075 46.2624 81.4003 48.9632 80.1073 50.041C79.2496 50.7556 78.2255 51.0947 77.1245 51.2764C76.3308 51.4096 75.5372 51.458 74.7307 51.458V51.4701Z" fill="#A1A2A1"/>
<path d="M91.0744 40.0856C92.8666 40.1098 94.8636 40.7275 96.5022 42.2292C98.6145 44.1791 98.5889 47.7276 96.2206 49.6654C94.8636 50.7675 93.2762 51.3246 91.4968 51.4578C89.8198 51.591 88.194 51.4094 86.6578 50.719C84.968 49.956 83.6622 48.8176 83.2654 47.001C82.7917 44.8331 83.4446 43.0165 85.352 41.6479C86.9138 40.5337 88.6933 40.0735 91.0744 40.0735V40.0856Z" fill="#A1A2A1"/>
<path d="M38.7136 51.1672C36.8189 51.1672 34.9243 51.1672 33.0297 51.1672C32.7352 51.1672 32.6328 51.1067 32.6328 50.8039C32.6328 47.4855 32.6328 44.1671 32.6328 40.8487C32.6328 40.5701 32.7224 40.4854 33.0041 40.4854C36.6781 40.4854 40.3394 40.4854 44.0134 40.4854C44.3207 40.4854 44.4231 40.5701 44.4103 40.8608C44.3847 41.2483 44.3847 41.6359 44.4103 42.0113C44.4231 42.2778 44.3335 42.3504 44.0518 42.3504C41.6835 42.3504 39.3024 42.3504 36.9341 42.3504C36.3325 42.3504 35.7308 42.3504 35.1419 42.3504C34.9115 42.3504 34.8475 42.411 34.8475 42.629C34.8475 43.2103 34.8603 43.8038 34.8475 44.3851C34.8475 44.6394 34.9371 44.7121 35.1931 44.7121C37.1774 44.7121 39.1488 44.7121 41.1331 44.7C41.4531 44.7 41.5427 44.7847 41.5171 45.0754C41.4915 45.4509 41.4915 45.8263 41.5171 46.2017C41.5427 46.4924 41.4403 46.5772 41.1331 46.5772C39.2 46.5651 37.267 46.5772 35.3211 46.5772C35.0139 46.5772 34.8603 46.7225 34.8603 47.0132C34.8603 47.655 34.8731 48.309 34.8603 48.9509C34.8603 49.2174 34.9371 49.29 35.2187 49.29C38.2911 49.29 41.3507 49.29 44.4231 49.29C44.7303 49.29 44.8711 49.3385 44.8327 49.6655C44.7943 50.053 44.8071 50.4527 44.8327 50.8523C44.8455 51.1309 44.7431 51.1915 44.4615 51.1793C42.5412 51.1793 40.6338 51.1793 38.7136 51.1793V51.1672Z" fill="#A1A2A1"/>
<path d="M123.462 42.2656C123.155 42.7985 122.886 43.2587 122.63 43.7311C121.631 45.4872 120.633 47.2311 119.634 48.9872C119.468 49.2779 119.468 49.29 119.826 49.29C121.311 49.29 122.796 49.29 124.281 49.29C124.512 49.29 124.652 49.3505 124.768 49.5443C125.024 49.9924 125.292 50.4163 125.561 50.8644C125.753 51.1793 125.753 51.1793 125.369 51.1793C122.489 51.1793 119.621 51.1793 116.741 51.1793C116.485 51.1793 116.114 51.3004 115.999 51.1188C115.896 50.9734 116.178 50.707 116.306 50.489C118.149 47.3038 119.993 44.1186 121.823 40.9334C122.002 40.6307 122.182 40.4974 122.553 40.5095C123.219 40.5459 123.897 40.5217 124.576 40.5095C124.755 40.5095 124.857 40.5701 124.947 40.7275C126.905 44.1307 128.864 47.5218 130.836 50.9129C130.976 51.1672 130.887 51.1914 130.644 51.1793C130.042 51.1793 129.44 51.1672 128.851 51.1793C128.621 51.1793 128.493 51.1188 128.378 50.9129C126.803 48.1395 125.228 45.3782 123.654 42.6047C123.603 42.5079 123.539 42.411 123.449 42.2656H123.462Z" fill="#A1A2A1"/>
<path d="M53.3201 49.3021C53.6145 48.7935 53.8834 48.3211 54.1522 47.8609C55.5092 45.5114 56.8661 43.1619 58.2103 40.8002C58.3383 40.5701 58.4919 40.4854 58.7608 40.4975C59.324 40.5217 59.9001 40.4975 60.4634 40.4975C60.8346 40.4975 60.8346 40.4975 60.6554 40.8245C59.004 43.6584 57.3398 46.4803 55.6884 49.3142C55.3683 49.8592 55.0355 50.4042 54.7283 50.9613C54.6387 51.1188 54.5362 51.1672 54.357 51.1672C53.6785 51.1672 52.9873 51.1672 52.3088 51.1672C52.1295 51.1672 52.0399 51.1067 51.9631 50.9613C49.9789 47.5582 47.9818 44.155 45.9848 40.7518C45.8696 40.5459 45.908 40.4975 46.1384 40.4975C46.7657 40.4975 47.4058 40.4975 48.033 40.4975C48.2379 40.4975 48.3403 40.5701 48.4299 40.7397C49.9917 43.4768 51.5663 46.2138 53.1281 48.9509C53.1921 49.0599 53.2561 49.1568 53.3329 49.3021H53.3201Z" fill="#A1A2A1"/>
<path d="M44.6167 17.3414C44.1046 18.2376 43.7078 19.1702 43.5926 20.1996C43.4773 21.1685 43.6438 22.0889 44.1046 22.9609C44.7831 24.2325 44.1046 25.3589 42.5812 25.48C41.6723 25.5526 40.8402 25.0803 40.4434 24.2689C39.7265 22.7913 39.7137 21.2654 40.1233 19.7273C40.6738 17.6442 41.8899 15.9365 43.4517 14.4227C43.7462 14.132 44.0406 13.8413 44.3863 13.5991C44.5783 13.6355 44.5911 13.7808 44.5911 13.9261C44.5911 14.9798 44.6295 16.0334 44.5783 17.0871C44.5783 17.1719 44.5527 17.2687 44.6167 17.3414Z" fill="#939393"/>
<path d="M51.1883 28.6892C49.2937 27.9747 47.8983 26.7272 47.0534 24.9833C45.5428 21.8586 46.0037 18.9036 48.2055 16.2149C49.7289 14.3377 51.8156 13.1751 54.1199 12.3394C54.1455 12.3394 54.1839 12.3152 54.2095 12.3152C54.2223 12.3152 54.2479 12.3152 54.2991 12.3394C53.8126 12.6906 53.339 13.0297 52.8781 13.381C51.4315 14.483 50.0874 15.6941 49.1528 17.2322C48.2439 18.7219 47.9495 20.2721 48.7432 21.895C49.2425 22.9123 50.0362 23.6995 50.9323 24.3898C51.0219 24.4625 51.1115 24.5352 51.2011 24.6078C51.2523 25.9037 51.2011 27.1996 51.2395 28.5076C51.2395 28.5681 51.2395 28.6287 51.1883 28.6771V28.6892Z" fill="#989898"/>
<path d="M56.2578 20.1025C57.1539 20.1025 58.0372 20.0298 58.8949 19.8361C61.8905 19.1579 64.2076 17.6076 65.6414 14.9917C66.115 14.1197 66.3199 13.175 66.115 12.194C65.7822 10.6681 64.7197 9.78396 63.1963 9.33586C62.9274 9.25108 62.633 9.22686 62.3642 9.10575C61.9545 8.89986 61.8393 8.58498 62.0569 8.19743C62.2105 7.91887 62.441 7.73721 62.7482 7.64032C63.1835 7.49499 63.6443 7.41021 64.1052 7.51921C66.1022 7.97943 67.5872 9.00886 68.2017 10.9345C68.6753 12.4363 68.3297 13.8654 67.5104 15.1612C65.603 18.1648 62.761 19.8482 59.087 20.2842C58.1396 20.3932 57.1923 20.3326 56.2578 20.1146V20.1025Z" fill="#9B9B9B"/>
<path d="M74.0391 19.3516C74.2055 19.2063 74.3847 19.0731 74.5511 18.9277C75.7545 19.17 76.945 19.0246 78.0844 18.625C80.3374 17.8499 82.1425 16.554 83.3202 14.5557C83.9475 13.4899 84.2547 12.3394 83.9987 11.104C83.8835 10.5712 83.6402 10.0867 83.2818 9.66284C82.9234 9.23896 82.8722 8.88774 83.1154 8.52441C83.4098 8.08841 83.9091 7.87042 84.4083 7.9673C84.7668 8.03997 85.0612 8.19741 85.2788 8.48808C86.2262 9.77184 86.367 11.1888 86.0085 12.6664C85.4453 14.9917 83.9731 16.7114 81.9504 18.0436C80.5167 18.9883 78.9549 19.6302 77.1883 19.7997C76.1001 19.8966 75.0632 19.7513 74.0519 19.3395L74.0391 19.3516Z" fill="#7B7B7B"/>
<path d="M50.9711 6.35655C50.3438 6.7441 49.6909 7.13165 49.0764 7.54342C48.0139 8.25797 47.0282 9.0694 46.1577 9.97772C45.9016 10.2442 45.6456 10.5227 45.3256 10.7286C45.1591 10.8013 45.1207 10.6923 45.0823 10.5833C45.0439 10.4622 45.0567 10.3411 45.0567 10.2199C45.0567 8.99674 45.0567 7.78564 45.0567 6.56243C45.0567 6.36866 45.0567 6.17488 45.1463 6.00533C46.2345 5.12123 47.4122 4.37035 48.6412 3.69213C49.3581 3.29247 50.075 2.90492 50.8559 2.61426C50.9711 2.75959 50.9455 2.94125 50.9455 3.11081C50.9455 4.20079 50.9455 5.29078 50.9455 6.36866L50.9711 6.35655Z" fill="#919191"/>
<path d="M62.8097 45.8506C62.8097 44.1793 62.8097 42.5201 62.8097 40.8488C62.8097 40.5823 62.8865 40.4975 63.1681 40.5097C63.693 40.5339 64.2179 40.5218 64.7427 40.5097C64.9987 40.5097 65.0628 40.5823 65.0628 40.8245C65.0628 42.9076 65.0628 44.9907 65.0628 47.0738C65.0628 48.3333 65.0628 49.605 65.0628 50.8645C65.0628 51.1189 64.9859 51.1915 64.7171 51.1794C64.1922 51.1552 63.6674 51.1673 63.1425 51.1794C62.8737 51.1794 62.7969 51.1189 62.7969 50.8645C62.7969 49.1932 62.7969 47.534 62.7969 45.8627L62.8097 45.8506Z" fill="#A1A2A1"/>
<path d="M51.183 28.6894C51.0677 28.5562 51.0549 28.3987 51.0549 28.2292C51.0549 27.1634 51.0549 26.0977 51.0549 25.0319C51.0549 24.8866 51.0421 24.7291 51.1958 24.6201C52.86 25.8312 54.729 26.4004 56.8285 26.2793C57.1101 26.2672 57.3789 26.243 57.6606 26.2188C57.699 27.2724 57.7758 28.314 57.6094 29.3676C56.7388 29.5129 55.8427 29.5129 54.9722 29.4645C53.8329 29.4161 52.7063 29.2223 51.631 28.859C51.4774 28.8105 51.3366 28.7378 51.1958 28.6773L51.183 28.6894Z" fill="#919191"/>
<path d="M50.9711 6.35668C50.8431 6.29613 50.8047 6.17502 50.8047 6.05391C50.8047 4.98814 50.8047 3.91027 50.8047 2.8445C50.8047 2.77183 50.8431 2.68706 50.8559 2.61439C52.5841 1.82718 54.3635 1.22163 56.2454 0.846191C56.3862 0.918857 56.399 1.06419 56.399 1.1853C56.4118 2.12995 56.4118 3.07461 56.399 4.01926C56.399 4.15249 56.3606 4.27359 56.2454 4.37048C55.2212 4.66115 54.1971 4.9397 53.2242 5.33936C52.4561 5.65424 51.6752 5.95702 50.9583 6.36879L50.9711 6.35668Z" fill="#868686"/>
<path d="M56.2578 4.35922C56.2578 3.18446 56.2578 2.00969 56.2578 0.834929C57.4356 0.556376 58.6261 0.386823 59.8423 0.338379C60.0855 0.338379 60.3159 0.338379 60.5591 0.338379C60.7 0.435267 60.7128 0.580598 60.7128 0.713819C60.7128 1.63425 60.7128 2.55469 60.7128 3.47512C60.7128 3.62045 60.7128 3.76578 60.5591 3.85056C59.1126 3.88689 57.6788 4.04433 56.2578 4.34711V4.35922Z" fill="#7D7D7D"/>
<path d="M70.6923 14.6163C70.8459 14.3014 70.9995 13.9744 71.1403 13.6596C71.9724 11.7339 71.7548 9.92938 70.4234 8.25807C70.4106 8.23385 70.3978 8.20963 70.3722 8.1854C70.3082 8.05218 70.2698 7.91896 70.2698 7.77363C70.2698 6.55042 70.2698 5.33933 70.2698 4.11612C70.2698 3.95868 70.2186 3.75279 70.4746 3.70435C71.1275 4.26145 71.678 4.90333 72.1644 5.60577C72.2284 5.70266 72.2797 5.79954 72.3309 5.89643C72.3693 6.21132 72.3821 6.5262 72.3821 6.84109C72.3821 9.26328 72.3821 11.6734 72.3821 14.0956C72.3821 14.3741 72.3565 14.6648 72.3565 14.9433C71.934 15.561 71.3963 16.0696 70.8587 16.5783C70.6154 16.6267 70.6026 16.4572 70.6026 16.3119C70.5898 15.7548 70.5386 15.1855 70.6795 14.6405L70.6923 14.6163Z" fill="#3E3E3E"/>
<path d="M57.6159 29.3675C57.5391 29.2585 57.5391 29.1374 57.5391 29.0163C57.5391 28.217 57.5391 27.4056 57.5391 26.6062C57.5391 26.4609 57.5391 26.3277 57.6543 26.2187C58.9088 26.037 60.1122 25.71 61.2643 25.2256C61.7124 26.0249 61.8788 26.8848 61.9556 27.7568C61.9812 28.0111 61.994 28.2654 62.0068 28.5077C61.6356 28.5319 61.2899 28.6893 60.9315 28.7741C59.8305 29.0284 58.7424 29.2828 57.6031 29.3554L57.6159 29.3675Z" fill="#8C8C8C"/>
<path d="M45.1522 5.99322C45.2034 6.17488 45.2162 6.34443 45.2162 6.5261C45.2162 7.79775 45.2162 9.0694 45.2162 10.3289C45.2162 10.4622 45.1778 10.6196 45.3314 10.7165C44.5633 11.3826 43.7056 11.8065 42.6303 11.5522C41.8366 11.3705 41.5166 10.8497 41.6702 10.0867C41.7982 9.43273 42.1054 8.8514 42.5407 8.34274C43.3216 7.47075 44.1921 6.67143 45.1522 5.96899V5.99322Z" fill="#969696"/>
<path d="M44.6211 17.3414C44.429 17.2688 44.4546 17.0992 44.4546 16.9539C44.4546 15.985 44.4546 15.0161 44.4546 14.0472C44.4546 13.9019 44.4546 13.7445 44.3906 13.5991C45.6964 12.497 47.1558 11.6129 48.756 10.9226C48.9352 11.0195 48.9096 11.1769 48.9096 11.3223C48.9096 11.952 48.9096 12.5818 48.8968 13.2237C48.1159 13.7687 47.3222 14.3016 46.6309 14.9556C45.8756 15.6822 45.1331 16.421 44.6211 17.3414Z" fill="#8F8F8F"/>
<path d="M67.38 26.2308C67.508 25.2135 67.764 24.2204 68.0969 23.2515C68.1353 23.1183 68.1993 23.0093 68.3401 22.9608C69.9403 22.4158 71.2333 21.4106 72.5646 20.466C72.603 20.4418 72.6286 20.4175 72.667 20.3933C73.1535 20.8172 73.2175 21.12 72.9487 21.7134C72.6926 22.2826 72.3214 22.8034 71.8349 23.2152C70.478 24.3899 68.9802 25.3951 67.3672 26.2429L67.38 26.2308Z" fill="#808080"/>
<path d="M48.8922 13.2237C48.7258 13.1389 48.7514 12.9936 48.7514 12.8482C48.7514 12.2063 48.7514 11.5645 48.7514 10.9226C50.5436 10.099 52.4255 9.5056 54.3969 9.22705C54.4609 9.27549 54.5249 9.33605 54.5249 9.42083C54.5505 9.91738 54.5761 10.4139 54.5249 10.9105C53.424 11.2254 52.3231 11.5524 51.2733 12.0126C50.454 12.3759 49.6475 12.7756 48.8794 13.2237H48.8922Z" fill="#828282"/>
<path d="M70.4922 3.69217C70.4282 3.82539 70.441 3.97072 70.441 4.10394C70.441 5.08493 70.441 6.05381 70.441 7.0348C70.441 7.42235 70.441 7.79779 70.377 8.17323C69.6985 7.41024 68.9048 6.76836 68.0599 6.18703C67.9319 6.0417 67.9062 5.86003 67.9062 5.67837C67.9062 4.62471 67.9062 3.57106 67.9062 2.50529C67.9062 2.31152 67.9062 2.09352 68.1239 1.97241C68.956 2.38419 69.6729 2.92918 70.3514 3.52262C70.4026 3.57106 70.441 3.63161 70.4794 3.69217H70.4922Z" fill="#4A4A4A"/>
<path d="M68.1346 1.98451C67.9938 3.21983 68.109 4.46726 68.0706 5.70258C68.0706 5.86002 68.0706 6.02957 68.0706 6.18702C67.2513 5.70258 66.4192 5.25447 65.5615 4.85481C65.4847 4.77003 65.4719 4.68526 65.4719 4.57626C65.4719 3.51049 65.4719 2.44473 65.4719 1.37896C65.4719 1.22152 65.4335 1.05197 65.6255 0.955078C66.3936 1.16096 67.1361 1.45163 67.8274 1.80285C67.9298 1.85129 68.0194 1.92396 68.1218 1.98451H68.1346Z" fill="#575757"/>
<path d="M72.3702 14.9192C72.2422 14.7981 72.2422 14.6528 72.2422 14.4953C72.2422 11.7825 72.2422 9.0575 72.2422 6.34464C72.2422 6.17509 72.2678 6.01765 72.3574 5.87231C73.2535 7.25296 73.7656 8.7305 73.804 10.3534C73.8424 12.0126 73.3815 13.5386 72.383 14.9071L72.3702 14.9192Z" fill="#363636"/>
<path d="M60.5547 3.86301C60.5547 2.68825 60.5547 1.51348 60.5547 0.35083C61.0539 0.35083 61.5404 0.35083 62.0397 0.35083C62.4621 0.35083 62.8974 0.375052 63.3198 0.484051C63.3966 0.629382 63.4094 0.786825 63.4094 0.956378C63.4094 1.87681 63.4094 2.78513 63.4094 3.70557C63.4094 3.87512 63.435 4.05679 63.2558 4.1779C62.4621 4.04468 61.6812 3.91145 60.8747 3.94779C60.7723 3.94779 60.6699 3.91145 60.5675 3.88723L60.5547 3.86301Z" fill="#6F6F6F"/>
<path d="M52.8526 24.3413C51.8284 23.5541 51.2652 22.5247 51.1371 21.3015C50.9579 19.4485 51.662 17.8377 52.7886 16.3723C53.0446 16.4208 53.0062 16.6266 53.0062 16.7841C53.0062 17.7287 53.0062 18.6734 53.0062 19.6181C53.0062 20.9381 53.0062 22.2582 53.0062 23.5783C53.0062 23.7358 53.0062 23.9053 53.0062 24.0628C53.0062 24.1718 52.9806 24.2929 52.8526 24.3413Z" fill="#767676"/>
<path d="M63.255 4.15234C63.255 3.05024 63.255 1.94814 63.255 0.846047C63.255 0.712826 63.255 0.579606 63.319 0.458496C64.1127 0.531162 64.8808 0.688604 65.6233 0.942935C65.6233 2.05714 65.6233 3.17135 65.6233 4.28556C65.6233 4.47934 65.6233 4.67311 65.5465 4.85478C64.804 4.56411 64.0359 4.32189 63.2422 4.15234H63.255Z" fill="#646464"/>
<path d="M52.8531 24.3414C52.8531 21.8102 52.8531 19.279 52.8531 16.7599C52.8531 16.6267 52.8531 16.4935 52.7891 16.3724C53.2883 15.6699 53.89 15.0644 54.5813 14.5315C54.7477 14.592 54.7349 14.7374 54.7349 14.8585C54.7349 15.1976 54.7605 15.5367 54.7093 15.8758C54.4149 16.3724 54.0564 16.8447 53.8004 17.3655C53.4291 18.1163 53.1475 18.9036 53.1219 19.7271C53.0963 20.6112 53.3651 21.4347 53.9284 22.1493C54.018 22.2583 54.1076 22.3673 54.1972 22.4884C54.2484 23.1908 54.2228 23.9054 54.2228 24.6078C54.2228 24.7774 54.2228 24.959 54.0052 25.0317C53.57 24.8621 53.1859 24.6199 52.8403 24.3172L52.8531 24.3414Z" fill="#6A6A6A"/>
<path d="M122.043 56.5565C123.477 56.5565 124.424 57.4649 124.424 58.8213C124.424 60.1656 123.439 61.0618 121.954 61.0497C120.533 61.0497 119.534 60.1172 119.547 58.785C119.547 57.4406 120.546 56.5444 122.043 56.5444V56.5565Z" fill="#A1A2A1"/>
<path d="M105.246 58.1916C105.246 58.5549 105.246 58.9183 105.246 59.2816C105.208 60.2384 105.988 60.8076 106.961 60.529C107.448 60.3958 107.729 60.0325 107.781 59.4148C107.845 58.5913 107.832 57.7556 107.845 56.9321C107.845 56.7141 107.87 56.6172 108.152 56.6172C108.434 56.6172 108.472 56.7262 108.459 56.9442C108.408 57.8162 108.472 58.7003 108.37 59.5844C108.267 60.4564 107.768 60.9045 106.846 61.0377C106.449 61.0861 106.052 61.0498 105.681 60.9287C105.003 60.6986 104.67 60.2141 104.657 59.5602C104.631 58.6518 104.67 57.7435 104.683 56.8352C104.683 56.5324 104.939 56.6656 105.08 56.6414C105.272 56.6051 105.31 56.702 105.297 56.8715C105.284 57.3196 105.297 57.7556 105.297 58.2037C105.284 58.2037 105.272 58.2037 105.259 58.2037L105.246 58.1916Z" fill="#A1A2A1"/>
<path d="M100.418 59.7054C100.418 59.9234 100.392 60.1535 100.418 60.3715C100.469 60.7106 100.277 60.8317 99.9826 60.9165C99.2914 61.0982 98.5873 61.1466 97.896 60.9165C96.475 60.4321 95.9758 58.6275 96.9231 57.4649C97.6784 56.5444 99.0481 56.2538 100.162 56.7624C100.303 56.823 100.367 56.8836 100.277 57.041C100.2 57.1742 100.162 57.2832 99.9442 57.1984C99.3298 56.932 98.7025 56.8957 98.088 57.1984C97.2815 57.586 96.8975 58.5064 97.1663 59.4026C97.4223 60.2262 98.1776 60.6864 99.1121 60.6016C99.6157 60.5532 99.8717 60.2867 99.8802 59.8023C99.8802 59.4874 99.893 59.1725 99.8802 58.8576C99.8802 58.6518 99.9698 58.5912 100.175 58.5912C100.379 58.5912 100.469 58.6518 100.456 58.8576C100.443 59.1362 100.456 59.4269 100.456 59.7054C100.443 59.7054 100.431 59.7054 100.418 59.7054Z" fill="#A1A2A1"/>
<path d="M55.6148 23.421C56.3189 23.6512 57.023 23.7844 57.7655 23.7965C58.0855 23.7965 58.4312 23.8934 58.5464 24.2204C58.6744 24.5837 58.5208 24.8986 58.2392 25.1529C57.8295 25.5041 57.3175 25.6495 56.767 25.6737C56.3317 25.6979 55.8965 25.6373 55.474 25.5405C55.3204 25.4678 55.2692 25.3467 55.2692 25.1892C55.2436 24.6927 55.2436 24.184 55.2692 23.6875C55.2692 23.4937 55.346 23.3484 55.602 23.4332L55.6148 23.421Z" fill="#565656"/>
<path d="M90.2543 58.7608C90.2543 58.1189 90.2543 57.4892 90.2543 56.8473C90.2543 56.6899 90.2927 56.6172 90.4848 56.6172C91.1504 56.6172 91.8033 56.6172 92.469 56.6172C92.6482 56.6172 92.6994 56.6777 92.6994 56.8473C92.6994 57.0169 92.661 57.1016 92.4562 57.1016C91.9953 57.0895 91.5345 57.1016 91.0736 57.1016C90.8816 57.1016 90.8176 57.1622 90.8176 57.3438C90.8176 57.6345 90.8176 57.9252 90.792 58.2279C90.7792 58.4338 90.8432 58.5186 91.0736 58.5065C91.4961 58.4944 91.9057 58.5065 92.3282 58.5065C92.4818 58.5065 92.597 58.5307 92.597 58.7124C92.597 58.8819 92.5458 58.9667 92.341 58.9667C91.9185 58.9667 91.4833 58.9667 91.0608 58.9667C90.8688 58.9667 90.7664 59.0031 90.7792 59.221C90.7792 59.5723 90.7792 59.9235 90.7792 60.2868C90.7792 60.4685 90.8304 60.529 91.0352 60.529C91.5217 60.5169 91.9953 60.529 92.4818 60.529C92.6354 60.529 92.725 60.5533 92.7122 60.7228C92.7122 60.8681 92.7122 60.9771 92.4946 60.9771C91.8033 60.9771 91.112 60.9771 90.4079 60.9771C90.2031 60.9771 90.2031 60.856 90.2031 60.7107C90.2031 60.0688 90.2031 59.4148 90.2031 58.7729C90.2287 58.7729 90.2415 58.7729 90.2671 58.7729L90.2543 58.7608Z" fill="#A1A2A1"/>
<path d="M54.5265 10.9105C54.4112 10.7894 54.3984 10.644 54.3984 10.4866C54.3984 10.0627 54.3984 9.63883 54.3984 9.21494C55.3714 9.0575 56.3571 8.97273 57.3428 9.02117C57.4196 9.08172 57.4708 9.15439 57.4836 9.25128C57.5092 9.57827 57.5092 9.91738 57.4836 10.2444C57.4836 10.3413 57.4196 10.4139 57.3428 10.4745C56.3955 10.5714 55.4482 10.7046 54.5265 10.9105Z" fill="#6F6F6F"/>
<path d="M84.71 61.0497C84.3259 61.0618 83.9803 60.9407 83.6347 60.7833C83.4426 60.6985 83.4938 60.6016 83.5579 60.4684C83.6347 60.3231 83.6987 60.2625 83.8651 60.3594C84.1723 60.5411 84.5052 60.638 84.8764 60.5653C85.2221 60.5047 85.5037 60.2383 85.5677 59.9355C85.6317 59.6206 85.5165 59.3784 85.1709 59.1846C84.8636 59.0151 84.5436 58.8819 84.2235 58.7365C83.7243 58.5064 83.4682 58.0947 83.5322 57.586C83.5963 57.0531 83.9291 56.6777 84.4796 56.5687C85.0044 56.4597 85.5037 56.5444 85.9773 56.7624C86.0542 56.7988 86.2206 56.823 86.1054 56.9683C86.0286 57.0652 86.003 57.2953 85.7597 57.1742C85.4909 57.041 85.2092 56.9562 84.902 56.9804C84.5052 57.0047 84.2107 57.1984 84.1211 57.5012C84.0315 57.8282 84.1851 58.0946 84.5564 58.2884C84.7868 58.4095 85.0172 58.5064 85.2477 58.6033C86.003 58.9303 86.3102 59.4147 86.1694 60.0445C86.0286 60.6743 85.4781 61.0497 84.6972 61.0497H84.71Z" fill="#A1A2A1"/>
<path d="M129.442 61.0499C129.07 61.062 128.725 60.9409 128.392 60.8077C128.213 60.735 128.187 60.6502 128.277 60.4807C128.366 60.3233 128.43 60.2627 128.61 60.3717C128.814 60.5049 129.058 60.5655 129.301 60.5897C129.762 60.626 130.146 60.3838 130.274 60.0084C130.389 59.645 130.235 59.3544 129.787 59.1243C129.506 58.9789 129.211 58.8578 128.93 58.7246C128.443 58.4945 128.187 58.0706 128.264 57.562C128.328 57.0412 128.674 56.6779 129.198 56.5689C129.736 56.4599 130.235 56.5446 130.722 56.7747C130.824 56.8232 130.939 56.8716 130.824 56.9927C130.735 57.0775 130.722 57.2955 130.504 57.1744C130.223 57.0291 129.928 56.9564 129.608 56.9806C129.211 57.017 128.917 57.2107 128.853 57.5256C128.776 57.8405 128.93 58.1191 129.314 58.3007C129.531 58.4097 129.749 58.5066 129.979 58.6035C130.747 58.9305 131.055 59.4149 130.901 60.0689C130.76 60.6866 130.21 61.0499 129.442 61.0499Z" fill="#A1A2A1"/>
<path d="M57.3409 10.4864C57.3409 10.002 57.3409 9.51755 57.3409 9.03311C58.1474 9.00888 58.9411 9.09366 59.7092 9.27533C59.9268 9.63866 59.9268 10.2684 59.7092 10.5349C58.9155 10.4622 58.1218 10.4743 57.3281 10.4864H57.3409Z" fill="#606060"/>
<path d="M55.6158 23.421C55.5134 23.4452 55.4366 23.4937 55.4366 23.6027C55.4494 24.2446 55.3598 24.8864 55.4878 25.5283C54.9757 25.4435 54.4765 25.2982 54.0156 25.056C54.1564 24.3415 54.0412 23.6148 54.0796 22.8881C54.0796 22.7549 54.0412 22.5975 54.2077 22.5127C54.6173 22.8881 55.1038 23.1788 55.6158 23.421Z" fill="#686868"/>
<path d="M70.6975 14.6165C70.8255 15.1372 70.7359 15.658 70.7615 16.1788C70.7615 16.312 70.7231 16.4694 70.8767 16.5663C70.3262 17.1355 69.6605 17.5715 68.9693 17.9833C68.726 17.9106 68.7644 17.7048 68.7516 17.5352C68.7388 17.3414 68.8028 17.1598 68.8924 16.9902C69.5453 16.2393 70.1726 15.4642 70.6975 14.6286V14.6165Z" fill="#464646"/>
<path d="M59.7266 10.5349C59.7266 10.111 59.7266 9.69927 59.7266 9.27539C60.4435 9.3965 61.1219 9.60239 61.7876 9.88094C61.9028 9.92938 62.0052 9.98994 62.1205 10.0505C62.0821 10.2564 62.1461 10.4744 62.1205 10.6803C62.1205 10.8014 62.1205 10.9225 62.0309 11.0194C61.2756 10.8014 60.5075 10.6197 59.7266 10.5349Z" fill="#505050"/>
<path d="M62.0305 11.0314C61.9665 10.7044 61.8385 10.3653 62.1201 10.0625C63.2723 10.5712 64.2196 11.3342 64.9493 12.3151C65.1285 12.5452 65.2821 12.7996 65.4101 13.0781C64.4372 12.1456 63.2979 11.4916 62.0305 11.0314Z" fill="#424242"/>
<path d="M54.7218 15.888C54.5297 15.6095 54.6194 15.2825 54.5938 14.9797C54.5938 14.8344 54.5938 14.677 54.5938 14.5316C55.029 14.1562 55.4899 13.8292 56.0019 13.5627C56.1939 13.6596 56.1427 13.8292 56.1683 13.9866C56.1939 14.1562 56.1043 14.3136 56.1171 14.4832C55.6435 14.9434 55.1442 15.3673 54.7218 15.888Z" fill="#616161"/>
<path d="M56.1 14.483C55.8951 14.1923 56.0359 13.8653 55.9847 13.5626C56.548 13.2235 57.1497 12.9328 57.7898 12.739C58.0458 12.9449 57.8922 13.1508 57.7898 13.3567C57.2137 13.72 56.612 14.047 56.0872 14.483H56.1Z" fill="#565656"/>
<path d="M68.8874 16.978C68.913 17.305 68.849 17.6441 68.9642 17.9711C68.2217 18.4677 67.4152 18.831 66.5703 19.1459C67.3768 18.4435 68.1449 17.7168 68.8874 16.978Z" fill="#515151"/>
<path d="M57.8047 13.3569C57.8047 13.151 57.8047 12.9451 57.8047 12.7392C59.0592 12.2669 60.365 12.0852 61.722 12.1458C60.3394 12.3274 59.0464 12.7392 57.8175 13.3569H57.8047Z" fill="#484848"/>
<path d="M6.59773 45.3661C5.5352 45.3661 4.48547 45.3661 3.42294 45.3661C3.16691 45.3661 3.0901 45.2934 3.1029 45.0512C3.1157 44.2519 3.1157 43.4525 3.1029 42.6532C3.1029 42.4231 3.16691 42.3625 3.41014 42.3625C5.4968 42.3625 7.57065 42.3625 9.65731 42.3625C10.0542 42.3625 10.451 42.3989 10.8095 42.5563C11.4111 42.7985 11.7056 43.2588 11.68 43.937C11.6672 44.5789 11.3599 44.9785 10.7326 45.1965C10.387 45.3176 10.0286 45.3418 9.65731 45.3418C8.63318 45.3418 7.60906 45.3418 6.58493 45.3418L6.59773 45.3661Z" fill="white"/>
<path d="M113.182 57.8526C113.182 57.6588 113.182 57.4651 113.182 57.2713C113.182 57.1138 113.22 57.0291 113.412 57.0412C113.694 57.0654 113.988 57.0048 114.27 57.0896C114.641 57.1986 114.833 57.4166 114.859 57.7557C114.884 58.1433 114.731 58.4097 114.372 58.5672C114.027 58.7125 113.656 58.6762 113.297 58.6762C113.156 58.6762 113.156 58.5793 113.156 58.4824C113.156 58.2644 113.156 58.0585 113.156 57.8405C113.156 57.8405 113.169 57.8405 113.182 57.8405V57.8526Z" fill="white"/>
<path d="M22.1921 45.3662C20.912 45.3662 19.8495 45.3662 18.7869 45.3662C18.5565 45.3662 18.4413 45.3298 18.4541 45.0755C18.4669 44.2641 18.4669 43.4647 18.4541 42.6533C18.4541 42.4474 18.5181 42.3748 18.7485 42.3748C20.8352 42.3748 22.909 42.3748 24.9957 42.3748C25.2645 42.3748 25.5206 42.399 25.7894 42.4595C26.7367 42.6654 27.0823 43.2346 27.0567 43.9613C27.0311 44.7606 26.4551 45.2572 25.5462 45.3177C24.3556 45.4025 23.1523 45.3177 22.1921 45.3541V45.3662Z" fill="white"/>
<path d="M106.883 45.3661C105.834 45.3661 104.784 45.3661 103.747 45.3661C103.504 45.3661 103.414 45.3176 103.414 45.0633C103.427 44.264 103.427 43.4646 103.414 42.6653C103.414 42.4473 103.452 42.3625 103.708 42.3625C105.795 42.3625 107.882 42.3625 109.956 42.3625C110.314 42.3625 110.685 42.411 111.018 42.5321C111.658 42.7622 111.953 43.2224 111.94 43.937C111.94 44.5546 111.607 44.9785 110.98 45.1965C110.634 45.3176 110.276 45.3418 109.904 45.3418C108.893 45.3418 107.869 45.3418 106.858 45.3418L106.883 45.3661Z" fill="white"/>
<path d="M90.7565 49.5928C89.2203 49.5928 87.9785 49.3143 86.852 48.527C85.0342 47.2675 84.8933 44.482 86.9288 43.0408C88.1193 42.2051 89.4763 41.975 90.9229 42.0235C92.0238 42.0598 93.0736 42.302 93.9953 42.9076C95.8131 44.0823 96.274 46.2502 95.0066 47.8246C94.2769 48.7329 93.2784 49.2416 92.1006 49.4475C91.6014 49.5444 91.0893 49.5928 90.7565 49.5807V49.5928Z" fill="white"/>
<path d="M123.785 58.7728C123.772 59.8992 123.068 60.5895 121.941 60.5774C120.892 60.5653 120.175 59.8386 120.188 58.7728C120.188 57.7192 120.943 57.0046 122.031 57.0168C123.106 57.0289 123.811 57.7313 123.798 58.7728H123.785Z" fill="white"/>
</svg>
