<svg width="105" height="33" viewBox="0 0 105 33" fill="none" xmlns="http://www.w3.org/2000/svg">
<path d="M28.2541 0.0717757C29.3125 0.358878 29.86 1.04075 29.8114 1.99776C29.7627 2.85907 29.0692 3.57682 28.2054 3.66056C28.0351 3.67252 27.8769 3.67252 27.7066 3.67252C23.0954 3.67252 18.4721 3.67252 13.861 3.67252C11.4398 3.67252 9.28634 4.37832 7.53435 6.02916C4.86987 8.55327 3.96954 11.6396 5.08887 15.0968C6.19603 18.5421 8.71451 20.5398 12.3402 21.1738C12.7903 21.2456 13.2405 21.2576 13.6906 21.2576C16.0023 21.2576 18.314 21.2576 20.6378 21.2576C20.9298 21.2576 21.2218 21.2336 21.5016 21.114C22.2559 20.7791 22.6818 19.9895 22.5236 19.2239C22.3533 18.3985 21.6719 17.8243 20.7959 17.8243C18.3991 17.8243 16.0145 17.8243 13.6176 17.8243C11.89 17.8243 10.4543 17.1664 9.38368 15.8385C8.02102 14.1518 7.75335 12.2497 8.65368 10.2879C9.55401 8.32598 11.1843 7.22542 13.3743 7.16561C16.0875 7.09383 18.8006 7.06991 21.5138 7.16561C27.4389 7.3929 32.4759 11.9626 33.291 17.7286C34.24 24.3798 29.86 30.4329 23.1684 31.7488C22.6818 31.8445 22.1708 31.7966 21.7084 32.012H21.4043C21.2583 31.9402 21.1001 31.9761 20.9541 31.9761C16.051 31.9761 11.1357 31.9761 6.23253 31.9761C5.41737 32.012 4.8212 31.665 4.54137 30.9234C4.26154 30.1697 4.32237 29.44 4.9307 28.806C5.34437 28.3753 5.83103 28.1839 6.43936 28.1839C11.1113 28.1839 15.7711 28.1959 20.4431 28.1839C22.5236 28.1839 24.4581 27.6456 26.1371 26.3776C28.0107 24.9421 29.1422 23.0639 29.4707 20.7671C29.8722 18.0157 29.0449 15.5993 27.1104 13.6015C25.4557 11.9028 23.3874 11.0176 20.9784 10.9817C18.5694 10.9578 16.1726 10.9817 13.7636 10.9817C13.0823 10.9817 12.5592 11.2209 12.2428 11.8191C11.7562 12.7282 12.3523 13.8647 13.3987 13.9963C13.5811 14.0202 13.7636 14.0202 13.934 14.0202C16.124 14.0202 18.3018 14.0441 20.4918 14.0202C22.0978 13.9963 23.5091 14.4867 24.6771 15.5634C25.6017 16.4127 26.1857 17.4774 26.3682 18.7215C26.8306 21.7361 24.8596 24.2602 22.1829 24.9421C21.8179 25.0378 21.4529 25.0976 21.0758 25.0976C18.3626 25.0976 15.6495 25.1454 12.9363 25.0856C10.43 25.0258 8.15485 24.1884 6.12303 22.7529C3.68971 21.0303 2.07156 18.7335 1.24423 15.9103C1.06173 15.3002 1.08606 14.6542 1.01306 14.0321C1.01306 13.9723 1.01306 13.9006 0.976562 13.8527V11.197C1.04956 10.9219 1.04956 10.6228 1.06173 10.3357C1.17123 8.66093 1.86472 7.18953 2.75288 5.81383C4.55354 2.91888 7.15719 1.11252 10.4543 0.239252C11.1357 0.0598131 11.8657 0.0957009 12.5713 0.0358878C12.6322 0.0358878 12.7052 0.0358878 12.7538 0H13.2162C13.3622 0.0717757 13.5203 0.0358878 13.6663 0.0358878C18.3748 0.0358878 23.0954 0.0358878 27.8039 0.0358878C27.9499 0.0358878 28.1081 0 28.2662 0.0717757H28.2541Z" fill="#7E7E7E"/>
<path d="M104.936 22.1427C104.851 22.2025 104.863 22.2982 104.851 22.382C104.377 25.1214 102.698 26.856 100.094 27.7532C97.5754 28.6265 95.0083 28.5427 92.4533 27.9446C90.3971 27.4661 88.5356 26.5689 86.8567 25.3128C86.1632 24.7984 85.9077 24.0926 86.1023 23.2672C86.2848 22.4657 86.8323 21.9633 87.6353 21.7958C88.3166 21.6523 88.9493 21.7958 89.5211 22.2384C90.9568 23.351 92.5506 24.1405 94.3634 24.4515C95.5558 24.6549 96.7359 24.7027 97.9282 24.4156C98.4027 24.296 98.8529 24.1166 99.2787 23.8653C100.982 22.8724 101.177 20.2048 99.1936 19.176C97.9891 18.5539 96.6873 18.207 95.3733 17.896C93.7308 17.5012 92.1004 17.0945 90.5796 16.3767C89.1561 15.7068 87.9273 14.7977 87.3433 13.2904C86.224 10.3715 86.7837 6.31619 90.9325 4.40217C92.8426 3.51693 94.8623 3.38534 96.9306 3.58871C99.1327 3.80404 101.165 4.50983 103.014 5.70609C104.024 6.35207 104.328 7.52441 103.744 8.46946C103.148 9.42647 101.858 9.71357 100.836 9.09151C99.8871 8.51731 98.9259 8.00291 97.8552 7.69189C96.4318 7.27319 94.9839 7.11768 93.5239 7.51245C92.9764 7.66796 92.4654 7.91918 92.0518 8.30198C90.7743 9.46235 90.9325 11.4481 92.3681 12.3932C93.1224 12.8956 93.9863 13.1588 94.8379 13.422C96.2371 13.8526 97.6849 14.1038 99.0841 14.5584C100.228 14.9293 101.323 15.3719 102.333 16.0298C103.793 16.9988 104.669 18.3147 104.9 20.0373C104.9 20.1091 104.948 20.1809 104.973 20.2526V22.1427H104.936Z" fill="#A1A2A1"/>
<path d="M6.10938 31.9999C6.10938 31.9999 6.10938 31.964 6.10938 31.9401C6.41354 31.9401 6.72987 31.9281 7.03404 31.9281C11.6573 31.9281 16.2928 31.9281 20.9161 31.9281C21.0743 31.9281 21.2568 31.8683 21.3906 31.9999H6.10938Z" fill="#A1A2A1"/>
<path d="M28.2532 0.0717757C23.3501 0.0717757 18.4348 0.0717757 13.5316 0.0717757C13.4221 0.0717757 13.3005 0.0957009 13.2031 0H28.2532C28.2532 0 28.2532 0.0478505 28.2532 0.0717757Z" fill="#A1A2A1"/>
<path d="M78.4185 15.4437C78.9295 15.671 79.404 15.8504 79.8663 16.0777C82.1293 17.1663 83.346 18.9129 83.3581 21.425C83.3703 23.997 82.2753 25.923 79.9515 27.1431C78.455 27.9327 76.8125 28.2916 75.1335 28.3394C71.5565 28.4351 67.9917 28.3873 64.4148 28.3633C63.1738 28.3633 62.2734 27.4183 62.2734 26.1861C62.2734 19.3555 62.2734 12.5129 62.2734 5.68221C62.2734 4.46202 63.1859 3.50501 64.4269 3.50501C67.9066 3.50501 71.3984 3.39735 74.878 3.56483C76.3137 3.62464 77.6885 4.01941 78.9538 4.7252C82.9566 6.95025 82.8228 12.5488 79.4648 14.7738C79.1363 14.9891 78.7957 15.2045 78.4185 15.4437Z" fill="#A1A2A1"/>
<path d="M50.6273 28.3395C47.2815 28.3635 44.2641 27.3466 41.5632 25.4206C40.5533 24.7029 40.31 23.4827 41.0035 22.5616C41.697 21.6405 43.0597 21.461 44.0208 22.2027C45.639 23.4349 47.4153 24.2962 49.4714 24.5354C50.6638 24.679 51.8561 24.679 53.0119 24.2722C53.6933 24.033 54.2894 23.6621 54.7031 23.076C55.6399 21.7721 55.2262 20.0255 53.7663 19.2001C52.6713 18.578 51.4668 18.267 50.2501 17.9799C48.6928 17.6091 47.1233 17.2382 45.639 16.6042C45.5416 16.5683 45.4565 16.5205 45.3591 16.4846C42.9867 15.4558 41.551 13.7691 41.4293 11.1253C41.2955 8.27822 42.427 6.12495 44.9333 4.68943C46.3203 3.8999 47.8533 3.56495 49.435 3.5171C52.3793 3.43336 55.1167 4.11523 57.5866 5.73018C58.5721 6.37616 58.8762 7.52457 58.2922 8.46962C57.7204 9.4027 56.4551 9.71373 55.4452 9.13953C54.8369 8.79261 54.2286 8.42177 53.5838 8.13467C51.9169 7.40495 50.1893 7.05803 48.3643 7.42887C47.8898 7.52457 47.464 7.70401 47.0503 7.94326C45.3226 8.93616 45.2496 11.556 47.1233 12.5369C48.194 13.0872 49.3255 13.4341 50.4813 13.7332C52.1968 14.1638 53.9366 14.5466 55.5426 15.3003C56.0657 15.5515 56.5646 15.8266 57.0391 16.1616C58.5721 17.2382 59.3751 18.7216 59.4724 20.5638C59.6792 24.5115 57.4284 27.2988 53.3648 28.1242C52.8903 28.2199 52.4036 28.2917 51.9169 28.3395C51.4789 28.3754 51.0409 28.3395 50.6029 28.3395H50.6273Z" fill="#A1A2A1"/>
<path d="M70.9189 24.4996C69.6293 24.4996 68.3518 24.4996 67.0621 24.4996C66.7458 24.4996 66.6484 24.4039 66.6484 24.0928C66.6484 22.0831 66.6484 20.0734 66.6484 18.0756C66.6484 17.8603 66.6484 17.6809 66.9648 17.6809C69.5928 17.7168 72.2329 17.6091 74.8609 17.7407C75.603 17.7766 76.333 17.944 77.0265 18.2551C78.158 18.7695 78.8272 19.5949 78.888 20.851C78.9489 22.2027 78.4257 23.2315 77.1847 23.8655C76.3817 24.2723 75.5179 24.4517 74.6176 24.4637C73.3887 24.4876 72.1477 24.4637 70.9189 24.4637C70.9189 24.4637 70.9189 24.4637 70.9189 24.4756V24.4996Z" fill="white"/>
<path d="M70.6921 7.38094C71.7993 7.42879 73.1254 7.28523 74.4394 7.50056C74.7436 7.54841 75.0477 7.63215 75.3276 7.72785C76.6902 8.19439 77.4446 9.1514 77.4811 10.4314C77.5176 11.9028 76.8606 12.9316 75.4979 13.5058C74.5489 13.9125 73.5269 13.9843 72.5171 13.9963C70.7043 13.9963 68.8914 13.9963 67.0786 13.9963C66.738 13.9963 66.6406 13.9006 66.6406 13.5656C66.6528 11.6516 66.6528 9.72561 66.6406 7.79963C66.6406 7.47664 66.7258 7.35701 67.0786 7.36897C68.2101 7.3929 69.3416 7.36897 70.6921 7.36897V7.38094Z" fill="white"/>
</svg>
