<svg width="95" height="116" viewBox="0 0 95 116" fill="none" xmlns="http://www.w3.org/2000/svg">
<g clip-path="url(#clip0_1108_30017)">
<path d="M49.9919 64.0316C48.8665 64.0316 47.741 64.0611 46.6301 64.0611C43.8675 63.8101 41.105 63.9725 38.3424 63.9578C37.8601 63.9578 37.3777 63.8987 36.8954 63.9282C35.8576 63.8839 36.0622 63.2341 36.3692 62.6729C37.8162 60.0589 39.5995 57.7551 42.172 56.677C39.6287 58.0505 36.9538 59.7488 34.9221 62.3333C34.3521 63.0569 33.8989 64.0759 32.6711 63.9282C31.3849 63.9282 30.1132 63.9282 28.8416 63.9282C27.2191 63.9135 26.9414 63.6624 26.9122 62.0527C26.8683 59.7488 26.8099 57.4302 27.0291 55.1264C26.6345 54.5061 26.8099 54.004 27.3068 53.5166C28.1984 52.6305 29.1485 51.833 30.2009 51.2128C29.8063 51.5524 29.3678 51.5967 28.9293 51.2128C27.3361 47.8456 26.7075 44.4785 28.9731 41.1408C30.4786 38.9256 32.6127 37.4192 34.966 36.2525C37.1292 35.1745 39.3802 34.3474 41.8358 34.1407C42.8151 34.0521 43.5021 34.2884 44.0429 35.1154C44.9784 36.5774 46.0308 37.9657 47.3902 39.088C47.8433 39.4573 48.1064 39.9298 47.9164 40.5796C46.937 43.9025 45.11 46.6937 42.6397 49.0566C41.4266 50.2233 40.1257 50.2381 38.7517 49.3372C40.8565 50.4301 41.2804 50.4153 42.8882 48.8646C44.8761 46.93 46.6447 44.8181 47.7702 42.2337C48.1795 41.2737 48.6472 40.5501 49.9189 40.4172C51.1905 40.2843 51.9944 39.0733 52.696 38.453C52.2137 38.9404 51.5121 39.6788 50.5474 40.048C49.5388 40.432 48.9542 40.048 48.8372 38.9551C48.8372 38.837 48.8226 38.7336 48.8226 38.6155C48.6764 35.8095 48.0625 34.9086 45.3584 34.0078C44.1306 33.5943 43.3413 32.9297 43.0636 31.6449C42.9321 31.0246 42.6105 30.4339 42.5082 29.7988C42.3182 28.6469 41.8797 27.7165 40.7688 27.1996C40.228 26.9486 40.0087 26.4169 40.3303 25.8557C41.1342 24.4823 42.2305 23.4189 43.6337 22.6805C43.9699 22.5033 44.2914 22.6067 44.613 22.7248C45.3 23.0054 45.9577 22.6805 46.6155 22.6805C48.9395 22.6805 51.2636 22.5919 53.6023 22.7691C56.3794 22.9759 59.1566 22.7691 61.9338 22.7987C63.2347 22.8282 64.5209 22.8725 65.8218 22.8578C67.1666 22.8578 67.532 23.1679 67.5174 24.4675C67.4881 27.7165 67.6343 30.9655 67.4297 34.2145C67.3858 34.9677 67.6051 35.7061 67.6635 36.4445C67.6051 37.0943 67.1081 37.1386 66.6111 37.2272C65.281 37.4488 63.9363 37.6112 62.9131 37.7294C64.1848 37.4488 65.7049 37.6998 67.1373 38.453C67.5904 38.6893 67.9851 38.9699 67.8389 39.5902C67.5904 41.4362 67.7512 43.2822 67.7658 45.1135C67.7658 46.0882 67.3273 47.0481 67.7366 48.0228C68.0436 48.5693 67.7805 49.0566 67.5027 49.5144C65.3249 53.2508 62.7669 56.6918 59.8144 59.8374C58.6304 61.1075 57.5634 62.4809 56.2625 63.6329C55.8971 63.9578 55.5609 64.3417 54.9908 64.1202C53.6023 63.6181 52.1406 63.9873 50.7228 63.7658C50.0066 63.5147 50.2697 63.0864 50.6058 62.7468C50.9713 62.3628 51.4244 62.0674 51.819 61.7425C53.9531 59.9851 54.9178 57.7846 54.3477 55.4956C54.4208 59.2319 51.5705 61.3733 48.6618 63.367C49.0711 63.3375 49.6411 63.175 50.0504 63.751C50.0796 63.8692 50.0504 63.9578 49.9627 64.0316H49.9919Z" fill="#D4D4D4"/>
<path d="M44.1849 23.0498C42.8256 23.6257 41.8755 24.7186 40.9692 25.8262C40.5307 26.3579 40.6769 26.7566 41.2762 26.9486C42.4163 27.303 42.8402 28.13 42.9425 29.2377C42.9864 29.6069 43.1618 29.9613 43.2348 30.3305C43.6149 32.0289 44.3019 33.2399 46.2459 33.7863C48.6869 34.4804 49.4469 36.0458 49.3885 38.6598C49.3592 39.8265 49.5785 39.9594 50.6017 39.4425C51.8002 38.8518 52.7065 37.8771 53.6565 36.8876C53.6127 38.7041 51.1571 41.2738 49.5346 41.1556C48.95 41.1113 48.8038 41.3772 48.643 41.7611C47.2106 45.2612 44.7988 47.9786 42.007 50.4153C41.4808 50.8731 41.0131 51.006 40.3846 50.7107C39.2591 50.1643 38.2067 49.544 37.4759 48.4364C37.6074 48.4068 37.6951 48.3625 37.739 48.3921C40.3992 50.0313 41.2762 49.8984 43.3372 47.5798C45.0619 45.6304 46.3774 43.4447 47.2398 40.9636C47.4883 40.2548 47.4152 39.7822 46.8013 39.2948C45.4566 38.2315 44.4334 36.8581 43.5272 35.4108C43.2202 34.9087 42.8548 34.6428 42.2409 34.7019C37.5782 35.204 33.5001 37.0058 30.2844 40.4615C27.6827 43.2379 27.4342 46.5313 28.852 50.0018C28.9982 50.3562 29.1297 50.7107 29.2613 51.0651C29.2174 51.0947 29.159 51.1242 29.1151 51.1685C28.3989 51.2866 28.1796 50.755 27.9458 50.2529C27.6973 49.7064 27.7119 49.0862 27.4634 48.5545C26.8934 47.122 26.5718 45.6304 26.5864 44.0797C26.7764 43.1198 26.7472 42.1156 27.2442 41.2295C27.975 39.0733 29.539 37.6408 31.3222 36.3855C33.9679 34.5247 36.7743 33.0626 40.0045 32.531C41.0862 32.3538 41.13 32.1618 40.8523 31.0542C40.5307 29.7989 39.9168 28.9128 38.6013 28.4845C37.3297 28.071 37.1689 27.4359 37.622 26.1659C38.119 24.7629 39.0691 23.7291 40.253 22.8873C41.4955 22.459 42.4602 21.5434 43.6733 21.0265C46.0412 20.0223 48.453 20.037 50.9232 20.4358C52.3557 20.6573 53.6565 21.189 54.7966 22.0898C55.0305 22.2671 55.3813 22.4147 55.1913 22.7839C55.0597 23.0498 54.7236 22.9464 54.4751 22.9169C53.2619 22.7839 52.0487 22.5772 50.8355 22.4147C48.5699 22.1194 46.392 22.7839 44.1849 23.035V23.0498Z" fill="#A1A2A1"/>
<path d="M67.6365 39.4426C65.6633 37.9215 63.3831 38.084 61.0883 38.1873C63.0908 37.1831 65.2248 36.7548 67.4465 36.6662C68.2212 36.2822 68.9813 36.6662 69.6975 36.8434C71.5246 37.2865 72.9716 39.2802 73.0886 41.1705C73.2786 44.2866 72.0654 46.9597 70.7061 49.6327C69.8437 51.3458 68.4843 52.7045 67.5927 54.3881C65.7656 57.135 63.3246 59.2911 60.986 61.5507C60.0943 62.4072 59.1004 63.1309 58.1357 63.8988C56.0017 65.3904 53.8676 66.8672 51.792 68.4179C51.222 68.8314 50.5935 69.1563 50.0819 69.6732C49.7603 69.9981 49.4095 69.9095 49.1172 69.5551C50.5789 68.0635 52.2744 66.8377 53.663 65.2575C54.2915 64.8883 54.3061 63.8841 55.2124 63.8102C59.7581 59.4093 63.9093 54.6982 67.0519 49.1454C67.198 48.8795 67.3004 48.5989 67.4173 48.3183C67.3881 47.447 67.6512 46.62 67.8996 45.8225C68.5135 43.8879 68.7913 41.968 67.7096 40.0924C67.5927 39.8857 67.5781 39.6642 67.6219 39.4279L67.6365 39.4426Z" fill="#A1A2A1"/>
<path d="M49.1111 69.5699C49.6812 69.5994 50.0904 69.245 50.5289 68.9496C53.0869 67.2956 55.4548 65.3757 57.9104 63.5887C59.7521 63.0571 61.6376 63.3672 63.4939 63.2786C63.9763 63.2638 64.4733 63.2934 64.9556 63.2638C66.1396 63.1752 66.5635 62.7765 66.6073 61.5507C66.6658 60.0296 66.6365 58.5085 66.6219 57.0021C66.6219 56.0422 66.7681 55.1413 67.2066 54.2995C69.2529 51.6265 71.1385 48.85 72.2201 45.601C72.644 44.331 72.8925 43.0313 72.8486 41.6874C72.7463 39.0587 71.2993 37.3603 68.756 36.873C68.3175 36.7844 67.8643 36.7401 67.4258 36.681C67.1481 36.1493 67.2066 35.5734 67.2066 35.0122C67.2066 31.5564 67.1774 28.1154 67.2212 24.6597C67.2358 23.552 66.8266 23.2271 65.7742 23.2271C59.1382 23.2567 52.4876 23.2419 45.8516 23.2271C45.2962 23.2271 44.7261 23.3157 44.1999 23.0351C47.2986 21.322 50.5436 21.5583 53.8177 22.3706C54.1977 22.4592 54.5485 22.7102 55.1478 22.5626C52.7068 20.8199 50.1489 20.111 47.3279 20.3769C44.7115 20.6279 42.4167 21.6765 40.3411 23.2419C39.5079 23.744 38.5871 23.8179 37.6516 23.8179C35.1668 23.8031 32.6966 23.7883 30.2117 23.8179C28.5016 23.8326 28.0631 24.2609 28.0484 25.974C28.0192 29.799 28.0192 33.6387 28.0484 37.4637C28.0484 38.7781 27.9608 40.0482 27.5076 41.2887C27.2007 42.2191 26.8937 43.1495 26.6014 44.0799C26.5429 42.5292 26.8353 41.0081 26.9522 39.487C26.9814 39.1916 27.0399 38.8815 27.0253 38.5861C26.7622 33.6978 27.2445 28.8095 26.9522 23.9212C26.9083 23.1238 27.3907 22.6069 28.2239 22.7102C30.2117 22.9613 32.2288 22.8579 34.1728 22.6955C36.2046 22.5183 38.2509 22.9908 40.268 22.5035C40.6773 22.4001 41.1304 22.341 41.4081 22.0752C42.2559 21.2925 43.3814 21.0119 44.2876 20.3621C44.463 20.2292 44.6969 20.111 44.9015 20.111C47.4887 20.0372 50.0904 19.9043 52.6337 20.4802C53.2915 20.6279 53.9054 21.13 54.4901 21.5436C55.7617 22.4297 57.1649 22.725 58.6704 22.5183C60.249 22.2967 61.813 22.282 63.3916 22.5183C64.0055 22.6069 64.6633 22.5183 65.2918 22.4444C66.8996 22.282 67.9082 23.0647 67.8936 24.6449C67.8643 27.8348 68.069 31.0248 67.7766 34.2147C67.6451 35.6472 68.1421 36.238 69.633 36.5186C71.2847 36.8139 73.2725 38.9849 73.3164 40.698C73.3602 42.736 73.3018 44.7149 72.4101 46.6791C71.7816 48.0821 71.0216 49.4408 70.4953 50.9028C70.2469 51.5969 69.5891 51.9957 69.1506 52.5421C67.8059 54.2257 67.5866 56.1455 67.762 58.1245C67.9082 59.7195 67.8059 61.2997 67.7036 62.8799C67.6305 64.0318 66.9873 64.401 65.818 64.4748C64.0055 64.5782 62.2223 64.2976 60.4244 64.2976C59.4597 64.2976 58.5535 64.4748 57.6473 64.7554C57.3988 64.8293 57.0918 64.9179 56.9603 65.1099C56.1856 66.1732 55.0016 66.5867 53.9492 67.2217C52.6776 67.9749 51.669 69.0825 50.4412 69.88C49.6519 70.3969 49.0527 71.6817 47.6787 70.8104C48.1318 70.264 48.8919 70.2049 49.1842 69.5846L49.1111 69.5699Z" fill="white"/>
<path d="M0.936492 101.321C0.936492 101.321 1.03881 101.1 1.11189 101.085C2.90975 100.775 3.14361 99.5345 3.08515 97.9691C3.01206 95.5766 3.01206 93.1842 3.08515 90.7917C3.129 89.5659 2.70511 88.8423 1.53578 88.5469C1.33114 88.5026 1.08266 88.4731 0.994958 88.2073C1.03881 88.1334 1.06804 88.03 1.11189 88.03C3.58211 88.0153 6.06695 87.971 8.53718 88.0153C9.41418 88.0153 10.2327 88.355 10.9197 88.9309C12.5129 90.2601 12.4106 92.6377 10.7151 93.8192C10.4081 94.026 10.0135 94.085 9.7796 94.5133C10.145 94.7053 10.5104 94.8825 10.8612 95.0597C12.016 95.6357 12.6445 96.5809 12.6591 97.8657C12.6591 99.2244 12.089 100.273 10.8758 100.937C9.955 101.44 8.96106 101.587 7.93789 101.587C5.76 101.587 3.58211 101.558 1.40423 101.543C1.21421 101.543 1.02419 101.573 0.921875 101.307L0.936492 101.321Z" fill="#A1A2A1"/>
<path d="M81.7646 87.9414C84.5272 88.222 87.3043 87.6903 90.0523 88.1186C91.9378 88.414 92.9172 89.4625 93.0487 91.028C93.1949 92.7854 92.5079 93.893 90.71 94.5871C90.0815 94.8234 90.0523 95.0745 90.3885 95.5618C91.6747 97.4965 92.5079 99.8003 94.715 100.997C94.8612 101.07 94.9635 101.174 94.9343 101.336C94.8904 101.513 94.7296 101.543 94.5835 101.543C93.6772 101.543 92.7856 101.572 91.8794 101.543C91.3824 101.528 91.2655 101.041 91.0462 100.701C90.0231 99.1062 88.9999 97.5112 87.9913 95.9163C87.6405 95.3551 87.1874 94.9563 86.515 95.1926C85.8719 95.4141 86.2227 96.0344 86.135 96.4922C86.1204 96.5956 86.135 96.7137 86.135 96.8319C86.135 97.7771 86.0619 98.737 86.135 99.6822C86.2373 100.923 87.6551 100.568 88.3714 101.425H81.9985C81.9692 101.174 82.057 101.041 82.2177 101.011C83.7233 100.745 83.9133 99.6674 83.884 98.3826C83.8402 95.872 83.811 93.3614 83.884 90.8655C83.9279 89.5659 83.5771 88.7241 82.2323 88.5026C82.0716 88.4731 81.9108 88.3549 81.75 88.2811C81.7646 88.1629 81.7792 88.0596 81.8085 87.9414H81.7646Z" fill="#A1A2A1"/>
<path d="M23.0518 87.7051C26.9106 87.7051 29.3955 90.2452 29.4247 94.2474C29.4539 98.7665 26.7645 101.838 22.7887 101.838C18.9884 101.838 16.3427 98.9732 16.3281 94.8824C16.3281 90.5258 18.9591 87.7051 23.0518 87.7051Z" fill="#A1A2A1"/>
<path d="M77.4997 101.543C76.6665 101.543 75.848 101.543 75.0149 101.543C74.8102 101.543 74.5325 101.646 74.4302 101.351C74.3279 101.026 74.6348 101.041 74.8102 100.923C75.2926 100.613 76.3304 100.938 76.0965 99.7709C75.6288 97.5852 75.3072 97.1864 73.9624 97.1717C73.6263 97.1717 73.2901 97.1717 72.9539 97.1717C70.4837 97.1569 70.5129 97.1717 69.5628 99.3721C69.2413 100.125 69.2413 100.568 70.1183 100.79C70.3814 100.849 70.8345 100.908 70.776 101.277C70.7029 101.794 70.2352 101.514 69.9429 101.528C68.8174 101.558 67.6919 101.543 66.5664 101.558C66.3472 101.558 66.0694 101.646 65.9963 101.351C65.9233 101.07 66.201 100.967 66.391 100.893C67.3265 100.524 67.7065 99.7413 68.0719 98.87C69.5336 95.37 71.0245 91.8846 72.5008 88.3993C72.6616 88.0301 72.72 87.5871 73.2901 87.5576C73.904 87.528 74.0209 87.9711 74.1963 88.3846C75.6288 91.9289 77.0758 95.4733 78.479 99.0325C78.8152 99.889 79.1952 100.613 80.1307 100.879C80.3207 100.938 80.613 100.997 80.54 101.307C80.4669 101.602 80.1892 101.528 79.9699 101.528C79.1368 101.528 78.3182 101.528 77.4851 101.528L77.4997 101.543Z" fill="#A1A2A1"/>
<path d="M62.8829 88.0745H67.0487C64.3738 90.8952 63.8769 94.7349 62.3275 98.0726C61.9036 99.003 61.6113 99.9924 61.2312 100.938C61.0997 101.263 61.1143 101.765 60.6027 101.779C60.0327 101.779 60.0327 101.248 59.9011 100.879C58.761 97.7034 57.5771 94.543 56.2762 91.4269C55.75 90.1716 55.3846 88.8129 53.9375 88.104H59.3603C59.3311 88.2074 59.3457 88.3108 59.3018 88.3403C57.8255 89.0787 57.8255 89.0787 58.4541 90.6589C59.1557 92.4163 59.8865 94.1737 60.5881 95.9312C60.6904 96.2118 60.6612 96.581 61.0558 96.6105C61.3774 96.64 61.4797 96.2708 61.5674 96.0789C62.5175 93.967 63.2922 91.7813 63.9792 89.5808C64.1107 89.1525 63.9646 88.8572 63.5407 88.6652C63.2922 88.547 62.9268 88.5618 62.8537 88.0745H62.8829Z" fill="#A1A2A1"/>
<path d="M32.1875 87.9856C34.4531 88.0594 36.6017 88.1037 38.7066 87.9561C38.765 88.3548 38.6189 88.4139 38.4873 88.4729C37.201 89.0243 36.5579 90.0088 36.5579 91.4266C36.5579 93.9667 36.5871 96.5069 36.5579 99.0618C36.5579 99.8445 36.7918 100.169 37.5957 100.11C38.268 100.051 38.955 100.051 39.6274 100.11C40.8991 100.214 41.8491 99.8149 42.2438 98.5006C42.3023 98.2938 42.3607 97.9985 42.6531 98.0428C42.9454 98.0871 42.9015 98.3677 42.9162 98.5892C43.15 101.513 43.1208 101.528 40.2705 101.528C37.8295 101.528 35.3886 101.558 32.9476 101.558C32.6991 101.558 32.3483 101.705 32.2898 101.336C32.2167 100.952 32.6114 100.982 32.8306 100.923C34.1023 100.598 34.5262 99.7854 34.4823 98.4858C34.4092 95.99 34.3946 93.4794 34.4823 90.9688C34.5262 89.6249 34.1461 88.7683 32.7722 88.5025C32.6406 88.4729 32.5091 88.3696 32.3775 88.2957C32.3483 88.2957 32.3483 88.2366 32.2167 87.9856H32.1875Z" fill="#A1A2A1"/>
<path d="M45.5513 87.9415C47.6122 88.1483 49.6586 88.0892 51.7488 87.9858C51.6903 88.2074 51.6903 88.3255 51.6611 88.3403C50.0386 88.739 49.6732 89.8614 49.7317 91.4121C49.8194 93.7602 49.5709 96.1084 49.7609 98.4713C49.8632 99.6527 50.0971 100.657 51.4564 100.938C51.6464 100.967 51.8511 101.056 51.8218 101.292C51.778 101.602 51.5003 101.558 51.281 101.543C49.5124 101.425 47.7438 101.425 45.9898 101.543C45.7559 101.543 45.5074 101.587 45.4636 101.277C45.4343 101.041 45.6536 100.982 45.8436 100.952C47.2614 100.672 47.5391 99.6084 47.5391 98.3827C47.5391 95.7244 47.5245 93.0661 47.5391 90.4078C47.5391 89.6251 47.1591 89.123 46.5014 88.7981C46.1652 88.6356 45.8436 88.4732 45.522 88.3107L45.5659 87.9268L45.5513 87.9415Z" fill="#A1A2A1"/>
<path d="M29.2528 51.08C30.2029 51.3162 30.773 50.4006 31.8838 50.2529C30.0714 51.6854 28.3174 52.8521 27.2065 54.6982C27.1188 55.3923 26.9142 56.0568 26.6657 56.7214C25.9787 58.5674 25.891 60.4135 26.7241 62.2447C26.8995 62.6287 27.0311 63.0127 27.0896 63.4262C27.148 63.7806 27.1188 63.7954 26.5487 63.7659C25.8325 63.1751 25.0578 62.6435 24.4293 61.9198C22.7046 59.9704 22.573 57.8733 24.0493 55.7172C24.9555 54.388 26.271 53.4872 27.4696 52.4829C27.7766 51.6411 28.4489 51.2719 29.2528 51.08Z" fill="#A1A2A1"/>
<path d="M59.3011 80.9414C58.1317 81.3106 57.4447 81.0891 56.977 80.1291C56.6554 79.4941 56.2023 78.9181 55.8077 78.3126C55.6469 78.0763 55.4276 77.9139 55.1353 78.0173C54.8868 78.1059 54.8722 78.3865 54.8868 78.608C54.9599 79.4202 54.4629 80.4393 55.9392 80.8971C54.8722 81.2072 54.0829 81.0595 53.1182 81.0743C54.0244 79.9962 53.7175 78.8 53.6736 77.6924C53.6298 76.6143 54.2437 75.3147 52.6797 74.3547C54.1998 74.3547 55.4422 74.2957 56.6847 74.3843C57.4593 74.4286 58.1756 74.783 58.3363 75.6839C58.4825 76.5109 58.234 77.205 57.4155 77.5594C56.8893 77.7957 57.0355 78.1059 57.2547 78.4603C57.7955 79.3316 58.2925 80.2177 59.3157 80.9414H59.3011Z" fill="#A1A2A1"/>
<path d="M26.5604 63.7511C27.0135 63.3818 26.5166 63.1456 26.3996 62.9093C24.9964 59.9999 25.2888 57.2678 27.2036 54.6833C27.6128 55.3922 27.4228 56.1602 27.4374 56.9134C27.4667 58.7003 27.4959 60.4725 27.4374 62.2595C27.3936 63.4261 27.9198 63.8249 28.9722 63.8101C30.3608 63.8101 31.7494 63.8101 33.1379 63.8101C34.2488 63.5148 35.3743 63.2489 36.4852 63.8101C39.4816 63.8101 42.4634 63.8101 45.4598 63.8101C45.8691 63.8101 46.293 63.7954 46.6438 64.0612C44.6851 64.0612 42.7411 64.0612 40.7825 64.0612C39.1746 64.0612 37.5522 64.1941 35.9443 64.2236C33.021 64.2679 30.083 64.1055 27.1597 64.0169C26.9551 64.0169 26.7651 63.8397 26.5604 63.7363V63.7511Z" fill="white"/>
<path d="M63.7615 81.2219C61.8468 81.2219 60.5312 79.819 60.5312 77.7662C60.5312 75.5952 61.9198 74.1332 64.01 74.1775C65.8663 74.207 67.1234 75.5362 67.1234 77.4708C67.1234 79.7156 65.764 81.2219 63.7762 81.2072L63.7615 81.2219Z" fill="#A1A2A1"/>
<path d="M39.6018 77.9139H42.2181C41.4873 78.5784 41.6189 79.3612 41.6481 80.0848C41.6773 80.7641 41.3996 81.0743 40.7565 81.1186C40.3472 81.1481 39.9379 81.1924 39.5141 81.1924C37.9793 81.1924 36.6784 80.6755 36.0353 79.1544C35.4652 77.8105 35.7137 76.5257 36.7077 75.4623C37.8478 74.2366 39.2948 74.0003 40.8588 74.2661C41.4435 74.3695 41.4581 74.591 41.195 76.0088C40.6249 74.783 39.6895 74.783 38.7101 75.1079C37.687 75.4476 37.2485 76.2894 37.19 77.2936C37.1169 78.3865 37.2631 79.4793 38.3009 80.0996C38.944 80.4983 39.8649 80.7789 40.3472 80.07C40.7711 79.4498 40.7272 78.5341 39.5725 77.8991L39.6018 77.9139Z" fill="#A1A2A1"/>
<path d="M48.3099 74.3547H50.9701C50.1662 74.8569 50.1955 75.5067 50.1955 76.1417C50.1955 77.1607 50.2539 78.1945 50.0639 79.2135C49.8154 80.5869 48.9969 81.222 47.4914 81.2072C45.8105 81.2072 44.9919 80.5722 44.7434 79.1396C44.5973 78.3126 44.6557 77.4708 44.7434 76.6438C44.8311 75.7873 45.0504 74.8569 43.9688 74.3547H46.8044C45.942 74.7682 45.942 75.5214 45.9712 76.3041C46.0005 77.2198 45.9712 78.1354 46.0443 79.0363C46.132 79.9224 46.7021 80.3802 47.5645 80.4097C48.4268 80.4393 49.0115 80.0405 49.1869 79.1544C49.4208 77.9582 49.3769 76.7324 49.3038 75.5214C49.2746 74.9602 48.8069 74.7535 48.3245 74.3547H48.3099Z" fill="#A1A2A1"/>
<path d="M33.7822 76.6141V78.7702C33.2414 78.1795 32.8467 77.8841 32.2182 77.8841C30.8442 77.8989 30.7565 77.9875 30.8004 79.3462C30.815 80.0403 31.0927 80.3209 31.7504 80.2618C32.5398 80.2028 33.4314 80.5572 33.9722 79.5825C34.2791 81.0446 34.2061 81.1184 32.8321 81.0446C31.4435 80.9559 30.0695 81.0002 28.6809 81.1627C28.4617 81.0889 28.5055 80.8969 28.6371 80.8378C29.5872 80.3652 29.6456 79.5234 29.5872 78.6226C29.5579 78.0909 29.5872 77.5592 29.5872 77.0276C29.5872 76.0234 29.8357 74.901 28.3594 74.4727C29.251 74.0887 29.9964 74.2512 30.7127 74.2216C31.5312 74.1921 32.3644 74.2216 33.1975 74.2216C34.133 74.2216 34.3376 74.4579 34.2207 75.3588C34.1476 75.92 33.9283 76.2301 33.3291 75.92C33.256 75.8904 33.1975 75.8461 33.1244 75.8314C32.7298 75.6837 32.3205 75.5803 31.9551 75.8904C31.8381 75.9938 31.8089 76.171 31.9112 76.3039C32.2767 76.7027 32.6567 76.4516 33.0513 76.3335C33.3437 76.2449 33.7383 76.0381 33.7968 76.6141H33.7822Z" fill="#A1A2A1"/>
<path d="M68.8761 79.1987C69.3146 79.6417 69.1392 80.4097 69.87 80.454C70.5716 80.4983 71.3025 80.5426 71.6094 79.7599C71.9018 79.0214 71.3025 78.667 70.7909 78.3421C70.3816 78.0763 69.9431 77.84 69.5485 77.5742C68.8907 77.1311 68.5984 76.5108 68.7445 75.7134C68.8907 74.9602 69.4169 74.5319 70.1039 74.3399C70.5278 74.2218 70.9955 74.207 71.434 74.2218C72.3841 74.2661 72.8226 74.7091 72.4718 75.6986C72.1941 75.7872 72.1502 75.5804 72.0772 75.418C71.8141 74.8716 71.3463 74.8125 70.8347 74.9159C70.3962 75.0045 70.0601 75.2555 69.9577 75.7134C69.8262 76.2893 70.1624 76.6585 70.6009 76.9244C71.0248 77.1754 71.4633 77.3822 71.9018 77.6185C72.6326 78.032 72.998 78.6375 72.8811 79.494C72.7788 80.3211 72.2818 80.7789 71.551 81.0152C71.1563 81.1333 70.747 81.2071 70.3378 81.2219C68.6715 81.281 68.4668 81.0004 68.8761 79.2134V79.1987Z" fill="#A1A2A1"/>
<path d="M26.4152 75.8905C26.1083 75.477 25.9767 75.093 25.7136 74.9748C25.0705 74.6647 24.4274 74.8419 24.0181 75.4179C23.5504 76.0972 24.0181 76.5698 24.5297 76.9242C24.9682 77.2196 25.4652 77.3968 25.9329 77.6331C26.6053 77.9728 26.9414 78.534 26.9122 79.2872C26.883 80.0994 26.4299 80.6163 25.7136 80.9264C25.2167 81.148 24.7051 81.207 24.1789 81.207C22.5564 81.1775 22.4103 80.9707 22.9365 79.0804C23.1411 80.3357 23.7989 80.6754 24.7782 80.4243C25.1582 80.3357 25.4798 80.1437 25.6113 79.7302C25.7429 79.2724 25.5821 78.8884 25.2313 78.6226C24.7197 78.2534 24.1643 77.9285 23.6235 77.574C22.9511 77.1162 22.5272 76.496 22.7172 75.6542C22.9219 74.7681 23.5942 74.3841 24.4274 74.2217C25.9621 73.9411 26.576 74.3693 26.4152 75.8905Z" fill="#A1A2A1"/>
<path d="M33.7835 76.6143C33.0527 76.9983 32.3218 77.3675 31.4448 77.205C30.8894 77.1016 30.7725 76.7767 30.8163 76.3337C30.8602 75.8759 30.5971 75.1818 31.284 75.1079C32.1757 75.0193 33.155 74.7092 33.9297 75.5953C34.1781 74.6944 34.0174 74.2661 33.0088 74.3104C31.6348 74.3843 30.2609 74.3252 28.6384 74.3252C30.3486 75.2704 29.6031 76.7029 29.6908 77.8844C29.7931 79.0658 30.027 80.395 28.6969 81.1777C28.5361 81.03 28.4776 80.838 28.6238 80.6903C30.0562 79.3169 29.3254 77.5595 29.4277 75.9645C29.457 75.5214 29.0915 75.2261 28.7261 75.0046C28.5361 74.8864 28.3022 74.783 28.3607 74.5024C28.4192 74.2366 28.6677 74.1628 28.8869 74.1628C30.4947 74.1628 32.1026 74.0889 33.7104 74.1923C34.5728 74.2514 34.5728 75.0341 34.3828 75.6839C34.2805 76.0236 33.9881 76.3189 33.7835 76.6291V76.6143Z" fill="white"/>
<path d="M47.2266 86.9374C48.2059 85.8003 49.0536 84.7665 49.9745 83.777C50.5007 83.2011 51.2023 83.0681 51.7139 83.7475C52.1962 84.3825 51.8454 84.9732 51.2169 85.3425C50.3253 85.8889 49.4045 86.391 48.4982 86.9227C48.1474 87.1294 47.7966 87.1589 47.2266 86.9227V86.9374Z" fill="#A1A2A1"/>
<path d="M29.2656 51.0653C28.9733 51.9218 28.1255 52.0695 27.4824 52.4683C27.4824 51.1687 27.4677 49.8543 27.4531 48.5547C28.0816 49.3669 28.3594 50.445 29.2656 51.0653Z" fill="#D4D4D4"/>
<path d="M55.2103 63.825C54.7572 64.3714 54.2895 64.9179 53.661 65.2723C54.1433 64.46 54.0118 64.0318 52.9886 64.0613C51.9947 64.0908 51.0007 64.0613 49.9922 64.0465C49.9922 63.9727 50.0068 63.8989 50.0068 63.825C50.036 63.5001 50.1968 63.4706 50.4453 63.6035C52.0239 63.7512 53.6317 63.3672 55.1957 63.8398L55.2103 63.825Z" fill="white"/>
<path d="M52.6055 51.6411C52.6494 51.5082 52.6786 51.3752 52.7224 51.2423C53.1609 49.9575 53.0879 48.7022 52.0062 47.8013C50.8807 46.8562 49.5506 47.0186 48.2936 47.6389C46.8904 48.333 46.028 49.5144 45.6187 50.9913C45.1656 52.6305 45.838 53.8711 47.2704 54.7719C45.6333 55.0378 44.2448 53.8268 44.1571 52.0251C44.0255 49.5292 45.4141 47.9195 47.3435 46.6494C48.0159 46.2211 48.7613 45.9405 49.5652 45.8815C51.1 45.7486 52.5324 45.9848 53.3656 47.4912C54.1987 48.9976 53.8041 50.4005 52.6055 51.6411Z" fill="#A1A2A1"/>
<path d="M36.4722 63.8396C35.3614 64.0611 34.2359 64.0759 33.125 63.8396C35.7852 59.9556 39.1471 57.0758 43.8244 55.9829C40.5795 57.8585 37.9777 60.3395 36.4722 63.8544V63.8396Z" fill="#A1A2A1"/>
<path d="M50.4584 63.6034C50.3122 63.6772 50.166 63.7511 50.0199 63.8249C49.099 63.8249 48.1782 63.8249 47.0234 63.8249C50.8676 61.2109 54.8288 58.8628 53.6009 53.2952C54.9603 54.2994 55.4865 56.8986 54.7118 58.8923C54.1272 60.3839 53.0748 61.5063 51.8616 62.4958C51.3938 62.8798 50.9261 63.249 50.4584 63.6182V63.6034Z" fill="#A1A2A1"/>
<path d="M32.7178 47.2108C31.7678 46.0441 31.6654 44.6116 32.3817 43.3563C33.0248 42.2339 34.0187 41.5103 35.115 40.89C36.5474 40.063 38.0822 39.5018 39.7192 39.103C36.6936 41.1558 33.3756 42.928 32.7325 47.2108H32.7178Z" fill="#A1A2A1"/>
<path d="M67.6311 39.4426C68.6104 40.181 69.005 41.2 69.0489 42.3963C69.1366 44.5524 68.4058 46.4723 67.4264 48.3331C67.0902 47.7719 67.2072 47.1516 67.2072 46.5609C67.2072 44.5967 67.2072 42.6178 67.2072 40.6536C67.2072 40.2106 67.1195 39.7232 67.6311 39.4574V39.4426Z" fill="white"/>
<path d="M59.4749 38.32C56.0399 36.666 54.6075 33.1512 56.23 30.2271C56.8146 33.1807 57.8816 35.7651 59.4749 38.32Z" fill="#A1A2A1"/>
<path d="M48 24.3493C51.0841 23.3451 53.8028 23.5223 56.4485 25.073C53.7444 24.5561 50.9233 26.0329 48 24.3493Z" fill="#A1A2A1"/>
<path d="M35.9188 43.002C37.0297 45.7636 35.8457 49.4557 33.1562 51.3312C34.501 48.5548 35.3634 45.9261 35.9188 43.002Z" fill="#A1A2A1"/>
<path d="M50.7969 26.9193C52.9309 26.8897 54.8457 26.5796 56.8043 27.894C54.6557 27.8644 52.7117 28.529 50.7969 26.9193Z" fill="#A1A2A1"/>
<path d="M27.4803 41.3033C27.4803 35.6913 27.4803 30.0794 27.4219 24.4822C27.4219 23.5223 27.8165 23.2417 28.7081 23.2417C32.567 23.2712 36.4404 23.2417 40.2992 23.2417C39.4222 24.1721 38.5598 25.1025 38.0921 26.3578C37.7705 27.2144 37.9459 27.8789 38.8229 27.9971C40.5477 28.2186 40.9423 29.4591 41.3516 30.8473C41.9216 32.7968 41.9655 32.7081 39.9776 33.1512C34.8033 34.2736 30.4621 36.7251 27.4657 41.3033H27.4803Z" fill="#D4D4D4"/>
<path d="M47.6116 38.1284C46.6615 37.449 46.0915 36.5334 45.4922 35.4849C47.1877 35.7655 47.8893 36.6811 47.6116 38.1284Z" fill="white"/>
<path d="M67.2103 54.2993C67.2103 57.0167 67.1664 59.734 67.2103 62.4662C67.2249 63.4999 66.8595 63.8691 65.8363 63.8544C63.673 63.7953 61.4952 63.8396 59.3319 63.8396C58.8495 63.8396 58.3526 63.8396 57.9141 63.6033C59.3757 62.2594 60.852 60.9303 62.3137 59.5863C64.0677 57.9471 65.6609 56.1453 67.2249 54.3141L67.2103 54.2993Z" fill="#D4D4D4"/>
<path d="M5.1875 97.7478C5.1875 97.6739 5.1875 97.6001 5.1875 97.5263C5.1875 96.0101 5.57728 95.252 6.35684 95.252C9.01708 95.252 10.2595 96.1085 10.2887 97.9398C10.2887 99.0326 9.82099 99.7415 8.78321 100.066C8.63704 100.111 8.49087 100.155 8.34471 100.185C5.64062 100.849 5.1875 100.509 5.1875 97.7626V97.7478Z" fill="white"/>
<path d="M5.16499 91.5156C5.13575 89.064 5.7935 88.5767 8.16141 89.256C9.21381 89.5661 9.68155 90.3046 9.7254 91.3679C9.75463 92.3869 9.34536 93.1253 8.36604 93.4945C7.48904 93.8194 6.58281 93.7456 5.69119 93.716C5.31115 93.716 5.1796 93.4502 5.1796 93.1105C5.1796 92.5789 5.1796 92.0472 5.1796 91.5156H5.16499Z" fill="white"/>
<path d="M86.0946 91.5596C86.0946 91.4858 86.0946 91.4119 86.0946 91.3381C86.1531 89.049 85.6853 89.1524 88.1702 89.2115C89.9826 89.2558 90.8596 90.2453 90.6842 91.9288C90.5965 92.8297 90.0996 93.3761 89.2957 93.6715C89.1495 93.7158 89.0033 93.7453 88.8572 93.7749C86.3138 94.3065 86.0946 94.1441 86.0946 91.5596Z" fill="white"/>
<path d="M18.8859 93.8341C18.8566 92.9776 19.032 91.87 19.6313 90.851C20.4352 89.4775 21.6484 88.872 23.2124 88.9606C24.7325 89.0492 25.7703 89.8762 26.2527 91.2792C27.042 93.5535 27.232 95.8869 26.3696 98.176C25.8434 99.579 24.8495 100.495 23.2563 100.583C21.6484 100.672 20.5229 99.9482 19.7921 98.5452C19.0759 97.157 18.9005 95.6654 18.8859 93.8341Z" fill="white"/>
<path d="M72.9799 91.3975C73.4768 92.7266 73.9738 94.0705 74.4854 95.3997C74.7047 95.9608 74.4854 96.1824 73.93 96.1676C73.1845 96.1676 72.4244 96.1676 71.679 96.1676C70.992 96.1676 70.9335 95.8279 71.1528 95.2963C71.679 94.0114 72.1906 92.7118 72.7022 91.4122C72.7899 91.4122 72.8776 91.4122 72.9799 91.3975Z" fill="white"/>
<path d="M54.8602 76.0678C54.7871 75.3589 54.9333 74.8863 55.7957 74.9454C56.5557 75.0045 57.1404 75.2555 57.1404 76.1121C57.1404 77.0425 56.4534 77.2492 55.6787 77.2936C54.6994 77.3526 54.904 76.629 54.8602 76.0678Z" fill="white"/>
<path d="M65.8349 77.7958C65.791 78.1798 65.7764 78.4899 65.7179 78.7853C65.5425 79.7748 65.0456 80.5279 63.9932 80.6018C62.9846 80.6756 62.4146 80.0258 62.1076 79.125C61.786 78.165 61.6545 77.1903 62.0053 76.2304C62.3415 75.3443 62.9408 74.7683 63.9639 74.8274C64.9433 74.9012 65.411 75.5363 65.6302 76.4224C65.7472 76.895 65.7764 77.3971 65.8349 77.8106V77.7958Z" fill="white"/>
</g>
<defs>
<clipPath id="clip0_1108_30017">
<rect width="94" height="115.831" fill="white" transform="translate(0.9375 0.0249023)"/>
</clipPath>
</defs>
</svg>
