<svg width="180" height="42" viewBox="0 0 180 42" fill="none" xmlns="http://www.w3.org/2000/svg">
<path d="M0.93549 19.5999C0.93549 19.5999 1.00959 19.538 1.02195 19.4884C1.46657 17.7911 2.73871 17.1716 4.30726 17.0725C5.69054 16.9858 7.07383 17.0477 8.46947 17.0229C8.8647 17.0229 8.95115 17.2088 8.8894 17.5557C8.76589 18.2619 8.22246 18.7699 7.41966 18.8442C6.87622 18.8937 6.33279 18.869 5.78935 18.8814C5.30767 18.8937 4.82599 18.8937 4.34431 18.9433C3.62796 19.0053 3.25744 19.3274 3.17098 19.9345C3.08453 20.6035 3.34389 21.0619 4.03554 21.2973C4.78894 21.5451 5.55469 21.7433 6.32044 21.9539C6.69096 22.0654 7.07383 22.1645 7.43201 22.2884C8.59298 22.6973 9.24757 23.5026 9.34638 24.7415C9.45754 26.0796 9.02526 27.1327 7.81488 27.8017C7.20969 28.1362 6.54275 28.3097 5.83875 28.3097C4.51722 28.3097 3.19568 28.3097 1.8618 28.3097C1.46657 28.3097 1.34307 28.161 1.35542 27.7893C1.39247 26.2406 1.1578 26.5132 2.6152 26.476C3.64031 26.4513 4.66543 26.4513 5.69054 26.4141C6.66626 26.3769 7.20969 25.8566 7.17264 25.0389C7.14794 24.4566 6.78976 24.0106 6.12282 23.8123C5.41883 23.6017 4.71483 23.4283 3.99849 23.2424C3.47975 23.1061 2.98572 22.9327 2.51639 22.6849C1.77534 22.2884 1.26896 21.7185 1.0343 20.9008C1.00959 20.8017 1.00959 20.6778 0.898438 20.6159C0.898438 20.269 0.898438 19.9345 0.898438 19.5876L0.93549 19.5999Z" fill="#A1A2A1"/>
<path d="M179.936 18.8442C179.467 18.9557 179.01 18.8442 178.553 18.8194C174.588 18.5468 170.636 18.2743 166.684 17.9893C163.213 17.7415 159.73 17.5061 156.26 17.246C154.889 17.1468 153.172 15.6106 152.826 14.2106C152.727 13.7893 152.987 13.8389 153.221 13.8761C154.148 14.0371 155.062 14.1982 155.976 14.3716C163.818 15.7964 171.649 17.2336 179.492 18.6584C179.64 18.6831 179.8 18.7079 179.949 18.7451V18.8442H179.936Z" fill="#A1A2A1"/>
<path d="M157.974 42.0001C157.814 41.7895 157.332 41.901 157.369 41.5913C157.406 41.3063 157.826 41.3311 158.073 41.232C159.864 40.5382 161.556 39.6585 163.014 38.37C163.088 38.3081 163.162 38.2585 163.236 38.209C163.248 38.209 163.285 38.209 163.384 38.2338C163.001 39.2869 162.482 40.2037 161.581 40.8851C160.976 41.3435 160.284 41.6285 159.555 41.8143C159.37 41.8639 159.148 41.8391 158.987 41.9877H157.962L157.974 42.0001Z" fill="#A1A2A1"/>
<path d="M46.5844 18.4479C47.5231 17.2833 48.6964 16.9116 50.0056 16.8868C51.3518 16.8744 52.4387 17.3452 52.9821 18.5718C53.2291 18.3735 53.4762 18.1753 53.7108 17.9771C55.0694 16.8249 56.6256 16.6019 58.2683 17.1718C59.4539 17.593 59.9727 18.5842 59.9974 19.7735C60.0468 22.4868 60.0221 25.2125 60.0344 27.9258C60.0344 28.2355 59.8986 28.3346 59.6021 28.3098C58.9352 28.2727 58.4041 27.8638 58.1695 27.2196C58.0336 26.8479 58.0212 26.4514 58.0212 26.0674C58.0212 24.2833 58.0212 22.5116 58.0212 20.7275C58.0212 18.9806 57.1443 18.2868 55.4276 18.6585C54.0813 18.9435 53.3032 19.947 53.2909 21.4461C53.2785 23.5027 53.2909 25.5718 53.2909 27.6284C53.2909 28.0909 53.0645 28.3222 52.6116 28.3222C51.747 28.3222 51.3148 27.8886 51.3148 27.0213C51.3148 25.0638 51.3148 23.1187 51.3148 21.1612C51.3148 20.839 51.2901 20.5045 51.2407 20.1824C51.0801 19.1293 50.512 18.6213 49.4498 18.5718C47.9059 18.5098 46.8191 19.4266 46.6338 20.9629C46.5474 21.7558 46.5968 22.5488 46.5844 23.3541C46.5844 24.8408 46.5844 26.3275 46.5844 27.8019C46.5844 28.1735 46.4856 28.347 46.078 28.3222C45.6952 28.2974 45.2999 28.3222 44.9047 28.3222C44.67 28.3222 44.5589 28.2231 44.5712 27.9877C44.5712 27.8886 44.5712 27.8019 44.5712 27.7027C44.5712 24.3576 44.5712 21.0125 44.5712 17.6797C44.5712 17.0355 44.6453 16.9735 45.2752 17.085C46.0039 17.2089 46.4609 17.6178 46.5721 18.4603L46.5844 18.4479Z" fill="#A1A2A1"/>
<path d="M109.36 26.984C108.755 27.8017 108.064 28.2725 107.199 28.4955C104.791 29.115 102.493 27.9256 101.728 25.5469C100.999 23.2672 101.11 21.0247 102.58 19.03C103.432 17.8654 104.655 17.2212 106.1 17.1592C107.718 17.0973 109.336 17.1345 110.954 17.1221C111.262 17.1221 111.398 17.2212 111.398 17.5557C111.398 21.0371 111.398 24.5185 111.398 27.9999C111.398 28.3468 111.238 28.4212 110.941 28.3964C110.101 28.3345 109.521 27.9628 109.36 26.9716V26.984Z" fill="#A1A2A1"/>
<path d="M134.494 27.0089C133.617 28.1611 132.518 28.6319 131.184 28.6319C129.269 28.6319 127.812 27.8018 127.071 26.0301C126.083 23.6513 126.157 21.285 127.652 19.1168C128.491 17.8903 129.739 17.2212 131.221 17.1717C132.839 17.1097 134.457 17.1469 136.075 17.1345C136.408 17.1345 136.507 17.2832 136.507 17.5929C136.507 21.062 136.507 24.531 136.507 27.9876C136.507 28.3593 136.334 28.4336 136.013 28.4089C135.198 28.3221 134.642 27.9381 134.482 27.0089H134.494Z" fill="#A1A2A1"/>
<path d="M38.7639 27.0089C37.7882 28.2726 36.5655 28.6939 35.1204 28.6195C33.379 28.5204 32.0822 27.6903 31.3782 26.1045C30.4271 23.9611 30.4518 21.7806 31.5634 19.6868C32.4033 18.101 33.7989 17.2213 35.6021 17.1594C37.1707 17.0974 38.7516 17.147 40.3201 17.1346C40.6536 17.1346 40.7895 17.2585 40.7895 17.6054C40.7895 21.0744 40.7895 24.531 40.7895 28.0001C40.7895 28.3346 40.6536 28.4461 40.3325 28.4089C39.5173 28.3346 38.9492 27.9753 38.7639 27.0089Z" fill="#A1A2A1"/>
<path d="M69.1757 22.7842C68.0271 22.7842 66.8661 22.7842 65.7175 22.7842C65.347 22.7842 65.2358 22.8957 65.2358 23.2674C65.2482 25.4603 66.5821 26.7983 68.7805 26.8107C69.4227 26.8107 70.0526 26.7488 70.6825 26.6621C71.3248 26.5629 71.967 26.5505 72.461 27.0957C72.9427 27.6284 72.8686 27.9258 72.2017 28.0992C70.6702 28.5205 69.1016 28.6691 67.5331 28.4213C64.9765 28.0001 63.4079 26.216 63.1979 23.6267C63.1362 22.7718 63.1238 21.9045 63.2968 21.0621C63.9513 17.8284 66.335 16.5771 69.2128 16.8249C69.5957 16.8621 69.9785 16.924 70.3614 17.0479C71.9547 17.5435 72.8316 18.6461 73.0909 20.2815C73.2021 20.9753 73.1774 21.6815 73.1033 22.3877C73.0662 22.7098 72.9304 22.809 72.6216 22.809C71.473 22.809 70.312 22.809 69.1634 22.809L69.1757 22.7842Z" fill="#A1A2A1"/>
<path d="M116.713 18.4107C116.824 18.3364 116.874 18.3116 116.911 18.2744C118.257 16.9983 119.875 16.6886 121.641 17.0107C123.16 17.2833 124.012 18.4231 124.025 20.1824C124.049 22.747 124.025 25.2992 124.037 27.8638C124.037 28.2479 123.889 28.347 123.531 28.3098C122.814 28.2231 122.296 27.7895 122.098 27.0833C122.012 26.7611 121.974 26.439 121.974 26.1045C121.974 24.2957 121.974 22.4868 121.974 20.6656C121.974 20.3558 121.962 20.0461 121.876 19.7364C121.727 19.216 121.406 18.8691 120.888 18.6957C119.282 18.1629 116.627 19.0426 116.713 21.6691C116.775 23.701 116.713 25.7328 116.738 27.7523C116.738 28.1859 116.602 28.3346 116.17 28.3098C115.824 28.285 115.478 28.285 115.144 28.3098C114.786 28.3346 114.688 28.1735 114.688 27.839C114.688 26.5629 114.688 25.2744 114.688 23.9983C114.688 21.8549 114.688 19.724 114.688 17.5806C114.688 17.0355 114.737 16.9859 115.28 17.0479C116.071 17.1222 116.577 17.5311 116.688 18.3859L116.713 18.4107Z" fill="#A1A2A1"/>
<path d="M11.875 21.4955C11.875 20.1699 11.875 18.8442 11.875 17.5185C11.875 17.1345 12.0109 17.023 12.369 17.0601C13.283 17.1592 13.8388 17.8035 13.8511 18.8442C13.8635 20.4672 13.8511 22.0902 13.8511 23.7132C13.8511 23.9362 13.8511 24.1468 13.8511 24.3699C13.8388 25.1628 13.9129 25.9433 14.7651 26.3026C15.7531 26.7238 16.7412 26.7238 17.6552 26.0796C18.1122 25.7575 18.2357 25.2495 18.2357 24.7168C18.2357 22.3752 18.2357 20.0336 18.2357 17.692C18.2357 17.0353 18.3468 16.9486 18.9644 17.0973C19.5448 17.2336 19.9277 17.5929 20.0883 18.1752C20.1747 18.4973 20.2118 18.8194 20.2118 19.1415C20.2118 21.0247 20.2118 22.9203 20.2118 24.8035C20.2118 26.7982 19.3843 27.8513 17.4329 28.3097C16.2348 28.5946 15.0492 28.5451 13.9005 28.1114C12.5296 27.5911 11.8874 26.6371 11.8874 25.1752C11.8874 23.9362 11.8874 22.7097 11.8874 21.4707L11.875 21.4955Z" fill="#A1A2A1"/>
<path d="M178.031 17.1468C177.883 17.2955 177.747 17.184 177.624 17.1468C169.917 15.053 162.198 12.9716 154.491 10.8654C152.564 10.3327 151.267 9.15569 150.946 7.07428C150.86 6.50437 150.921 6.45481 151.477 6.67782C154.528 7.8672 157.578 9.05658 160.617 10.246C166.249 12.4513 171.868 14.6566 177.5 16.8619C177.673 16.9362 177.883 16.9734 178.019 17.1345L178.031 17.1468Z" fill="#A1A2A1"/>
<path d="M175.48 14.6567C175.27 14.7682 175.183 14.6815 175.097 14.6319C168.625 11.3859 162.03 8.37527 155.521 5.1912C154.891 4.88146 154.261 4.57173 153.681 4.18766C152.285 3.27084 151.853 1.88323 151.828 0.309783C151.828 -0.0495093 151.976 -0.0990668 152.372 0.136331C153.594 0.879694 154.817 1.63545 156.04 2.37881C162.425 6.28146 168.712 10.3452 175.035 14.3346C175.171 14.4213 175.307 14.5204 175.492 14.6567H175.48Z" fill="#A1A2A1"/>
<path d="M95.9879 28.5204C95.4444 28.5451 94.7651 28.4956 94.0982 28.3097C92.4555 27.8513 91.2699 26.8354 90.7511 25.2C89.9977 22.846 90.1706 20.6035 91.7639 18.6089C92.5296 17.6425 93.5795 17.1221 94.8022 17.0726C96.1855 17.0106 97.5688 17.0478 98.9644 17.0354C99.2979 17.0354 99.3967 17.1717 99.3473 17.4938C99.2114 18.3115 98.6803 18.7947 97.8034 18.8566C97.0006 18.9186 96.1855 18.8195 95.3827 18.9186C93.703 19.1168 92.789 19.9221 92.5049 21.6071C92.3567 22.4867 92.3691 23.3788 92.5667 24.2584C92.9372 25.8814 94.0364 26.7611 95.7038 26.7982C96.3584 26.8106 97.013 26.7611 97.6552 26.6619C97.9393 26.6124 98.2481 26.6124 98.5445 26.6248C98.9644 26.6496 99.3226 26.8354 99.5819 27.1823C99.9401 27.6903 99.8784 27.9133 99.2855 28.0867C98.2604 28.3841 97.2106 28.508 96.0002 28.508L95.9879 28.5204Z" fill="#A1A2A1"/>
<path d="M178.836 20.3309C178.181 20.43 177.564 20.5292 176.946 20.6159C171.969 21.2973 166.979 21.9787 162.002 22.6725C160.52 22.8708 158.963 21.9911 158.408 20.6159C158.284 20.3062 158.358 20.1699 158.692 20.1699C158.791 20.1699 158.877 20.1699 158.976 20.1699C165.472 20.1699 171.969 20.1699 178.453 20.1699C178.564 20.1699 178.7 20.1203 178.836 20.3309Z" fill="#A1A2A1"/>
<path d="M76.079 24.2833C76.079 23.2426 76.079 22.1895 76.079 21.1488C76.1037 18.5966 77.5734 17.0975 80.1053 17.0356C80.8834 17.0232 81.6615 17.0479 82.4396 17.0356C82.8719 17.0232 82.983 17.209 82.9213 17.6055C82.8101 18.3117 82.3408 18.7701 81.5504 18.8568C81.081 18.9064 80.6117 18.894 80.1547 18.9311C78.7961 19.055 78.0798 19.8232 78.0674 21.1984C78.0551 23.3665 78.0674 25.5347 78.0674 27.7152C78.0674 28.3347 78.0674 28.3347 77.4499 28.3347C77.1535 28.3347 76.8571 28.3223 76.5606 28.3347C76.1901 28.3595 76.0666 28.2108 76.079 27.8515C76.0913 26.6621 76.079 25.4727 76.079 24.2957V24.2833Z" fill="#A1A2A1"/>
<path d="M23.2642 24.0726C23.326 22.9575 23.1407 21.5699 23.363 20.2071C23.6718 18.3487 25.018 17.1469 26.883 17.0602C27.8093 17.023 28.748 17.0602 29.6866 17.0354C30.0448 17.0354 30.156 17.1841 30.1189 17.5186C30.0448 18.2496 29.5631 18.7575 28.785 18.8442C28.3281 18.8938 27.8464 18.8814 27.3894 18.9186C25.9444 19.0549 25.2651 19.8106 25.2527 21.285C25.2404 23.3416 25.2527 25.4106 25.2527 27.4673C25.2527 28.4089 25.3639 28.3097 24.4005 28.3221C23.2766 28.3221 23.2766 28.3221 23.2766 27.1823C23.2766 26.2283 23.2766 25.2743 23.2766 24.0726H23.2642Z" fill="#A1A2A1"/>
<path d="M87.2188 22.7841C87.2188 24.5186 87.2188 26.2531 87.2188 27.9876C87.2188 28.3717 87.1077 28.5204 86.7124 28.4956C86.3419 28.4708 85.959 28.4708 85.5885 28.4956C85.2551 28.508 85.1562 28.3593 85.1562 28.0496C85.1562 25.0142 85.1562 21.9912 85.1562 18.9558C85.1562 17.9274 85.7614 17.2089 86.6383 17.0726C87.0212 17.0106 87.2065 17.085 87.2065 17.5434C87.1818 19.2903 87.2065 21.0372 87.2065 22.7965L87.2188 22.7841Z" fill="#A1A2A1"/>
<path d="M163.537 34.0584C163.476 34.2566 163.29 34.2938 163.154 34.3681C159.116 36.4248 154.892 37.8372 150.371 38.3204C149.05 38.4566 147.753 38.3204 146.592 37.5894C146.345 37.4283 145.925 37.2549 146.012 36.9451C146.086 36.6726 146.53 36.7717 146.814 36.7593C152.125 36.5363 157.337 35.6938 162.475 34.3186C162.809 34.2319 163.13 34.1204 163.463 34.0212C163.488 34.0212 163.513 34.046 163.55 34.0584H163.537Z" fill="#A1A2A1"/>
<path d="M177.65 21.9044C177.539 22.1274 177.341 22.1521 177.181 22.2265C173.376 23.8991 169.535 25.4725 165.694 27.0583C164.459 27.5663 163.521 27.0955 163.175 25.807C163.076 25.4477 163.397 25.4725 163.57 25.4353C165.003 25.0513 166.423 24.6672 167.856 24.3079C170.956 23.515 174.068 22.7221 177.168 21.9415C177.316 21.9044 177.452 21.8176 177.65 21.9167V21.9044Z" fill="#A1A2A1"/>
<path d="M163.877 35.4585C163.754 35.8921 163.507 36.0904 163.284 36.2886C160.444 38.7417 157.245 40.4638 153.515 41.0957C152.49 41.2691 151.465 41.2319 150.501 40.7488C150.328 40.662 150.044 40.6001 150.081 40.3771C150.118 40.1293 150.415 40.1788 150.588 40.1541C153.787 39.5965 156.899 38.7169 159.913 37.5027C161.172 36.9948 162.383 36.3877 163.531 35.6567C163.606 35.6072 163.692 35.57 163.877 35.4709V35.4585Z" fill="#A1A2A1"/>
<path d="M176.332 24.0849C176.27 24.3699 176.097 24.4566 175.962 24.5681C173.059 26.984 170.157 29.3876 167.254 31.7911C166.933 32.0513 166.587 32.4106 166.143 32.2247C165.698 32.0389 165.822 31.5309 165.723 31.1592C165.55 30.5522 165.834 30.2796 166.328 29.9946C169.552 28.161 172.713 26.2283 175.887 24.3079C176.011 24.2336 176.147 24.1716 176.344 24.0725L176.332 24.0849Z" fill="#A1A2A1"/>
<path d="M172.571 29.8955C172.25 30.4159 171.843 30.7875 171.484 31.184C169.545 33.3398 167.582 35.4707 165.63 37.6141C165.531 37.7132 165.433 37.9362 165.272 37.8123C165.148 37.7256 165.272 37.5521 165.321 37.4283C165.383 37.2548 165.482 37.0813 165.507 36.8955C165.655 35.6937 166.371 34.9132 167.285 34.1822C168.915 32.8813 170.472 31.4937 172.065 30.1433C172.188 30.0442 172.287 29.8707 172.571 29.9079V29.8955Z" fill="#A1A2A1"/>
<path d="M109.261 21.8176C109.224 22.561 109.335 23.4778 109.187 24.3946C108.977 25.7822 108.026 26.6867 106.667 26.7982C105.271 26.9097 104.16 26.1787 103.777 24.8159C103.394 23.4654 103.419 22.0902 103.938 20.7769C104.395 19.6123 105.284 19.0052 106.519 18.9557C107.297 18.9185 108.075 18.9557 108.853 18.9309C109.162 18.9309 109.261 19.0424 109.261 19.3398C109.261 20.1079 109.261 20.8637 109.261 21.8052V21.8176Z" fill="white"/>
<path d="M134.348 21.7433C134.348 22.5114 134.372 23.2672 134.348 24.0353C134.261 25.9929 132.717 27.1575 130.815 26.7238C129.803 26.4884 129.185 25.8194 128.913 24.853C128.543 23.5645 128.555 22.2637 128.987 20.9875C129.432 19.6743 130.371 18.9929 131.754 18.9557C132.47 18.9433 133.187 18.9557 133.903 18.9309C134.261 18.9309 134.36 19.0672 134.36 19.4017C134.348 20.1822 134.36 20.9628 134.36 21.7433H134.348Z" fill="white"/>
<path d="M38.6189 21.8052C38.6189 22.5734 38.656 23.3415 38.6189 24.0973C38.5077 26.0796 36.8404 27.2442 34.9507 26.6867C33.9627 26.3893 33.3945 25.6707 33.1475 24.7044C32.8264 23.4406 32.8511 22.1645 33.2834 20.9256C33.728 19.6743 34.6419 19.0052 35.9511 18.9557C36.6922 18.9309 37.4456 18.9557 38.1866 18.9309C38.5448 18.9309 38.6436 19.0796 38.6313 19.4141C38.6313 20.207 38.6313 20.9999 38.6313 21.8052C38.6313 21.8052 38.6313 21.8052 38.6189 21.8052Z" fill="white"/>
<path d="M68.2751 21.1116C67.4846 21.1116 66.6942 21.1116 65.8914 21.1116C65.4097 21.1116 65.385 21.0496 65.5332 20.5912C65.8543 19.5877 66.5089 18.9434 67.5587 18.7452C68.2874 18.6089 69.0161 18.6089 69.7325 18.8072C70.597 19.0549 71.0787 19.6744 71.1528 20.5664C71.1898 20.9629 71.091 21.1735 70.6588 21.1116C70.6464 21.1116 70.6217 21.1116 70.6094 21.1116C69.8313 21.1116 69.0532 21.1116 68.2751 21.1116Z" fill="white"/>
</svg>
