<svg width="111" height="71" viewBox="0 0 111 71" fill="none" xmlns="http://www.w3.org/2000/svg">
<path d="M110.936 47.0649C110.893 47.1661 110.836 47.2528 110.807 47.3539C110.42 48.3364 109.458 48.8421 108.411 48.6109C107.435 48.3942 106.818 47.5706 106.861 46.487C106.89 45.4901 107.579 44.7243 108.598 44.5799C109.587 44.4209 110.506 44.9989 110.821 45.9813C110.85 46.068 110.893 46.1547 110.922 46.2269V47.0649H110.936Z" fill="#A1A2A1"/>
<path d="M51.2722 0.758564C51.2722 0.758564 51.2722 0.700771 51.2722 0.671875H53.5821C53.5821 0.671875 53.5821 0.729668 53.5821 0.744116C53.209 1.09087 51.6308 1.09087 51.2578 0.744116L51.2722 0.758564Z" fill="#A1A2A1"/>
<path d="M28.8438 70.2109C28.8438 70.2109 28.8438 70.1531 28.8438 70.1387C28.9011 70.0087 28.9872 69.9509 29.1163 69.9364C29.5898 69.8786 30.0489 69.8786 30.5224 69.9364C30.6515 69.9509 30.7519 70.0231 30.795 70.1387C30.795 70.1676 30.795 70.1965 30.795 70.2254H28.8581L28.8438 70.2109Z" fill="#A1A2A1"/>
<path d="M51.2712 0.758589C52.046 0.758589 52.8207 0.758589 53.5955 0.758589C62.1751 1.17759 69.5639 7.8093 71.0273 16.406C72.792 26.7509 66.0632 36.5467 55.8049 38.3672C49.2913 39.523 43.6385 37.6014 38.9326 32.9202C38.5452 32.5301 38.5596 32.5301 39.033 32.3134C40.5252 31.6632 42.1177 31.461 43.7102 31.3598C46.1349 31.2153 48.5309 31.6199 50.9125 31.9522C52.6198 32.1978 54.3128 32.5012 56.0345 32.559C59.8652 32.7035 62.462 30.8541 64.1263 27.5022C64.4993 26.7364 64.8437 25.9562 65.0589 25.1327C65.1019 24.9304 65.3745 24.6559 64.9728 24.5114C64.6428 24.3814 64.3702 24.3236 64.1693 24.7715C63.6815 25.8406 62.9498 26.7509 62.089 27.5166C60.6399 28.8169 58.9039 29.4093 56.9814 29.4816C54.9297 29.5538 52.8924 29.3515 50.8551 29.2648C49.363 29.1926 47.8709 29.0481 46.3788 29.1926C46.1923 29.207 45.9341 29.3226 45.8336 29.1348C45.7475 28.9759 45.9771 28.8169 46.0919 28.6725C50.9986 22.0552 55.9197 15.4524 60.8264 8.83512C60.9412 8.67619 61.1851 8.51726 61.099 8.34388C61.013 8.15605 60.7404 8.25719 60.5538 8.25719C54.4563 8.25719 48.3731 8.25719 42.2755 8.24274C41.7877 8.24274 41.5725 8.35833 41.4577 8.86401C41.0703 10.4967 40.6256 12.1004 40.2239 13.733C40.1808 13.9064 39.9656 14.1809 40.3386 14.2532C40.6399 14.311 40.9412 14.5566 41.1995 14.0798C41.9168 12.7361 42.8207 11.5514 44.3559 11.0457C45.3745 10.7134 46.4362 10.6122 47.4979 10.5544C49.1909 10.4678 50.8838 10.4533 52.5768 10.4678C52.7059 10.4678 52.8924 10.41 52.9642 10.54C53.0503 10.6845 52.8924 10.7856 52.8064 10.8868C47.7705 17.5474 42.749 24.208 37.7274 30.8686C37.4549 31.2153 37.3544 31.0709 37.1679 30.8252C35.231 28.0945 34.0402 25.0749 33.7102 21.7229C33.1937 16.536 34.5137 11.8548 37.7705 7.7804C40.9986 3.80715 45.1593 1.49545 50.2239 0.845278C50.5682 0.801933 50.9269 0.787485 51.2856 0.744141L51.2712 0.758589Z" fill="#A1A2A1"/>
<path d="M98.3531 51.4573H103.948C103.948 51.4573 103.948 51.544 103.92 51.5729C103.245 52.1941 103.016 53.0032 102.973 53.8701C102.944 54.5058 102.915 55.1416 102.915 55.7773C102.915 58.9414 102.915 62.0911 102.901 65.2553C102.901 65.5009 102.901 65.7465 102.901 65.9921C103.002 68.2894 102.844 68.0004 103.834 69.5319H98.3961C98.3961 69.5319 98.3961 69.4453 98.4104 69.4164C99.1995 68.6939 99.3717 67.7548 99.3717 66.7434C99.3717 65.0963 99.3717 63.4637 99.3861 61.8166C99.3861 61.441 99.2713 61.3109 98.8839 61.3109C96.5166 61.3109 94.1493 61.3109 91.782 61.3109C91.4234 61.3109 91.3086 61.441 91.3086 61.8022C91.3229 63.5071 91.3229 65.2119 91.3086 66.9168C91.3086 67.7837 91.5094 68.5784 92.0546 69.2574C92.2268 69.4741 92.2125 69.5753 91.9112 69.5753C90.2469 69.5753 88.5826 69.5753 86.9327 69.5753C86.8896 69.5753 86.8466 69.5464 86.8179 69.5319C86.7892 69.4019 86.8753 69.3586 86.9327 69.2863C87.4635 68.7373 87.7074 68.0582 87.7218 67.3069C87.8222 62.7557 87.8079 58.2046 87.7218 53.6534C87.7074 52.8154 87.3487 52.1363 86.7031 51.4862H92.2411C92.2411 51.4862 92.2411 51.5729 92.2411 51.5873C91.5238 52.4109 91.2942 53.3933 91.3086 54.4769C91.3373 55.8495 91.3086 57.2365 91.3086 58.6091C91.3086 58.9992 91.4377 59.1148 91.8251 59.1148C94.178 59.1148 96.531 59.1148 98.8839 59.1148C99.2569 59.1148 99.4004 58.9992 99.3861 58.6091C99.3717 57.4822 99.3861 56.3408 99.3861 55.2138C99.3861 53.899 99.4865 52.5553 98.3387 51.4717L98.3531 51.4573Z" fill="#A1A2A1"/>
<path d="M58.0859 69.5752C56.7373 69.5174 55.3886 69.7197 54.0544 69.4307C53.1361 69.2285 52.4331 68.6361 51.7731 67.9859C50.1376 66.3677 48.7746 64.5039 47.2825 62.7557C47.0529 62.4812 46.8234 62.2066 46.5795 61.9177C46.4216 62.1055 46.479 62.2644 46.479 62.4089C46.479 63.7237 46.479 65.0385 46.479 66.3533C46.479 67.4947 46.4934 68.6216 47.4977 69.5463H41.9597C41.9597 69.5463 41.9597 69.4596 41.9597 69.4452C42.7057 68.7372 42.8779 67.8414 42.8779 66.859C42.8779 62.6545 42.8779 58.4646 42.8779 54.2602C42.8779 53.2343 42.7344 52.2808 41.9453 51.5583C42.0457 51.3561 42.2036 51.4283 42.3327 51.4283C44.4274 51.4283 46.5221 51.4283 48.6024 51.4572C49.5493 51.4572 50.5106 51.5583 51.4288 51.8184C52.4762 52.1074 53.3944 52.6131 54.1404 53.4077C55.8191 55.1848 55.733 57.9444 53.9539 59.6204C53.1218 60.4151 52.1175 60.9208 51.0558 61.2964C50.8119 61.3831 50.7115 61.4553 50.9267 61.701C53.0644 64.2149 55.1304 66.8012 57.5981 69.0117C57.7703 69.1707 57.9424 69.3152 58.1146 69.4596C58.1146 69.503 58.1003 69.5319 58.0859 69.5752Z" fill="#A1A2A1"/>
<path d="M30.7923 70.1386C30.1323 70.1386 29.4867 70.1386 28.8267 70.1386C26.646 69.9652 24.7234 69.2284 23.3318 67.4224C22.3992 66.2232 22.1266 64.8217 22.1123 63.3624C22.0836 60.3138 22.0836 57.2508 22.0836 54.2023C22.0836 53.2053 21.9688 52.2518 21.1797 51.5294C21.2945 51.3849 21.4236 51.4427 21.5384 51.4427C23.1166 51.4427 24.7091 51.4427 26.2873 51.4427C26.4164 51.4427 26.6029 51.3849 26.6747 51.5005C26.7751 51.6594 26.5886 51.775 26.5025 51.8906C26.0721 52.5263 25.8569 53.2198 25.8569 53.9856C25.8569 57.2075 25.8569 60.4294 25.8569 63.6514C25.8569 64.0415 25.8999 64.4316 25.9717 64.8072C26.1582 65.9486 26.8038 66.7577 27.8511 67.2201C29.0563 67.7402 30.3045 67.8124 31.5527 67.4368C33.1309 66.96 33.963 65.8475 34.0491 63.9692C34.2213 60.5161 34.1639 57.063 34.0922 53.6099C34.0778 52.8008 33.8196 52.0928 33.1596 51.4716H38.6976C37.5355 52.4974 37.6359 53.8122 37.6359 55.0981C37.6359 55.1847 37.6359 55.2859 37.6359 55.3726C37.6216 58.1033 37.679 60.8195 37.5642 63.5502C37.4494 66.2954 36.2729 68.3181 33.7335 69.4451C32.7866 69.8641 31.7679 70.0664 30.7349 70.1386H30.7923Z" fill="#A1A2A1"/>
<path d="M1.95778 55.2282C2.53167 53.9567 3.04817 52.8009 3.56467 51.645C3.6651 51.3994 3.86596 51.4138 4.06682 51.4138C5.14286 51.4138 6.2189 51.4138 7.29494 51.4138C10.6235 51.4138 13.9377 51.4138 17.2663 51.4138C17.4097 51.4138 17.6106 51.3416 17.6967 51.5005C17.7828 51.6595 17.5962 51.775 17.5245 51.9051C14.1816 56.7741 10.8244 61.6287 7.48146 66.4977C7.35233 66.6711 7.23756 66.8589 7.10843 67.0323C6.99365 67.1912 7.02235 67.3068 7.23756 67.2924C10.3366 67.249 13.4642 67.538 16.4485 66.3099C16.9937 66.0787 17.5245 65.8042 18.084 65.5442C18.1558 65.7031 18.0553 65.8187 17.998 65.9343C17.5388 67.0034 17.0654 68.0581 16.6206 69.1273C16.4915 69.4452 16.305 69.5607 15.9607 69.5607C11.097 69.5607 6.23325 69.5607 1.36955 69.5607C1.24042 69.5607 1.02522 69.5752 0.982175 69.503C0.881744 69.3585 1.06826 69.2284 1.13999 69.1129C4.56898 64.1571 8.0123 59.2014 11.4556 54.2601C11.513 54.1734 11.5848 54.0868 11.6421 54.0001C11.7713 53.8122 11.7856 53.6822 11.4987 53.6822C8.77271 53.6822 6.04674 53.5666 3.43555 54.6069C2.97644 54.7947 2.53167 54.997 1.97213 55.2426L1.95778 55.2282Z" fill="#A1A2A1"/>
<path d="M83.5911 53.2776C83.5911 53.7111 83.5911 54.1445 83.5911 54.578C83.5911 54.867 83.548 54.9536 83.2611 54.7803C82.099 54.0434 80.8364 53.6822 79.4878 53.5522C75.5279 53.1765 72.3715 55.9217 72.142 59.9094C72.0272 61.961 72.3715 63.8826 73.7489 65.4719C75.571 67.5669 77.8952 67.9859 80.4634 67.3791C81.4533 67.1479 82.3715 66.7 83.2324 66.1365C83.6198 65.8909 83.6484 65.9198 83.6628 66.3677C83.6628 67.1623 83.6628 67.9425 83.6628 68.7372C83.6628 68.9684 83.6628 69.1562 83.3759 69.2429C80.2625 70.1965 77.1205 70.4854 73.9928 69.3296C69.9182 67.8125 67.8952 63.9837 68.3113 59.7793C68.7847 54.9103 72.4433 51.8906 76.8048 51.1682C78.9139 50.8215 80.9942 50.9081 83.0746 51.4138C83.4763 51.515 83.6341 51.7028 83.6054 52.1218C83.5767 52.5119 83.6054 52.902 83.6054 53.2776H83.5911Z" fill="#A1A2A1"/>
<path d="M65.4132 69.5464H59.9182C59.9182 69.5464 59.8895 69.4308 59.9325 69.3875C60.6499 68.665 60.8508 67.7548 60.8651 66.7868C60.8651 62.5679 60.8651 58.3635 60.8651 54.1446C60.8651 53.1477 60.6929 52.2086 59.7891 51.4573H65.4419C64.3371 52.4542 64.3945 53.6967 64.3945 54.9248C64.3945 58.8403 64.3945 62.7557 64.3945 66.6856C64.3945 67.7259 64.5667 68.6939 65.4132 69.5464Z" fill="#A1A2A1"/>
<path d="M110.579 46.6605C110.565 47.6863 109.847 48.3798 108.843 48.3654C107.867 48.3509 107.15 47.5707 107.164 46.5883C107.193 45.5914 107.925 44.8545 108.886 44.8545C109.89 44.8545 110.579 45.6058 110.565 46.6605H110.579Z" fill="white"/>
<path d="M46.4766 56.8608C46.4766 55.8927 46.4766 54.9103 46.4766 53.9422C46.4766 53.5955 46.5913 53.4799 46.9357 53.4944C47.7391 53.5088 48.5282 53.5666 49.303 53.7833C50.4364 54.1012 51.2542 54.7947 51.455 56.0083C51.6702 57.2942 51.3833 58.4356 50.2499 59.2447C49.2169 59.9671 48.0404 60.1405 46.8352 60.2416C46.534 60.2705 46.4766 60.0827 46.4766 59.8371C46.4766 58.8402 46.4766 57.8577 46.4766 56.8608Z" fill="white"/>
<path d="M108.141 46.5738C108.141 46.5738 108.141 46.4438 108.141 46.386C108.141 45.4613 108.428 45.259 109.331 45.5191C109.733 45.6347 109.963 46.1114 109.69 46.4293C109.403 46.7616 109.489 46.9783 109.69 47.2673C109.748 47.354 109.877 47.484 109.748 47.5852C109.604 47.6863 109.504 47.5563 109.432 47.4262C109.346 47.2673 109.26 47.0939 109.159 46.935C109.044 46.7327 108.844 46.7761 108.671 46.7905C108.442 46.805 108.485 46.9928 108.471 47.1373C108.471 47.1806 108.471 47.224 108.471 47.2817C108.456 47.3973 108.514 47.5707 108.341 47.5707C108.141 47.5707 108.184 47.3829 108.184 47.2529C108.184 47.0217 108.184 46.7905 108.184 46.5593L108.141 46.5738Z" fill="#A1A2A1"/>
<path d="M108.846 46.5014C108.602 46.5303 108.43 46.4725 108.43 46.1546C108.43 45.8657 108.544 45.7501 108.817 45.779C109.075 45.8079 109.405 45.7645 109.42 46.1257C109.434 46.5014 109.09 46.458 108.846 46.5014Z" fill="white"/>
</svg>
