<svg width="157" height="44" viewBox="0 0 157 44" fill="none" xmlns="http://www.w3.org/2000/svg">
<g clip-path="url(#clip0_5519_18659)">
<path d="M0 24.5695V0H8.03478C11.0794 0 13.0663 0.123007 13.9907 0.369021C15.4119 0.738041 16.6031 1.53986 17.5597 2.77449C18.5163 4.00911 18.9992 5.60364 18.9992 7.55809C18.9992 9.06606 18.7233 10.3326 18.1714 11.3622C17.6195 12.3918 16.9158 13.1982 16.065 13.7859C15.2141 14.3736 14.3495 14.7608 13.4664 14.9522C12.2706 15.1845 10.5367 15.303 8.26933 15.303H5.00391V24.574H0V24.5695ZM5.00851 4.1549V11.1253H7.74963C9.72268 11.1253 11.0426 10.9977 11.7095 10.738C12.3764 10.4829 12.8961 10.0774 13.2732 9.53075C13.6504 8.98406 13.8389 8.34624 13.8389 7.62187C13.8389 6.72893 13.5722 5.99089 13.0433 5.40774C12.5144 4.82916 11.8429 4.46469 11.0288 4.31891C10.431 4.20957 9.23056 4.15034 7.42308 4.15034H5.00391L5.00851 4.1549Z" fill="#345BB0"/>
<path d="M27.6306 24.5693H22.875V6.76972H27.2902V9.2982C28.0445 8.10458 28.7252 7.31642 29.3277 6.93373C29.9302 6.5556 30.6154 6.36426 31.3835 6.36426C32.4643 6.36426 33.5083 6.66039 34.5155 7.25264L33.0438 11.3574C32.2435 10.8426 31.4985 10.5875 30.8132 10.5875C30.1279 10.5875 29.5852 10.7697 29.1207 11.1342C28.6562 11.4987 28.2928 12.1547 28.0307 13.1023C27.7639 14.0499 27.6306 16.0408 27.6306 19.0704V24.5693Z" fill="#345BB0"/>
<path d="M35.4609 15.4215C35.4609 13.8589 35.8519 12.3418 36.6291 10.8794C37.4064 9.41698 38.5102 8.29625 39.9359 7.52632C41.3617 6.75638 42.9576 6.36914 44.7145 6.36914C47.4326 6.36914 49.6586 7.24386 51.3971 8.99329C53.1356 10.7427 54.0049 12.9523 54.0049 15.622C54.0049 18.2917 53.1264 20.5468 51.3741 22.319C49.6218 24.0912 47.4096 24.9751 44.7513 24.9751C43.1048 24.9751 41.5365 24.606 40.0417 23.868C38.547 23.13 37.411 22.0502 36.6337 20.6243C35.8565 19.1983 35.4655 17.4671 35.4655 15.4215M40.3315 15.6721C40.3315 17.4398 40.7546 18.7883 41.6008 19.7268C42.4471 20.6653 43.4911 21.1345 44.7329 21.1345C45.9747 21.1345 47.0141 20.6653 47.8557 19.7268C48.6928 18.7883 49.1159 17.4261 49.1159 15.6357C49.1159 13.8452 48.6928 12.5514 47.8557 11.6129C47.0141 10.6744 45.9747 10.2051 44.7329 10.2051C43.4911 10.2051 42.4471 10.6744 41.6008 11.6129C40.7546 12.5514 40.3315 13.9044 40.3315 15.6675" fill="#345BB0"/>
<path d="M57.3732 6.76972H61.7562V9.19797C63.3245 7.31187 65.1918 6.36426 67.358 6.36426C68.5078 6.36426 69.5058 6.60116 70.3521 7.06585C71.1983 7.5351 71.8928 8.24581 72.4309 9.19341C73.222 8.24581 74.0728 7.5351 74.9834 7.06585C75.8987 6.5966 76.8737 6.36426 77.9085 6.36426C79.2285 6.36426 80.3461 6.62849 81.2567 7.16152C82.172 7.69455 82.8527 8.4736 83.3034 9.49865C83.6299 10.2595 83.7955 11.4895 83.7955 13.1843V24.5647H79.0399V14.3916C79.0399 12.6239 78.879 11.485 78.5478 10.9702C78.1063 10.3005 77.4302 9.96335 76.515 9.96335C75.8481 9.96335 75.2226 10.1638 74.6385 10.5647C74.0544 10.9656 73.6313 11.5579 73.3691 12.3324C73.1116 13.1114 72.9782 14.3369 72.9782 16.0135V24.5602H68.2226V14.8062C68.2226 13.075 68.1399 11.9588 67.9697 11.4531C67.7995 10.952 67.5374 10.5784 67.1832 10.3278C66.8291 10.0818 66.3462 9.95879 65.7345 9.95879C65.0032 9.95879 64.3409 10.1547 63.7568 10.5465C63.1681 10.9383 62.7496 11.5032 62.4967 12.2367C62.2437 12.9747 62.1149 14.1957 62.1149 15.9041V24.551H57.3594V6.76972H57.3732Z" fill="#345BB0"/>
<path d="M87.4375 15.4215C87.4375 13.8589 87.8284 12.3418 88.6057 10.8794C89.383 9.41698 90.4868 8.29625 91.9125 7.52632C93.3383 6.75638 94.9342 6.36914 96.6911 6.36914C99.4092 6.36914 101.635 7.24386 103.374 8.99329C105.112 10.7427 105.981 12.9523 105.981 15.622C105.981 18.2917 105.103 20.5468 103.351 22.319C101.598 24.0912 99.3862 24.9751 96.7279 24.9751C95.0814 24.9751 93.5084 24.606 92.0137 23.868C90.519 23.13 89.383 22.0502 88.6057 20.6243C87.8284 19.1983 87.4375 17.4671 87.4375 15.4215ZM92.3126 15.6721C92.3126 17.4398 92.7358 18.7883 93.582 19.7268C94.4283 20.6653 95.4723 21.1345 96.7141 21.1345C97.9558 21.1345 98.9953 20.6653 99.8369 19.7268C100.679 18.7883 101.097 17.4261 101.097 15.6357C101.097 13.8452 100.679 12.5514 99.8369 11.6129C98.9953 10.6744 97.9558 10.2051 96.7141 10.2051C95.4723 10.2051 94.4283 10.6744 93.582 11.6129C92.7358 12.5514 92.3126 13.9044 92.3126 15.6675" fill="#345BB0"/>
<path d="M117.946 6.76977V10.5238H114.699V17.6992C114.699 19.1525 114.732 19.9998 114.791 20.2367C114.856 20.4782 114.998 20.6741 115.214 20.8335C115.435 20.9884 115.702 21.0704 116.019 21.0704C116.461 21.0704 117.096 20.9201 117.933 20.6149L118.337 24.2686C117.234 24.7379 115.983 24.9702 114.58 24.9702C113.724 24.9702 112.947 24.829 112.262 24.542C111.577 24.2595 111.071 23.8905 110.749 23.4349C110.427 22.9839 110.206 22.3689 110.082 21.5989C109.981 21.0522 109.93 19.9452 109.93 18.2823V10.5238H107.75V6.76977H109.93V3.23446L114.704 0.487305V6.77432H117.951L117.946 6.76977Z" fill="#345BB0"/>
<path d="M131.655 18.9071L136.392 19.6952C135.785 21.4173 134.819 22.7248 133.508 23.6269C132.193 24.5244 130.551 24.9754 128.578 24.9754C125.455 24.9754 123.142 23.964 121.642 21.9412C120.456 20.3194 119.867 18.2784 119.867 15.8091C119.867 12.8569 120.644 10.5517 122.204 8.87972C123.758 7.20774 125.727 6.37402 128.109 6.37402C130.781 6.37402 132.892 7.24874 134.437 8.99817C135.983 10.7476 136.723 13.4264 136.654 17.0346H124.742C124.775 18.4332 125.161 19.5175 125.892 20.292C126.623 21.0711 127.539 21.4583 128.633 21.4583C129.378 21.4583 130.004 21.2578 130.51 20.8524C131.02 20.4515 131.402 19.8045 131.66 18.9071M131.926 14.1462C131.894 12.784 131.535 11.7453 130.859 11.0392C130.183 10.3285 129.36 9.97311 128.389 9.97311C127.355 9.97311 126.495 10.3467 125.819 11.0938C125.142 11.841 124.811 12.8615 124.821 14.1462H131.926Z" fill="#345BB0"/>
<path d="M156.18 12.0317L151.494 12.87C151.337 11.9406 150.979 11.2435 150.418 10.7743C149.861 10.305 149.134 10.0681 148.242 10.0681C147.06 10.0681 146.113 10.4736 145.409 11.2845C144.705 12.0955 144.351 13.4485 144.351 15.3483C144.351 17.4577 144.71 18.952 145.423 19.8221C146.14 20.6923 147.102 21.1296 148.307 21.1296C149.208 21.1296 149.948 20.8745 150.523 20.3688C151.098 19.8586 151.508 18.9838 151.742 17.7447L156.41 18.5328C155.927 20.6558 154.994 22.2595 153.619 23.3438C152.243 24.428 150.399 24.9702 148.086 24.9702C145.455 24.9702 143.362 24.1501 141.799 22.5055C140.235 20.8608 139.453 18.5875 139.453 15.6854C139.453 12.7834 140.24 10.4599 141.808 8.81984C143.376 7.1843 145.496 6.36426 148.169 6.36426C150.358 6.36426 152.096 6.83351 153.389 7.76289C154.681 8.69683 155.605 10.1182 156.171 12.0271" fill="#345BB0"/>
<path d="M2.82819 40.8881H0.390625L4.10677 30.2275H7.04105L10.7526 40.8881H8.31502L5.6199 32.6649H5.53711L2.83739 40.8881H2.82819ZM2.67642 36.6968H8.4346V38.4553H2.67642V36.6968Z" fill="#345BB0"/>
<path d="M16.0008 43.9996C15.2741 43.9996 14.6532 43.9039 14.1381 43.708C13.623 43.5121 13.2091 43.2525 12.9055 42.9244C12.602 42.5919 12.4042 42.2274 12.3122 41.8265L14.3819 41.5486C14.4463 41.6944 14.5474 41.831 14.6808 41.9632C14.8188 42.0953 14.9982 42.2001 15.2235 42.2821C15.4489 42.3641 15.7248 42.4051 16.0514 42.4051C16.5389 42.4051 16.939 42.2912 17.2564 42.0588C17.5737 41.831 17.7301 41.4529 17.7301 40.929V39.4666H17.6335C17.5369 39.6898 17.3897 39.8994 17.192 40.0953C16.9942 40.2912 16.7413 40.4552 16.4331 40.5782C16.125 40.7012 15.757 40.765 15.3293 40.765C14.7222 40.765 14.1703 40.6237 13.6782 40.3458C13.1815 40.0679 12.7906 39.6397 12.4962 39.0611C12.2019 38.4825 12.0547 37.7536 12.0547 36.8652C12.0547 35.9768 12.2065 35.2023 12.5008 34.5964C12.7998 33.9905 13.1953 33.5349 13.692 33.2342C14.1887 32.9335 14.7314 32.7832 15.3247 32.7832C15.7754 32.7832 16.1572 32.8607 16.4607 33.011C16.7643 33.1613 17.0126 33.3481 17.2012 33.5714C17.3897 33.7946 17.5323 34.0133 17.6335 34.2274H17.7163V32.8834H19.9377V40.9563C19.9377 41.6215 19.7675 42.1818 19.4318 42.6283C19.096 43.0793 18.6315 43.4165 18.0382 43.6443C17.4449 43.872 16.7597 43.9905 15.9916 43.9905M16.0468 39.1067C16.4055 39.1067 16.7137 39.0156 16.962 38.8379C17.2104 38.6602 17.4035 38.4005 17.5415 38.0679C17.6749 37.7308 17.7439 37.3299 17.7439 36.8607C17.7439 36.3914 17.6795 35.9859 17.5461 35.6397C17.4127 35.2935 17.2196 35.0247 16.9666 34.8333C16.7137 34.642 16.4101 34.5463 16.0468 34.5463C15.6834 34.5463 15.3707 34.642 15.1177 34.8379C14.8648 35.0338 14.6762 35.3071 14.5428 35.6534C14.4141 35.9996 14.3497 36.4005 14.3497 36.8561C14.3497 37.3117 14.4141 37.7171 14.5474 38.0497C14.6808 38.3868 14.8694 38.642 15.1177 38.8242C15.3661 39.0064 15.6788 39.0976 16.0468 39.0976" fill="#345BB0"/>
<path d="M26.1543 41.0426C25.3265 41.0426 24.609 40.874 24.0111 40.5414C23.4132 40.2043 22.9533 39.7305 22.6314 39.1155C22.3094 38.5004 22.1484 37.7715 22.1484 36.9287C22.1484 36.0858 22.3094 35.3842 22.6314 34.7647C22.9533 34.1451 23.4086 33.6576 23.9973 33.3114C24.586 32.9651 25.2713 32.792 26.0669 32.792C26.6004 32.792 27.0972 32.874 27.5571 33.0426C28.017 33.2111 28.4217 33.4617 28.7667 33.7988C29.1116 34.136 29.3784 34.5596 29.5715 35.0653C29.7647 35.5756 29.8613 36.1678 29.8613 36.8467V37.4571H23.0453V36.0813H27.7548C27.7548 35.7624 27.6859 35.4799 27.5433 35.2339C27.4053 34.9879 27.2075 34.7965 26.9638 34.6553C26.7154 34.5141 26.4303 34.4457 26.1037 34.4457C25.7772 34.4457 25.4644 34.5232 25.2023 34.6781C24.9401 34.833 24.7378 35.038 24.5906 35.2977C24.4434 35.5574 24.3698 35.8444 24.3652 36.1587V37.4662C24.3652 37.8626 24.4388 38.2043 24.5906 38.4913C24.7378 38.7783 24.9493 39.0016 25.2253 39.1565C25.5012 39.3114 25.8232 39.3888 26.1957 39.3888C26.4441 39.3888 26.674 39.3524 26.881 39.284C27.088 39.2157 27.2627 39.1109 27.4099 38.9697C27.5571 38.833 27.6675 38.6599 27.7456 38.4594L29.8153 38.5961C29.7095 39.0881 29.4933 39.5164 29.1714 39.8854C28.8448 40.2499 28.4309 40.5369 27.9204 40.7373C27.4099 40.9423 26.8212 41.0426 26.1589 41.0426" fill="#345BB0"/>
<path d="M34.2945 36.2642V40.8883H32.0547V32.8929H34.1887V34.3052H34.2853C34.4647 33.8405 34.7636 33.4715 35.1821 33.1981C35.6007 32.9248 36.1112 32.7881 36.7091 32.7881C37.2702 32.7881 37.7577 32.9111 38.1762 33.1525C38.5947 33.394 38.9167 33.7403 39.1466 34.1913C39.3766 34.6423 39.4916 35.1753 39.4916 35.7995V40.8929H37.2518V36.1958C37.2518 35.7084 37.1276 35.3257 36.8746 35.0478C36.6171 34.7699 36.2675 34.6332 35.8168 34.6332C35.5179 34.6332 35.2511 34.697 35.0212 34.8245C34.7912 34.9521 34.6118 35.1389 34.4877 35.3849C34.3589 35.6309 34.2945 35.9225 34.2899 36.2687" fill="#345BB0"/>
<path d="M45.6456 41.0429C44.8177 41.0429 44.1094 40.8698 43.5161 40.519C42.9229 40.1682 42.4675 39.6853 42.1502 39.0657C41.8328 38.4461 41.6719 37.7308 41.6719 36.9199C41.6719 36.1089 41.8328 35.38 42.1548 34.7604C42.4767 34.1408 42.9321 33.6579 43.5253 33.3071C44.1186 32.9563 44.8223 32.7832 45.6364 32.7832C46.34 32.7832 46.9563 32.9108 47.4852 33.1613C48.0142 33.4165 48.4327 33.7718 48.7408 34.2274C49.049 34.6875 49.2191 35.2251 49.2513 35.8401H47.1403C47.0805 35.4392 46.9241 35.1203 46.6712 34.8743C46.4182 34.6283 46.0871 34.5053 45.6732 34.5053C45.3282 34.5053 45.0247 34.5964 44.7671 34.7832C44.5096 34.97 44.3072 35.2388 44.1646 35.5941C44.0221 35.9495 43.9485 36.3777 43.9485 36.8789C43.9485 37.38 44.0175 37.8219 44.16 38.1818C44.3026 38.5372 44.5004 38.8105 44.7625 38.9973C45.0201 39.1841 45.3236 39.2798 45.6732 39.2798C45.9307 39.2798 46.1607 39.2297 46.363 39.1249C46.57 39.0201 46.7402 38.8698 46.8736 38.6693C47.0069 38.4689 47.0989 38.2274 47.1403 37.9495H49.2513C49.2145 38.56 49.049 39.0976 48.75 39.5622C48.4511 40.0269 48.0371 40.3868 47.5128 40.6465C46.9885 40.9062 46.363 41.0383 45.6456 41.0383" fill="#345BB0"/>
<path d="M52.5657 31.8583C52.2346 31.8583 51.9495 31.749 51.7103 31.5257C51.4711 31.3071 51.3516 31.0428 51.3516 30.733C51.3516 30.4232 51.4711 30.1636 51.7103 29.9449C51.9495 29.7262 52.23 29.6123 52.5611 29.6123C52.8923 29.6123 53.182 29.7216 53.4212 29.9449C53.6558 30.1636 53.7753 30.4278 53.7753 30.733C53.7753 31.0383 53.6558 31.3071 53.4212 31.5257C53.1866 31.7444 52.9015 31.8583 52.5657 31.8583ZM51.4343 32.8925H53.6741V40.8879H51.4343V32.8925Z" fill="#345BB0"/>
<path d="M58.5049 41.0387C57.9897 41.0387 57.5298 40.9475 57.1297 40.7699C56.725 40.5922 56.4076 40.3234 56.1777 39.9726C55.9431 39.6218 55.8281 39.1799 55.8281 38.6514C55.8281 38.2049 55.9109 37.8359 56.0765 37.5307C56.2421 37.2254 56.4674 36.984 56.748 36.8018C57.0331 36.6195 57.3551 36.4783 57.7184 36.3872C58.0817 36.2915 58.4635 36.2277 58.8636 36.1913C59.3327 36.1412 59.7098 36.0956 59.9996 36.0546C60.2847 36.009 60.4963 35.9453 60.6251 35.8587C60.7539 35.7721 60.8182 35.6446 60.8182 35.4715V35.4396C60.8182 35.1115 60.7125 34.8564 60.5055 34.6742C60.2985 34.492 59.9996 34.4008 59.6179 34.4008C59.2131 34.4008 58.8958 34.4874 58.6566 34.6651C58.4175 34.8428 58.2611 35.0614 58.1829 35.3257L56.1133 35.1617C56.2191 34.6742 56.426 34.2551 56.7342 33.8997C57.0423 33.5444 57.4424 33.271 57.93 33.0751C58.4175 32.8838 58.9832 32.7881 59.6316 32.7881C60.0824 32.7881 60.5101 32.8382 60.924 32.943C61.338 33.0478 61.7013 33.2072 62.0232 33.4259C62.3452 33.6446 62.5981 33.927 62.7821 34.2687C62.9661 34.6104 63.0626 35.0204 63.0626 35.4942V40.8883H60.9378V39.7813H60.8734C60.7447 40.0318 60.5699 40.2505 60.3537 40.4418C60.1376 40.6286 59.8754 40.779 59.5719 40.8838C59.2683 40.9885 58.9142 41.0432 58.5141 41.0432M59.1441 39.5079C59.4753 39.5079 59.765 39.4441 60.018 39.312C60.2709 39.1799 60.4687 39.0068 60.6113 38.7835C60.7539 38.5603 60.8274 38.3097 60.8274 38.0273V37.1799C60.7585 37.2254 60.6619 37.2664 60.5423 37.3029C60.4227 37.3393 60.2847 37.3712 60.133 37.4031C59.9812 37.4305 59.834 37.4578 59.6822 37.4806C59.5305 37.5033 59.3971 37.5216 59.2729 37.5398C59.0108 37.5762 58.7808 37.64 58.583 37.722C58.3853 37.804 58.2335 37.9179 58.1277 38.0592C58.0173 38.2004 57.9621 38.3735 57.9621 38.5831C57.9621 38.8838 58.0725 39.1161 58.2979 39.2756C58.5186 39.435 58.8038 39.5125 59.1487 39.5125" fill="#345BB0"/>
<path d="M72.6731 41.0203C72.0614 41.0203 71.5049 40.8608 71.0082 40.551C70.5114 40.2367 70.1205 39.772 69.8308 39.1615C69.541 38.5465 69.3984 37.7947 69.3984 36.9064C69.3984 36.018 69.5456 35.2253 69.8446 34.6193C70.1435 34.0089 70.539 33.5533 71.0357 33.2526C71.5325 32.9474 72.0752 32.797 72.6685 32.797C73.1192 32.797 73.4963 32.8745 73.7999 33.0248C74.1034 33.1752 74.3472 33.3619 74.5357 33.5897C74.7243 33.813 74.8669 34.0316 74.9635 34.2503H75.0324V30.2412H77.2676V40.9018H75.06V39.6216H74.9635C74.8577 39.8449 74.7105 40.0635 74.5219 40.2777C74.3288 40.4963 74.085 40.674 73.7815 40.8152C73.4779 40.9565 73.11 41.0294 72.6731 41.0294M73.3859 39.2526C73.7493 39.2526 74.0528 39.1569 74.3012 38.9565C74.5541 38.7606 74.7427 38.4872 74.8807 38.1319C75.0186 37.7765 75.083 37.3619 75.083 36.8881C75.083 36.4143 75.014 35.9998 74.8853 35.649C74.7519 35.2982 74.5587 35.0294 74.3058 34.838C74.0528 34.6467 73.7493 34.551 73.3859 34.551C73.0226 34.551 72.7098 34.6512 72.4569 34.8471C72.2039 35.043 72.0154 35.3209 71.882 35.6672C71.7532 36.018 71.6888 36.4234 71.6888 36.8836C71.6888 37.3437 71.7532 37.7583 71.8866 38.1137C72.0154 38.469 72.2085 38.7469 72.4569 38.9474C72.7052 39.1478 73.018 39.248 73.3859 39.248" fill="#345BB0"/>
<path d="M83.5215 41.0426C82.6891 41.0426 81.9762 40.874 81.3783 40.5414C80.7804 40.2043 80.3205 39.7305 79.9985 39.1155C79.6766 38.5004 79.5156 37.7715 79.5156 36.9287C79.5156 36.0858 79.6766 35.3842 79.9985 34.7647C80.3205 34.1451 80.7758 33.6576 81.3599 33.3114C81.9486 32.9651 82.6385 32.792 83.4295 32.792C83.963 32.792 84.4597 32.874 84.9197 33.0426C85.3796 33.2111 85.7843 33.4617 86.1293 33.7988C86.4742 34.136 86.7409 34.5596 86.9341 35.0653C87.1273 35.5756 87.2239 36.1678 87.2239 36.8467V37.4571H80.4079V36.0813H85.1174C85.1174 35.7624 85.0484 35.4799 84.9059 35.2339C84.7679 34.9879 84.5701 34.7965 84.3264 34.6553C84.078 34.5141 83.7929 34.4457 83.4663 34.4457C83.1398 34.4457 82.827 34.5232 82.5649 34.6781C82.3027 34.833 82.1004 35.038 81.9532 35.2977C81.806 35.5574 81.7324 35.8444 81.7278 36.1587V37.4662C81.7278 37.8626 81.8014 38.2043 81.9532 38.4913C82.1004 38.7783 82.3119 39.0016 82.5879 39.1565C82.8592 39.3114 83.1858 39.3888 83.5583 39.3888C83.8067 39.3888 84.0366 39.3524 84.239 39.284C84.446 39.2157 84.6207 39.1109 84.7679 38.9697C84.9151 38.8284 85.0254 38.6599 85.1036 38.4594L87.1733 38.5961C87.0675 39.0881 86.8559 39.5164 86.5294 39.8854C86.2028 40.2499 85.7889 40.5369 85.2784 40.7373C84.7679 40.9423 84.1792 41.0426 83.5169 41.0426" fill="#345BB0"/>
<path d="M99.475 33.2932C99.4336 32.8741 99.2542 32.5461 98.9323 32.3137C98.6149 32.0814 98.1826 31.9629 97.6353 31.9629C97.2628 31.9629 96.95 32.013 96.6925 32.1178C96.4349 32.2226 96.2417 32.3638 96.1084 32.5415C95.975 32.7237 95.906 32.9288 95.906 33.1565C95.9014 33.3479 95.9382 33.5165 96.0302 33.6577C96.1222 33.7989 96.2417 33.9219 96.4027 34.0267C96.5591 34.1269 96.7431 34.218 96.95 34.2909C97.157 34.3638 97.3777 34.4276 97.6123 34.4823L98.5781 34.7101C99.0472 34.8149 99.4796 34.9515 99.8705 35.1292C100.261 35.3023 100.602 35.5165 100.892 35.767C101.181 36.0176 101.402 36.3183 101.563 36.66C101.724 37.0062 101.802 37.398 101.807 37.8399C101.807 38.4914 101.637 39.0563 101.305 39.5347C100.974 40.013 100.496 40.3821 99.8751 40.6417C99.2542 40.9014 98.5045 41.0335 97.6261 41.0335C96.7477 41.0335 96.0026 40.9014 95.3587 40.6372C94.7148 40.3729 94.2135 39.9811 93.8548 39.4618C93.496 38.9424 93.3075 38.3001 93.2891 37.5347H95.4921C95.5151 37.89 95.6208 38.1907 95.8048 38.4276C95.9888 38.6645 96.2371 38.8422 96.5453 38.9652C96.8534 39.0837 97.2076 39.1429 97.5985 39.1429C97.9894 39.1429 98.3206 39.0882 98.6057 38.9743C98.8909 38.865 99.1116 38.7101 99.2726 38.5096C99.429 38.3137 99.5072 38.0859 99.5072 37.8263C99.5072 37.5848 99.4382 37.3843 99.2956 37.2203C99.153 37.0563 98.9461 36.9196 98.6747 36.8058C98.4034 36.6919 98.0722 36.5871 97.6767 36.496L96.5039 36.2044C95.5979 35.9857 94.8804 35.644 94.3561 35.1793C93.8318 34.7146 93.5696 34.0859 93.5742 33.2978C93.5742 32.6509 93.7444 32.0905 94.0985 31.6076C94.4527 31.1247 94.9356 30.7465 95.5519 30.4777C96.1682 30.2089 96.8672 30.0723 97.6537 30.0723C98.4402 30.0723 99.153 30.2089 99.7463 30.4777C100.344 30.7511 100.809 31.1247 101.14 31.6076C101.471 32.0905 101.646 32.6509 101.655 33.2841H99.475V33.2932Z" fill="#345BB0"/>
<path d="M107.709 41.0426C106.881 41.0426 106.164 40.874 105.566 40.5414C104.968 40.2043 104.508 39.7305 104.186 39.1155C103.864 38.5004 103.703 37.7715 103.703 36.9287C103.703 36.0858 103.864 35.3842 104.186 34.7647C104.508 34.1451 104.963 33.6576 105.547 33.3114C106.136 32.9651 106.826 32.792 107.617 32.792C108.151 32.792 108.647 32.874 109.107 33.0426C109.567 33.2111 109.972 33.4617 110.317 33.7988C110.662 34.136 110.928 34.5596 111.122 35.0653C111.315 35.5756 111.411 36.1678 111.411 36.8467V37.4571H104.595V36.0813H109.305C109.305 35.7624 109.236 35.4799 109.093 35.2339C108.955 34.9879 108.758 34.7965 108.514 34.6553C108.266 34.5141 107.98 34.4457 107.654 34.4457C107.327 34.4457 107.015 34.5232 106.752 34.6781C106.49 34.833 106.288 35.038 106.141 35.2977C105.994 35.5574 105.92 35.8444 105.915 36.1587V37.4662C105.915 37.8626 105.989 38.2043 106.141 38.4913C106.288 38.7783 106.499 39.0016 106.775 39.1565C107.047 39.3114 107.373 39.3888 107.746 39.3888C107.994 39.3888 108.224 39.3524 108.431 39.284C108.638 39.2157 108.813 39.1109 108.96 38.9697C109.107 38.833 109.218 38.6599 109.296 38.4594L111.365 38.5961C111.26 39.0881 111.043 39.5164 110.721 39.8854C110.4 40.2499 109.981 40.5369 109.471 40.7373C108.96 40.9423 108.371 41.0426 107.709 41.0426Z" fill="#345BB0"/>
<path d="M117.254 43.9996C116.527 43.9996 115.906 43.9039 115.391 43.708C114.876 43.5121 114.462 43.2525 114.159 42.9244C113.855 42.5919 113.657 42.2274 113.565 41.8265L115.635 41.5486C115.699 41.6944 115.796 41.831 115.934 41.9632C116.072 42.0953 116.251 42.2001 116.477 42.2821C116.702 42.3641 116.978 42.4051 117.305 42.4051C117.792 42.4051 118.192 42.2912 118.51 42.0588C118.827 41.831 118.983 41.4529 118.983 40.929V39.4666H118.887C118.79 39.6898 118.643 39.8994 118.445 40.0953C118.247 40.2912 117.999 40.4552 117.686 40.5782C117.378 40.7012 117.01 40.765 116.583 40.765C115.975 40.765 115.424 40.6237 114.931 40.3458C114.435 40.0679 114.044 39.6397 113.749 39.0611C113.455 38.4825 113.312 37.7536 113.312 36.8652C113.312 35.9768 113.46 35.2023 113.759 34.5964C114.058 33.9905 114.453 33.5349 114.95 33.2342C115.447 32.9335 115.989 32.7832 116.583 32.7832C117.033 32.7832 117.415 32.8607 117.719 33.011C118.022 33.1613 118.27 33.3481 118.459 33.5714C118.648 33.7946 118.79 34.0133 118.891 34.2274H118.974V32.8834H121.196V40.9563C121.196 41.6215 121.03 42.1818 120.69 42.6283C120.354 43.0793 119.889 43.4165 119.296 43.6443C118.703 43.872 118.022 43.9905 117.249 43.9905M117.3 39.1067C117.663 39.1067 117.967 39.0156 118.215 38.8379C118.468 38.6602 118.657 38.4005 118.795 38.0679C118.928 37.7308 118.997 37.3299 118.997 36.8607C118.997 36.3914 118.933 35.9859 118.799 35.6397C118.666 35.2935 118.473 35.0247 118.22 34.8333C117.967 34.642 117.663 34.5463 117.3 34.5463C116.937 34.5463 116.619 34.642 116.371 34.8379C116.123 35.0338 115.929 35.3071 115.796 35.6534C115.667 35.9996 115.603 36.4005 115.603 36.8561C115.603 37.3117 115.667 37.7171 115.801 38.0497C115.934 38.3868 116.123 38.642 116.371 38.8242C116.619 39.0064 116.932 39.0976 117.3 39.0976" fill="#345BB0"/>
<path d="M128.901 37.4848V32.8926H131.14V40.888H128.993V39.4347H128.91C128.726 39.904 128.427 40.2821 128.004 40.5646C127.581 40.847 127.066 40.9928 126.463 40.9928C125.925 40.9928 125.447 40.8698 125.037 40.6283C124.628 40.3869 124.306 40.0406 124.076 39.5942C123.846 39.1477 123.731 38.6101 123.727 37.986V32.8926H125.966V37.5896C125.966 38.0634 126.1 38.4324 126.348 38.7103C126.601 38.9837 126.937 39.1204 127.365 39.1204C127.636 39.1204 127.884 39.0566 128.119 38.9381C128.353 38.8151 128.542 38.6329 128.689 38.3869C128.836 38.1454 128.905 37.8447 128.901 37.4848Z" fill="#345BB0"/>
<path d="M133.669 40.8877V32.8922H135.839V34.2863H135.922C136.069 33.7897 136.318 33.4161 136.663 33.161C137.008 32.9059 137.408 32.7783 137.859 32.7783C137.969 32.7783 138.093 32.7874 138.222 32.8011C138.351 32.8148 138.466 32.833 138.562 32.8558V34.8239C138.456 34.792 138.314 34.7647 138.125 34.7419C137.941 34.7191 137.771 34.7054 137.615 34.7054C137.284 34.7054 136.994 34.7738 136.736 34.915C136.479 35.0562 136.276 35.2521 136.129 35.5027C135.977 35.7533 135.904 36.0403 135.904 36.3683V40.8922H133.664L133.669 40.8877Z" fill="#345BB0"/>
<path d="M143.724 41.0426C142.91 41.0426 142.201 40.8694 141.608 40.5232C141.015 40.177 140.555 39.694 140.233 39.0744C139.911 38.4549 139.75 37.735 139.75 36.915C139.75 36.0949 139.911 35.366 140.233 34.7464C140.555 34.1268 141.015 33.6439 141.608 33.2977C142.201 32.9514 142.905 32.7783 143.724 32.7783C144.542 32.7783 145.246 32.9514 145.839 33.2977C146.433 33.6439 146.893 34.1268 147.214 34.7464C147.536 35.366 147.697 36.0904 147.697 36.915C147.697 37.7396 147.536 38.4549 147.214 39.0744C146.893 39.694 146.433 40.177 145.839 40.5232C145.246 40.8694 144.542 41.0426 143.724 41.0426ZM143.733 39.325C144.105 39.325 144.414 39.2202 144.662 39.0107C144.91 38.8011 145.099 38.5141 145.228 38.1496C145.356 37.7852 145.421 37.3706 145.421 36.9059C145.421 36.4412 145.356 36.0266 145.228 35.6621C145.099 35.2977 144.91 35.0107 144.662 34.7965C144.414 34.587 144.105 34.4776 143.733 34.4776C143.36 34.4776 143.043 34.5824 142.79 34.7965C142.537 35.0061 142.344 35.2977 142.215 35.6621C142.086 36.0266 142.022 36.4412 142.022 36.9059C142.022 37.3706 142.086 37.7852 142.215 38.1496C142.344 38.5141 142.533 38.8011 142.79 39.0107C143.043 39.2202 143.356 39.325 143.733 39.325Z" fill="#345BB0"/>
<path d="M156.613 35.1704L154.561 35.2935C154.525 35.1203 154.451 34.9654 154.336 34.8242C154.221 34.683 154.069 34.5691 153.881 34.4871C153.692 34.4005 153.471 34.3595 153.209 34.3595C152.864 34.3595 152.57 34.4324 152.331 34.5736C152.092 34.7194 151.972 34.9108 151.972 35.1477C151.972 35.339 152.05 35.4985 152.202 35.6306C152.358 35.7627 152.621 35.8675 152.998 35.9495L154.46 36.2411C155.247 36.4005 155.831 36.6556 156.217 37.011C156.603 37.3663 156.797 37.831 156.797 38.4051C156.797 38.929 156.64 39.3891 156.332 39.7855C156.024 40.1818 155.596 40.4871 155.063 40.7103C154.525 40.929 153.904 41.0429 153.205 41.0429C152.138 41.0429 151.287 40.8196 150.652 40.3777C150.017 39.9358 149.649 39.3299 149.539 38.5691L151.742 38.4552C151.806 38.7786 151.967 39.0247 152.225 39.1932C152.483 39.3618 152.809 39.4438 153.209 39.4438C153.609 39.4438 153.917 39.3663 154.157 39.216C154.396 39.0657 154.52 38.8698 154.52 38.6283C154.52 38.4279 154.433 38.2593 154.262 38.1317C154.097 37.9996 153.835 37.9039 153.485 37.831L152.087 37.5531C151.301 37.3982 150.712 37.1249 150.33 36.7422C149.948 36.355 149.755 35.8675 149.755 35.2707C149.755 34.7559 149.898 34.314 150.178 33.9449C150.459 33.5714 150.859 33.2889 151.374 33.0839C151.889 32.8834 152.487 32.7832 153.177 32.7832C154.198 32.7832 154.998 32.9973 155.587 33.421C156.176 33.8493 156.516 34.4279 156.613 35.1659" fill="#345BB0"/>
</g>
<defs>
<clipPath id="clip0_5519_18659">
<rect width="156.8" height="44" fill="white"/>
</clipPath>
</defs>
</svg>
