<svg width="152" height="41" viewBox="0 0 152 41" fill="none" xmlns="http://www.w3.org/2000/svg">
<path d="M0 23.4708V0H7.79245C10.7444 0 12.6696 0.116325 13.568 0.348974C14.9432 0.697948 16.0983 1.46748 17.0334 2.64862C17.9593 3.82977 18.4268 5.35094 18.4268 7.22108C18.4268 8.66172 18.161 9.86971 17.6201 10.854C17.0884 11.8383 16.4008 12.6078 15.5757 13.1626C14.7506 13.7263 13.9072 14.0932 13.0546 14.2722C11.8904 14.4959 10.2127 14.6122 8.02164 14.6122H4.85882V23.4618H0V23.4708ZM4.85882 3.97294V10.6303H7.51742C9.43344 10.6303 10.7077 10.505 11.3586 10.2634C12.0004 10.0218 12.5046 9.63706 12.8713 9.10912C13.238 8.59013 13.4213 7.98167 13.4213 7.28372C13.4213 6.43365 13.1646 5.72676 12.6513 5.17198C12.1379 4.6172 11.487 4.26822 10.6986 4.134C10.121 4.02663 8.95673 3.97294 7.20572 3.97294H4.85882Z" fill="#345BB0"/>
<path d="M26.7871 23.4701H22.1758V6.46875H26.457V8.88473C27.1904 7.73938 27.8505 6.98774 28.4372 6.62982C29.024 6.27189 29.684 6.08398 30.4266 6.08398C31.4809 6.08398 32.4893 6.37032 33.4611 6.93405L32.0309 10.8533C31.2517 10.3612 30.5366 10.1196 29.8674 10.1196C29.1982 10.1196 28.6756 10.2896 28.2264 10.6385C27.7772 10.9875 27.4288 11.6139 27.1721 12.5176C26.9154 13.4214 26.7871 15.3273 26.7871 18.2176V23.4701Z" fill="#345BB0"/>
<path d="M34.3789 14.7278C34.3789 13.2335 34.7548 11.7839 35.5065 10.388C36.2583 8.9921 37.3309 7.92728 38.7152 7.1846C40.0995 6.45085 41.6396 6.08398 43.3448 6.08398C45.9759 6.08398 48.1394 6.91615 49.8263 8.58944C51.5131 10.2627 52.3565 12.3745 52.3565 14.9247C52.3565 17.4749 51.504 19.6313 49.8079 21.3225C48.1119 23.0137 45.9667 23.8548 43.3906 23.8548C41.7955 23.8548 40.2737 23.5059 38.8252 22.799C37.3767 22.0921 36.2766 21.063 35.5249 19.7029C34.7731 18.3428 34.3972 16.6874 34.3972 14.7368M39.1185 14.9784C39.1185 16.6606 39.5311 17.9581 40.347 18.8529C41.1629 19.7477 42.1805 20.1951 43.3815 20.1951C44.5824 20.1951 45.5909 19.7477 46.4068 18.8529C47.2227 17.9581 47.6261 16.6516 47.6261 14.9426C47.6261 13.2335 47.2227 11.9987 46.4068 11.1038C45.5909 10.209 44.5824 9.76164 43.3815 9.76164C42.1805 9.76164 41.1629 10.209 40.347 11.1038C39.5311 11.9987 39.1185 13.2961 39.1185 14.9784Z" fill="#345BB0"/>
<path d="M55.6211 6.46875H59.8657V8.7863C61.3875 6.98774 63.1935 6.08398 65.2929 6.08398C66.4113 6.08398 67.3739 6.30769 68.199 6.75509C69.0149 7.20249 69.6933 7.88254 70.2159 8.7863C70.986 7.88254 71.811 7.20249 72.6911 6.75509C73.5804 6.30769 74.5247 6.08398 75.5331 6.08398C76.8165 6.08398 77.8983 6.33453 78.7784 6.84457C79.6677 7.35461 80.3277 8.0973 80.7678 9.08158C81.0886 9.80638 81.2445 10.9786 81.2445 12.6071V23.479H76.6332V13.7614C76.6332 12.0792 76.4773 10.9875 76.1565 10.4954C75.7256 9.85112 75.0747 9.53793 74.1854 9.53793C73.5437 9.53793 72.9295 9.72584 72.3611 10.1106C71.7927 10.4954 71.3802 11.0591 71.1326 11.8018C70.8851 12.5445 70.7568 13.7167 70.7568 15.3184V23.488H66.1455V14.173C66.1455 12.5176 66.063 11.4528 65.898 10.9696C65.7329 10.4864 65.4762 10.1285 65.137 9.89586C64.7887 9.66321 64.3211 9.54688 63.7344 9.54688C63.0285 9.54688 62.3868 9.73479 61.8184 10.1106C61.25 10.4864 60.8374 11.0233 60.5991 11.7302C60.3516 12.4371 60.2324 13.6004 60.2324 15.2378V23.4969H55.6211V6.46875Z" fill="#345BB0"/>
<path d="M84.7617 14.7278C84.7617 13.2335 85.1376 11.7839 85.8893 10.388C86.6411 8.9921 87.7137 7.92728 89.098 7.1846C90.4823 6.45085 92.0224 6.08398 93.7276 6.08398C96.3587 6.08398 98.5223 6.91615 100.209 8.58944C101.896 10.2627 102.739 12.3745 102.739 14.9247C102.739 17.4749 101.887 19.6313 100.191 21.3225C98.4948 23.0137 96.3495 23.8548 93.7735 23.8548C92.1783 23.8548 90.6565 23.5059 89.208 22.799C87.7595 22.0921 86.6594 21.063 85.9077 19.7029C85.1559 18.3428 84.7801 16.6874 84.7801 14.7368M89.5014 14.9784C89.5014 16.6606 89.9139 17.9581 90.7298 18.8529C91.5457 19.7477 92.5633 20.1951 93.7643 20.1951C94.9652 20.1951 95.9737 19.7477 96.7896 18.8529C97.6055 17.9581 98.0089 16.6516 98.0089 14.9426C98.0089 13.2335 97.5963 11.9987 96.7896 11.1038C95.9737 10.209 94.9652 9.76164 93.7643 9.76164C92.5633 9.76164 91.5457 10.209 90.7298 11.1038C89.9139 11.9987 89.5014 13.2961 89.5014 14.9784Z" fill="#345BB0"/>
<path d="M114.34 6.46981V10.058H111.195V16.9122C111.195 18.2991 111.223 19.1134 111.287 19.3371C111.351 19.5698 111.489 19.7577 111.699 19.9098C111.91 20.0619 112.176 20.1335 112.479 20.1335C112.91 20.1335 113.524 19.9903 114.331 19.704L114.725 23.1937C113.652 23.6411 112.442 23.8648 111.085 23.8648C110.251 23.8648 109.508 23.7306 108.839 23.4532C108.17 23.1848 107.684 22.8269 107.372 22.3974C107.061 21.9678 106.85 21.3773 106.721 20.6435C106.621 20.1245 106.575 19.0687 106.575 17.4759V10.0669H104.457V6.47876H106.575V3.09639L111.204 0.474609V6.47876H114.349L114.34 6.46981Z" fill="#345BB0"/>
<path d="M127.619 18.0578L132.212 18.8094C131.626 20.4559 130.691 21.7086 129.416 22.5587C128.142 23.4177 126.547 23.8472 124.631 23.8472C121.606 23.8472 119.359 22.8808 117.911 20.948C116.765 19.4 116.188 17.4493 116.188 15.087C116.188 12.2684 116.939 10.0582 118.452 8.46546C119.965 6.87271 121.871 6.06738 124.172 6.06738C126.767 6.06738 128.811 6.89955 130.306 8.57284C131.8 10.2461 132.524 12.8053 132.451 16.2503H120.9C120.936 17.5835 121.303 18.6215 122.018 19.3642C122.724 20.1069 123.613 20.4738 124.677 20.4738C125.401 20.4738 126.006 20.2858 126.492 19.9011C126.987 19.5163 127.354 18.8989 127.61 18.0399M127.876 13.4943C127.84 12.1879 127.5 11.2036 126.84 10.5235C126.18 9.84346 125.383 9.50344 124.447 9.50344C123.439 9.50344 122.614 9.86136 121.954 10.5772C121.294 11.293 120.973 12.2684 120.982 13.4943H127.867H127.876Z" fill="#345BB0"/>
<path d="M151.401 11.4886L146.854 12.285C146.698 11.3991 146.359 10.737 145.809 10.2806C145.268 9.83322 144.562 9.60952 143.7 9.60952C142.554 9.60952 141.638 9.99429 140.95 10.7728C140.272 11.5423 139.923 12.8398 139.923 14.6562C139.923 16.6695 140.272 18.1012 140.968 18.9334C141.665 19.7656 142.591 20.1861 143.764 20.1861C144.645 20.1861 145.36 19.9445 145.91 19.4613C146.469 18.9781 146.863 18.137 147.092 16.9559L151.621 17.7075C151.154 19.7387 150.246 21.2688 148.917 22.3068C147.578 23.3448 145.79 23.8548 143.554 23.8548C141.005 23.8548 138.97 23.0674 137.457 21.5015C135.944 19.9356 135.184 17.7612 135.184 14.9873C135.184 12.2134 135.944 9.99429 137.466 8.42838C138.988 6.86247 141.042 6.08398 143.636 6.08398C145.763 6.08398 147.441 6.53139 148.697 7.41724C149.943 8.31205 150.851 9.66321 151.392 11.4886" fill="#345BB0"/>
<path d="M2.71273 38.056H0.375L3.94119 27.9805H6.75564L10.3127 38.056H7.97493L5.38967 30.2801H5.30716L2.71273 38.056ZM2.56605 34.092H8.0941V35.7563H2.56605V34.092Z" fill="#345BB0"/>
<path d="M15.346 40.9998C14.6493 40.9998 14.0534 40.9103 13.5583 40.7224C13.0633 40.5434 12.6691 40.2929 12.3757 39.9797C12.0823 39.6665 11.8898 39.3265 11.8073 38.9417L13.7967 38.6822C13.8609 38.8164 13.9525 38.9507 14.0809 39.0759C14.2092 39.2012 14.3834 39.2996 14.6034 39.3802C14.8234 39.4607 15.0801 39.4965 15.401 39.4965C15.8686 39.4965 16.2536 39.3891 16.5561 39.1744C16.8587 38.9596 17.0145 38.6017 17.0145 38.1096V36.7226H16.9228C16.8311 36.9374 16.6845 37.1342 16.5011 37.3221C16.3086 37.51 16.0702 37.6621 15.7769 37.7785C15.4835 37.8948 15.126 37.9574 14.7226 37.9574C14.145 37.9574 13.6133 37.8232 13.1366 37.5637C12.6599 37.2953 12.284 36.8926 11.9998 36.3468C11.7156 35.801 11.5781 35.112 11.5781 34.2708C11.5781 33.4297 11.7248 32.696 12.009 32.1233C12.2932 31.5506 12.6782 31.1211 13.1549 30.8348C13.6317 30.5484 14.1542 30.4053 14.7226 30.4053C15.1535 30.4053 15.5202 30.4769 15.8135 30.62C16.1069 30.7632 16.3453 30.9422 16.5195 31.148C16.7028 31.3627 16.8403 31.5685 16.932 31.7654H17.0145V30.4948H19.1505V38.1274C19.1505 38.7538 18.9855 39.2817 18.6647 39.7113C18.3438 40.1318 17.8946 40.4539 17.3262 40.6687C16.7578 40.8835 16.0977 40.9908 15.3643 40.9908M15.4102 36.3647C15.7585 36.3647 16.0519 36.2841 16.2903 36.1141C16.5286 35.9441 16.712 35.7025 16.8403 35.3893C16.9687 35.0762 17.0328 34.6914 17.0328 34.2529C17.0328 33.8145 16.9687 33.4297 16.8403 33.0986C16.712 32.7765 16.5286 32.517 16.2903 32.3381C16.0519 32.1591 15.7585 32.0696 15.4102 32.0696C15.0618 32.0696 14.7593 32.1591 14.5209 32.347C14.2826 32.5349 14.0992 32.7855 13.9709 33.1165C13.8425 33.4476 13.7875 33.8234 13.7875 34.2529C13.7875 34.6824 13.8517 35.0672 13.98 35.3804C14.1084 35.6936 14.2917 35.9441 14.5301 36.1141C14.7684 36.2841 15.071 36.3736 15.4193 36.3736" fill="#345BB0"/>
<path d="M25.0834 38.208C24.2858 38.208 23.5983 38.0469 23.0299 37.7337C22.4615 37.4205 22.0123 36.9642 21.7097 36.3826C21.398 35.801 21.2422 35.112 21.2422 34.3156C21.2422 33.5192 21.398 32.857 21.7097 32.2665C22.0214 31.6848 22.4523 31.2195 23.0207 30.8974C23.5799 30.5663 24.2492 30.4053 25.0009 30.4053C25.5143 30.4053 25.991 30.4858 26.431 30.6469C26.8711 30.8079 27.2561 31.0406 27.5862 31.3627C27.9162 31.6848 28.1729 32.0786 28.3562 32.5618C28.5396 33.045 28.6313 33.6087 28.6313 34.244V34.8167H22.0948V33.5192H26.6144C26.6144 33.215 26.5502 32.9465 26.4127 32.7139C26.2752 32.4812 26.0918 32.3023 25.8535 32.168C25.6151 32.0338 25.3401 31.9712 25.0284 31.9712C24.7167 31.9712 24.4142 32.0428 24.1666 32.1859C23.9191 32.3291 23.7174 32.526 23.5799 32.7676C23.4424 33.0092 23.3691 33.2865 23.3599 33.5818V34.8167C23.3599 35.1925 23.4332 35.5146 23.5708 35.7831C23.7174 36.0515 23.9191 36.2662 24.1758 36.4094C24.4417 36.5526 24.7442 36.6331 25.1109 36.6331C25.3493 36.6331 25.5693 36.5973 25.771 36.5347C25.9727 36.4721 26.1377 36.3736 26.2844 36.2394C26.4219 36.1052 26.5319 35.9441 26.6052 35.7562L28.5946 35.8815C28.4937 36.3468 28.2829 36.7494 27.9804 37.0984C27.6687 37.4474 27.2653 37.7158 26.7794 37.9037C26.2935 38.1006 25.7251 38.1901 25.0926 38.1901" fill="#345BB0"/>
<path d="M32.8913 33.6892V38.0559H30.7461V30.5037H32.7905V31.837H32.8821C33.0563 31.3985 33.3405 31.0495 33.7439 30.79C34.1473 30.5305 34.6331 30.4053 35.2107 30.4053C35.7516 30.4053 36.2191 30.5216 36.6133 30.7542C37.0076 30.9869 37.3192 31.309 37.5484 31.7385C37.7685 32.1591 37.8785 32.6691 37.8785 33.2597V38.0738H35.7333V33.6355C35.7333 33.1702 35.6141 32.8123 35.3666 32.5528C35.119 32.2933 34.7798 32.1591 34.349 32.1591C34.0556 32.1591 33.8081 32.2217 33.588 32.3381C33.368 32.4633 33.1938 32.6333 33.0747 32.866C32.9555 33.0986 32.8913 33.376 32.8821 33.6982" fill="#345BB0"/>
<path d="M43.7825 38.208C42.9941 38.208 42.3065 38.038 41.7381 37.7158C41.1697 37.3848 40.7297 36.9284 40.4271 36.3378C40.1246 35.7473 39.9688 35.0762 39.9688 34.3066C39.9688 33.5371 40.1246 32.857 40.4271 32.2665C40.7388 31.6848 41.1697 31.2195 41.7381 30.8974C42.3065 30.5663 42.9849 30.4053 43.7641 30.4053C44.4425 30.4053 45.0293 30.5216 45.5426 30.7632C46.0469 31.0048 46.4502 31.3359 46.7436 31.7743C47.037 32.2038 47.202 32.7139 47.2295 33.2955H45.2034C45.1484 32.9197 44.9926 32.6154 44.7542 32.3828C44.5067 32.1501 44.195 32.0338 43.8008 32.0338C43.4708 32.0338 43.1774 32.1233 42.9299 32.2933C42.6824 32.4723 42.4898 32.7228 42.3523 33.0539C42.2148 33.3939 42.1415 33.7966 42.1415 34.2708C42.1415 34.7451 42.2056 35.1656 42.3432 35.5057C42.4807 35.8457 42.6732 36.0962 42.9207 36.2752C43.1682 36.4542 43.4616 36.5436 43.7916 36.5436C44.0392 36.5436 44.2592 36.4989 44.4517 36.4005C44.6442 36.302 44.8092 36.1589 44.9376 35.971C45.0659 35.7831 45.1484 35.5594 45.1943 35.2909H47.2203C47.1836 35.8725 47.0278 36.3736 46.7344 36.8121C46.4502 37.2505 46.056 37.5906 45.5518 37.8411C45.0476 38.0827 44.4517 38.208 43.7641 38.208" fill="#345BB0"/>
<path d="M50.4143 29.5289C50.0934 29.5289 49.8184 29.4215 49.5892 29.2157C49.36 29.0099 49.25 28.7594 49.25 28.4641C49.25 28.1688 49.3692 27.9272 49.5892 27.7214C49.8092 27.5156 50.0934 27.4082 50.4051 27.4082C50.7168 27.4082 51.001 27.5156 51.2302 27.7214C51.4594 27.9272 51.5694 28.1777 51.5694 28.4641C51.5694 28.7504 51.4594 29.0099 51.2302 29.2157C51.001 29.4215 50.726 29.5289 50.4143 29.5289ZM49.3325 30.5042H51.4777V38.0653H49.3325V30.5042Z" fill="#345BB0"/>
<path d="M56.1034 38.1992C55.6084 38.1992 55.1683 38.1187 54.7833 37.9486C54.3983 37.7786 54.0957 37.5281 53.8665 37.197C53.6465 36.8659 53.5273 36.4454 53.5273 35.9532C53.5273 35.5327 53.6099 35.1837 53.7657 34.8974C53.9216 34.611 54.1416 34.3784 54.4074 34.2084C54.6825 34.0383 54.985 33.9041 55.3334 33.8146C55.6817 33.7252 56.0484 33.6625 56.4335 33.6267C56.8827 33.582 57.2494 33.5373 57.5244 33.4925C57.7994 33.4478 58.0011 33.3941 58.1203 33.3046C58.2487 33.2241 58.3037 33.0988 58.3037 32.9377V32.9109C58.3037 32.5977 58.2028 32.3561 58.0011 32.1861C57.7994 32.0161 57.5152 31.9266 57.1485 31.9266C56.7635 31.9266 56.4518 32.0071 56.2226 32.1771C55.9934 32.3472 55.8376 32.553 55.7734 32.8035L53.784 32.6424C53.8849 32.1861 54.0774 31.7834 54.3799 31.4524C54.6733 31.1123 55.0583 30.8528 55.5259 30.6739C55.9934 30.4949 56.5343 30.3965 57.1577 30.3965C57.5886 30.3965 58.0011 30.4502 58.3953 30.5397C58.7895 30.6381 59.1379 30.7902 59.4496 30.996C59.7613 31.2018 59.9997 31.4702 60.1738 31.7924C60.348 32.1145 60.4397 32.4993 60.4397 32.9556V38.056H58.4045V37.0091H58.3403C58.212 37.2417 58.047 37.4565 57.8453 37.6265C57.6344 37.8055 57.3869 37.9486 57.0935 38.0471C56.8002 38.1455 56.461 38.1992 56.0759 38.1992M56.6902 36.7496C57.0019 36.7496 57.2861 36.687 57.5244 36.5617C57.7628 36.4364 57.9553 36.2754 58.0928 36.0606C58.2303 35.8548 58.3037 35.6132 58.3037 35.3448V34.5394C58.2395 34.5842 58.1478 34.62 58.0286 34.6558C57.9094 34.6916 57.7811 34.7184 57.6344 34.7452C57.4877 34.7721 57.3411 34.7989 57.2035 34.8168C57.0569 34.8347 56.9285 34.8616 56.8093 34.8705C56.5618 34.9063 56.3418 34.96 56.1493 35.0405C55.9568 35.1211 55.8101 35.2284 55.7092 35.3537C55.6084 35.4879 55.5534 35.649 55.5534 35.8459C55.5534 36.1322 55.6634 36.3469 55.8742 36.4991C56.0851 36.6512 56.3601 36.7228 56.6902 36.7228" fill="#345BB0"/>
<path d="M69.7017 38.1813C69.115 38.1813 68.5833 38.0381 68.1066 37.7338C67.6298 37.4386 67.254 37.0001 66.9789 36.4185C66.7039 35.8369 66.5664 35.13 66.5664 34.2888C66.5664 33.4477 66.7131 32.705 66.9973 32.1234C67.2815 31.5507 67.6665 31.1123 68.1432 30.826C68.6199 30.5396 69.1425 30.3964 69.7109 30.3964C70.1418 30.3964 70.5085 30.468 70.7927 30.6112C71.086 30.7544 71.3152 30.9333 71.4986 31.1391C71.6819 31.3539 71.8194 31.5597 71.9111 31.7655H71.9753V27.9805H74.1205V38.056H72.0028V36.848H71.9111C71.8103 37.0627 71.6728 37.2686 71.4802 37.4744C71.2969 37.6802 71.0585 37.8502 70.7743 37.9844C70.481 38.1186 70.1326 38.1813 69.7109 38.1813M70.3893 36.5169C70.7377 36.5169 71.031 36.4274 71.2694 36.2395C71.5077 36.0516 71.6911 35.7921 71.8194 35.461C71.9478 35.13 72.012 34.7363 72.012 34.2888C72.012 33.8414 71.9478 33.4477 71.8194 33.1167C71.6911 32.7856 71.5077 32.5261 71.2602 32.3471C71.0127 32.1682 70.7285 32.0787 70.3801 32.0787C70.0317 32.0787 69.7292 32.1682 69.4909 32.3561C69.2525 32.544 69.0692 32.8035 68.9408 33.1345C68.8125 33.4656 68.7575 33.8504 68.7575 34.2888C68.7575 34.7273 68.8216 35.121 68.95 35.4521C69.0783 35.7921 69.2617 36.0516 69.5 36.2395C69.7384 36.4274 70.0409 36.5259 70.3893 36.5259" fill="#345BB0"/>
<path d="M80.1068 38.208C79.3093 38.208 78.6217 38.0469 78.0533 37.7337C77.4757 37.4205 77.0357 36.9642 76.7332 36.3826C76.4215 35.801 76.2656 35.112 76.2656 34.3156C76.2656 33.5192 76.4215 32.857 76.7332 32.2665C77.0449 31.6848 77.4757 31.2195 78.0441 30.8974C78.6034 30.5663 79.2726 30.4053 80.0243 30.4053C80.5377 30.4053 81.0144 30.4858 81.4545 30.6469C81.8945 30.8079 82.2796 31.0406 82.6096 31.3627C82.9396 31.6848 83.1963 32.0786 83.3797 32.5618C83.563 33.045 83.6547 33.6087 83.6547 34.244V34.8167H77.1182V33.5192H81.6378C81.6378 33.215 81.5737 32.9465 81.4361 32.7139C81.2986 32.4812 81.1153 32.3023 80.8769 32.168C80.6386 32.0338 80.3635 31.9712 80.0518 31.9712C79.7401 31.9712 79.4376 32.0428 79.1901 32.1859C78.9426 32.3291 78.7409 32.526 78.6034 32.7676C78.4658 33.0092 78.3925 33.2865 78.3833 33.5818V34.8167C78.3833 35.1925 78.4567 35.5146 78.5942 35.7831C78.7409 36.0515 78.9426 36.2662 79.1992 36.4094C79.4559 36.5526 79.7768 36.6331 80.1343 36.6331C80.3727 36.6331 80.5927 36.5973 80.7852 36.5347C80.9869 36.4721 81.1519 36.3736 81.2986 36.2394C81.4361 36.1052 81.5461 35.9441 81.6195 35.7562L83.6089 35.8815C83.508 36.3468 83.3063 36.7494 82.9946 37.0984C82.6829 37.4474 82.2796 37.7158 81.7937 37.9037C81.3078 38.1006 80.7394 38.1901 80.1068 38.1901" fill="#345BB0"/>
<path d="M95.408 30.8791C95.3713 30.4854 95.1971 30.1722 94.8854 29.9574C94.5829 29.7427 94.1612 29.6264 93.6386 29.6264C93.2811 29.6264 92.9786 29.6711 92.7402 29.7695C92.4927 29.868 92.3093 30.0022 92.181 30.1722C92.0527 30.3422 91.9885 30.5391 91.9885 30.7538C91.9885 30.9328 92.0252 31.0938 92.1077 31.2281C92.1902 31.3623 92.3093 31.4786 92.4652 31.577C92.6119 31.6755 92.7952 31.756 92.9877 31.8276C93.1894 31.8992 93.4003 31.9618 93.6203 32.0065L94.5462 32.2213C94.9954 32.3197 95.408 32.454 95.7839 32.615C96.1597 32.7761 96.4898 32.9819 96.7648 33.2235C97.0398 33.4651 97.2507 33.7425 97.4065 34.0736C97.5624 34.3957 97.6357 34.7715 97.6449 35.1921C97.6449 35.8095 97.4799 36.3464 97.159 36.7938C96.8381 37.2412 96.3889 37.5901 95.7839 37.8407C95.188 38.0912 94.4729 38.2076 93.6295 38.2076C92.7861 38.2076 92.071 38.0823 91.4568 37.8317C90.8425 37.5812 90.3567 37.2143 90.0175 36.7222C89.6691 36.23 89.4949 35.6216 89.4766 34.8968H91.5851C91.6126 35.2368 91.7135 35.5142 91.8876 35.7379C92.0618 35.9616 92.3002 36.1316 92.6027 36.2479C92.8961 36.3643 93.2353 36.4179 93.6111 36.4179C93.987 36.4179 94.3079 36.3643 94.5737 36.2569C94.8488 36.1495 95.0596 36.0063 95.2155 35.8184C95.3622 35.6305 95.4447 35.4158 95.4447 35.1742C95.4447 34.9505 95.3805 34.7536 95.243 34.6015C95.1055 34.4494 94.9129 34.3151 94.6471 34.2078C94.3904 34.1004 94.0695 34.002 93.6936 33.9125L92.566 33.6351C91.6951 33.4293 91.0076 33.1072 90.5033 32.6687C89.9991 32.2302 89.7516 31.6397 89.7516 30.897C89.7516 30.2885 89.9166 29.7516 90.2558 29.2953C90.595 28.8389 91.0626 28.481 91.6493 28.2305C92.2452 27.971 92.9144 27.8457 93.6661 27.8457C94.4179 27.8457 95.1055 27.971 95.6739 28.2305C96.2422 28.49 96.6915 28.8389 97.0123 29.2953C97.3332 29.7516 97.4982 30.2796 97.5074 30.8791H95.4172H95.408Z" fill="#345BB0"/>
<path d="M103.302 38.208C102.505 38.208 101.817 38.0469 101.249 37.7337C100.671 37.4205 100.231 36.9642 99.9285 36.3826C99.6168 35.801 99.4609 35.112 99.4609 34.3156C99.4609 33.5192 99.6168 32.857 99.9285 32.2665C100.24 31.6848 100.671 31.2195 101.239 30.8974C101.799 30.5663 102.468 30.4053 103.22 30.4053C103.733 30.4053 104.21 30.4858 104.65 30.6469C105.09 30.8079 105.475 31.0406 105.805 31.3627C106.135 31.6848 106.392 32.0786 106.575 32.5618C106.758 33.045 106.85 33.6087 106.85 34.244V34.8167H100.314V33.5192H104.833C104.833 33.215 104.769 32.9465 104.631 32.7139C104.494 32.4812 104.311 32.3023 104.072 32.168C103.834 32.0338 103.559 31.9712 103.247 31.9712C102.935 31.9712 102.633 32.0428 102.385 32.1859C102.138 32.3291 101.936 32.526 101.799 32.7676C101.661 33.0092 101.588 33.2865 101.579 33.5818V34.8167C101.579 35.1925 101.652 35.5146 101.79 35.7831C101.936 36.0515 102.138 36.2662 102.395 36.4094C102.651 36.5526 102.972 36.6331 103.33 36.6331C103.568 36.6331 103.788 36.5973 103.981 36.5347C104.182 36.4721 104.347 36.3736 104.494 36.2394C104.631 36.1052 104.741 35.9441 104.815 35.7562L106.804 35.8815C106.703 36.3468 106.502 36.7494 106.19 37.0984C105.878 37.4474 105.475 37.7158 104.989 37.9037C104.503 38.1006 103.935 38.1901 103.302 38.1901" fill="#345BB0"/>
<path d="M112.459 40.9998C111.763 40.9998 111.167 40.9103 110.672 40.7224C110.177 40.5434 109.782 40.2929 109.489 39.9797C109.196 39.6665 109.003 39.3265 108.921 38.9417L110.91 38.6822C110.974 38.8164 111.066 38.9507 111.194 39.0759C111.323 39.2012 111.497 39.2996 111.717 39.3802C111.937 39.4607 112.193 39.4965 112.514 39.4965C112.982 39.4965 113.367 39.3891 113.669 39.1744C113.972 38.9596 114.128 38.6017 114.128 38.1096V36.7226H114.036C113.944 36.9374 113.798 37.1342 113.614 37.3221C113.422 37.51 113.184 37.6621 112.89 37.7785C112.597 37.8948 112.239 37.9574 111.836 37.9574C111.258 37.9574 110.727 37.8232 110.25 37.5637C109.773 37.2953 109.397 36.8926 109.113 36.3468C108.829 35.801 108.691 35.112 108.691 34.2708C108.691 33.4297 108.838 32.696 109.122 32.1233C109.406 31.5506 109.792 31.1211 110.268 30.8348C110.745 30.5484 111.267 30.4053 111.836 30.4053C112.267 30.4053 112.633 30.4769 112.927 30.62C113.22 30.7632 113.459 30.9422 113.633 31.148C113.816 31.3627 113.954 31.5685 114.045 31.7654H114.128V30.4948H116.264V38.1274C116.264 38.7538 116.099 39.2817 115.778 39.7113C115.457 40.1318 115.008 40.4539 114.439 40.6687C113.871 40.8835 113.211 40.9908 112.478 40.9908M112.523 36.3647C112.872 36.3647 113.165 36.2841 113.404 36.1141C113.642 35.9441 113.825 35.7025 113.954 35.3893C114.082 35.0762 114.146 34.6914 114.146 34.2529C114.146 33.8145 114.082 33.4297 113.954 33.0986C113.825 32.7765 113.642 32.517 113.404 32.3381C113.165 32.1591 112.872 32.0696 112.523 32.0696C112.175 32.0696 111.873 32.1591 111.634 32.347C111.396 32.5349 111.212 32.7855 111.084 33.1165C110.956 33.4476 110.901 33.8234 110.901 34.2529C110.901 34.6824 110.965 35.0672 111.093 35.3804C111.222 35.6936 111.405 35.9441 111.643 36.1141C111.882 36.2841 112.184 36.3736 112.533 36.3736" fill="#345BB0"/>
<path d="M123.625 34.8437V30.5039H125.77V38.065H123.708V36.696H123.625C123.451 37.1344 123.158 37.4923 122.754 37.7608C122.351 38.0292 121.856 38.1634 121.278 38.1634C120.765 38.1634 120.306 38.0471 119.912 37.8234C119.518 37.5908 119.215 37.2686 118.995 36.8481C118.775 36.4275 118.665 35.9175 118.656 35.3269V30.5129H120.801V34.9511C120.801 35.3985 120.93 35.7475 121.168 36.007C121.407 36.2665 121.737 36.3917 122.14 36.3917C122.397 36.3917 122.644 36.3291 122.864 36.2217C123.093 36.1054 123.268 35.9354 123.414 35.7027C123.552 35.4701 123.625 35.1927 123.616 34.8527" fill="#345BB0"/>
<path d="M128.199 38.0562V30.4951H130.28V31.8104H130.363C130.5 31.3451 130.739 30.9872 131.069 30.7456C131.399 30.504 131.784 30.3877 132.215 30.3877C132.325 30.3877 132.435 30.3877 132.563 30.4056C132.691 30.4145 132.801 30.4324 132.893 30.4593V32.3205C132.792 32.2936 132.655 32.2668 132.471 32.2399C132.297 32.2131 132.132 32.2042 131.985 32.2042C131.674 32.2042 131.39 32.2668 131.142 32.401C130.894 32.5352 130.702 32.7142 130.555 32.9558C130.409 33.1884 130.344 33.4658 130.344 33.7701V38.0472H128.199V38.0562Z" fill="#345BB0"/>
<path d="M137.845 38.2081C137.066 38.2081 136.387 38.0471 135.819 37.716C135.251 37.3939 134.811 36.9375 134.499 36.3469C134.187 35.7653 134.031 35.0853 134.031 34.3068C134.031 33.5283 134.187 32.8393 134.499 32.2577C134.811 31.6761 135.251 31.2197 135.819 30.8886C136.387 30.5665 137.066 30.3965 137.845 30.3965C138.624 30.3965 139.303 30.5575 139.871 30.8886C140.439 31.2197 140.879 31.6761 141.191 32.2577C141.503 32.8393 141.659 33.5283 141.659 34.3068C141.659 35.0853 141.503 35.7564 141.191 36.3469C140.879 36.9286 140.439 37.3939 139.871 37.716C139.303 38.0381 138.624 38.2081 137.845 38.2081ZM137.854 36.5885C138.212 36.5885 138.505 36.4901 138.743 36.2933C138.982 36.0964 139.165 35.828 139.284 35.479C139.403 35.13 139.468 34.7452 139.468 34.3068C139.468 33.8683 139.403 33.4746 139.284 33.1346C139.165 32.7946 138.982 32.5172 138.743 32.3203C138.505 32.1235 138.212 32.0161 137.854 32.0161C137.497 32.0161 137.194 32.1145 136.947 32.3203C136.699 32.5172 136.516 32.7946 136.396 33.1346C136.277 33.4836 136.213 33.8683 136.213 34.3068C136.213 34.7452 136.277 35.139 136.396 35.479C136.516 35.819 136.699 36.0964 136.947 36.2933C137.194 36.4901 137.487 36.5885 137.854 36.5885Z" fill="#345BB0"/>
<path d="M150.212 32.6602L148.25 32.7765C148.214 32.6154 148.14 32.4633 148.03 32.3291C147.92 32.1949 147.774 32.0875 147.59 32.007C147.407 31.9264 147.196 31.8907 146.949 31.8907C146.619 31.8907 146.334 31.9622 146.105 32.0965C145.876 32.2307 145.766 32.4096 145.766 32.6423C145.766 32.8212 145.839 32.9734 145.986 33.0986C146.133 33.2239 146.389 33.3223 146.747 33.4029L148.15 33.6803C148.901 33.8324 149.461 34.074 149.836 34.4051C150.203 34.7361 150.396 35.1746 150.396 35.7204C150.396 36.2126 150.249 36.651 149.946 37.0268C149.653 37.4027 149.241 37.689 148.727 37.9037C148.214 38.1096 147.618 38.2169 146.949 38.2169C145.922 38.2169 145.106 38.0111 144.501 37.5906C143.896 37.17 143.538 36.6063 143.438 35.8815L145.546 35.7741C145.61 36.0783 145.766 36.311 146.014 36.4721C146.261 36.6331 146.573 36.7137 146.958 36.7137C147.343 36.7137 147.636 36.6421 147.865 36.4989C148.095 36.3557 148.214 36.1768 148.214 35.9441C148.214 35.7562 148.131 35.5951 147.966 35.4699C147.801 35.3446 147.554 35.2551 147.224 35.1835L145.885 34.924C145.134 34.7719 144.565 34.5214 144.198 34.1545C143.832 33.7876 143.648 33.3223 143.648 32.7586C143.648 32.2754 143.786 31.8549 144.052 31.5059C144.327 31.1569 144.703 30.8885 145.198 30.6916C145.693 30.5037 146.27 30.4053 146.93 30.4053C147.911 30.4053 148.681 30.6111 149.241 31.0137C149.8 31.4164 150.13 31.9622 150.222 32.6602" fill="#345BB0"/>
</svg>
